<svg width="238" height="34" viewBox="0 0 238 34" fill="none" xmlns="http://www.w3.org/2000/svg">
<path d="M33.1909 13H30.6675L30.6841 11.6968H33.1909C34.0542 11.6968 34.7736 11.5169 35.3491 11.1572C35.9246 10.792 36.3563 10.2829 36.644 9.62988C36.9373 8.97135 37.084 8.20215 37.084 7.32227V6.5835C37.084 5.89176 37.001 5.27751 36.835 4.74072C36.6689 4.1984 36.4255 3.74186 36.1045 3.37109C35.7835 2.99479 35.3906 2.7098 34.9258 2.51611C34.4665 2.32243 33.938 2.22559 33.3403 2.22559H30.6177V0.914062H33.3403C34.1317 0.914062 34.8538 1.04688 35.5068 1.3125C36.1598 1.57259 36.7215 1.95166 37.1919 2.44971C37.6678 2.94222 38.033 3.53988 38.2876 4.24268C38.5422 4.93994 38.6694 5.72575 38.6694 6.6001V7.32227C38.6694 8.19661 38.5422 8.98519 38.2876 9.68799C38.033 10.3853 37.665 10.9801 37.1836 11.4727C36.7077 11.9652 36.1322 12.3442 35.457 12.6099C34.7874 12.87 34.0321 13 33.1909 13ZM31.5225 0.914062V13H29.9204V0.914062H31.5225ZM44.5713 13.166C43.946 13.166 43.3787 13.0609 42.8696 12.8506C42.366 12.6348 41.9316 12.3332 41.5664 11.9458C41.2067 11.5584 40.93 11.0991 40.7363 10.5679C40.5426 10.0366 40.4458 9.45557 40.4458 8.82471V8.47607C40.4458 7.74561 40.5537 7.09538 40.7695 6.52539C40.9854 5.94987 41.2786 5.46289 41.6494 5.06445C42.0202 4.66602 42.4408 4.36442 42.9111 4.15967C43.3815 3.95492 43.8685 3.85254 44.3721 3.85254C45.014 3.85254 45.5674 3.96322 46.0322 4.18457C46.5026 4.40592 46.8872 4.71582 47.186 5.11426C47.4849 5.50716 47.7062 5.97201 47.8501 6.50879C47.994 7.04004 48.0659 7.62109 48.0659 8.25195V8.94092H41.3589V7.6875H46.5303V7.57129C46.5081 7.17285 46.4251 6.78548 46.2812 6.40918C46.1429 6.03288 45.9215 5.72298 45.6172 5.47949C45.3128 5.236 44.8978 5.11426 44.3721 5.11426C44.0234 5.11426 43.7025 5.18896 43.4092 5.33838C43.1159 5.48226 42.8641 5.69808 42.6538 5.98584C42.4435 6.2736 42.2803 6.625 42.1641 7.04004C42.0479 7.45508 41.9897 7.93376 41.9897 8.47607V8.82471C41.9897 9.25081 42.0479 9.65202 42.1641 10.0283C42.2858 10.3991 42.4601 10.7256 42.687 11.0078C42.9194 11.29 43.1989 11.5114 43.5254 11.6719C43.8574 11.8324 44.2337 11.9126 44.6543 11.9126C45.1966 11.9126 45.6559 11.8019 46.0322 11.5806C46.4085 11.3592 46.7378 11.0632 47.02 10.6924L47.9497 11.4312C47.756 11.7244 47.5098 12.0039 47.2109 12.2695C46.9121 12.5352 46.5441 12.751 46.1069 12.917C45.6753 13.083 45.1634 13.166 44.5713 13.166ZM55.0884 10.6177C55.0884 10.3963 55.0386 10.1916 54.939 10.0034C54.8449 9.80973 54.6484 9.63542 54.3496 9.48047C54.0563 9.31999 53.6136 9.18164 53.0215 9.06543C52.5234 8.96029 52.0724 8.83577 51.6685 8.69189C51.27 8.54801 50.9297 8.3737 50.6475 8.16895C50.3708 7.96419 50.1577 7.72347 50.0083 7.44678C49.8589 7.17008 49.7842 6.84635 49.7842 6.47559C49.7842 6.12142 49.8617 5.78662 50.0166 5.47119C50.1771 5.15576 50.4012 4.8763 50.689 4.63281C50.9823 4.38932 51.3337 4.1984 51.7432 4.06006C52.1527 3.92171 52.6092 3.85254 53.1128 3.85254C53.8322 3.85254 54.4465 3.97982 54.9556 4.23438C55.4647 4.48893 55.8548 4.82926 56.126 5.25537C56.3971 5.67594 56.5327 6.14355 56.5327 6.6582H54.9971C54.9971 6.40918 54.9224 6.16846 54.7729 5.93604C54.6291 5.69808 54.416 5.50163 54.1338 5.34668C53.8571 5.19173 53.5168 5.11426 53.1128 5.11426C52.6867 5.11426 52.3408 5.18066 52.0752 5.31348C51.8151 5.44076 51.6242 5.604 51.5024 5.80322C51.3862 6.00244 51.3281 6.21273 51.3281 6.43408C51.3281 6.6001 51.3558 6.74951 51.4111 6.88232C51.472 7.0096 51.5771 7.12858 51.7266 7.23926C51.876 7.3444 52.0863 7.44401 52.3574 7.53809C52.6286 7.63216 52.9744 7.72624 53.395 7.82031C54.131 7.98633 54.737 8.18555 55.2129 8.41797C55.6888 8.65039 56.043 8.93538 56.2754 9.27295C56.5078 9.61051 56.624 10.02 56.624 10.5015C56.624 10.8944 56.541 11.2541 56.375 11.5806C56.2145 11.9071 55.9793 12.1893 55.6694 12.4272C55.3651 12.6597 54.9998 12.8423 54.5737 12.9751C54.1532 13.1024 53.68 13.166 53.1543 13.166C52.363 13.166 51.6934 13.0249 51.1455 12.7427C50.5977 12.4604 50.1826 12.0952 49.9004 11.647C49.6182 11.1987 49.4771 10.7256 49.4771 10.2275H51.021C51.0431 10.6481 51.1649 10.9829 51.3862 11.2319C51.6076 11.4754 51.8787 11.6497 52.1997 11.7549C52.5207 11.8545 52.8389 11.9043 53.1543 11.9043C53.5749 11.9043 53.9263 11.849 54.2085 11.7383C54.4963 11.6276 54.7148 11.4754 54.8643 11.2817C55.0137 11.0881 55.0884 10.8667 55.0884 10.6177ZM60.3096 4.01855V13H58.7656V4.01855H60.3096ZM58.6494 1.63623C58.6494 1.38721 58.7241 1.17692 58.8735 1.00537C59.0285 0.833822 59.2554 0.748047 59.5542 0.748047C59.8475 0.748047 60.0716 0.833822 60.2266 1.00537C60.387 1.17692 60.4673 1.38721 60.4673 1.63623C60.4673 1.87419 60.387 2.07894 60.2266 2.25049C60.0716 2.4165 59.8475 2.49951 59.5542 2.49951C59.2554 2.49951 59.0285 2.4165 58.8735 2.25049C58.7241 2.07894 58.6494 1.87419 58.6494 1.63623ZM68.5938 4.01855H69.9883V12.8091C69.9883 13.6004 69.8278 14.2756 69.5068 14.8345C69.1859 15.3934 68.7376 15.8167 68.1621 16.1045C67.5921 16.3978 66.9336 16.5444 66.1865 16.5444C65.8766 16.5444 65.5114 16.4946 65.0908 16.395C64.6758 16.3009 64.2663 16.1377 63.8623 15.9053C63.4639 15.6784 63.1291 15.3713 62.8579 14.9839L63.6631 14.0708C64.0394 14.5246 64.4323 14.84 64.8418 15.0171C65.2568 15.1942 65.6663 15.2827 66.0703 15.2827C66.5573 15.2827 66.9779 15.1914 67.332 15.0088C67.6862 14.8262 67.9601 14.555 68.1538 14.1953C68.353 13.8411 68.4526 13.404 68.4526 12.8838V5.99414L68.5938 4.01855ZM62.4097 8.60889V8.43457C62.4097 7.74837 62.4899 7.12581 62.6504 6.56689C62.8164 6.00244 63.0516 5.51823 63.356 5.11426C63.6659 4.71029 64.0394 4.40039 64.4766 4.18457C64.9137 3.96322 65.4062 3.85254 65.9541 3.85254C66.5186 3.85254 67.0111 3.95215 67.4316 4.15137C67.8577 4.34505 68.2174 4.63005 68.5107 5.00635C68.8096 5.37712 69.0448 5.82536 69.2163 6.35107C69.3879 6.87679 69.5068 7.47168 69.5732 8.13574V8.89941C69.5124 9.55794 69.3934 10.1501 69.2163 10.6758C69.0448 11.2015 68.8096 11.6497 68.5107 12.0205C68.2174 12.3913 67.8577 12.6763 67.4316 12.8755C67.0055 13.0692 66.5075 13.166 65.9375 13.166C65.4007 13.166 64.9137 13.0526 64.4766 12.8257C64.0449 12.5988 63.6742 12.2806 63.3643 11.8711C63.0544 11.4616 62.8164 10.9801 62.6504 10.4268C62.4899 9.86784 62.4097 9.26188 62.4097 8.60889ZM63.9453 8.43457V8.60889C63.9453 9.05713 63.9896 9.4777 64.0781 9.87061C64.1722 10.2635 64.3133 10.6094 64.5015 10.9082C64.6951 11.207 64.9414 11.4422 65.2402 11.6138C65.5391 11.7798 65.896 11.8628 66.311 11.8628C66.8201 11.8628 67.2407 11.7549 67.5728 11.5391C67.9048 11.3232 68.1676 11.0382 68.3613 10.6841C68.5605 10.3299 68.7155 9.94531 68.8262 9.53027V7.52979C68.7653 7.22542 68.6712 6.93213 68.5439 6.6499C68.4222 6.36214 68.2617 6.10758 68.0625 5.88623C67.8688 5.65934 67.6281 5.47949 67.3403 5.34668C67.0526 5.21387 66.715 5.14746 66.3276 5.14746C65.9071 5.14746 65.5446 5.236 65.2402 5.41309C64.9414 5.58464 64.6951 5.82259 64.5015 6.12695C64.3133 6.42578 64.1722 6.77441 64.0781 7.17285C63.9896 7.56576 63.9453 7.98633 63.9453 8.43457ZM73.8564 5.93604V13H72.3208V4.01855H73.7734L73.8564 5.93604ZM73.4912 8.16895L72.8521 8.14404C72.8576 7.52979 72.9489 6.96257 73.126 6.44238C73.3031 5.91667 73.5521 5.46012 73.873 5.07275C74.194 4.68538 74.5758 4.38656 75.0186 4.17627C75.4668 3.96045 75.9621 3.85254 76.5044 3.85254C76.9471 3.85254 77.3455 3.91341 77.6997 4.03516C78.0539 4.15137 78.3555 4.33952 78.6045 4.59961C78.859 4.8597 79.0527 5.19727 79.1855 5.6123C79.3184 6.02181 79.3848 6.52262 79.3848 7.11475V13H77.8408V7.09814C77.8408 6.62777 77.7716 6.25146 77.6333 5.96924C77.495 5.68148 77.293 5.47396 77.0273 5.34668C76.7617 5.21387 76.4352 5.14746 76.0479 5.14746C75.666 5.14746 75.3174 5.2277 75.002 5.38818C74.6921 5.54867 74.4237 5.77002 74.1968 6.05225C73.9754 6.33447 73.8011 6.6582 73.6738 7.02344C73.5521 7.38314 73.4912 7.76497 73.4912 8.16895ZM85.4443 13.166C84.819 13.166 84.2518 13.0609 83.7427 12.8506C83.2391 12.6348 82.8047 12.3332 82.4395 11.9458C82.0798 11.5584 81.8031 11.0991 81.6094 10.5679C81.4157 10.0366 81.3188 9.45557 81.3188 8.82471V8.47607C81.3188 7.74561 81.4268 7.09538 81.6426 6.52539C81.8584 5.94987 82.1517 5.46289 82.5225 5.06445C82.8932 4.66602 83.3138 4.36442 83.7842 4.15967C84.2546 3.95492 84.7415 3.85254 85.2451 3.85254C85.887 3.85254 86.4404 3.96322 86.9053 4.18457C87.3757 4.40592 87.7603 4.71582 88.0591 5.11426C88.3579 5.50716 88.5793 5.97201 88.7231 6.50879C88.867 7.04004 88.939 7.62109 88.939 8.25195V8.94092H82.2319V7.6875H87.4033V7.57129C87.3812 7.17285 87.2982 6.78548 87.1543 6.40918C87.016 6.03288 86.7946 5.72298 86.4902 5.47949C86.1859 5.236 85.7708 5.11426 85.2451 5.11426C84.8965 5.11426 84.5755 5.18896 84.2822 5.33838C83.9889 5.48226 83.7371 5.69808 83.5269 5.98584C83.3166 6.2736 83.1533 6.625 83.0371 7.04004C82.9209 7.45508 82.8628 7.93376 82.8628 8.47607V8.82471C82.8628 9.25081 82.9209 9.65202 83.0371 10.0283C83.1589 10.3991 83.3332 10.7256 83.5601 11.0078C83.7925 11.29 84.0719 11.5114 84.3984 11.6719C84.7305 11.8324 85.1068 11.9126 85.5273 11.9126C86.0697 11.9126 86.529 11.8019 86.9053 11.5806C87.2816 11.3592 87.6108 11.0632 87.8931 10.6924L88.8228 11.4312C88.6291 11.7244 88.3828 12.0039 88.084 12.2695C87.7852 12.5352 87.4172 12.751 86.98 12.917C86.5483 13.083 86.0365 13.166 85.4443 13.166ZM96.3931 11.2568V0.25H97.937V13H96.5259L96.3931 11.2568ZM90.3501 8.60889V8.43457C90.3501 7.74837 90.4331 7.12581 90.5991 6.56689C90.7707 6.00244 91.0114 5.51823 91.3213 5.11426C91.6367 4.71029 92.0103 4.40039 92.4419 4.18457C92.8791 3.96322 93.366 3.85254 93.9028 3.85254C94.4673 3.85254 94.9598 3.95215 95.3804 4.15137C95.8065 4.34505 96.1662 4.63005 96.4595 5.00635C96.7583 5.37712 96.9935 5.82536 97.165 6.35107C97.3366 6.87679 97.4556 7.47168 97.522 8.13574V8.89941C97.4611 9.55794 97.3421 10.1501 97.165 10.6758C96.9935 11.2015 96.7583 11.6497 96.4595 12.0205C96.1662 12.3913 95.8065 12.6763 95.3804 12.8755C94.9543 13.0692 94.4562 13.166 93.8862 13.166C93.3605 13.166 92.8791 13.0526 92.4419 12.8257C92.0103 12.5988 91.6367 12.2806 91.3213 11.8711C91.0114 11.4616 90.7707 10.9801 90.5991 10.4268C90.4331 9.86784 90.3501 9.26188 90.3501 8.60889ZM91.894 8.43457V8.60889C91.894 9.05713 91.9383 9.4777 92.0269 9.87061C92.1209 10.2635 92.2648 10.6094 92.4585 10.9082C92.6522 11.207 92.8984 11.4422 93.1973 11.6138C93.4961 11.7798 93.853 11.8628 94.2681 11.8628C94.7772 11.8628 95.195 11.7549 95.5215 11.5391C95.8535 11.3232 96.1191 11.0382 96.3184 10.6841C96.5176 10.3299 96.6725 9.94531 96.7832 9.53027V7.52979C96.7168 7.22542 96.62 6.93213 96.4927 6.6499C96.3709 6.36214 96.2104 6.10758 96.0112 5.88623C95.8175 5.65934 95.5768 5.47949 95.2891 5.34668C95.0068 5.21387 94.672 5.14746 94.2847 5.14746C93.8641 5.14746 93.5016 5.236 93.1973 5.41309C92.8984 5.58464 92.6522 5.82259 92.4585 6.12695C92.2648 6.42578 92.1209 6.77441 92.0269 7.17285C91.9383 7.56576 91.894 7.98633 91.894 8.43457ZM104.536 0.25H106.08V11.2568L105.947 13H104.536V0.25ZM112.148 8.43457V8.60889C112.148 9.26188 112.07 9.86784 111.916 10.4268C111.761 10.9801 111.534 11.4616 111.235 11.8711C110.936 12.2806 110.571 12.5988 110.139 12.8257C109.708 13.0526 109.212 13.166 108.653 13.166C108.083 13.166 107.583 13.0692 107.151 12.8755C106.725 12.6763 106.365 12.3913 106.072 12.0205C105.778 11.6497 105.543 11.2015 105.366 10.6758C105.195 10.1501 105.076 9.55794 105.009 8.89941V8.13574C105.076 7.47168 105.195 6.87679 105.366 6.35107C105.543 5.82536 105.778 5.37712 106.072 5.00635C106.365 4.63005 106.725 4.34505 107.151 4.15137C107.577 3.95215 108.072 3.85254 108.637 3.85254C109.201 3.85254 109.702 3.96322 110.139 4.18457C110.576 4.40039 110.942 4.71029 111.235 5.11426C111.534 5.51823 111.761 6.00244 111.916 6.56689C112.07 7.12581 112.148 7.74837 112.148 8.43457ZM110.604 8.60889V8.43457C110.604 7.98633 110.562 7.56576 110.479 7.17285C110.396 6.77441 110.264 6.42578 110.081 6.12695C109.898 5.82259 109.658 5.58464 109.359 5.41309C109.06 5.236 108.692 5.14746 108.255 5.14746C107.868 5.14746 107.53 5.21387 107.242 5.34668C106.96 5.47949 106.719 5.65934 106.52 5.88623C106.321 6.10758 106.158 6.36214 106.03 6.6499C105.909 6.93213 105.817 7.22542 105.756 7.52979V9.53027C105.845 9.91764 105.989 10.2912 106.188 10.6509C106.393 11.005 106.664 11.2956 107.001 11.5225C107.345 11.7493 107.768 11.8628 108.271 11.8628C108.687 11.8628 109.041 11.7798 109.334 11.6138C109.633 11.4422 109.874 11.207 110.056 10.9082C110.244 10.6094 110.383 10.2635 110.471 9.87061C110.56 9.4777 110.604 9.05713 110.604 8.60889ZM116.514 12.0703L119.013 4.01855H120.656L117.054 14.3862C116.971 14.6076 116.86 14.8455 116.722 15.1001C116.589 15.3602 116.417 15.6064 116.207 15.8389C115.997 16.0713 115.742 16.2594 115.443 16.4033C115.15 16.5527 114.799 16.6274 114.389 16.6274C114.267 16.6274 114.112 16.6108 113.924 16.5776C113.736 16.5444 113.603 16.5168 113.526 16.4946L113.518 15.2495C113.562 15.255 113.631 15.2606 113.725 15.2661C113.825 15.2772 113.894 15.2827 113.933 15.2827C114.281 15.2827 114.577 15.2357 114.821 15.1416C115.064 15.0531 115.269 14.9009 115.435 14.6851C115.607 14.4748 115.753 14.1842 115.875 13.8135L116.514 12.0703ZM114.68 4.01855L117.012 10.9912L117.411 12.6099L116.307 13.1743L113.003 4.01855H114.68ZM133.821 11.6968V13H127.778V11.6968H133.821ZM128.094 0.914062V13H126.492V0.914062H128.094ZM137.092 4.01855V13H135.548V4.01855H137.092ZM135.432 1.63623C135.432 1.38721 135.506 1.17692 135.656 1.00537C135.811 0.833822 136.038 0.748047 136.336 0.748047C136.63 0.748047 136.854 0.833822 137.009 1.00537C137.169 1.17692 137.25 1.38721 137.25 1.63623C137.25 1.87419 137.169 2.07894 137.009 2.25049C136.854 2.4165 136.63 2.49951 136.336 2.49951C136.038 2.49951 135.811 2.4165 135.656 2.25049C135.506 2.07894 135.432 1.87419 135.432 1.63623ZM144.853 11.4644V6.84082C144.853 6.48665 144.781 6.17952 144.637 5.91943C144.499 5.65381 144.289 5.44906 144.006 5.30518C143.724 5.1613 143.375 5.08936 142.96 5.08936C142.573 5.08936 142.233 5.15576 141.939 5.28857C141.652 5.42139 141.425 5.5957 141.259 5.81152C141.098 6.02734 141.018 6.25977 141.018 6.50879H139.482C139.482 6.18783 139.565 5.86963 139.731 5.5542C139.897 5.23877 140.135 4.95378 140.445 4.69922C140.761 4.43913 141.137 4.23438 141.574 4.08496C142.017 3.93001 142.509 3.85254 143.052 3.85254C143.705 3.85254 144.28 3.96322 144.778 4.18457C145.282 4.40592 145.675 4.74072 145.957 5.18896C146.245 5.63167 146.389 6.18783 146.389 6.85742V11.041C146.389 11.3398 146.414 11.658 146.463 11.9956C146.519 12.3332 146.599 12.6237 146.704 12.8672V13H145.102C145.025 12.8229 144.964 12.5877 144.919 12.2944C144.875 11.9956 144.853 11.7189 144.853 11.4644ZM145.119 7.55469L145.135 8.63379H143.583C143.146 8.63379 142.756 8.66976 142.413 8.7417C142.069 8.80811 141.782 8.91048 141.549 9.04883C141.317 9.18717 141.14 9.36149 141.018 9.57178C140.896 9.77653 140.835 10.0173 140.835 10.2939C140.835 10.5762 140.899 10.8335 141.026 11.0659C141.154 11.2983 141.345 11.4837 141.599 11.6221C141.859 11.7549 142.177 11.8213 142.554 11.8213C143.024 11.8213 143.439 11.7217 143.799 11.5225C144.159 11.3232 144.444 11.0798 144.654 10.792C144.87 10.5042 144.986 10.2248 145.002 9.95361L145.658 10.6924C145.619 10.9248 145.514 11.1821 145.343 11.4644C145.171 11.7466 144.942 12.0177 144.654 12.2778C144.372 12.5324 144.034 12.7454 143.641 12.917C143.254 13.083 142.817 13.166 142.33 13.166C141.721 13.166 141.187 13.047 140.728 12.8091C140.274 12.5711 139.92 12.2529 139.665 11.8545C139.416 11.4505 139.292 10.9995 139.292 10.5015C139.292 10.02 139.386 9.59668 139.574 9.23145C139.762 8.86068 140.033 8.55355 140.387 8.31006C140.741 8.06104 141.167 7.87288 141.666 7.74561C142.164 7.61833 142.72 7.55469 143.334 7.55469H145.119ZM150.34 5.93604V13H148.804V4.01855H150.257L150.34 5.93604ZM149.975 8.16895L149.335 8.14404C149.341 7.52979 149.432 6.96257 149.609 6.44238C149.786 5.91667 150.035 5.46012 150.356 5.07275C150.677 4.68538 151.059 4.38656 151.502 4.17627C151.95 3.96045 152.445 3.85254 152.988 3.85254C153.431 3.85254 153.829 3.91341 154.183 4.03516C154.537 4.15137 154.839 4.33952 155.088 4.59961C155.342 4.8597 155.536 5.19727 155.669 5.6123C155.802 6.02181 155.868 6.52262 155.868 7.11475V13H154.324V7.09814C154.324 6.62777 154.255 6.25146 154.117 5.96924C153.978 5.68148 153.776 5.47396 153.511 5.34668C153.245 5.21387 152.919 5.14746 152.531 5.14746C152.149 5.14746 151.801 5.2277 151.485 5.38818C151.175 5.54867 150.907 5.77002 150.68 6.05225C150.459 6.33447 150.285 6.6582 150.157 7.02344C150.035 7.38314 149.975 7.76497 149.975 8.16895ZM163.497 11.4644V6.84082C163.497 6.48665 163.425 6.17952 163.281 5.91943C163.142 5.65381 162.932 5.44906 162.65 5.30518C162.368 5.1613 162.019 5.08936 161.604 5.08936C161.217 5.08936 160.876 5.15576 160.583 5.28857C160.295 5.42139 160.068 5.5957 159.902 5.81152C159.742 6.02734 159.662 6.25977 159.662 6.50879H158.126C158.126 6.18783 158.209 5.86963 158.375 5.5542C158.541 5.23877 158.779 4.95378 159.089 4.69922C159.404 4.43913 159.781 4.23438 160.218 4.08496C160.66 3.93001 161.153 3.85254 161.695 3.85254C162.348 3.85254 162.924 3.96322 163.422 4.18457C163.925 4.40592 164.318 4.74072 164.601 5.18896C164.888 5.63167 165.032 6.18783 165.032 6.85742V11.041C165.032 11.3398 165.057 11.658 165.107 11.9956C165.162 12.3332 165.243 12.6237 165.348 12.8672V13H163.746C163.668 12.8229 163.607 12.5877 163.563 12.2944C163.519 11.9956 163.497 11.7189 163.497 11.4644ZM163.762 7.55469L163.779 8.63379H162.227C161.789 8.63379 161.399 8.66976 161.056 8.7417C160.713 8.80811 160.425 8.91048 160.193 9.04883C159.96 9.18717 159.783 9.36149 159.662 9.57178C159.54 9.77653 159.479 10.0173 159.479 10.2939C159.479 10.5762 159.543 10.8335 159.67 11.0659C159.797 11.2983 159.988 11.4837 160.243 11.6221C160.503 11.7549 160.821 11.8213 161.197 11.8213C161.668 11.8213 162.083 11.7217 162.442 11.5225C162.802 11.3232 163.087 11.0798 163.297 10.792C163.513 10.5042 163.629 10.2248 163.646 9.95361L164.302 10.6924C164.263 10.9248 164.158 11.1821 163.986 11.4644C163.815 11.7466 163.585 12.0177 163.297 12.2778C163.015 12.5324 162.678 12.7454 162.285 12.917C161.897 13.083 161.46 13.166 160.973 13.166C160.364 13.166 159.83 13.047 159.371 12.8091C158.917 12.5711 158.563 12.2529 158.309 11.8545C158.06 11.4505 157.935 10.9995 157.935 10.5015C157.935 10.02 158.029 9.59668 158.217 9.23145C158.405 8.86068 158.677 8.55355 159.031 8.31006C159.385 8.06104 159.811 7.87288 160.309 7.74561C160.807 7.61833 161.363 7.55469 161.978 7.55469H163.762ZM178.338 9.94531C178.338 9.66309 178.294 9.41406 178.206 9.19824C178.123 8.97689 177.973 8.77767 177.757 8.60059C177.547 8.4235 177.254 8.25472 176.877 8.09424C176.507 7.93376 176.036 7.77051 175.466 7.60449C174.869 7.42741 174.329 7.23096 173.848 7.01514C173.366 6.79378 172.954 6.54199 172.611 6.25977C172.268 5.97754 172.005 5.65381 171.822 5.28857C171.64 4.92334 171.548 4.50553 171.548 4.03516C171.548 3.56478 171.645 3.13037 171.839 2.73193C172.033 2.3335 172.309 1.98763 172.669 1.69434C173.034 1.39551 173.469 1.16309 173.972 0.99707C174.476 0.831055 175.037 0.748047 175.657 0.748047C176.565 0.748047 177.334 0.922363 177.965 1.271C178.601 1.6141 179.085 2.0651 179.417 2.62402C179.75 3.17741 179.916 3.76953 179.916 4.40039H178.322C178.322 3.94661 178.225 3.54541 178.031 3.19678C177.838 2.84261 177.544 2.56592 177.151 2.3667C176.758 2.16195 176.26 2.05957 175.657 2.05957C175.087 2.05957 174.617 2.14535 174.246 2.31689C173.875 2.48844 173.599 2.72087 173.416 3.01416C173.239 3.30745 173.15 3.64225 173.15 4.01855C173.15 4.27311 173.203 4.50553 173.308 4.71582C173.419 4.92057 173.588 5.11149 173.814 5.28857C174.047 5.46566 174.34 5.62891 174.694 5.77832C175.054 5.92773 175.483 6.07161 175.981 6.20996C176.667 6.40365 177.259 6.61947 177.757 6.85742C178.255 7.09538 178.665 7.36377 178.986 7.6626C179.312 7.95589 179.553 8.29069 179.708 8.66699C179.868 9.03776 179.949 9.45833 179.949 9.92871C179.949 10.4212 179.849 10.8667 179.65 11.2651C179.451 11.6636 179.166 12.0039 178.795 12.2861C178.424 12.5684 177.979 12.7869 177.458 12.9419C176.944 13.0913 176.368 13.166 175.732 13.166C175.173 13.166 174.622 13.0885 174.08 12.9336C173.543 12.7786 173.054 12.5462 172.611 12.2363C172.174 11.9264 171.822 11.5446 171.557 11.0908C171.297 10.6315 171.167 10.1003 171.167 9.49707H172.76C172.76 9.91211 172.84 10.269 173.001 10.5679C173.161 10.8612 173.38 11.1047 173.657 11.2983C173.939 11.492 174.257 11.6359 174.611 11.73C174.971 11.8185 175.345 11.8628 175.732 11.8628C176.291 11.8628 176.764 11.7853 177.151 11.6304C177.539 11.4754 177.832 11.2541 178.031 10.9663C178.236 10.6785 178.338 10.3382 178.338 9.94531ZM183.294 0.25V13H181.758V0.25H183.294ZM182.929 8.16895L182.29 8.14404C182.295 7.52979 182.386 6.96257 182.563 6.44238C182.741 5.91667 182.99 5.46012 183.311 5.07275C183.632 4.68538 184.013 4.38656 184.456 4.17627C184.904 3.96045 185.4 3.85254 185.942 3.85254C186.385 3.85254 186.783 3.91341 187.137 4.03516C187.491 4.15137 187.793 4.33952 188.042 4.59961C188.297 4.8597 188.49 5.19727 188.623 5.6123C188.756 6.02181 188.822 6.52262 188.822 7.11475V13H187.278V7.09814C187.278 6.62777 187.209 6.25146 187.071 5.96924C186.932 5.68148 186.73 5.47396 186.465 5.34668C186.199 5.21387 185.873 5.14746 185.485 5.14746C185.104 5.14746 184.755 5.2277 184.439 5.38818C184.13 5.54867 183.861 5.77002 183.634 6.05225C183.413 6.33447 183.239 6.6582 183.111 7.02344C182.99 7.38314 182.929 7.76497 182.929 8.16895ZM196.617 10.9248V4.01855H198.161V13H196.691L196.617 10.9248ZM196.907 9.03223L197.546 9.01562C197.546 9.61328 197.483 10.1667 197.355 10.6758C197.234 11.1794 197.035 11.6165 196.758 11.9873C196.481 12.3581 196.119 12.6486 195.67 12.8589C195.222 13.0636 194.677 13.166 194.035 13.166C193.598 13.166 193.197 13.1024 192.832 12.9751C192.472 12.8478 192.162 12.6514 191.902 12.3857C191.642 12.1201 191.44 11.7743 191.296 11.3481C191.158 10.922 191.088 10.4102 191.088 9.8125V4.01855H192.624V9.8291C192.624 10.2331 192.668 10.5679 192.757 10.8335C192.851 11.0936 192.975 11.3011 193.13 11.4561C193.291 11.6055 193.468 11.7106 193.662 11.7715C193.861 11.8324 194.066 11.8628 194.276 11.8628C194.929 11.8628 195.446 11.7383 195.828 11.4893C196.21 11.2347 196.484 10.8944 196.65 10.4683C196.821 10.0366 196.907 9.55794 196.907 9.03223ZM8.29688 26.1104V27.4136H1.75586V26.1104H8.29688ZM2.00488 20.9141V33H0.402832V20.9141H2.00488ZM9.69141 20.9141V33H8.09766V20.9141H9.69141ZM18.98 29.9453C18.98 29.6631 18.9357 29.4141 18.8472 29.1982C18.7642 28.9769 18.6147 28.7777 18.3989 28.6006C18.1886 28.4235 17.8953 28.2547 17.519 28.0942C17.1483 27.9338 16.6779 27.7705 16.1079 27.6045C15.5103 27.4274 14.9707 27.231 14.4893 27.0151C14.0078 26.7938 13.5955 26.542 13.2524 26.2598C12.9093 25.9775 12.6465 25.6538 12.4639 25.2886C12.2812 24.9233 12.1899 24.5055 12.1899 24.0352C12.1899 23.5648 12.2868 23.1304 12.4805 22.7319C12.6742 22.3335 12.9508 21.9876 13.3105 21.6943C13.6758 21.3955 14.1102 21.1631 14.6138 20.9971C15.1174 20.8311 15.679 20.748 16.2988 20.748C17.2064 20.748 17.9756 20.9224 18.6064 21.271C19.2428 21.6141 19.7271 22.0651 20.0591 22.624C20.3911 23.1774 20.5571 23.7695 20.5571 24.4004H18.9634C18.9634 23.9466 18.8665 23.5454 18.6729 23.1968C18.4792 22.8426 18.1859 22.5659 17.793 22.3667C17.4001 22.1619 16.902 22.0596 16.2988 22.0596C15.7288 22.0596 15.2585 22.1453 14.8877 22.3169C14.5169 22.4884 14.2402 22.7209 14.0576 23.0142C13.8805 23.3075 13.792 23.6423 13.792 24.0186C13.792 24.2731 13.8446 24.5055 13.9497 24.7158C14.0604 24.9206 14.2292 25.1115 14.4561 25.2886C14.6885 25.4657 14.9818 25.6289 15.3359 25.7783C15.6956 25.9277 16.1245 26.0716 16.6226 26.21C17.3088 26.4036 17.9009 26.6195 18.3989 26.8574C18.897 27.0954 19.3065 27.3638 19.6274 27.6626C19.9539 27.9559 20.1947 28.2907 20.3496 28.667C20.5101 29.0378 20.5903 29.4583 20.5903 29.9287C20.5903 30.4212 20.4907 30.8667 20.2915 31.2651C20.0923 31.6636 19.8073 32.0039 19.4365 32.2861C19.0658 32.5684 18.6203 32.7869 18.1001 32.9419C17.5854 33.0913 17.0099 33.166 16.3735 33.166C15.8146 33.166 15.264 33.0885 14.7217 32.9336C14.1849 32.7786 13.6951 32.5462 13.2524 32.2363C12.8153 31.9264 12.4639 31.5446 12.1982 31.0908C11.9382 30.6315 11.8081 30.1003 11.8081 29.4971H13.4019C13.4019 29.9121 13.4821 30.269 13.6426 30.5679C13.8031 30.8612 14.0216 31.1047 14.2983 31.2983C14.5806 31.492 14.8988 31.6359 15.2529 31.73C15.6126 31.8185 15.9862 31.8628 16.3735 31.8628C16.9325 31.8628 17.4056 31.7853 17.793 31.6304C18.1803 31.4754 18.4736 31.2541 18.6729 30.9663C18.8776 30.6785 18.98 30.3382 18.98 29.9453ZM30.3105 31.6968V33H23.9106V31.6968H30.3105ZM24.2344 20.9141V33H22.6323V20.9141H24.2344ZM29.4639 26.1104V27.4136H23.9106V26.1104H29.4639ZM30.2275 20.9141V22.2256H23.9106V20.9141H30.2275ZM40.9854 21.9849L36.9844 33H35.3491L39.9561 20.9141H41.0103L40.9854 21.9849ZM44.3389 33L40.3296 21.9849L40.3047 20.9141H41.3589L45.9824 33H44.3389ZM44.1313 28.5259V29.8374H37.3413V28.5259H44.1313ZM47.6011 20.9141H51.6021C52.5096 20.9141 53.276 21.0524 53.9014 21.3291C54.5322 21.6058 55.0109 22.0153 55.3374 22.5576C55.6694 23.0944 55.8354 23.7557 55.8354 24.5415C55.8354 25.0949 55.722 25.6012 55.4951 26.0605C55.2738 26.5143 54.9528 26.9017 54.5322 27.2227C54.1172 27.5381 53.6191 27.7733 53.0381 27.9282L52.5898 28.1025H48.8296L48.813 26.7993H51.6519C52.2274 26.7993 52.7061 26.6997 53.0879 26.5005C53.4697 26.2957 53.7575 26.0218 53.9512 25.6787C54.1449 25.3356 54.2417 24.9565 54.2417 24.5415C54.2417 24.0767 54.1504 23.6699 53.9678 23.3213C53.7852 22.9727 53.4974 22.7043 53.1045 22.5161C52.7171 22.3224 52.2163 22.2256 51.6021 22.2256H49.2031V33H47.6011V20.9141ZM54.665 33L51.7266 27.5215L53.395 27.5132L56.375 32.9004V33H54.665ZM61.8784 20.9141V33H60.3013V20.9141H61.8784ZM65.7632 20.9141V22.2256H56.4248V20.9141H65.7632ZM75.915 21.9849L71.9141 33H70.2788L74.8857 20.9141H75.9399L75.915 21.9849ZM79.2686 33L75.2593 21.9849L75.2344 20.9141H76.2886L80.9121 33H79.2686ZM79.061 28.5259V29.8374H72.271V28.5259H79.061ZM91.8276 20.9141V33H90.2173L84.1328 23.6782V33H82.5308V20.9141H84.1328L90.2422 30.2607V20.9141H91.8276ZM97.937 33H95.4136L95.4302 31.6968H97.937C98.8003 31.6968 99.5197 31.5169 100.095 31.1572C100.671 30.792 101.102 30.2829 101.39 29.6299C101.683 28.9714 101.83 28.2021 101.83 27.3223V26.5835C101.83 25.8918 101.747 25.2775 101.581 24.7407C101.415 24.1984 101.172 23.7419 100.851 23.3711C100.53 22.9948 100.137 22.7098 99.6719 22.5161C99.2126 22.3224 98.6841 22.2256 98.0864 22.2256H95.3638V20.9141H98.0864C98.8778 20.9141 99.5999 21.0469 100.253 21.3125C100.906 21.5726 101.468 21.9517 101.938 22.4497C102.414 22.9422 102.779 23.5399 103.034 24.2427C103.288 24.9399 103.416 25.7257 103.416 26.6001V27.3223C103.416 28.1966 103.288 28.9852 103.034 29.688C102.779 30.3853 102.411 30.9801 101.93 31.4727C101.454 31.9652 100.878 32.3442 100.203 32.6099C99.5335 32.87 98.7782 33 97.937 33ZM96.2686 20.9141V33H94.6665V20.9141H96.2686ZM113.31 33H110.787L110.803 31.6968H113.31C114.173 31.6968 114.893 31.5169 115.468 31.1572C116.044 30.792 116.475 30.2829 116.763 29.6299C117.056 28.9714 117.203 28.2021 117.203 27.3223V26.5835C117.203 25.8918 117.12 25.2775 116.954 24.7407C116.788 24.1984 116.545 23.7419 116.224 23.3711C115.903 22.9948 115.51 22.7098 115.045 22.5161C114.586 22.3224 114.057 22.2256 113.459 22.2256H110.737V20.9141H113.459C114.251 20.9141 114.973 21.0469 115.626 21.3125C116.279 21.5726 116.841 21.9517 117.311 22.4497C117.787 22.9422 118.152 23.5399 118.407 24.2427C118.661 24.9399 118.789 25.7257 118.789 26.6001V27.3223C118.789 28.1966 118.661 28.9852 118.407 29.688C118.152 30.3853 117.784 30.9801 117.303 31.4727C116.827 31.9652 116.251 32.3442 115.576 32.6099C114.907 32.87 114.151 33 113.31 33ZM111.642 20.9141V33H110.04V20.9141H111.642ZM128.874 31.6968V33H122.474V31.6968H128.874ZM122.798 20.9141V33H121.196V20.9141H122.798ZM128.027 26.1104V27.4136H122.474V26.1104H128.027ZM128.791 20.9141V22.2256H122.474V20.9141H128.791ZM137.299 29.9453C137.299 29.6631 137.255 29.4141 137.167 29.1982C137.083 28.9769 136.934 28.7777 136.718 28.6006C136.508 28.4235 136.215 28.2547 135.838 28.0942C135.468 27.9338 134.997 27.7705 134.427 27.6045C133.83 27.4274 133.29 27.231 132.809 27.0151C132.327 26.7938 131.915 26.542 131.572 26.2598C131.229 25.9775 130.966 25.6538 130.783 25.2886C130.601 24.9233 130.509 24.5055 130.509 24.0352C130.509 23.5648 130.606 23.1304 130.8 22.7319C130.993 22.3335 131.27 21.9876 131.63 21.6943C131.995 21.3955 132.43 21.1631 132.933 20.9971C133.437 20.8311 133.998 20.748 134.618 20.748C135.526 20.748 136.295 20.9224 136.926 21.271C137.562 21.6141 138.046 22.0651 138.378 22.624C138.71 23.1774 138.876 23.7695 138.876 24.4004H137.283C137.283 23.9466 137.186 23.5454 136.992 23.1968C136.799 22.8426 136.505 22.5659 136.112 22.3667C135.719 22.1619 135.221 22.0596 134.618 22.0596C134.048 22.0596 133.578 22.1453 133.207 22.3169C132.836 22.4884 132.56 22.7209 132.377 23.0142C132.2 23.3075 132.111 23.6423 132.111 24.0186C132.111 24.2731 132.164 24.5055 132.269 24.7158C132.38 24.9206 132.549 25.1115 132.775 25.2886C133.008 25.4657 133.301 25.6289 133.655 25.7783C134.015 25.9277 134.444 26.0716 134.942 26.21C135.628 26.4036 136.22 26.6195 136.718 26.8574C137.216 27.0954 137.626 27.3638 137.947 27.6626C138.273 27.9559 138.514 28.2907 138.669 28.667C138.829 29.0378 138.91 29.4583 138.91 29.9287C138.91 30.4212 138.81 30.8667 138.611 31.2651C138.412 31.6636 138.127 32.0039 137.756 32.2861C137.385 32.5684 136.94 32.7869 136.419 32.9419C135.905 33.0913 135.329 33.166 134.693 33.166C134.134 33.166 133.583 33.0885 133.041 32.9336C132.504 32.7786 132.014 32.5462 131.572 32.2363C131.135 31.9264 130.783 31.5446 130.518 31.0908C130.257 30.6315 130.127 30.1003 130.127 29.4971H131.721C131.721 29.9121 131.801 30.269 131.962 30.5679C132.122 30.8612 132.341 31.1047 132.618 31.2983C132.9 31.492 133.218 31.6359 133.572 31.73C133.932 31.8185 134.306 31.8628 134.693 31.8628C135.252 31.8628 135.725 31.7853 136.112 31.6304C136.5 31.4754 136.793 31.2541 136.992 30.9663C137.197 30.6785 137.299 30.3382 137.299 29.9453ZM142.67 20.9141V33H141.068V20.9141H142.67ZM154.515 26.9819V31.4062C154.366 31.6276 154.128 31.8766 153.801 32.1533C153.475 32.4245 153.024 32.6624 152.448 32.8672C151.878 33.0664 151.142 33.166 150.24 33.166C149.504 33.166 148.826 33.0387 148.207 32.7842C147.592 32.5241 147.058 32.1478 146.604 31.6553C146.156 31.1572 145.808 30.554 145.559 29.8457C145.315 29.1318 145.193 28.3239 145.193 27.4219V26.4839C145.193 25.5819 145.299 24.7767 145.509 24.0684C145.725 23.36 146.04 22.7596 146.455 22.2671C146.87 21.769 147.379 21.3927 147.982 21.1382C148.586 20.8781 149.277 20.748 150.058 20.748C150.982 20.748 151.754 20.9085 152.374 21.2295C152.999 21.5449 153.486 21.9821 153.834 22.541C154.189 23.0999 154.416 23.7363 154.515 24.4502H152.913C152.841 24.013 152.697 23.6146 152.481 23.2549C152.271 22.8952 151.97 22.6074 151.577 22.3916C151.184 22.1702 150.677 22.0596 150.058 22.0596C149.499 22.0596 149.014 22.1619 148.605 22.3667C148.195 22.5715 147.858 22.8647 147.592 23.2466C147.327 23.6284 147.127 24.0905 146.995 24.6328C146.867 25.1751 146.804 25.7866 146.804 26.4673V27.4219C146.804 28.1191 146.884 28.7417 147.044 29.2896C147.21 29.8374 147.446 30.305 147.75 30.6924C148.054 31.0742 148.417 31.3647 148.837 31.564C149.264 31.7632 149.734 31.8628 150.249 31.8628C150.819 31.8628 151.281 31.8158 151.635 31.7217C151.989 31.6221 152.266 31.5059 152.465 31.373C152.664 31.2347 152.816 31.1047 152.921 30.9829V28.2769H150.124V26.9819H154.515ZM166.468 20.9141V33H164.858L158.773 23.6782V33H157.171V20.9141H158.773L164.883 30.2607V20.9141H166.468ZM179.965 29.9453C179.965 29.6631 179.921 29.4141 179.833 29.1982C179.75 28.9769 179.6 28.7777 179.384 28.6006C179.174 28.4235 178.881 28.2547 178.504 28.0942C178.134 27.9338 177.663 27.7705 177.093 27.6045C176.496 27.4274 175.956 27.231 175.475 27.0151C174.993 26.7938 174.581 26.542 174.238 26.2598C173.895 25.9775 173.632 25.6538 173.449 25.2886C173.267 24.9233 173.175 24.5055 173.175 24.0352C173.175 23.5648 173.272 23.1304 173.466 22.7319C173.66 22.3335 173.936 21.9876 174.296 21.6943C174.661 21.3955 175.096 21.1631 175.599 20.9971C176.103 20.8311 176.664 20.748 177.284 20.748C178.192 20.748 178.961 20.9224 179.592 21.271C180.228 21.6141 180.712 22.0651 181.044 22.624C181.376 23.1774 181.542 23.7695 181.542 24.4004H179.949C179.949 23.9466 179.852 23.5454 179.658 23.1968C179.465 22.8426 179.171 22.5659 178.778 22.3667C178.385 22.1619 177.887 22.0596 177.284 22.0596C176.714 22.0596 176.244 22.1453 175.873 22.3169C175.502 22.4884 175.226 22.7209 175.043 23.0142C174.866 23.3075 174.777 23.6423 174.777 24.0186C174.777 24.2731 174.83 24.5055 174.935 24.7158C175.046 24.9206 175.215 25.1115 175.441 25.2886C175.674 25.4657 175.967 25.6289 176.321 25.7783C176.681 25.9277 177.11 26.0716 177.608 26.21C178.294 26.4036 178.886 26.6195 179.384 26.8574C179.882 27.0954 180.292 27.3638 180.613 27.6626C180.939 27.9559 181.18 28.2907 181.335 28.667C181.495 29.0378 181.576 29.4583 181.576 29.9287C181.576 30.4212 181.476 30.8667 181.277 31.2651C181.078 31.6636 180.793 32.0039 180.422 32.2861C180.051 32.5684 179.606 32.7869 179.085 32.9419C178.571 33.0913 177.995 33.166 177.359 33.166C176.8 33.166 176.249 33.0885 175.707 32.9336C175.17 32.7786 174.681 32.5462 174.238 32.2363C173.801 31.9264 173.449 31.5446 173.184 31.0908C172.924 30.6315 172.793 30.1003 172.793 29.4971H174.387C174.387 29.9121 174.467 30.269 174.628 30.5679C174.788 30.8612 175.007 31.1047 175.284 31.2983C175.566 31.492 175.884 31.6359 176.238 31.73C176.598 31.8185 176.972 31.8628 177.359 31.8628C177.918 31.8628 178.391 31.7853 178.778 31.6304C179.166 31.4754 179.459 31.2541 179.658 30.9663C179.863 30.6785 179.965 30.3382 179.965 29.9453ZM190.914 29.1567H192.508C192.425 29.9204 192.206 30.6038 191.852 31.207C191.498 31.8102 190.997 32.2889 190.35 32.6431C189.702 32.9917 188.894 33.166 187.926 33.166C187.217 33.166 186.573 33.0332 185.992 32.7676C185.416 32.502 184.921 32.1257 184.506 31.6387C184.091 31.1462 183.77 30.5568 183.543 29.8706C183.322 29.1789 183.211 28.4097 183.211 27.563V26.3594C183.211 25.5127 183.322 24.7463 183.543 24.0601C183.77 23.3683 184.094 22.7762 184.514 22.2837C184.94 21.7912 185.452 21.4121 186.05 21.1465C186.647 20.8809 187.32 20.748 188.067 20.748C188.98 20.748 189.752 20.9196 190.383 21.2627C191.014 21.6058 191.503 22.0817 191.852 22.6904C192.206 23.2936 192.425 23.9937 192.508 24.7905H190.914C190.837 24.2261 190.693 23.7419 190.482 23.3379C190.272 22.9284 189.973 22.613 189.586 22.3916C189.199 22.1702 188.692 22.0596 188.067 22.0596C187.53 22.0596 187.057 22.1619 186.647 22.3667C186.243 22.5715 185.903 22.862 185.626 23.2383C185.355 23.6146 185.151 24.0656 185.012 24.5913C184.874 25.117 184.805 25.7008 184.805 26.3428V27.563C184.805 28.1551 184.866 28.7113 184.987 29.2314C185.115 29.7516 185.306 30.2082 185.56 30.6011C185.815 30.994 186.138 31.3039 186.531 31.5308C186.924 31.7521 187.389 31.8628 187.926 31.8628C188.606 31.8628 189.149 31.7549 189.553 31.5391C189.957 31.3232 190.261 31.0133 190.466 30.6094C190.676 30.2054 190.826 29.7212 190.914 29.1567ZM202.585 26.1104V27.4136H196.044V26.1104H202.585ZM196.293 20.9141V33H194.691V20.9141H196.293ZM203.979 20.9141V33H202.386V20.9141H203.979ZM216.132 26.5752V27.3389C216.132 28.2464 216.018 29.0599 215.792 29.7793C215.565 30.4987 215.238 31.1102 214.812 31.6138C214.386 32.1174 213.874 32.502 213.276 32.7676C212.684 33.0332 212.02 33.166 211.284 33.166C210.57 33.166 209.915 33.0332 209.317 32.7676C208.725 32.502 208.21 32.1174 207.773 31.6138C207.341 31.1102 207.007 30.4987 206.769 29.7793C206.531 29.0599 206.412 28.2464 206.412 27.3389V26.5752C206.412 25.6676 206.528 24.8569 206.76 24.1431C206.998 23.4237 207.333 22.8122 207.765 22.3086C208.196 21.7995 208.708 21.4121 209.3 21.1465C209.898 20.8809 210.554 20.748 211.268 20.748C212.004 20.748 212.668 20.8809 213.26 21.1465C213.857 21.4121 214.369 21.7995 214.795 22.3086C215.227 22.8122 215.556 23.4237 215.783 24.1431C216.016 24.8569 216.132 25.6676 216.132 26.5752ZM214.546 27.3389V26.5586C214.546 25.8392 214.472 25.2028 214.322 24.6494C214.178 24.096 213.965 23.6312 213.683 23.2549C213.401 22.8786 213.055 22.5936 212.646 22.3999C212.242 22.2062 211.782 22.1094 211.268 22.1094C210.77 22.1094 210.319 22.2062 209.915 22.3999C209.516 22.5936 209.173 22.8786 208.885 23.2549C208.603 23.6312 208.384 24.096 208.229 24.6494C208.075 25.2028 207.997 25.8392 207.997 26.5586V27.3389C207.997 28.0638 208.075 28.7057 208.229 29.2646C208.384 29.818 208.606 30.2856 208.894 30.6675C209.187 31.0438 209.533 31.3288 209.931 31.5225C210.335 31.7161 210.786 31.813 211.284 31.813C211.804 31.813 212.266 31.7161 212.67 31.5225C213.074 31.3288 213.415 31.0438 213.691 30.6675C213.974 30.2856 214.187 29.818 214.331 29.2646C214.474 28.7057 214.546 28.0638 214.546 27.3389ZM227.836 26.5752V27.3389C227.836 28.2464 227.722 29.0599 227.496 29.7793C227.269 30.4987 226.942 31.1102 226.516 31.6138C226.09 32.1174 225.578 32.502 224.98 32.7676C224.388 33.0332 223.724 33.166 222.988 33.166C222.274 33.166 221.619 33.0332 221.021 32.7676C220.429 32.502 219.914 32.1174 219.477 31.6138C219.045 31.1102 218.711 30.4987 218.473 29.7793C218.235 29.0599 218.116 28.2464 218.116 27.3389V26.5752C218.116 25.6676 218.232 24.8569 218.464 24.1431C218.702 23.4237 219.037 22.8122 219.469 22.3086C219.9 21.7995 220.412 21.4121 221.004 21.1465C221.602 20.8809 222.258 20.748 222.972 20.748C223.708 20.748 224.372 20.8809 224.964 21.1465C225.562 21.4121 226.073 21.7995 226.5 22.3086C226.931 22.8122 227.26 23.4237 227.487 24.1431C227.72 24.8569 227.836 25.6676 227.836 26.5752ZM226.25 27.3389V26.5586C226.25 25.8392 226.176 25.2028 226.026 24.6494C225.882 24.096 225.669 23.6312 225.387 23.2549C225.105 22.8786 224.759 22.5936 224.35 22.3999C223.946 22.2062 223.486 22.1094 222.972 22.1094C222.474 22.1094 222.023 22.2062 221.619 22.3999C221.22 22.5936 220.877 22.8786 220.589 23.2549C220.307 23.6312 220.089 24.096 219.934 24.6494C219.779 25.2028 219.701 25.8392 219.701 26.5586V27.3389C219.701 28.0638 219.779 28.7057 219.934 29.2646C220.089 29.818 220.31 30.2856 220.598 30.6675C220.891 31.0438 221.237 31.3288 221.635 31.5225C222.039 31.7161 222.49 31.813 222.988 31.813C223.508 31.813 223.971 31.7161 224.375 31.5225C224.778 31.3288 225.119 31.0438 225.396 30.6675C225.678 30.2856 225.891 29.818 226.035 29.2646C226.179 28.7057 226.25 28.0638 226.25 27.3389ZM237.564 31.6968V33H231.521V31.6968H237.564ZM231.837 20.9141V33H230.235V20.9141H231.837Z" fill="#262525"/>
</svg>
