<svg width="993" height="531" viewBox="0 0 993 531" fill="none" xmlns="http://www.w3.org/2000/svg">
<path d="M766 278C766 264.193 777.193 253 791 253H955C968.807 253 980 264.193 980 278V440C980 453.807 968.807 465 955 465H791C777.193 465 766 453.807 766 440V278Z" fill="#F5F5F7"/>
<path d="M19 25C19 11.1929 30.1929 0 44 0H208C221.807 0 233 11.1929 233 25V187C233 200.807 221.807 212 208 212H44C30.1929 212 19 200.807 19 187V25Z" fill="#F5F5F7"/>
<path d="M521 278C521 264.193 532.193 253 546 253H710C723.807 253 735 264.193 735 278V440C735 453.807 723.807 465 710 465H546C532.193 465 521 453.807 521 440V278Z" fill="#F5F5F7"/>
<path d="M275 275C275 261.193 286.193 250 300 250H464C477.807 250 489 261.193 489 275V437C489 450.807 477.807 462 464 462H300C286.193 462 275 450.807 275 437V275Z" fill="#F5F5F7"/>
<path d="M19 278C19 264.193 30.1929 253 44 253H208C221.807 253 233 264.193 233 278V440C233 453.807 221.807 465 208 465H44C30.1929 465 19 453.807 19 440V278Z" fill="#F5F5F7"/>
<path d="M766 25C766 11.1929 777.193 0 791 0H955C968.807 0 980 11.1929 980 25V187C980 200.807 968.807 212 955 212H791C777.193 212 766 200.807 766 187V25Z" fill="#F5F5F7"/>
<path d="M520 25C520 11.1929 531.193 0 545 0H709C722.807 0 734 11.1929 734 25V187C734 200.807 722.807 212 709 212H545C531.193 212 520 200.807 520 187V25Z" fill="#F5F5F7"/>
<path d="M275 25C275 11.1929 286.193 0 300 0H464C477.807 0 489 11.1929 489 25V187C489 200.807 477.807 212 464 212H300C286.193 212 275 200.807 275 187V25Z" fill="#F5F5F7"/>
<path d="M156.639 106.377C155.818 110.296 154.497 114.238 152.674 118.203C150.851 122.168 148.595 125.928 145.906 129.482L156.639 139.531L150.213 146.846L139.48 136.318C136.108 139.326 132.371 141.787 128.27 143.701C124.168 145.615 119.725 146.572 114.939 146.572C111.476 146.572 108.195 145.934 105.096 144.658C102.042 143.382 99.3763 141.65 97.0977 139.463C94.819 137.275 92.9961 134.723 91.6289 131.807C90.2617 128.844 89.5781 125.632 89.5781 122.168C89.5781 119.297 89.8971 116.676 90.5352 114.307C91.1276 111.891 91.9479 109.727 92.9961 107.812C94.0898 105.898 95.3659 104.189 96.8242 102.686C98.2826 101.136 99.8548 99.7005 101.541 98.3789C98.7155 94.8242 96.528 91.3151 94.9785 87.8516C93.429 84.3424 92.6543 80.8105 92.6543 77.2559C92.6543 70.2376 94.6823 64.6549 98.7383 60.5078C102.84 56.3607 108.286 54.2871 115.076 54.2871C118.175 54.2871 121.069 54.7656 123.758 55.7227C126.492 56.6341 128.862 57.9557 130.867 59.6875C132.872 61.4193 134.422 63.5156 135.516 65.9766C136.655 68.4375 137.225 71.263 137.225 74.4531C137.225 78.0078 136.518 81.0384 135.105 83.5449C133.693 86.0514 131.915 88.2617 129.773 90.1758C127.632 92.0898 125.193 93.8216 122.459 95.3711C119.77 96.9206 117.127 98.5384 114.529 100.225L139.139 123.33C141.326 120.322 143.104 117.178 144.471 113.896C145.883 110.57 146.954 107.311 147.684 104.121L156.639 106.377ZM114.939 137.549C118.494 137.549 121.798 136.888 124.852 135.566C127.951 134.199 130.708 132.399 133.123 130.166L109.607 107.197L107.557 105.215C105.187 107.266 103.273 109.635 101.814 112.324C100.402 114.967 99.6953 118.249 99.6953 122.168C99.6953 126.543 101.108 130.212 103.934 133.174C106.805 136.09 110.473 137.549 114.939 137.549ZM102.361 77.2559C102.361 79.3978 102.749 81.8359 103.523 84.5703C104.344 87.2591 106.053 90.3125 108.65 93.7305C110.975 92.3633 113.276 91.0189 115.555 89.6973C117.879 88.3757 119.907 86.9857 121.639 85.5273C123.416 84.0234 124.829 82.36 125.877 80.5371C126.971 78.7142 127.518 76.5951 127.518 74.1797C127.518 70.625 126.333 67.8223 123.963 65.7715C121.593 63.7207 118.631 62.6953 115.076 62.6953C113.117 62.6953 111.339 63.1055 109.744 63.9258C108.195 64.7005 106.85 65.7715 105.711 67.1387C104.572 68.4603 103.729 70.0098 103.182 71.7871C102.635 73.5645 102.361 75.3874 102.361 77.2559Z" fill="black"/>
<path d="M415.498 114.824H400.391V129.932H392.393V114.824H374.893V129.932H366.895V114.824H351.787V107.305H366.895V89.2578H351.787V81.8066H366.895V66.2207H374.893V81.8066H392.393V66.2207H400.391V81.8066H415.498V89.2578H400.391V107.305H415.498V114.824ZM392.393 107.305V89.2578H374.893V107.305H392.393Z" fill="black"/>
<path d="M630.668 80.6504C630.668 82.9746 630.212 85.1849 629.301 87.2812C628.435 89.3776 627.204 91.2005 625.609 92.75C624.06 94.2995 622.237 95.5527 620.141 96.5098C618.044 97.4212 615.811 97.877 613.441 97.877C611.117 97.877 608.907 97.4212 606.811 96.5098C604.714 95.5527 602.891 94.2995 601.342 92.75C599.792 91.2005 598.585 89.3776 597.719 87.2812C596.853 85.1849 596.42 82.9746 596.42 80.6504C596.42 78.3262 596.853 76.0931 597.719 73.9512C598.585 71.7637 599.792 69.918 601.342 68.4141C602.891 66.8646 604.714 65.6341 606.811 64.7227C608.907 63.7656 611.117 63.2871 613.441 63.2871C615.811 63.2871 618.044 63.7656 620.141 64.7227C622.237 65.6341 624.06 66.8646 625.609 68.4141C627.204 69.918 628.435 71.7637 629.301 73.9512C630.212 76.0931 630.668 78.3262 630.668 80.6504ZM661.498 67.0469L604.35 155.846L597.924 151.744L655.209 62.7402L661.498 67.0469ZM663.48 138.346C663.48 140.761 663.002 142.994 662.045 145.045C661.133 147.096 659.903 148.919 658.354 150.514C656.804 152.109 654.958 153.339 652.816 154.205C650.674 155.117 648.441 155.572 646.117 155.572C643.747 155.572 641.514 155.117 639.418 154.205C637.322 153.339 635.499 152.132 633.949 150.582C632.445 149.033 631.215 147.21 630.258 145.113C629.346 143.017 628.891 140.761 628.891 138.346C628.891 135.976 629.346 133.743 630.258 131.646C631.215 129.55 632.445 127.75 633.949 126.246C635.499 124.697 637.322 123.489 639.418 122.623C641.514 121.712 643.747 121.256 646.117 121.256C648.441 121.256 650.652 121.712 652.748 122.623C654.844 123.489 656.69 124.697 658.285 126.246C659.88 127.75 661.133 129.55 662.045 131.646C663.002 133.743 663.48 135.976 663.48 138.346ZM623.695 80.6504C623.695 77.7337 622.715 75.2728 620.756 73.2676C618.796 71.2624 616.358 70.2598 613.441 70.2598C610.57 70.2598 608.155 71.2624 606.195 73.2676C604.236 75.2728 603.256 77.7337 603.256 80.6504C603.256 83.5215 604.236 85.9596 606.195 87.9648C608.155 89.9701 610.57 90.9727 613.441 90.9727C616.358 90.9727 618.796 89.9701 620.756 87.9648C622.715 85.9596 623.695 83.5215 623.695 80.6504ZM656.439 138.346C656.439 135.429 655.437 132.991 653.432 131.031C651.426 129.072 648.988 128.092 646.117 128.092C643.201 128.092 640.762 129.072 638.803 131.031C636.843 132.991 635.863 135.429 635.863 138.346C635.863 141.217 636.843 143.655 638.803 145.66C640.762 147.665 643.201 148.668 646.117 148.668C648.988 148.668 651.426 147.665 653.432 145.66C655.437 143.655 656.439 141.217 656.439 138.346Z" fill="black"/>
<path d="M907.391 107.242C907.391 110.341 907.14 113.486 906.639 116.676C906.137 119.866 905.271 122.76 904.041 125.357C902.811 127.91 901.17 130.006 899.119 131.646C897.068 133.287 894.516 134.107 891.463 134.107C890.141 134.107 888.865 133.88 887.635 133.424C886.404 132.968 885.311 132.307 884.354 131.441C883.396 130.576 882.622 129.573 882.029 128.434C881.482 127.249 881.209 125.927 881.209 124.469V122.555C880.206 125.973 878.634 128.753 876.492 130.895C874.35 133.036 871.867 134.107 869.041 134.107C866.033 134.107 863.527 133.447 861.521 132.125C859.516 130.803 857.898 129.049 856.668 126.861C855.483 124.674 854.64 122.19 854.139 119.41C853.637 116.63 853.387 113.782 853.387 110.865C853.387 107.493 853.774 104.28 854.549 101.227C855.324 98.1276 856.486 95.416 858.035 93.0918C859.585 90.722 861.499 88.8535 863.777 87.4863C866.102 86.0736 868.79 85.3672 871.844 85.3672C873.439 85.3672 875.125 85.7773 876.902 86.5977C878.68 87.3724 880.115 88.6029 881.209 90.2891V86.666H890.164V122.555C890.164 124.013 890.438 125.061 890.984 125.699C891.531 126.337 892.329 126.656 893.377 126.656C894.653 126.656 895.747 126.041 896.658 124.811C897.57 123.58 898.299 122.031 898.846 120.162C899.393 118.248 899.78 116.152 900.008 113.873C900.281 111.594 900.418 109.384 900.418 107.242C900.418 104.098 900.213 100.976 899.803 97.877C899.438 94.7324 898.8 91.7702 897.889 88.9902C897.023 86.1647 895.883 83.5671 894.471 81.1973C893.058 78.7819 891.326 76.7083 889.275 74.9766C887.27 73.1992 884.923 71.832 882.234 70.875C879.591 69.8724 876.583 69.3711 873.211 69.3711C868.061 69.3711 863.755 70.4648 860.291 72.6523C856.827 74.8398 854.025 77.7793 851.883 81.4707C849.786 85.1621 848.283 89.4232 847.371 94.2539C846.46 99.0846 846.004 104.166 846.004 109.498C846.004 114.739 846.46 119.775 847.371 124.605C848.283 129.391 849.786 133.629 851.883 137.32C854.025 141.012 856.827 143.951 860.291 146.139C863.8 148.326 868.107 149.42 873.211 149.42C876.948 149.42 880.298 148.759 883.26 147.438C886.222 146.116 888.911 144.339 891.326 142.105L895.359 146.754C889.526 152.633 882.143 155.572 873.211 155.572C869.018 155.572 865.258 155.003 861.932 153.863C858.65 152.678 855.734 151.038 853.182 148.941C850.675 146.845 848.51 144.361 846.688 141.49C844.91 138.619 843.452 135.475 842.312 132.057C841.173 128.639 840.353 125.016 839.852 121.188C839.305 117.359 839.031 113.463 839.031 109.498C839.031 105.442 839.305 101.5 839.852 97.6719C840.398 93.7982 841.242 90.1523 842.381 86.7344C843.52 83.3164 844.979 80.1719 846.756 77.3008C848.579 74.4297 850.766 71.9688 853.318 69.918C855.87 67.8216 858.787 66.2038 862.068 65.0645C865.35 63.8796 869.064 63.2871 873.211 63.2871C879.363 63.2871 884.604 64.5632 888.934 67.1152C893.309 69.6217 896.863 72.9486 899.598 77.0957C902.332 81.2428 904.314 85.9368 905.545 91.1777C906.775 96.4186 907.391 101.773 907.391 107.242ZM881.209 98.7656C880.161 96.5326 878.908 94.9831 877.449 94.1172C876.036 93.2057 874.464 92.75 872.732 92.75C871.001 92.75 869.497 93.2741 868.221 94.3223C866.99 95.3249 865.965 96.6921 865.145 98.4238C864.324 100.11 863.709 102.047 863.299 104.234C862.934 106.376 862.752 108.564 862.752 110.797C862.752 115.764 863.39 119.501 864.666 122.008C865.988 124.514 867.833 125.768 870.203 125.768C871.889 125.768 873.416 125.266 874.783 124.264C876.15 123.215 877.312 121.871 878.27 120.23C879.227 118.544 879.956 116.676 880.457 114.625C880.958 112.529 881.209 110.455 881.209 108.404V98.7656Z" fill="black"/>
<path d="M153.105 344.43L129.727 357.008L153.105 369.928L149.346 376.354L126.65 362.477L127.607 388.932H119.678L120.635 362.477L97.9395 376.354L94.1797 369.928L117.559 357.008L94.1797 344.43L97.9395 337.867L120.635 351.881L119.678 325.221H127.607L126.65 351.881L149.346 337.867L153.105 344.43Z" fill="black"/>
<path d="M386.15 404H374.529L360.652 334.137V404H351.287V314.791H364.48L376.785 379.049V314.791H386.15V404ZM408.709 372.623C413.995 372.623 416.639 368.248 416.639 359.498C416.639 350.794 413.995 346.441 408.709 346.441C403.195 346.441 400.438 350.794 400.438 359.498C400.438 368.248 403.195 372.623 408.709 372.623ZM408.572 380.211C396.906 380.211 391.072 373.307 391.072 359.498C391.072 345.689 396.906 338.785 408.572 338.785C420.239 338.785 426.072 345.689 426.072 359.498C426.072 373.307 420.239 380.211 408.572 380.211ZM391.209 396.002H426.072V404H391.209V396.002Z" fill="black"/>
<path d="M868.426 405.094C864.598 404.638 861.111 403.704 857.967 402.291C854.868 400.833 852.179 399.033 849.9 396.891C847.622 394.703 845.753 392.219 844.295 389.439C842.837 386.66 841.834 383.72 841.287 380.621L850.105 378.365C851.154 382.968 853.136 386.979 856.053 390.396C859.015 393.769 863.139 395.934 868.426 396.891V360.865C864.598 359.452 861.18 358.017 858.172 356.559C855.21 355.055 852.68 353.346 850.584 351.432C848.488 349.518 846.893 347.33 845.799 344.869C844.751 342.363 844.227 339.446 844.227 336.119C844.227 333.202 844.773 330.468 845.867 327.916C847.007 325.364 848.602 323.062 850.652 321.012C852.703 318.915 855.21 317.229 858.172 315.953C861.18 314.632 864.598 313.743 868.426 313.287V302.076H877.859V313.287C881.277 313.743 884.422 314.745 887.293 316.295C890.21 317.844 892.716 319.736 894.812 321.969C896.909 324.202 898.595 326.686 899.871 329.42C901.147 332.109 901.922 334.843 902.195 337.623L892.42 339.332C891.827 335.322 890.346 331.653 887.977 328.326C885.607 324.999 882.234 322.88 877.859 321.969V354.166C886.154 357.219 892.374 360.751 896.521 364.762C900.669 368.727 902.742 374.059 902.742 380.758C902.742 383.857 902.173 386.773 901.033 389.508C899.939 392.242 898.322 394.703 896.18 396.891C894.038 399.033 891.417 400.855 888.318 402.359C885.265 403.818 881.779 404.729 877.859 405.094V416.715H868.426V405.094ZM892.557 381.578C892.557 377.659 891.303 374.332 888.797 371.598C886.336 368.818 882.69 366.357 877.859 364.215V396.891C883.146 396.116 886.883 394.316 889.07 391.49C891.303 388.619 892.465 385.315 892.557 381.578ZM853.865 335.982C853.865 339.492 855.164 342.431 857.762 344.801C860.405 347.125 863.96 349.176 868.426 350.953V321.832C865.919 322.197 863.732 322.88 861.863 323.883C859.995 324.84 858.468 325.979 857.283 327.301C856.144 328.577 855.278 329.967 854.686 331.471C854.139 332.975 853.865 334.479 853.865 335.982Z" fill="black"/>
<path d="M631.557 403.572C627.045 403.572 623.126 403.025 619.799 401.932C616.518 400.838 613.419 399.174 610.502 396.941V427.498H601.137V337.879C601.137 334.051 601.889 330.519 603.393 327.283C604.896 324.002 606.924 321.176 609.477 318.807C612.029 316.391 615.082 314.546 618.637 313.27C622.191 311.948 626.02 311.287 630.121 311.287C634.496 311.287 638.415 311.971 641.879 313.338C645.342 314.66 648.259 316.391 650.629 318.533C652.999 320.675 654.822 323.182 656.098 326.053C657.374 328.878 658.012 331.749 658.012 334.666C658.012 339.406 656.667 343.598 653.979 347.244C651.335 350.89 647.53 353.556 642.562 355.242C648.624 357.111 653.34 359.936 656.713 363.719C660.085 367.501 661.771 372.195 661.771 377.801C661.771 381.538 661.02 384.979 659.516 388.123C658.012 391.222 655.938 393.911 653.295 396.189C650.652 398.468 647.484 400.268 643.793 401.59C640.102 402.911 636.023 403.572 631.557 403.572ZM631.557 395.574C638.074 395.574 643.178 393.934 646.869 390.652C650.561 387.371 652.406 383.087 652.406 377.801C652.406 372.469 650.469 368.139 646.596 364.812C642.722 361.44 637.003 359.754 629.438 359.754H623.285V351.756H629.438C636.046 351.756 640.876 350.138 643.93 346.902C647.029 343.667 648.578 339.588 648.578 334.666C648.578 332.98 648.236 331.225 647.553 329.402C646.869 327.579 645.798 325.939 644.34 324.48C642.882 322.977 640.99 321.746 638.666 320.789C636.342 319.786 633.493 319.285 630.121 319.285C627.706 319.285 625.313 319.65 622.943 320.379C620.619 321.108 618.523 322.247 616.654 323.797C614.831 325.346 613.35 327.283 612.211 329.607C611.072 331.932 610.502 334.689 610.502 337.879V387.303C613.236 390.265 616.267 392.384 619.594 393.66C622.966 394.936 626.954 395.574 631.557 395.574Z" fill="black"/>
<path d="M488.733 524H485.677V523.092H486.702V519.469C486.657 519.628 486.577 519.77 486.463 519.894C486.352 520.017 486.217 520.121 486.058 520.206C485.901 520.287 485.726 520.351 485.53 520.396C485.338 520.439 485.14 520.46 484.935 520.46V519.449C485.156 519.449 485.371 519.413 485.579 519.342C485.791 519.267 485.979 519.155 486.146 519.005C486.312 518.855 486.445 518.668 486.546 518.443C486.65 518.215 486.702 517.944 486.702 517.628H487.713V523.092H488.733V524ZM494.944 524H491.883V523.092H492.903V522.301H490.394V521.388L492.723 517.628H493.904V521.388H494.944V522.301H493.904V523.092H494.944V524ZM492.903 521.388V518.819L491.302 521.388H492.903ZM495.691 520.812C495.691 520.385 495.737 519.973 495.828 519.576C495.919 519.179 496.061 518.829 496.253 518.526C496.445 518.224 496.696 517.981 497.005 517.799C497.317 517.613 497.693 517.521 498.133 517.521C498.572 517.521 498.947 517.613 499.256 517.799C499.568 517.981 499.822 518.224 500.018 518.526C500.213 518.829 500.354 519.179 500.442 519.576C500.53 519.973 500.574 520.385 500.574 520.812C500.574 521.238 500.53 521.65 500.442 522.047C500.354 522.441 500.215 522.792 500.022 523.102C499.83 523.408 499.578 523.653 499.266 523.839C498.956 524.021 498.579 524.112 498.133 524.112C497.687 524.112 497.308 524.021 496.995 523.839C496.686 523.653 496.434 523.408 496.238 523.102C496.046 522.792 495.908 522.441 495.823 522.047C495.735 521.65 495.691 521.238 495.691 520.812ZM496.702 520.812C496.702 521.111 496.722 521.401 496.761 521.681L499.261 519.171C499.15 518.95 499.004 518.771 498.821 518.634C498.642 518.497 498.413 518.429 498.133 518.429C497.667 518.429 497.312 518.639 497.068 519.059C496.824 519.479 496.702 520.063 496.702 520.812ZM498.133 523.199C498.419 523.199 498.654 523.129 498.836 522.989C499.021 522.849 499.166 522.667 499.271 522.442C499.378 522.215 499.453 521.957 499.495 521.671C499.541 521.384 499.563 521.098 499.563 520.812C499.563 520.538 499.544 520.271 499.505 520.011L497.024 522.501C497.135 522.713 497.277 522.882 497.449 523.009C497.625 523.136 497.853 523.199 498.133 523.199ZM507.01 519.449H508.021V519.859C508.213 519.687 508.406 519.558 508.602 519.474C508.8 519.386 509.026 519.342 509.28 519.342C509.573 519.342 509.845 519.402 510.096 519.522C510.346 519.64 510.561 519.804 510.74 520.016C510.919 520.224 511.061 520.476 511.165 520.772C511.269 521.065 511.321 521.384 511.321 521.729C511.321 522.078 511.269 522.398 511.165 522.691C511.061 522.984 510.919 523.237 510.74 523.448C510.561 523.657 510.346 523.819 510.096 523.937C509.845 524.054 509.573 524.112 509.28 524.112C509.026 524.112 508.8 524.067 508.602 523.976C508.406 523.884 508.213 523.753 508.021 523.58V525.821H507.01V519.449ZM508.021 522.779C508.141 522.913 508.294 523.017 508.479 523.092C508.668 523.163 508.849 523.199 509.021 523.199C509.402 523.199 509.712 523.064 509.949 522.794C510.19 522.524 510.311 522.169 510.311 521.729C510.311 521.29 510.19 520.934 509.949 520.66C509.712 520.387 509.402 520.25 509.021 520.25C508.849 520.25 508.668 520.286 508.479 520.357C508.294 520.426 508.141 520.527 508.021 520.66V522.779ZM516.897 521.729C516.897 522.084 516.84 522.407 516.727 522.696C516.616 522.986 516.455 523.237 516.243 523.448C516.035 523.657 515.784 523.819 515.491 523.937C515.198 524.054 514.871 524.112 514.51 524.112C514.155 524.112 513.831 524.054 513.538 523.937C513.245 523.819 512.993 523.657 512.781 523.448C512.573 523.237 512.412 522.986 512.298 522.696C512.187 522.407 512.132 522.084 512.132 521.729C512.132 521.384 512.187 521.065 512.298 520.772C512.412 520.476 512.573 520.222 512.781 520.011C512.993 519.796 513.245 519.632 513.538 519.518C513.831 519.4 514.155 519.342 514.51 519.342C514.871 519.342 515.198 519.4 515.491 519.518C515.784 519.632 516.035 519.796 516.243 520.011C516.455 520.222 516.616 520.476 516.727 520.772C516.84 521.065 516.897 521.384 516.897 521.729ZM515.892 521.729C515.892 521.524 515.859 521.331 515.794 521.148C515.732 520.963 515.641 520.805 515.521 520.675C515.4 520.545 515.254 520.442 515.081 520.367C514.912 520.289 514.721 520.25 514.51 520.25C514.295 520.25 514.103 520.289 513.934 520.367C513.764 520.442 513.621 520.545 513.504 520.675C513.387 520.805 513.296 520.963 513.23 521.148C513.169 521.331 513.138 521.524 513.138 521.729C513.138 521.944 513.169 522.14 513.23 522.315C513.296 522.491 513.387 522.646 513.504 522.779C513.621 522.913 513.764 523.017 513.934 523.092C514.103 523.163 514.295 523.199 514.51 523.199C514.721 523.199 514.912 523.163 515.081 523.092C515.254 523.017 515.4 522.913 515.521 522.779C515.641 522.646 515.732 522.491 515.794 522.315C515.859 522.14 515.892 521.944 515.892 521.729ZM520.579 518.858H519.349V517.628H520.579V518.858ZM521.507 524H518.45V523.092H519.456V520.362H518.45V519.449H520.467V523.092H521.507V524ZM527.459 524H526.448V521.192C526.448 520.838 526.382 520.592 526.248 520.455C526.115 520.318 525.921 520.25 525.667 520.25C525.293 520.25 524.987 520.401 524.749 520.704C524.515 521.007 524.397 521.425 524.397 521.959V524H523.387V519.449H524.397V520.592C524.498 520.198 524.686 519.892 524.959 519.674C525.232 519.452 525.569 519.342 525.97 519.342C526.435 519.342 526.8 519.493 527.063 519.796C527.327 520.099 527.459 520.564 527.459 521.192V524ZM533.206 522.55C533.154 523.028 532.965 523.409 532.64 523.692C532.317 523.972 531.914 524.112 531.429 524.112C531.162 524.112 530.918 524.068 530.696 523.98C530.475 523.893 530.286 523.771 530.13 523.614C529.974 523.458 529.852 523.271 529.764 523.053C529.679 522.831 529.637 522.59 529.637 522.33V520.362H528.606V519.449H529.637V517.628H530.647V519.449H532.557V520.362H530.647V522.33C530.647 522.623 530.719 522.841 530.862 522.984C531.006 523.128 531.194 523.199 531.429 523.199C531.715 523.199 531.928 523.116 532.068 522.95C532.208 522.784 532.291 522.584 532.317 522.35L533.206 522.55Z" fill="#59A5D7"/>
</svg>
