<svg width="1440" height="1049" viewBox="0 0 1440 1049" fill="none" xmlns="http://www.w3.org/2000/svg">
<rect width="1440" height="1049" fill="#EBEBEB"/>
<rect x="131" y="121" width="1194" height="808" rx="20" fill="#171111" stroke="black" stroke-width="10"/>
<path d="M137 926C325.491 987.125 825.579 1072.7 1318 926" stroke="black" stroke-width="10"/>
<path d="M179 446.5H260.456C260.909 446.5 261.338 446.705 261.623 447.058L280.597 470.558C281.04 471.107 281.04 471.893 280.597 472.442L261.623 495.942C261.338 496.295 260.909 496.5 260.456 496.5H179C178.172 496.5 177.5 495.828 177.5 495V448C177.5 447.172 178.172 446.5 179 446.5Z" fill="#2F2F2F" fill-opacity="0.25" stroke="#58A2D3"/>
<path d="M179 536.5H260.468C260.916 536.5 261.341 536.7 261.626 537.046L280.567 560.046C281.023 560.6 281.023 561.4 280.567 561.954L261.626 584.954C261.341 585.3 260.916 585.5 260.468 585.5H179C178.172 585.5 177.5 584.828 177.5 584V538C177.5 537.172 178.172 536.5 179 536.5Z" fill="#1D1818" stroke="#59A5D7"/>
<path d="M179 725.5H260.468C260.916 725.5 261.341 725.7 261.626 726.046L280.567 749.046C281.023 749.6 281.023 750.4 280.567 750.954L261.626 773.954C261.341 774.3 260.916 774.5 260.468 774.5H179C178.172 774.5 177.5 773.828 177.5 773V727C177.5 726.172 178.172 725.5 179 725.5Z" fill="#1D1818" stroke="#59A5D7"/>
<path d="M179 634.5H260.468C260.916 634.5 261.341 634.7 261.626 635.046L280.567 658.046C281.023 658.6 281.023 659.4 280.567 659.954L261.626 682.954C261.341 683.3 260.916 683.5 260.468 683.5H179C178.172 683.5 177.5 682.828 177.5 682V636C177.5 635.172 178.172 634.5 179 634.5Z" fill="#1D1818" stroke="#59A5D7"/>
<path d="M1269 736.5H1192.41C1191.94 736.5 1191.5 736.723 1191.21 737.103L1173.29 761.103C1172.9 761.635 1172.9 762.365 1173.29 762.897L1191.21 786.897C1191.5 787.277 1191.94 787.5 1192.41 787.5H1269C1269.83 787.5 1270.5 786.828 1270.5 786V738C1270.5 737.172 1269.83 736.5 1269 736.5Z" fill="#1D1818" stroke="#59A5D7"/>
<path d="M1269 459.5H1192.41C1191.94 459.5 1191.5 459.723 1191.21 460.103L1173.29 484.103C1172.9 484.635 1172.9 485.365 1173.29 485.897L1191.21 509.897C1191.5 510.277 1191.94 510.5 1192.41 510.5H1269C1269.83 510.5 1270.5 509.828 1270.5 509V461C1270.5 460.172 1269.83 459.5 1269 459.5Z" fill="#1D1818" stroke="#59A5D7"/>
<path d="M1269 643.5H1192.43C1191.95 643.5 1191.5 643.728 1191.22 644.114L1173.27 668.614C1172.88 669.141 1172.88 669.859 1173.27 670.386L1191.22 694.886C1191.5 695.272 1191.95 695.5 1192.43 695.5H1269C1269.83 695.5 1270.5 694.828 1270.5 694V645C1270.5 644.172 1269.83 643.5 1269 643.5Z" fill="#1D1818" stroke="#59A5D7"/>
<path d="M1269 555.5H1192.41C1191.94 555.5 1191.5 555.723 1191.21 556.103L1173.29 580.103C1172.9 580.635 1172.9 581.365 1173.29 581.897L1191.21 605.897C1191.5 606.277 1191.94 606.5 1192.41 606.5H1269C1269.83 606.5 1270.5 605.828 1270.5 605V557C1270.5 556.172 1269.83 555.5 1269 555.5Z" fill="#1D1818" stroke="#59A5D7"/>
<path d="M574.395 441.715C574.395 444.15 573.607 445.973 572.031 447.184C570.456 448.395 568.216 449 565.312 449H557.188V423.512H564.863C565.931 423.512 566.979 423.603 568.008 423.785C569.036 423.954 569.954 424.28 570.762 424.762C571.582 425.243 572.246 425.914 572.754 426.773C573.262 427.62 573.516 428.733 573.516 430.113C573.516 432.757 572.194 434.56 569.551 435.523C572.78 436.513 574.395 438.577 574.395 441.715ZM570.84 430.113C570.84 429.215 570.651 428.479 570.273 427.906C569.896 427.333 569.414 426.897 568.828 426.598C568.242 426.285 567.598 426.077 566.895 425.973C566.191 425.855 565.514 425.797 564.863 425.797H559.863V434.449H564.863C565.592 434.449 566.309 434.397 567.012 434.293C567.715 434.176 568.346 433.961 568.906 433.648C569.466 433.323 569.928 432.88 570.293 432.32C570.658 431.76 570.84 431.025 570.84 430.113ZM571.719 441.715C571.719 439.957 571.146 438.681 570 437.887C568.867 437.079 567.305 436.676 565.312 436.676H559.863V446.715H565.312C567.305 446.715 568.867 446.298 570 445.465C571.146 444.618 571.719 443.368 571.719 441.715ZM596.23 443.805C596.23 445.562 595.579 446.871 594.277 447.73C592.988 448.577 591.133 449 588.711 449H579.023V430.797H588.105C588.991 430.797 589.863 430.868 590.723 431.012C591.595 431.142 592.37 431.383 593.047 431.734C593.724 432.073 594.277 432.548 594.707 433.16C595.137 433.772 595.352 434.573 595.352 435.562C595.352 436.5 595.124 437.288 594.668 437.926C594.212 438.564 593.32 439.052 591.992 439.391C593.62 439.768 594.733 440.328 595.332 441.07C595.931 441.799 596.23 442.711 596.23 443.805ZM592.676 435.719C592.676 435.159 592.526 434.71 592.227 434.371C591.927 434.02 591.556 433.753 591.113 433.57C590.684 433.375 590.202 433.245 589.668 433.18C589.134 433.115 588.613 433.082 588.105 433.082H581.699V438.316H588.105C588.639 438.316 589.18 438.284 589.727 438.219C590.273 438.154 590.768 438.023 591.211 437.828C591.654 437.62 592.005 437.353 592.266 437.027C592.539 436.689 592.676 436.253 592.676 435.719ZM593.555 443.688C593.555 442.62 593.118 441.839 592.246 441.344C591.374 440.849 590.182 440.602 588.672 440.602H581.699V446.715H588.672C590.182 446.715 591.374 446.461 592.246 445.953C593.118 445.445 593.555 444.69 593.555 443.688ZM602.578 440.836C602.773 442.763 603.477 444.299 604.688 445.445C605.898 446.591 607.474 447.164 609.414 447.164C610.781 447.164 611.999 446.884 613.066 446.324C614.134 445.764 614.935 445.068 615.469 444.234L617.344 445.523C616.432 446.799 615.345 447.776 614.082 448.453C612.819 449.117 611.263 449.449 609.414 449.449C608.008 449.449 606.719 449.215 605.547 448.746C604.375 448.277 603.359 447.626 602.5 446.793C601.654 445.947 600.996 444.944 600.527 443.785C600.059 442.626 599.824 441.337 599.824 439.918C599.824 438.538 600.033 437.268 600.449 436.109C600.879 434.938 601.491 433.928 602.285 433.082C603.092 432.223 604.069 431.559 605.215 431.09C606.361 430.608 607.643 430.367 609.062 430.367C610.612 430.367 611.966 430.628 613.125 431.148C614.284 431.669 615.247 432.392 616.016 433.316C616.797 434.228 617.37 435.322 617.734 436.598C618.112 437.874 618.301 439.286 618.301 440.836H602.578ZM615.469 438.551C615.169 436.559 614.447 435.074 613.301 434.098C612.155 433.121 610.742 432.633 609.062 432.633C608.203 432.633 607.409 432.776 606.68 433.062C605.951 433.336 605.306 433.733 604.746 434.254C604.186 434.775 603.717 435.406 603.34 436.148C602.962 436.878 602.721 437.678 602.617 438.551H615.469ZM621.738 446.715C622.35 446.585 622.936 446.233 623.496 445.66C624.056 445.087 624.544 444.293 624.961 443.277C625.378 442.262 625.71 441.031 625.957 439.586C626.217 438.128 626.348 436.454 626.348 434.566V430.797H636.289V446.715H639.941V455.23H637.539V449H624.141V455.23H621.738V446.715ZM629.023 434.566C629.023 436.077 628.913 437.496 628.691 438.824C628.483 440.139 628.203 441.318 627.852 442.359C627.513 443.401 627.122 444.299 626.68 445.055C626.237 445.797 625.801 446.35 625.371 446.715H633.613V433.082H629.023V434.566ZM644.531 430.797H647.207V445.484L657.051 430.797H660.82V449H658.125V433.648L647.852 449H644.531V430.797ZM683.613 439.391H681.328V433.082H675.859V446.715H679.961V449H669.043V446.715H673.164V433.082H667.695V439.391H665.41V430.797H683.613V439.391ZM689.922 440.836C690.117 442.763 690.82 444.299 692.031 445.445C693.242 446.591 694.818 447.164 696.758 447.164C698.125 447.164 699.342 446.884 700.41 446.324C701.478 445.764 702.279 445.068 702.812 444.234L704.688 445.523C703.776 446.799 702.689 447.776 701.426 448.453C700.163 449.117 698.607 449.449 696.758 449.449C695.352 449.449 694.062 449.215 692.891 448.746C691.719 448.277 690.703 447.626 689.844 446.793C688.997 445.947 688.34 444.944 687.871 443.785C687.402 442.626 687.168 441.337 687.168 439.918C687.168 438.538 687.376 437.268 687.793 436.109C688.223 434.938 688.835 433.928 689.629 433.082C690.436 432.223 691.413 431.559 692.559 431.09C693.704 430.608 694.987 430.367 696.406 430.367C697.956 430.367 699.31 430.628 700.469 431.148C701.628 431.669 702.591 432.392 703.359 433.316C704.141 434.228 704.714 435.322 705.078 436.598C705.456 437.874 705.645 439.286 705.645 440.836H689.922ZM702.812 438.551C702.513 436.559 701.79 435.074 700.645 434.098C699.499 433.121 698.086 432.633 696.406 432.633C695.547 432.633 694.753 432.776 694.023 433.062C693.294 433.336 692.65 433.733 692.09 434.254C691.53 434.775 691.061 435.406 690.684 436.148C690.306 436.878 690.065 437.678 689.961 438.551H702.812ZM749.082 430.797C749.082 433.258 748.314 435.087 746.777 436.285C745.241 437.483 743.086 438.082 740.312 438.082H734.551V449H731.875V423.512H740.273C743.073 423.512 745.241 424.124 746.777 425.348C748.314 426.559 749.082 428.375 749.082 430.797ZM746.406 430.797C746.406 429.039 745.853 427.77 744.746 426.988C743.639 426.194 742.161 425.797 740.312 425.797H734.551V435.797H740.312C742.161 435.797 743.639 435.406 744.746 434.625C745.853 433.831 746.406 432.555 746.406 430.797ZM767.305 449H756.387V446.715H760.508V425.797H756.387V423.512H767.305V425.797H763.203V446.715H767.305V449ZM791.836 449H788.516L778.223 427.438V449H775.547V423.512H779.316L789.141 444.078V423.512H791.836V449ZM814.629 440.797H796.426V438.512H814.629V440.797ZM836.426 449H832.617L825.176 440.836L821.895 443.844V449H819.219V430.797H821.895V440.602L832.266 430.797H836.094L826.973 439.156L836.426 449ZM858.77 439.957C858.77 441.376 858.542 442.665 858.086 443.824C857.643 444.983 856.999 445.979 856.152 446.812C855.319 447.633 854.316 448.277 853.145 448.746C851.973 449.215 850.664 449.449 849.219 449.449C847.799 449.449 846.504 449.215 845.332 448.746C844.16 448.277 843.151 447.633 842.305 446.812C841.471 445.979 840.827 444.983 840.371 443.824C839.928 442.665 839.707 441.376 839.707 439.957C839.707 438.577 839.928 437.294 840.371 436.109C840.827 434.911 841.471 433.896 842.305 433.062C843.151 432.216 844.16 431.559 845.332 431.09C846.504 430.608 847.799 430.367 849.219 430.367C850.664 430.367 851.973 430.608 853.145 431.09C854.316 431.559 855.319 432.216 856.152 433.062C856.999 433.896 857.643 434.911 858.086 436.109C858.542 437.294 858.77 438.577 858.77 439.957ZM856.094 439.957C856.094 438.915 855.938 437.958 855.625 437.086C855.326 436.201 854.876 435.426 854.277 434.762C853.678 434.098 852.949 433.577 852.09 433.199C851.243 432.822 850.286 432.633 849.219 432.633C848.151 432.633 847.188 432.822 846.328 433.199C845.482 433.577 844.766 434.098 844.18 434.762C843.594 435.426 843.145 436.201 842.832 437.086C842.533 437.958 842.383 438.915 842.383 439.957C842.383 440.999 842.533 441.962 842.832 442.848C843.145 443.72 843.594 444.475 844.18 445.113C844.766 445.751 845.482 446.253 846.328 446.617C847.188 446.982 848.151 447.164 849.219 447.164C850.286 447.164 851.243 446.982 852.09 446.617C852.949 446.253 853.678 445.751 854.277 445.113C854.876 444.475 855.326 443.72 855.625 442.848C855.938 441.962 856.094 440.999 856.094 439.957ZM861.934 446.715C862.546 446.585 863.132 446.233 863.691 445.66C864.251 445.087 864.74 444.293 865.156 443.277C865.573 442.262 865.905 441.031 866.152 439.586C866.413 438.128 866.543 436.454 866.543 434.566V430.797H876.484V446.715H880.137V455.23H877.734V449H864.336V455.23H861.934V446.715ZM869.219 434.566C869.219 436.077 869.108 437.496 868.887 438.824C868.678 440.139 868.398 441.318 868.047 442.359C867.708 443.401 867.318 444.299 866.875 445.055C866.432 445.797 865.996 446.35 865.566 446.715H873.809V433.082H869.219V434.566Z" fill="white"/>
<rect x="533.5" y="502.5" width="373" height="82" rx="6.5" fill="#1D1818" stroke="#59A5D7" stroke-width="3"/>
<path d="M674.233 535.715L662.544 542.004L674.233 548.464L672.354 551.677L661.006 544.738L661.484 557.966H657.52L657.998 544.738L646.65 551.677L644.771 548.464L656.46 542.004L644.771 535.715L646.65 532.434L657.998 539.44L657.52 526.11H661.484L661.006 539.44L672.354 532.434L674.233 535.715ZM712.446 535.715L700.757 542.004L712.446 548.464L710.566 551.677L699.219 544.738L699.697 557.966H695.732L696.211 544.738L684.863 551.677L682.983 548.464L694.673 542.004L682.983 535.715L684.863 532.434L696.211 539.44L695.732 526.11H699.697L699.219 539.44L710.566 532.434L712.446 535.715ZM750.659 535.715L738.97 542.004L750.659 548.464L748.779 551.677L737.432 544.738L737.91 557.966H733.945L734.424 544.738L723.076 551.677L721.196 548.464L732.886 542.004L721.196 535.715L723.076 532.434L734.424 539.44L733.945 526.11H737.91L737.432 539.44L748.779 532.434L750.659 535.715Z" fill="white"/>
<path d="M788.872 535.715L777.183 542.004L788.872 548.464L786.992 551.677L775.645 544.738L776.123 557.966H772.158L772.637 544.738L761.289 551.677L759.409 548.464L771.099 542.004L759.409 535.715L761.289 532.434L772.637 539.44L772.158 526.11H776.123L775.645 539.44L786.992 532.434L788.872 535.715Z" fill="#6D7B84"/>
<rect x="449" y="541" width="35" height="23" rx="2" fill="#1D1818" stroke="white" stroke-width="4"/>
<path d="M456.506 541C451.87 517.092 480.717 514.28 476.596 541" stroke="white" stroke-width="4"/>
<rect x="335" y="726" width="171" height="39" rx="19.5" fill="#59A5D7"/>
<rect x="948" y="726" width="171" height="39" rx="19.5" fill="#59A5D7"/>
<rect x="335" y="736" width="152" height="1" rx="0.5" fill="#59A5D7"/>
<path d="M397.66 754H395.133V747.03H390.006V754H387.479V738.07H390.006V744.747H395.133V738.07H397.66V754ZM410.001 754L408.854 750.204H403.581L402.458 754H399.809L404.777 738.07H407.682L412.65 754H410.001ZM404.252 747.97H408.183L406.229 741.402L404.252 747.97ZM425.407 749.679C425.407 750.379 425.264 751.013 424.979 751.583C424.695 752.145 424.312 752.625 423.832 753.023C423.36 753.422 422.811 753.731 422.184 753.951C421.566 754.171 420.915 754.281 420.231 754.281C419.466 754.281 418.75 754.179 418.083 753.976C417.415 753.764 416.825 753.443 416.312 753.011C415.808 752.58 415.397 752.035 415.08 751.375C414.762 750.708 414.571 749.915 414.506 748.995L416.874 748.604C416.955 749.654 417.297 750.484 417.899 751.095C418.502 751.697 419.279 751.998 420.231 751.998C421.037 751.998 421.675 751.786 422.147 751.363C422.636 750.94 422.88 750.379 422.88 749.679C422.88 748.808 422.554 748.149 421.903 747.701C421.26 747.254 420.316 747.03 419.071 747.03V744.747C419.617 744.747 420.105 744.694 420.536 744.588C420.967 744.474 421.334 744.312 421.635 744.1C421.936 743.88 422.168 743.612 422.331 743.294C422.493 742.969 422.575 742.59 422.575 742.159C422.575 741.866 422.522 741.594 422.416 741.341C422.318 741.081 422.172 740.857 421.977 740.67C421.781 740.483 421.537 740.336 421.244 740.23C420.951 740.125 420.613 740.072 420.231 740.072C419.726 740.072 419.283 740.161 418.9 740.34C418.518 740.511 418.192 740.751 417.924 741.061C417.663 741.37 417.464 741.732 417.326 742.147C417.195 742.562 417.13 743.006 417.13 743.478H414.848V738.07H417.13V739.95C417.228 739.6 417.391 739.291 417.619 739.022C417.855 738.753 418.127 738.53 418.437 738.351C418.746 738.163 419.079 738.025 419.438 737.936C419.796 737.846 420.15 737.801 420.5 737.801C421.118 737.801 421.704 737.907 422.257 738.119C422.811 738.322 423.299 738.615 423.722 738.998C424.145 739.372 424.479 739.828 424.723 740.365C424.975 740.902 425.102 741.5 425.102 742.159C425.102 742.647 425.028 743.103 424.882 743.526C424.743 743.941 424.54 744.308 424.271 744.625C424.003 744.934 423.673 745.187 423.283 745.382C422.9 745.577 422.465 745.691 421.977 745.724C422.522 745.772 423.006 745.915 423.429 746.151C423.861 746.387 424.223 746.684 424.516 747.042C424.809 747.4 425.028 747.807 425.175 748.263C425.329 748.718 425.407 749.19 425.407 749.679ZM437.296 754L436.149 750.204H430.875L429.752 754H427.104L432.072 738.07H434.977L439.945 754H437.296ZM431.547 747.97H435.478L433.524 741.402L431.547 747.97ZM441.471 751.729C441.935 751.363 442.313 750.997 442.606 750.631C442.899 750.257 443.127 749.74 443.29 749.081C443.461 748.413 443.579 747.526 443.644 746.419C443.709 745.305 443.742 743.832 443.742 742V738.07H450.993V751.729H452.848V757.894H450.565V754H443.742V757.894H441.471V751.729ZM446.269 742C446.269 743.433 446.252 744.662 446.22 745.687C446.187 746.712 446.106 747.599 445.976 748.348C445.854 749.097 445.662 749.74 445.402 750.277C445.15 750.806 444.787 751.29 444.315 751.729H448.466V740.353H446.269V742Z" fill="#696969"/>
<path d="M999.381 751.729C999.845 751.363 1000.22 750.997 1000.52 750.631C1000.81 750.257 1001.04 749.74 1001.2 749.081C1001.37 748.413 1001.49 747.526 1001.55 746.419C1001.62 745.305 1001.65 743.832 1001.65 742V738.07H1008.9V751.729H1010.76V757.894H1008.48V754H1001.65V757.894H999.381V751.729ZM1004.18 742C1004.18 743.433 1004.16 744.662 1004.13 745.687C1004.1 746.712 1004.02 747.599 1003.89 748.348C1003.76 749.097 1003.57 749.74 1003.31 750.277C1003.06 750.806 1002.7 751.29 1002.23 751.729H1006.38V740.353H1004.18V742ZM1022.5 754L1021.35 750.204H1016.08L1014.96 754H1012.31L1017.28 738.07H1020.18L1025.15 754H1022.5ZM1016.75 747.97H1020.68L1018.73 741.402L1016.75 747.97ZM1037.46 738.07V754H1034.93V740.353H1030.63V750.631C1030.63 751.29 1030.53 751.856 1030.34 752.328C1030.14 752.792 1029.88 753.166 1029.56 753.451C1029.24 753.736 1028.86 753.943 1028.42 754.073C1027.99 754.212 1027.53 754.281 1027.03 754.281C1026.35 754.281 1025.85 754.179 1025.53 753.976L1025.85 751.803C1025.97 751.868 1026.1 751.917 1026.25 751.949C1026.39 751.982 1026.57 751.998 1026.8 751.998C1027.67 751.998 1028.1 751.542 1028.1 750.631V738.07H1037.46ZM1051.1 754H1040.92V738.07H1051.1V740.353H1043.45V744.747H1049.42V747.03H1043.45V751.729H1051.1V754ZM1064.75 754H1054.57V738.07H1064.75V740.353H1057.1V744.747H1063.07V747.03H1057.1V751.729H1064.75V754Z" fill="white"/>
</svg>
