<svg width="1348" height="663" viewBox="0 0 1348 663" fill="none" xmlns="http://www.w3.org/2000/svg">
<mask id="path-1-inside-1_45_81" fill="white">
<rect width="332" height="662" rx="10"/>
</mask>
<rect width="332" height="662" rx="10" fill="#59A5D7" stroke="black" stroke-width="40" mask="url(#path-1-inside-1_45_81)"/>
<path d="M307.723 339.074L149.357 26.5198C145.986 19.8678 150.82 12 158.277 12H435.408C439.087 12 442.469 14.0201 444.213 17.2594L617.41 338.946C618.442 340.862 618.82 343.063 618.487 345.215L572.36 643.528C571.606 648.403 567.41 652 562.478 652H275.562C269.465 652 264.787 646.592 265.666 640.559L308.698 345.034C308.995 342.994 308.654 340.912 307.723 339.074Z" fill="#B0C7D9" stroke="black" stroke-width="22"/>
<path d="M417.599 66H232.718C229.686 66 227.757 69.2409 229.201 71.9062L340.865 277.906C341.564 279.196 342.914 280 344.382 280H527.337C530.356 280 532.287 276.784 530.867 274.119L421.129 68.1194C420.434 66.815 419.077 66 417.599 66Z" fill="#F2FFAB" stroke="black" stroke-width="22"/>
<path d="M436 214H314L348 270H366H510L436 214Z" fill="#DADADA" stroke="black"/>
<path d="M440 208L369 209L298 210" stroke="black" stroke-width="22"/>
<path d="M442.867 204.152L432 112L506 251L442.867 204.152Z" fill="#59A5D7" stroke="#59A5D7"/>
<path d="M416 66L431.806 204.306C431.93 205.388 432.49 206.373 433.356 207.033L516 270" stroke="black" stroke-width="22"/>
<rect x="432.5" y="364.5" width="150" height="22" rx="9.5" fill="black" stroke="black"/>
<mask id="path-9-inside-2_45_81" fill="white">
<rect x="450" y="369" width="114" height="129" rx="10"/>
</mask>
<rect x="450" y="369" width="114" height="129" rx="10" fill="#D7D7D7" stroke="black" stroke-width="40" mask="url(#path-9-inside-2_45_81)"/>
<rect x="812" y="34" width="506" height="87" rx="40" fill="black"/>
<rect x="812" y="188" width="506" height="87" rx="40" fill="black"/>
<rect x="812" y="507" width="506" height="87" rx="40" fill="black"/>
<rect x="812" y="353" width="506" height="87" rx="40" fill="black"/>
<path d="M874.246 91H870.203V76.4492H862V91H857.957V72.7969H874.246V91ZM897.508 81.918C897.508 83.3372 897.28 84.6263 896.824 85.7852C896.382 86.944 895.737 87.9466 894.891 88.793C894.057 89.6263 893.055 90.2773 891.883 90.7461C890.711 91.2148 889.402 91.4492 887.957 91.4492C886.538 91.4492 885.242 91.2148 884.07 90.7461C882.898 90.2773 881.889 89.6263 881.043 88.793C880.21 87.9466 879.565 86.944 879.109 85.7852C878.667 84.6263 878.445 83.3372 878.445 81.918C878.445 80.5378 878.667 79.2617 879.109 78.0898C879.565 76.9049 880.21 75.8893 881.043 75.043C881.889 74.1836 882.898 73.526 884.07 73.0703C885.242 72.6016 886.538 72.3672 887.957 72.3672C889.402 72.3672 890.711 72.6016 891.883 73.0703C893.055 73.526 894.057 74.1836 894.891 75.043C895.737 75.8893 896.382 76.9049 896.824 78.0898C897.28 79.2617 897.508 80.5378 897.508 81.918ZM893.484 81.918C893.484 81.0977 893.354 80.3229 893.094 79.5938C892.846 78.8516 892.482 78.2201 892 77.6992C891.518 77.1784 890.932 76.7682 890.242 76.4688C889.565 76.1562 888.803 76 887.957 76C887.098 76 886.329 76.1562 885.652 76.4688C884.975 76.7682 884.402 77.1784 883.934 77.6992C883.465 78.2201 883.1 78.8516 882.84 79.5938C882.592 80.3229 882.469 81.0977 882.469 81.918C882.469 82.7773 882.592 83.5586 882.84 84.2617C883.1 84.9648 883.465 85.5833 883.934 86.1172C884.402 86.651 884.975 87.0677 885.652 87.3672C886.329 87.6536 887.098 87.7969 887.957 87.7969C888.803 87.7969 889.565 87.6536 890.242 87.3672C890.932 87.0677 891.518 86.651 892 86.1172C892.482 85.5833 892.846 84.9648 893.094 84.2617C893.354 83.5586 893.484 82.7773 893.484 81.918ZM900.672 87.3672C901.414 86.9635 902.02 86.5013 902.488 85.9805C902.957 85.4596 903.322 84.8021 903.582 84.0078C903.855 83.2005 904.044 82.224 904.148 81.0781C904.253 79.9323 904.305 78.5586 904.305 76.957V72.7969H915.906V87.3672H918.875V97.2305H915.223V91H904.305V97.2305H900.672V87.3672ZM908.348 77.7578C908.348 78.5 908.322 79.3398 908.27 80.2773C908.217 81.2148 908.087 82.1393 907.879 83.0508C907.684 83.9492 907.378 84.7891 906.961 85.5703C906.557 86.3385 905.978 86.9375 905.223 87.3672H911.863V76.1953H908.348V77.7578ZM922.508 87.3672C923.25 86.9635 923.855 86.5013 924.324 85.9805C924.793 85.4596 925.158 84.8021 925.418 84.0078C925.691 83.2005 925.88 82.224 925.984 81.0781C926.089 79.9323 926.141 78.5586 926.141 76.957V72.7969H937.742V87.3672H940.711V97.2305H937.059V91H926.141V97.2305H922.508V87.3672ZM930.184 77.7578C930.184 78.5 930.158 79.3398 930.105 80.2773C930.053 81.2148 929.923 82.1393 929.715 83.0508C929.52 83.9492 929.214 84.7891 928.797 85.5703C928.393 86.3385 927.814 86.9375 927.059 87.3672H933.699V76.1953H930.184V77.7578ZM948.055 83.4414C948.25 84.6914 948.842 85.7331 949.832 86.5664C950.835 87.3867 952.176 87.7969 953.855 87.7969C955.171 87.7969 956.31 87.5951 957.273 87.1914C958.25 86.7747 959.09 86.2279 959.793 85.5508L961.863 88.4023C960.691 89.5742 959.448 90.375 958.133 90.8047C956.831 91.2344 955.405 91.4492 953.855 91.4492C952.449 91.4492 951.141 91.2148 949.93 90.7461C948.719 90.2773 947.671 89.6263 946.785 88.793C945.9 87.9466 945.203 86.944 944.695 85.7852C944.201 84.6263 943.953 83.3372 943.953 81.918C943.953 80.5378 944.181 79.2682 944.637 78.1094C945.105 76.9375 945.757 75.9284 946.59 75.082C947.436 74.2227 948.445 73.5586 949.617 73.0898C950.789 72.6081 952.085 72.3672 953.504 72.3672C954.975 72.3672 956.31 72.6211 957.508 73.1289C958.706 73.6237 959.728 74.3464 960.574 75.2969C961.434 76.2474 962.104 77.4128 962.586 78.793C963.068 80.1602 963.309 81.7096 963.309 83.4414H948.055ZM958.738 79.8867C958.53 78.7148 957.924 77.7773 956.922 77.0742C955.919 76.3581 954.78 76 953.504 76C952.228 76 951.082 76.3581 950.066 77.0742C949.051 77.7773 948.439 78.7148 948.23 79.8867H958.738ZM967.137 72.7969H971.18V74.4375C971.948 73.7474 972.723 73.2331 973.504 72.8945C974.298 72.543 975.203 72.3672 976.219 72.3672C977.391 72.3672 978.478 72.6081 979.48 73.0898C980.483 73.5586 981.342 74.2161 982.059 75.0625C982.775 75.8958 983.341 76.9049 983.758 78.0898C984.174 79.2617 984.383 80.5378 984.383 81.918C984.383 83.3112 984.174 84.5938 983.758 85.7656C983.341 86.9375 982.775 87.9466 982.059 88.793C981.342 89.6263 980.483 90.2773 979.48 90.7461C978.478 91.2148 977.391 91.4492 976.219 91.4492C975.203 91.4492 974.298 91.2669 973.504 90.9023C972.723 90.5378 971.948 90.0104 971.18 89.3203V98.2852H967.137V72.7969ZM971.18 86.1172C971.661 86.651 972.273 87.0677 973.016 87.3672C973.771 87.6536 974.493 87.7969 975.184 87.7969C976.707 87.7969 977.944 87.2565 978.895 86.1758C979.858 85.0951 980.34 83.6758 980.34 81.918C980.34 80.1602 979.858 78.7344 978.895 77.6406C977.944 76.5469 976.707 76 975.184 76C974.493 76 973.771 76.1432 973.016 76.4297C972.273 76.7031 971.661 77.1068 971.18 77.6406V86.1172ZM995.086 91V84.3203L994.422 83.4805L990.223 91H985.887L991.941 80.7656L985.887 72.7969H990.34L995.086 79.5938V72.7969H999.129V79.5938L1004.09 72.7969H1008.33L1002.29 80.7656L1008.33 91H1004.21L999.812 83.4805L999.129 84.3203V91H995.086ZM1028.02 91H1022.78L1016.69 83.6367L1014.85 85.5117V91H1010.81V72.7969H1014.85V80.5117L1022.14 72.7969H1027.68L1019.29 81.1562L1028.02 91ZM1031.61 85.7656C1031.61 84.6979 1031.9 83.7669 1032.47 82.9727C1033.04 82.1654 1033.79 81.4948 1034.71 80.9609C1035.65 80.4271 1036.72 80.0299 1037.92 79.7695C1039.13 79.4961 1040.36 79.3594 1041.61 79.3594C1042.3 79.3594 1042.89 79.3724 1043.39 79.3984C1043.88 79.4245 1044.38 79.4635 1044.89 79.5156V78.793C1044.89 77.8424 1044.52 77.1328 1043.78 76.6641C1043.05 76.1953 1042.08 75.9609 1040.89 75.9609C1039.79 75.9609 1038.68 76.1172 1037.55 76.4297C1036.41 76.7292 1035.34 77.1719 1034.32 77.7578L1032.68 74.5938C1033.88 73.9036 1035.16 73.3633 1036.53 72.9727C1037.91 72.569 1039.36 72.3672 1040.89 72.3672C1041.88 72.3672 1042.85 72.4779 1043.8 72.6992C1044.76 72.9206 1045.62 73.2852 1046.38 73.793C1047.14 74.3008 1047.76 74.9648 1048.21 75.7852C1048.67 76.5924 1048.89 77.5951 1048.89 78.793V91H1044.89V88.3242C1044.25 89.3138 1043.31 90.082 1042.06 90.6289C1040.82 91.1758 1039.49 91.4492 1038.05 91.4492C1037.17 91.4492 1036.33 91.3255 1035.54 91.0781C1034.75 90.8438 1034.08 90.4857 1033.5 90.0039C1032.93 89.5221 1032.47 88.9297 1032.12 88.2266C1031.78 87.5104 1031.61 86.6901 1031.61 85.7656ZM1039.09 87.8359C1039.88 87.8359 1040.63 87.7383 1041.32 87.543C1042.02 87.3346 1042.64 87.0547 1043.17 86.7031C1043.71 86.3385 1044.12 85.9023 1044.42 85.3945C1044.73 84.8867 1044.89 84.3268 1044.89 83.7148V83.0312C1044.25 82.9271 1043.65 82.8685 1043.09 82.8555C1042.53 82.8424 1042.04 82.8359 1041.61 82.8359C1039.63 82.8359 1038.13 83.0964 1037.12 83.6172C1036.11 84.138 1035.61 84.7826 1035.61 85.5508C1035.61 87.0742 1036.77 87.8359 1039.09 87.8359ZM1093.88 82.3281C1093.88 83.7344 1093.64 84.9974 1093.17 86.1172C1092.72 87.237 1092.08 88.194 1091.26 88.9883C1090.45 89.7695 1089.49 90.375 1088.39 90.8047C1087.28 91.2344 1086.1 91.4492 1084.83 91.4492C1082.92 91.4492 1081.34 91.0846 1080.09 90.3555C1078.85 89.6133 1077.87 88.6367 1077.16 87.4258C1076.44 86.2148 1075.93 84.8151 1075.63 83.2266C1075.35 81.638 1075.2 79.9909 1075.2 78.2852C1075.2 76.5534 1075.41 74.8932 1075.83 73.3047C1076.26 71.7161 1076.92 70.3099 1077.8 69.0859C1078.69 67.849 1079.79 66.8724 1081.1 66.1562C1082.42 65.4401 1083.99 65.082 1085.81 65.082C1087.08 65.082 1088.29 65.2773 1089.42 65.668C1090.55 66.0456 1091.54 66.612 1092.39 67.3672L1090.2 70.3164C1089.54 69.7305 1088.85 69.3203 1088.13 69.0859C1087.43 68.8385 1086.65 68.7148 1085.81 68.7148C1084.71 68.7148 1083.74 68.9362 1082.88 69.3789C1082.02 69.8216 1081.3 70.4466 1080.73 71.2539C1080.16 72.0482 1079.72 72.9922 1079.42 74.0859C1079.14 75.1797 1078.99 76.3776 1078.99 77.6797C1079.4 76.3255 1080.16 75.2188 1081.28 74.3594C1082.4 73.5 1083.88 73.0703 1085.71 73.0703C1086.8 73.0703 1087.85 73.3047 1088.84 73.7734C1089.83 74.2422 1090.69 74.8867 1091.43 75.707C1092.19 76.5143 1092.78 77.4844 1093.21 78.6172C1093.65 79.75 1093.88 80.987 1093.88 82.3281ZM1089.83 82.3281C1089.83 80.7266 1089.39 79.3854 1088.5 78.3047C1087.63 77.224 1086.37 76.6836 1084.71 76.6836C1083.11 76.6836 1081.83 77.1849 1080.87 78.1875C1079.92 79.1771 1079.44 80.4857 1079.44 82.1133C1079.44 82.9206 1079.55 83.6628 1079.75 84.3398C1079.98 85.0169 1080.3 85.6159 1080.73 86.1367C1081.17 86.6576 1081.73 87.0677 1082.41 87.3672C1083.1 87.6536 1083.92 87.7969 1084.87 87.7969C1086.32 87.7969 1087.5 87.3216 1088.43 86.3711C1089.36 85.4076 1089.83 84.0599 1089.83 82.3281ZM1115.4 69.1641C1113.8 70.8958 1112.5 72.5365 1111.51 74.0859C1110.52 75.6224 1109.75 77.224 1109.21 78.8906C1108.66 80.5573 1108.28 82.3672 1108.07 84.3203C1107.87 86.2604 1107.75 88.487 1107.72 91H1103.6C1103.63 88.6302 1103.78 86.4688 1104.07 84.5156C1104.37 82.5495 1104.84 80.7005 1105.48 78.9688C1106.11 77.224 1106.95 75.5638 1108 73.9883C1109.04 72.3997 1110.32 70.7917 1111.84 69.1641H1101.75V73.4414H1098.15V65.5117H1115.4V69.1641ZM1147.39 83.9688C1145.33 83.9427 1143.73 83.4674 1142.59 82.543C1141.44 81.6185 1140.87 80.2383 1140.87 78.4023C1140.87 76.5664 1141.45 75.1732 1142.62 74.2227C1143.8 73.2721 1145.44 72.7969 1147.55 72.7969H1158.11V91H1154.07V83.9688H1152.43L1146.02 91H1140.63L1147.39 83.9688ZM1144.91 78.3633C1144.91 79.0273 1145.14 79.5221 1145.61 79.8477C1146.08 80.1602 1146.71 80.3164 1147.51 80.3164H1154.07V76.4492H1147.51C1146.71 76.4492 1146.08 76.612 1145.61 76.9375C1145.14 77.25 1144.91 77.7253 1144.91 78.3633ZM1180.14 77.7969C1180.14 78.6823 1179.8 79.5156 1179.11 80.2969C1178.43 81.0651 1177.46 81.5534 1176.18 81.7617C1177.38 81.9961 1178.34 82.5039 1179.07 83.2852C1179.81 84.0534 1180.18 84.9062 1180.18 85.8438C1180.18 86.7161 1179.95 87.5039 1179.48 88.207C1179.01 88.8971 1178.37 89.4831 1177.55 89.9648C1176.74 90.4466 1175.78 90.8112 1174.68 91.0586C1173.57 91.319 1172.36 91.4492 1171.06 91.4492C1168.98 91.4492 1167.26 91.1302 1165.91 90.4922C1164.57 89.8411 1163.48 88.8646 1162.66 87.5625L1165.83 85.4336C1166.19 86.1367 1166.85 86.7096 1167.8 87.1523C1168.75 87.582 1169.86 87.7969 1171.14 87.7969C1172.64 87.7969 1173.84 87.5951 1174.75 87.1914C1175.68 86.7747 1176.14 86.2148 1176.14 85.5117C1176.14 85.0169 1175.8 84.5547 1175.12 84.125C1174.45 83.6953 1173.43 83.4805 1172.06 83.4805H1169.17V79.8477H1172.02C1173.39 79.8477 1174.41 79.6719 1175.09 79.3203C1175.76 78.9688 1176.1 78.5716 1176.1 78.1289C1176.1 77.4779 1175.67 76.9635 1174.79 76.5859C1173.93 76.1953 1172.78 76 1171.34 76C1168.86 76 1167.13 76.7747 1166.14 78.3242L1163.19 76.2734C1163.99 74.9714 1165.03 73.9948 1166.34 73.3438C1167.65 72.6927 1169.3 72.3672 1171.3 72.3672C1172.56 72.3672 1173.73 72.4974 1174.79 72.7578C1175.87 73.0052 1176.8 73.3633 1177.59 73.832C1178.38 74.2878 1179.01 74.8607 1179.46 75.5508C1179.92 76.2279 1180.14 76.9766 1180.14 77.7969ZM1196.9 85.3945C1196.9 87.2435 1196.32 88.6432 1195.14 89.5938C1193.97 90.5312 1192.33 91 1190.22 91H1184.15V72.7969H1188.17V79.8477H1190.26C1192.35 79.8477 1193.97 80.3099 1195.14 81.2344C1196.32 82.1458 1196.9 83.5326 1196.9 85.3945ZM1192.86 85.4336C1192.86 84.7695 1192.62 84.2812 1192.16 83.9688C1191.69 83.6432 1191.06 83.4805 1190.26 83.4805H1188.17V87.3672H1190.26C1191.06 87.3672 1191.69 87.2044 1192.16 86.8789C1192.62 86.5534 1192.86 86.0716 1192.86 85.4336ZM1199.09 72.7969H1203.13V91H1199.09V72.7969ZM1224.54 91H1219.3L1213.21 83.6367L1211.38 85.5117V91H1207.33V72.7969H1211.38V80.5117L1218.66 72.7969H1224.21L1215.81 81.1562L1224.54 91ZM1246.88 81.918C1246.88 83.3372 1246.65 84.6263 1246.2 85.7852C1245.76 86.944 1245.11 87.9466 1244.27 88.793C1243.43 89.6263 1242.43 90.2773 1241.26 90.7461C1240.09 91.2148 1238.78 91.4492 1237.33 91.4492C1235.91 91.4492 1234.62 91.2148 1233.45 90.7461C1232.27 90.2773 1231.26 89.6263 1230.42 88.793C1229.58 87.9466 1228.94 86.944 1228.48 85.7852C1228.04 84.6263 1227.82 83.3372 1227.82 81.918C1227.82 80.5378 1228.04 79.2617 1228.48 78.0898C1228.94 76.9049 1229.58 75.8893 1230.42 75.043C1231.26 74.1836 1232.27 73.526 1233.45 73.0703C1234.62 72.6016 1235.91 72.3672 1237.33 72.3672C1238.78 72.3672 1240.09 72.6016 1241.26 73.0703C1242.43 73.526 1243.43 74.1836 1244.27 75.043C1245.11 75.8893 1245.76 76.9049 1246.2 78.0898C1246.65 79.2617 1246.88 80.5378 1246.88 81.918ZM1242.86 81.918C1242.86 81.0977 1242.73 80.3229 1242.47 79.5938C1242.22 78.8516 1241.86 78.2201 1241.38 77.6992C1240.89 77.1784 1240.31 76.7682 1239.62 76.4688C1238.94 76.1562 1238.18 76 1237.33 76C1236.47 76 1235.7 76.1562 1235.03 76.4688C1234.35 76.7682 1233.78 77.1784 1233.31 77.6992C1232.84 78.2201 1232.48 78.8516 1232.21 79.5938C1231.97 80.3229 1231.84 81.0977 1231.84 81.918C1231.84 82.7773 1231.97 83.5586 1232.21 84.2617C1232.48 84.9648 1232.84 85.5833 1233.31 86.1172C1233.78 86.651 1234.35 87.0677 1235.03 87.3672C1235.7 87.6536 1236.47 87.7969 1237.33 87.7969C1238.18 87.7969 1238.94 87.6536 1239.62 87.3672C1240.31 87.0677 1240.89 86.651 1241.38 86.1172C1241.86 85.5833 1242.22 84.9648 1242.47 84.2617C1242.73 83.5586 1242.86 82.7773 1242.86 81.918ZM1268.21 86C1268.21 87.6536 1267.6 88.9036 1266.38 89.75C1265.16 90.5833 1263.43 91 1261.16 91H1251V72.7969H1260.44C1261.27 72.7969 1262.1 72.862 1262.92 72.9922C1263.75 73.1094 1264.49 73.3438 1265.14 73.6953C1265.8 74.0339 1266.32 74.5156 1266.73 75.1406C1267.13 75.7656 1267.33 76.5729 1267.33 77.5625C1267.33 78.474 1267.05 79.2943 1266.47 80.0234C1265.9 80.7526 1265.01 81.293 1263.82 81.6445C1265.3 81.8529 1266.4 82.3346 1267.12 83.0898C1267.85 83.832 1268.21 84.8021 1268.21 86ZM1263.33 78.0312C1263.33 77.6406 1263.24 77.3281 1263.07 77.0938C1262.92 76.8464 1262.7 76.6576 1262.43 76.5273C1262.17 76.3841 1261.86 76.293 1261.51 76.2539C1261.17 76.2148 1260.83 76.1953 1260.5 76.1953H1255.05V79.8477H1260.5C1260.83 79.8477 1261.17 79.8281 1261.51 79.7891C1261.86 79.737 1262.17 79.6458 1262.43 79.5156C1262.7 79.3854 1262.92 79.2031 1263.07 78.9688C1263.24 78.7214 1263.33 78.4089 1263.33 78.0312ZM1264.21 85.3945C1264.21 84.7565 1263.94 84.2812 1263.41 83.9688C1262.87 83.6432 1262.12 83.4805 1261.16 83.4805H1255.05V87.3672H1261.16C1262.12 87.3672 1262.87 87.2044 1263.41 86.8789C1263.94 86.5534 1264.21 86.0586 1264.21 85.3945Z" fill="white"/>
<path d="M877.957 224.797H882V232.395C882 233.814 882.267 234.797 882.801 235.344C883.335 235.891 884.109 236.164 885.125 236.164C886.609 236.164 887.827 235.559 888.777 234.348C889.728 233.124 890.203 231.451 890.203 229.328V224.797H894.246V243H890.203V234.797C889.799 236.372 889.051 237.603 887.957 238.488C886.863 239.361 885.516 239.797 883.914 239.797C882.052 239.797 880.594 239.191 879.539 237.98C878.484 236.77 877.957 234.908 877.957 232.395V224.797ZM902.547 235.441C902.742 236.691 903.335 237.733 904.324 238.566C905.327 239.387 906.668 239.797 908.348 239.797C909.663 239.797 910.802 239.595 911.766 239.191C912.742 238.775 913.582 238.228 914.285 237.551L916.355 240.402C915.184 241.574 913.94 242.375 912.625 242.805C911.323 243.234 909.897 243.449 908.348 243.449C906.941 243.449 905.633 243.215 904.422 242.746C903.211 242.277 902.163 241.626 901.277 240.793C900.392 239.947 899.695 238.944 899.188 237.785C898.693 236.626 898.445 235.337 898.445 233.918C898.445 232.538 898.673 231.268 899.129 230.109C899.598 228.938 900.249 227.928 901.082 227.082C901.928 226.223 902.938 225.559 904.109 225.09C905.281 224.608 906.577 224.367 907.996 224.367C909.467 224.367 910.802 224.621 912 225.129C913.198 225.624 914.22 226.346 915.066 227.297C915.926 228.247 916.596 229.413 917.078 230.793C917.56 232.16 917.801 233.71 917.801 235.441H902.547ZM913.23 231.887C913.022 230.715 912.417 229.777 911.414 229.074C910.411 228.358 909.272 228 907.996 228C906.72 228 905.574 228.358 904.559 229.074C903.543 229.777 902.931 230.715 902.723 231.887H913.23ZM938.836 234.074H935.223V228.449H931.785V239.367H935.828V243H923.719V239.367H927.742V228.449H924.266V234.074H920.672V224.797H938.836V234.074ZM954.871 237.395C954.871 239.243 954.285 240.643 953.113 241.594C951.941 242.531 950.301 243 948.191 243H942.117V224.797H946.141V231.848H948.23C950.314 231.848 951.941 232.31 953.113 233.234C954.285 234.146 954.871 235.533 954.871 237.395ZM950.828 237.434C950.828 236.77 950.594 236.281 950.125 235.969C949.656 235.643 949.025 235.48 948.23 235.48H946.141V239.367H948.23C949.025 239.367 949.656 239.204 950.125 238.879C950.594 238.553 950.828 238.072 950.828 237.434ZM957.059 224.797H961.102V243H957.059V224.797ZM965.301 224.797H969.344V226.438C970.112 225.747 970.887 225.233 971.668 224.895C972.462 224.543 973.367 224.367 974.383 224.367C975.555 224.367 976.642 224.608 977.645 225.09C978.647 225.559 979.507 226.216 980.223 227.062C980.939 227.896 981.505 228.905 981.922 230.09C982.339 231.262 982.547 232.538 982.547 233.918C982.547 235.311 982.339 236.594 981.922 237.766C981.505 238.938 980.939 239.947 980.223 240.793C979.507 241.626 978.647 242.277 977.645 242.746C976.642 243.215 975.555 243.449 974.383 243.449C973.367 243.449 972.462 243.267 971.668 242.902C970.887 242.538 970.112 242.01 969.344 241.32V250.285H965.301V224.797ZM969.344 238.117C969.826 238.651 970.438 239.068 971.18 239.367C971.935 239.654 972.658 239.797 973.348 239.797C974.871 239.797 976.108 239.257 977.059 238.176C978.022 237.095 978.504 235.676 978.504 233.918C978.504 232.16 978.022 230.734 977.059 229.641C976.108 228.547 974.871 228 973.348 228C972.658 228 971.935 228.143 971.18 228.43C970.438 228.703 969.826 229.107 969.344 229.641V238.117ZM989.891 235.441C990.086 236.691 990.678 237.733 991.668 238.566C992.671 239.387 994.012 239.797 995.691 239.797C997.007 239.797 998.146 239.595 999.109 239.191C1000.09 238.775 1000.93 238.228 1001.63 237.551L1003.7 240.402C1002.53 241.574 1001.28 242.375 999.969 242.805C998.667 243.234 997.241 243.449 995.691 243.449C994.285 243.449 992.977 243.215 991.766 242.746C990.555 242.277 989.507 241.626 988.621 240.793C987.736 239.947 987.039 238.944 986.531 237.785C986.036 236.626 985.789 235.337 985.789 233.918C985.789 232.538 986.017 231.268 986.473 230.109C986.941 228.938 987.592 227.928 988.426 227.082C989.272 226.223 990.281 225.559 991.453 225.09C992.625 224.608 993.921 224.367 995.34 224.367C996.811 224.367 998.146 224.621 999.344 225.129C1000.54 225.624 1001.56 226.346 1002.41 227.297C1003.27 228.247 1003.94 229.413 1004.42 230.793C1004.9 232.16 1005.14 233.71 1005.14 235.441H989.891ZM1000.57 231.887C1000.37 230.715 999.76 229.777 998.758 229.074C997.755 228.358 996.616 228 995.34 228C994.064 228 992.918 228.358 991.902 229.074C990.887 229.777 990.275 230.715 990.066 231.887H1000.57ZM1047.1 243H1043.05V235.48H1034.85V243H1030.81V224.797H1034.85V231.848H1043.05V224.797H1047.1V243ZM1051.61 237.766C1051.61 236.698 1051.9 235.767 1052.47 234.973C1053.04 234.165 1053.79 233.495 1054.71 232.961C1055.65 232.427 1056.72 232.03 1057.92 231.77C1059.13 231.496 1060.36 231.359 1061.61 231.359C1062.3 231.359 1062.89 231.372 1063.39 231.398C1063.88 231.424 1064.38 231.464 1064.89 231.516V230.793C1064.89 229.842 1064.52 229.133 1063.78 228.664C1063.05 228.195 1062.08 227.961 1060.89 227.961C1059.79 227.961 1058.68 228.117 1057.55 228.43C1056.41 228.729 1055.34 229.172 1054.32 229.758L1052.68 226.594C1053.88 225.904 1055.16 225.363 1056.53 224.973C1057.91 224.569 1059.36 224.367 1060.89 224.367C1061.88 224.367 1062.85 224.478 1063.8 224.699C1064.76 224.921 1065.62 225.285 1066.38 225.793C1067.14 226.301 1067.76 226.965 1068.21 227.785C1068.67 228.592 1068.89 229.595 1068.89 230.793V243H1064.89V240.324C1064.25 241.314 1063.31 242.082 1062.06 242.629C1060.82 243.176 1059.49 243.449 1058.05 243.449C1057.17 243.449 1056.33 243.326 1055.54 243.078C1054.75 242.844 1054.08 242.486 1053.5 242.004C1052.93 241.522 1052.47 240.93 1052.12 240.227C1051.78 239.51 1051.61 238.69 1051.61 237.766ZM1059.09 239.836C1059.88 239.836 1060.63 239.738 1061.32 239.543C1062.02 239.335 1062.64 239.055 1063.17 238.703C1063.71 238.339 1064.12 237.902 1064.42 237.395C1064.73 236.887 1064.89 236.327 1064.89 235.715V235.031C1064.25 234.927 1063.65 234.868 1063.09 234.855C1062.53 234.842 1062.04 234.836 1061.61 234.836C1059.63 234.836 1058.13 235.096 1057.12 235.617C1056.11 236.138 1055.61 236.783 1055.61 237.551C1055.61 239.074 1056.77 239.836 1059.09 239.836ZM1074.48 224.797H1078.52V232.395C1078.52 233.814 1078.79 234.797 1079.32 235.344C1079.86 235.891 1080.63 236.164 1081.65 236.164C1083.13 236.164 1084.35 235.559 1085.3 234.348C1086.25 233.124 1086.73 231.451 1086.73 229.328V224.797H1090.77V243H1086.73V234.797C1086.32 236.372 1085.57 237.603 1084.48 238.488C1083.39 239.361 1082.04 239.797 1080.44 239.797C1078.58 239.797 1077.12 239.191 1076.06 237.98C1075.01 236.77 1074.48 234.908 1074.48 232.395V224.797ZM1099.07 235.441C1099.27 236.691 1099.86 237.733 1100.85 238.566C1101.85 239.387 1103.19 239.797 1104.87 239.797C1106.19 239.797 1107.33 239.595 1108.29 239.191C1109.27 238.775 1110.11 238.228 1110.81 237.551L1112.88 240.402C1111.71 241.574 1110.46 242.375 1109.15 242.805C1107.85 243.234 1106.42 243.449 1104.87 243.449C1103.46 243.449 1102.16 243.215 1100.95 242.746C1099.73 242.277 1098.69 241.626 1097.8 240.793C1096.92 239.947 1096.22 238.944 1095.71 237.785C1095.22 236.626 1094.97 235.337 1094.97 233.918C1094.97 232.538 1095.2 231.268 1095.65 230.109C1096.12 228.938 1096.77 227.928 1097.61 227.082C1098.45 226.223 1099.46 225.559 1100.63 225.09C1101.8 224.608 1103.1 224.367 1104.52 224.367C1105.99 224.367 1107.33 224.621 1108.52 225.129C1109.72 225.624 1110.74 226.346 1111.59 227.297C1112.45 228.247 1113.12 229.413 1113.6 230.793C1114.08 232.16 1114.32 233.71 1114.32 235.441H1099.07ZM1109.75 231.887C1109.55 230.715 1108.94 229.777 1107.94 229.074C1106.93 228.358 1105.8 228 1104.52 228C1103.24 228 1102.1 228.358 1101.08 229.074C1100.07 229.777 1099.45 230.715 1099.25 231.887H1109.75ZM1118.15 224.797H1122.2V226.438C1122.96 225.747 1123.74 225.233 1124.52 224.895C1125.31 224.543 1126.22 224.367 1127.23 224.367C1128.41 224.367 1129.49 224.608 1130.5 225.09C1131.5 225.559 1132.36 226.216 1133.07 227.062C1133.79 227.896 1134.36 228.905 1134.77 230.09C1135.19 231.262 1135.4 232.538 1135.4 233.918C1135.4 235.311 1135.19 236.594 1134.77 237.766C1134.36 238.938 1133.79 239.947 1133.07 240.793C1132.36 241.626 1131.5 242.277 1130.5 242.746C1129.49 243.215 1128.41 243.449 1127.23 243.449C1126.22 243.449 1125.31 243.267 1124.52 242.902C1123.74 242.538 1122.96 242.01 1122.2 241.32V250.285H1118.15V224.797ZM1122.2 238.117C1122.68 238.651 1123.29 239.068 1124.03 239.367C1124.79 239.654 1125.51 239.797 1126.2 239.797C1127.72 239.797 1128.96 239.257 1129.91 238.176C1130.87 237.095 1131.36 235.676 1131.36 233.918C1131.36 232.16 1130.87 230.734 1129.91 229.641C1128.96 228.547 1127.72 228 1126.2 228C1125.51 228 1124.79 228.143 1124.03 228.43C1123.29 228.703 1122.68 229.107 1122.2 229.641V238.117ZM1157.2 234.074H1153.58V228.449H1150.14V239.367H1154.19V243H1142.08V239.367H1146.1V228.449H1142.62V234.074H1139.03V224.797H1157.2V234.074ZM1160.79 237.766C1160.79 236.698 1161.08 235.767 1161.65 234.973C1162.22 234.165 1162.97 233.495 1163.89 232.961C1164.83 232.427 1165.9 232.03 1167.1 231.77C1168.31 231.496 1169.54 231.359 1170.79 231.359C1171.48 231.359 1172.07 231.372 1172.57 231.398C1173.06 231.424 1173.56 231.464 1174.07 231.516V230.793C1174.07 229.842 1173.7 229.133 1172.96 228.664C1172.23 228.195 1171.26 227.961 1170.07 227.961C1168.97 227.961 1167.86 228.117 1166.73 228.43C1165.59 228.729 1164.52 229.172 1163.5 229.758L1161.86 226.594C1163.06 225.904 1164.34 225.363 1165.71 224.973C1167.09 224.569 1168.54 224.367 1170.07 224.367C1171.06 224.367 1172.03 224.478 1172.98 224.699C1173.94 224.921 1174.8 225.285 1175.55 225.793C1176.32 226.301 1176.93 226.965 1177.39 227.785C1177.85 228.592 1178.07 229.595 1178.07 230.793V243H1174.07V240.324C1173.43 241.314 1172.49 242.082 1171.24 242.629C1170 243.176 1168.67 243.449 1167.23 243.449C1166.35 243.449 1165.51 243.326 1164.71 243.078C1163.93 242.844 1163.26 242.486 1162.68 242.004C1162.11 241.522 1161.65 240.93 1161.3 240.227C1160.96 239.51 1160.79 238.69 1160.79 237.766ZM1168.27 239.836C1169.06 239.836 1169.81 239.738 1170.5 239.543C1171.2 239.335 1171.82 239.055 1172.35 238.703C1172.89 238.339 1173.3 237.902 1173.6 237.395C1173.91 236.887 1174.07 236.327 1174.07 235.715V235.031C1173.43 234.927 1172.83 234.868 1172.27 234.855C1171.71 234.842 1171.22 234.836 1170.79 234.836C1168.81 234.836 1167.31 235.096 1166.3 235.617C1165.29 236.138 1164.79 236.783 1164.79 237.551C1164.79 239.074 1165.95 239.836 1168.27 239.836ZM1199.95 243H1195.91V235.48H1187.7V243H1183.66V224.797H1187.7V231.848H1195.91V224.797H1199.95V243ZM1205.5 224.797H1209.54V237.316L1216.71 224.797H1221.79V243H1217.74V229.758L1210.18 243H1205.5V224.797ZM1232.9 235.969C1230.84 235.943 1229.24 235.467 1228.09 234.543C1226.95 233.618 1226.38 232.238 1226.38 230.402C1226.38 228.566 1226.96 227.173 1228.13 226.223C1229.3 225.272 1230.95 224.797 1233.05 224.797H1243.62V243H1239.58V235.969H1237.94L1231.53 243H1226.14L1232.9 235.969ZM1230.42 230.363C1230.42 231.027 1230.65 231.522 1231.12 231.848C1231.59 232.16 1232.22 232.316 1233.02 232.316H1239.58V228.449H1233.02C1232.22 228.449 1231.59 228.612 1231.12 228.938C1230.65 229.25 1230.42 229.725 1230.42 230.363Z" fill="white"/>
<path d="M974.516 397.328C974.516 398.734 974.281 399.997 973.812 401.117C973.357 402.237 972.719 403.194 971.898 403.988C971.091 404.77 970.134 405.375 969.027 405.805C967.921 406.234 966.736 406.449 965.473 406.449C963.559 406.449 961.977 406.085 960.727 405.355C959.49 404.613 958.513 403.637 957.797 402.426C957.081 401.215 956.573 399.815 956.273 398.227C955.987 396.638 955.844 394.991 955.844 393.285C955.844 391.553 956.052 389.893 956.469 388.305C956.898 386.716 957.556 385.31 958.441 384.086C959.327 382.849 960.427 381.872 961.742 381.156C963.057 380.44 964.626 380.082 966.449 380.082C967.725 380.082 968.93 380.277 970.062 380.668C971.195 381.046 972.185 381.612 973.031 382.367L970.844 385.316C970.18 384.73 969.49 384.32 968.773 384.086C968.07 383.839 967.296 383.715 966.449 383.715C965.355 383.715 964.379 383.936 963.52 384.379C962.66 384.822 961.944 385.447 961.371 386.254C960.798 387.048 960.362 387.992 960.062 389.086C959.776 390.18 959.633 391.378 959.633 392.68C960.036 391.326 960.798 390.219 961.918 389.359C963.038 388.5 964.516 388.07 966.352 388.07C967.445 388.07 968.487 388.305 969.477 388.773C970.466 389.242 971.332 389.887 972.074 390.707C972.829 391.514 973.422 392.484 973.852 393.617C974.294 394.75 974.516 395.987 974.516 397.328ZM970.473 397.328C970.473 395.727 970.03 394.385 969.145 393.305C968.272 392.224 967.009 391.684 965.355 391.684C963.754 391.684 962.471 392.185 961.508 393.188C960.557 394.177 960.082 395.486 960.082 397.113C960.082 397.921 960.186 398.663 960.395 399.34C960.616 400.017 960.941 400.616 961.371 401.137C961.814 401.658 962.374 402.068 963.051 402.367C963.741 402.654 964.561 402.797 965.512 402.797C966.957 402.797 968.142 402.322 969.066 401.371C970.004 400.408 970.473 399.06 970.473 397.328ZM993.031 406H980.805V402.367H984.906V387.875C984.724 388.513 984.405 389.079 983.949 389.574C983.507 390.069 982.966 390.486 982.328 390.824C981.703 391.15 981 391.404 980.219 391.586C979.451 391.755 978.656 391.84 977.836 391.84V387.797C978.721 387.797 979.581 387.654 980.414 387.367C981.26 387.068 982.016 386.618 982.68 386.02C983.344 385.421 983.878 384.672 984.281 383.773C984.698 382.862 984.906 381.775 984.906 380.512H988.949V402.367H993.031V406ZM1018.03 398.832C1018.03 400.173 1017.79 401.319 1017.31 402.27C1016.83 403.207 1016.16 403.988 1015.32 404.613C1014.48 405.238 1013.5 405.701 1012.37 406C1011.23 406.299 1010.03 406.449 1008.75 406.449C1007.45 406.449 1006.24 406.299 1005.12 406C1004 405.701 1003.02 405.238 1002.17 404.613C1001.33 403.988 1000.66 403.207 1000.18 402.27C999.711 401.319 999.477 400.173 999.477 398.832C999.477 398.142 999.6 397.445 999.848 396.742C1000.11 396.039 1000.47 395.388 1000.94 394.789C1001.42 394.177 1002 393.676 1002.68 393.285C1003.37 392.882 1004.12 392.628 1004.95 392.523C1004.23 392.445 1003.59 392.217 1003.03 391.84C1002.47 391.462 1002 391.013 1001.61 390.492C1001.23 389.971 1000.93 389.411 1000.71 388.812C1000.5 388.214 1000.39 387.634 1000.39 387.074C1000.39 385.928 1000.62 384.919 1001.06 384.047C1001.51 383.161 1002.13 382.426 1002.89 381.84C1003.68 381.254 1004.57 380.818 1005.59 380.531C1006.61 380.232 1007.66 380.082 1008.75 380.082C1009.85 380.082 1010.9 380.232 1011.92 380.531C1012.93 380.818 1013.83 381.254 1014.59 381.84C1015.36 382.426 1015.97 383.161 1016.43 384.047C1016.89 384.919 1017.11 385.928 1017.11 387.074C1017.11 387.634 1017 388.214 1016.78 388.812C1016.57 389.411 1016.27 389.971 1015.88 390.492C1015.51 391.013 1015.03 391.462 1014.46 391.84C1013.88 392.217 1013.23 392.445 1012.5 392.523C1013.34 392.628 1014.09 392.882 1014.77 393.285C1015.45 393.676 1016.03 394.177 1016.51 394.789C1016.99 395.388 1017.36 396.039 1017.62 396.742C1017.89 397.445 1018.03 398.142 1018.03 398.832ZM1013.07 387.328C1013.07 386.208 1012.69 385.329 1011.92 384.691C1011.16 384.04 1010.11 383.715 1008.75 383.715C1007.39 383.715 1006.33 384.04 1005.57 384.691C1004.82 385.329 1004.44 386.208 1004.44 387.328C1004.44 388.396 1004.79 389.236 1005.49 389.848C1006.2 390.46 1007.28 390.766 1008.75 390.766C1010.23 390.766 1011.31 390.46 1012.02 389.848C1012.72 389.236 1013.07 388.396 1013.07 387.328ZM1013.99 398.598C1013.99 397.829 1013.85 397.178 1013.56 396.645C1013.29 396.111 1012.91 395.681 1012.43 395.355C1011.94 395.017 1011.39 394.776 1010.77 394.633C1010.14 394.477 1009.47 394.398 1008.75 394.398C1008.04 394.398 1007.36 394.477 1006.72 394.633C1006.1 394.776 1005.54 395.017 1005.06 395.355C1004.59 395.681 1004.22 396.111 1003.93 396.645C1003.66 397.178 1003.52 397.829 1003.52 398.598C1003.52 399.314 1003.66 399.939 1003.93 400.473C1004.22 401.007 1004.59 401.449 1005.06 401.801C1005.54 402.152 1006.1 402.406 1006.72 402.562C1007.36 402.719 1008.04 402.797 1008.75 402.797C1009.47 402.797 1010.14 402.719 1010.77 402.562C1011.39 402.406 1011.94 402.152 1012.43 401.801C1012.91 401.449 1013.29 401.007 1013.56 400.473C1013.85 399.939 1013.99 399.314 1013.99 398.598ZM1044.3 387.797H1061.55V391.195H1048.34V406H1044.3V387.797ZM1082.43 387.797V406H1078.38V391.449H1071.51V400.609C1071.51 401.664 1071.35 402.569 1071.04 403.324C1070.73 404.066 1070.31 404.665 1069.79 405.121C1069.28 405.577 1068.68 405.909 1067.97 406.117C1067.28 406.339 1066.54 406.449 1065.75 406.449C1064.65 406.449 1063.85 406.286 1063.34 405.961L1063.85 402.484C1064.05 402.589 1064.26 402.667 1064.5 402.719C1064.72 402.771 1065.01 402.797 1065.38 402.797C1066.77 402.797 1067.46 402.068 1067.46 400.609V387.797H1082.43ZM1087.97 387.797H1092.02V400.316L1099.18 387.797H1104.26V406H1100.22V392.758L1092.66 406H1087.97V387.797ZM1115.92 392.035C1115.71 391.553 1115.48 391.228 1115.22 391.059C1114.97 390.889 1114.7 390.805 1114.42 390.805C1114.12 390.805 1113.83 390.902 1113.56 391.098C1113.3 391.293 1113.08 391.625 1112.89 392.094C1112.71 392.562 1112.56 393.194 1112.45 393.988C1112.34 394.77 1112.29 395.733 1112.29 396.879C1112.29 398.051 1112.34 399.027 1112.45 399.809C1112.56 400.577 1112.71 401.202 1112.89 401.684C1113.08 402.165 1113.3 402.504 1113.56 402.699C1113.83 402.895 1114.12 402.992 1114.42 402.992C1114.7 402.992 1114.97 402.908 1115.22 402.738C1115.48 402.569 1115.71 402.243 1115.92 401.762V392.035ZM1115.92 413.285V404.77C1115.71 405.329 1115.37 405.746 1114.89 406.02C1114.4 406.306 1113.9 406.449 1113.36 406.449C1112.65 406.449 1111.98 406.247 1111.37 405.844C1110.76 405.44 1110.22 404.841 1109.75 404.047C1109.28 403.24 1108.92 402.243 1108.66 401.059C1108.38 399.874 1108.25 398.48 1108.25 396.879C1108.25 395.277 1108.38 393.884 1108.66 392.699C1108.92 391.514 1109.28 390.531 1109.75 389.75C1110.22 388.956 1110.76 388.363 1111.37 387.973C1111.98 387.569 1112.65 387.367 1113.36 387.367C1113.9 387.367 1114.4 387.51 1114.89 387.797C1115.37 388.07 1115.71 388.487 1115.92 389.047V380.512H1119.96V389.047C1120.19 388.487 1120.53 388.07 1121 387.797C1121.48 387.51 1121.99 387.367 1122.52 387.367C1123.25 387.367 1123.92 387.569 1124.54 387.973C1125.15 388.363 1125.69 388.956 1126.16 389.75C1126.62 390.531 1126.99 391.514 1127.25 392.699C1127.52 393.884 1127.66 395.277 1127.66 396.879C1127.66 398.48 1127.52 399.874 1127.25 401.059C1126.99 402.243 1126.62 403.24 1126.16 404.047C1125.69 404.841 1125.15 405.44 1124.54 405.844C1123.92 406.247 1123.25 406.449 1122.52 406.449C1121.99 406.449 1121.48 406.306 1121 406.02C1120.53 405.746 1120.19 405.329 1119.96 404.77V413.285H1115.92ZM1119.96 401.762C1120.19 402.243 1120.42 402.569 1120.67 402.738C1120.93 402.908 1121.2 402.992 1121.49 402.992C1121.79 402.992 1122.07 402.895 1122.33 402.699C1122.6 402.504 1122.83 402.165 1123.01 401.684C1123.19 401.202 1123.34 400.577 1123.44 399.809C1123.56 399.027 1123.62 398.051 1123.62 396.879C1123.62 395.733 1123.56 394.77 1123.44 393.988C1123.34 393.194 1123.19 392.562 1123.01 392.094C1122.83 391.625 1122.6 391.293 1122.33 391.098C1122.07 390.902 1121.79 390.805 1121.49 390.805C1121.2 390.805 1120.93 390.889 1120.67 391.059C1120.42 391.228 1120.19 391.553 1119.96 392.035V401.762ZM1149.36 396.918C1149.36 398.337 1149.13 399.626 1148.68 400.785C1148.23 401.944 1147.59 402.947 1146.74 403.793C1145.91 404.626 1144.91 405.277 1143.73 405.746C1142.56 406.215 1141.25 406.449 1139.81 406.449C1138.39 406.449 1137.09 406.215 1135.92 405.746C1134.75 405.277 1133.74 404.626 1132.89 403.793C1132.06 402.947 1131.42 401.944 1130.96 400.785C1130.52 399.626 1130.3 398.337 1130.3 396.918C1130.3 395.538 1130.52 394.262 1130.96 393.09C1131.42 391.905 1132.06 390.889 1132.89 390.043C1133.74 389.184 1134.75 388.526 1135.92 388.07C1137.09 387.602 1138.39 387.367 1139.81 387.367C1141.25 387.367 1142.56 387.602 1143.73 388.07C1144.91 388.526 1145.91 389.184 1146.74 390.043C1147.59 390.889 1148.23 391.905 1148.68 393.09C1149.13 394.262 1149.36 395.538 1149.36 396.918ZM1145.34 396.918C1145.34 396.098 1145.21 395.323 1144.95 394.594C1144.7 393.852 1144.33 393.22 1143.85 392.699C1143.37 392.178 1142.78 391.768 1142.09 391.469C1141.42 391.156 1140.65 391 1139.81 391C1138.95 391 1138.18 391.156 1137.5 391.469C1136.83 391.768 1136.25 392.178 1135.79 392.699C1135.32 393.22 1134.95 393.852 1134.69 394.594C1134.44 395.323 1134.32 396.098 1134.32 396.918C1134.32 397.777 1134.44 398.559 1134.69 399.262C1134.95 399.965 1135.32 400.583 1135.79 401.117C1136.25 401.651 1136.83 402.068 1137.5 402.367C1138.18 402.654 1138.95 402.797 1139.81 402.797C1140.65 402.797 1141.42 402.654 1142.09 402.367C1142.78 402.068 1143.37 401.651 1143.85 401.117C1144.33 400.583 1144.7 399.965 1144.95 399.262C1145.21 398.559 1145.34 397.777 1145.34 396.918ZM1170.69 401C1170.69 402.654 1170.08 403.904 1168.85 404.75C1167.64 405.583 1165.9 406 1163.64 406H1153.48V387.797H1162.91C1163.75 387.797 1164.57 387.862 1165.39 387.992C1166.23 388.109 1166.97 388.344 1167.62 388.695C1168.27 389.034 1168.8 389.516 1169.2 390.141C1169.61 390.766 1169.81 391.573 1169.81 392.562C1169.81 393.474 1169.52 394.294 1168.95 395.023C1168.38 395.753 1167.49 396.293 1166.29 396.645C1167.78 396.853 1168.88 397.335 1169.59 398.09C1170.32 398.832 1170.69 399.802 1170.69 401ZM1165.8 393.031C1165.8 392.641 1165.72 392.328 1165.55 392.094C1165.39 391.846 1165.18 391.658 1164.91 391.527C1164.65 391.384 1164.34 391.293 1163.99 391.254C1163.65 391.215 1163.31 391.195 1162.97 391.195H1157.52V394.848H1162.97C1163.31 394.848 1163.65 394.828 1163.99 394.789C1164.34 394.737 1164.65 394.646 1164.91 394.516C1165.18 394.385 1165.39 394.203 1165.55 393.969C1165.72 393.721 1165.8 393.409 1165.8 393.031ZM1166.68 400.395C1166.68 399.757 1166.42 399.281 1165.88 398.969C1165.35 398.643 1164.6 398.48 1163.64 398.48H1157.52V402.367H1163.64C1164.6 402.367 1165.35 402.204 1165.88 401.879C1166.42 401.553 1166.68 401.059 1166.68 400.395Z" fill="white"/>
<path d="M886.52 560.402C885.348 561.574 884.111 562.375 882.809 562.805C881.52 563.234 880.12 563.449 878.609 563.449C877.086 563.449 875.699 563.221 874.449 562.766C873.212 562.31 872.158 561.672 871.285 560.852C870.426 560.018 869.762 559.016 869.293 557.844C868.837 556.672 868.609 555.363 868.609 553.918C868.609 552.538 868.837 551.262 869.293 550.09C869.762 548.905 870.387 547.896 871.168 547.062C871.962 546.216 872.893 545.559 873.961 545.09C875.029 544.608 876.161 544.367 877.359 544.367C878.609 544.367 879.697 544.628 880.621 545.148C881.546 545.669 882.216 546.431 882.633 547.434V544.797H886.246V553.273H882.633C882.633 551.672 882.19 550.396 881.305 549.445C880.432 548.482 879.293 548 877.887 548C877.327 548 876.734 548.117 876.109 548.352C875.497 548.573 874.931 548.924 874.41 549.406C873.902 549.888 873.479 550.5 873.141 551.242C872.802 551.984 872.633 552.876 872.633 553.918C872.633 554.934 872.796 555.812 873.121 556.555C873.447 557.284 873.87 557.889 874.391 558.371C874.924 558.84 875.549 559.198 876.266 559.445C876.995 559.68 877.743 559.797 878.512 559.797C879.827 559.797 880.966 559.595 881.93 559.191C882.906 558.775 883.746 558.228 884.449 557.551L886.52 560.402ZM909.508 553.918C909.508 555.337 909.28 556.626 908.824 557.785C908.382 558.944 907.737 559.947 906.891 560.793C906.057 561.626 905.055 562.277 903.883 562.746C902.711 563.215 901.402 563.449 899.957 563.449C898.538 563.449 897.242 563.215 896.07 562.746C894.898 562.277 893.889 561.626 893.043 560.793C892.21 559.947 891.565 558.944 891.109 557.785C890.667 556.626 890.445 555.337 890.445 553.918C890.445 552.538 890.667 551.262 891.109 550.09C891.565 548.905 892.21 547.889 893.043 547.043C893.889 546.184 894.898 545.526 896.07 545.07C897.242 544.602 898.538 544.367 899.957 544.367C901.402 544.367 902.711 544.602 903.883 545.07C905.055 545.526 906.057 546.184 906.891 547.043C907.737 547.889 908.382 548.905 908.824 550.09C909.28 551.262 909.508 552.538 909.508 553.918ZM905.484 553.918C905.484 553.098 905.354 552.323 905.094 551.594C904.846 550.852 904.482 550.22 904 549.699C903.518 549.178 902.932 548.768 902.242 548.469C901.565 548.156 900.803 548 899.957 548C899.098 548 898.329 548.156 897.652 548.469C896.975 548.768 896.402 549.178 895.934 549.699C895.465 550.22 895.1 550.852 894.84 551.594C894.592 552.323 894.469 553.098 894.469 553.918C894.469 554.777 894.592 555.559 894.84 556.262C895.1 556.965 895.465 557.583 895.934 558.117C896.402 558.651 896.975 559.068 897.652 559.367C898.329 559.654 899.098 559.797 899.957 559.797C900.803 559.797 901.565 559.654 902.242 559.367C902.932 559.068 903.518 558.651 904 558.117C904.482 557.583 904.846 556.965 905.094 556.262C905.354 555.559 905.484 554.777 905.484 553.918ZM930.113 549.797C930.113 550.682 929.768 551.516 929.078 552.297C928.401 553.065 927.424 553.553 926.148 553.762C927.346 553.996 928.31 554.504 929.039 555.285C929.781 556.053 930.152 556.906 930.152 557.844C930.152 558.716 929.918 559.504 929.449 560.207C928.98 560.897 928.336 561.483 927.516 561.965C926.708 562.447 925.751 562.811 924.645 563.059C923.538 563.319 922.333 563.449 921.031 563.449C918.948 563.449 917.229 563.13 915.875 562.492C914.534 561.841 913.453 560.865 912.633 559.562L915.797 557.434C916.161 558.137 916.819 558.71 917.77 559.152C918.72 559.582 919.833 559.797 921.109 559.797C922.607 559.797 923.811 559.595 924.723 559.191C925.647 558.775 926.109 558.215 926.109 557.512C926.109 557.017 925.771 556.555 925.094 556.125C924.417 555.695 923.395 555.48 922.027 555.48H919.137V551.848H921.988C923.355 551.848 924.378 551.672 925.055 551.32C925.732 550.969 926.07 550.572 926.07 550.129C926.07 549.478 925.634 548.964 924.762 548.586C923.902 548.195 922.75 548 921.305 548C918.831 548 917.099 548.775 916.109 550.324L913.16 548.273C913.954 546.971 915.003 545.995 916.305 545.344C917.62 544.693 919.273 544.367 921.266 544.367C922.529 544.367 923.694 544.497 924.762 544.758C925.842 545.005 926.773 545.363 927.555 545.832C928.349 546.288 928.974 546.861 929.43 547.551C929.885 548.228 930.113 548.977 930.113 549.797ZM934.508 559.367C935.25 558.964 935.855 558.501 936.324 557.98C936.793 557.46 937.158 556.802 937.418 556.008C937.691 555.201 937.88 554.224 937.984 553.078C938.089 551.932 938.141 550.559 938.141 548.957V544.797H949.742V559.367H952.711V569.23H949.059V563H938.141V569.23H934.508V559.367ZM942.184 549.758C942.184 550.5 942.158 551.34 942.105 552.277C942.053 553.215 941.923 554.139 941.715 555.051C941.52 555.949 941.214 556.789 940.797 557.57C940.393 558.339 939.814 558.938 939.059 559.367H945.699V548.195H942.184V549.758ZM956.266 557.766C956.266 556.698 956.552 555.767 957.125 554.973C957.698 554.165 958.447 553.495 959.371 552.961C960.309 552.427 961.376 552.03 962.574 551.77C963.785 551.496 965.016 551.359 966.266 551.359C966.956 551.359 967.548 551.372 968.043 551.398C968.538 551.424 969.039 551.464 969.547 551.516V550.793C969.547 549.842 969.176 549.133 968.434 548.664C967.704 548.195 966.741 547.961 965.543 547.961C964.449 547.961 963.336 548.117 962.203 548.43C961.07 548.729 959.996 549.172 958.98 549.758L957.34 546.594C958.538 545.904 959.82 545.363 961.188 544.973C962.568 544.569 964.02 544.367 965.543 544.367C966.533 544.367 967.503 544.478 968.453 544.699C969.417 544.921 970.276 545.285 971.031 545.793C971.799 546.301 972.411 546.965 972.867 547.785C973.323 548.592 973.551 549.595 973.551 550.793V563H969.547V560.324C968.909 561.314 967.965 562.082 966.715 562.629C965.478 563.176 964.143 563.449 962.711 563.449C961.826 563.449 960.986 563.326 960.191 563.078C959.41 562.844 958.733 562.486 958.16 562.004C957.587 561.522 957.125 560.93 956.773 560.227C956.435 559.51 956.266 558.69 956.266 557.766ZM963.746 559.836C964.54 559.836 965.283 559.738 965.973 559.543C966.676 559.335 967.294 559.055 967.828 558.703C968.362 558.339 968.779 557.902 969.078 557.395C969.391 556.887 969.547 556.327 969.547 555.715V555.031C968.909 554.927 968.31 554.868 967.75 554.855C967.19 554.842 966.695 554.836 966.266 554.836C964.286 554.836 962.789 555.096 961.773 555.617C960.771 556.138 960.27 556.783 960.27 557.551C960.27 559.074 961.428 559.836 963.746 559.836ZM995.426 563H991.383V555.48H983.18V563H979.137V544.797H983.18V551.848H991.383V544.797H995.426V563ZM1040.02 558C1040.02 559.654 1039.4 560.904 1038.18 561.75C1036.97 562.583 1035.23 563 1032.96 563H1022.81V544.797H1032.24C1033.08 544.797 1033.9 544.862 1034.72 544.992C1035.56 545.109 1036.3 545.344 1036.95 545.695C1037.6 546.034 1038.13 546.516 1038.53 547.141C1038.93 547.766 1039.14 548.573 1039.14 549.562C1039.14 550.474 1038.85 551.294 1038.28 552.023C1037.7 552.753 1036.82 553.293 1035.62 553.645C1037.11 553.853 1038.21 554.335 1038.92 555.09C1039.65 555.832 1040.02 556.802 1040.02 558ZM1035.13 550.031C1035.13 549.641 1035.05 549.328 1034.88 549.094C1034.72 548.846 1034.51 548.658 1034.23 548.527C1033.97 548.384 1033.67 548.293 1033.32 548.254C1032.98 548.215 1032.64 548.195 1032.3 548.195H1026.85V551.848H1032.3C1032.64 551.848 1032.98 551.828 1033.32 551.789C1033.67 551.737 1033.97 551.646 1034.23 551.516C1034.51 551.385 1034.72 551.203 1034.88 550.969C1035.05 550.721 1035.13 550.409 1035.13 550.031ZM1036.01 557.395C1036.01 556.757 1035.74 556.281 1035.21 555.969C1034.68 555.643 1033.93 555.48 1032.96 555.48H1026.85V559.367H1032.96C1033.93 559.367 1034.68 559.204 1035.21 558.879C1035.74 558.553 1036.01 558.059 1036.01 557.395ZM1083.2 544.484C1083.2 545.682 1082.88 546.906 1082.24 548.156C1081.6 549.406 1080.73 550.591 1079.61 551.711L1071.64 559.367H1079.12V555.871H1082.77V563H1066.36V559.191L1076.64 549.367C1077.52 548.456 1078.16 547.603 1078.55 546.809C1078.95 546.001 1079.16 545.227 1079.16 544.484C1079.16 543.82 1079.03 543.247 1078.77 542.766C1078.52 542.284 1078.19 541.893 1077.79 541.594C1077.4 541.281 1076.95 541.06 1076.44 540.93C1075.93 540.786 1075.43 540.715 1074.92 540.715C1073.32 540.715 1072.05 541.184 1071.13 542.121C1070.22 543.059 1069.76 544.445 1069.76 546.281H1065.97C1065.97 543.404 1066.73 541.151 1068.26 539.523C1069.79 537.896 1072.01 537.082 1074.92 537.082C1076.01 537.082 1077.06 537.245 1078.06 537.57C1079.07 537.883 1079.94 538.345 1080.7 538.957C1081.47 539.569 1082.07 540.344 1082.52 541.281C1082.97 542.219 1083.2 543.286 1083.2 544.484ZM1086.71 550.246C1086.71 548.54 1086.9 546.893 1087.26 545.305C1087.63 543.716 1088.19 542.316 1088.96 541.105C1089.73 539.895 1090.73 538.924 1091.97 538.195C1093.22 537.453 1094.72 537.082 1096.48 537.082C1098.24 537.082 1099.74 537.453 1100.97 538.195C1102.22 538.924 1103.24 539.895 1104.02 541.105C1104.8 542.316 1105.37 543.716 1105.72 545.305C1106.07 546.893 1106.25 548.54 1106.25 550.246C1106.25 551.952 1106.07 553.599 1105.72 555.188C1105.37 556.763 1104.81 558.169 1104.04 559.406C1103.27 560.63 1102.26 561.613 1101.01 562.355C1099.77 563.085 1098.26 563.449 1096.48 563.449C1094.7 563.449 1093.18 563.085 1091.93 562.355C1090.69 561.613 1089.68 560.63 1088.9 559.406C1088.13 558.169 1087.58 556.763 1087.24 555.188C1086.89 553.599 1086.71 551.952 1086.71 550.246ZM1090.76 550.246C1090.76 551.444 1090.84 552.603 1090.99 553.723L1100.99 543.684C1100.55 542.798 1099.96 542.082 1099.23 541.535C1098.52 540.988 1097.6 540.715 1096.48 540.715C1094.62 540.715 1093.2 541.555 1092.22 543.234C1091.25 544.914 1090.76 547.251 1090.76 550.246ZM1096.48 559.797C1097.63 559.797 1098.56 559.517 1099.29 558.957C1100.04 558.397 1100.61 557.668 1101.03 556.77C1101.46 555.858 1101.76 554.829 1101.93 553.684C1102.11 552.538 1102.2 551.392 1102.2 550.246C1102.2 549.152 1102.12 548.085 1101.97 547.043L1092.05 557.004C1092.49 557.85 1093.06 558.527 1093.75 559.035C1094.45 559.543 1095.36 559.797 1096.48 559.797ZM1108.55 550.246C1108.55 548.54 1108.73 546.893 1109.1 545.305C1109.46 543.716 1110.03 542.316 1110.8 541.105C1111.57 539.895 1112.57 538.924 1113.8 538.195C1115.05 537.453 1116.56 537.082 1118.32 537.082C1120.07 537.082 1121.57 537.453 1122.81 538.195C1124.06 538.924 1125.07 539.895 1125.86 541.105C1126.64 542.316 1127.2 543.716 1127.55 545.305C1127.91 546.893 1128.08 548.54 1128.08 550.246C1128.08 551.952 1127.91 553.599 1127.55 555.188C1127.2 556.763 1126.64 558.169 1125.88 559.406C1125.11 560.63 1124.1 561.613 1122.85 562.355C1121.61 563.085 1120.1 563.449 1118.32 563.449C1116.53 563.449 1115.02 563.085 1113.77 562.355C1112.53 561.613 1111.52 560.63 1110.74 559.406C1109.97 558.169 1109.42 556.763 1109.08 555.188C1108.73 553.599 1108.55 551.952 1108.55 550.246ZM1112.59 550.246C1112.59 551.444 1112.67 552.603 1112.83 553.723L1122.83 543.684C1122.39 542.798 1121.8 542.082 1121.07 541.535C1120.35 540.988 1119.44 540.715 1118.32 540.715C1116.45 540.715 1115.04 541.555 1114.06 543.234C1113.08 544.914 1112.59 547.251 1112.59 550.246ZM1118.32 559.797C1119.46 559.797 1120.4 559.517 1121.13 558.957C1121.87 558.397 1122.45 557.668 1122.87 556.77C1123.3 555.858 1123.6 554.829 1123.77 553.684C1123.95 552.538 1124.04 551.392 1124.04 550.246C1124.04 549.152 1123.96 548.085 1123.8 547.043L1113.88 557.004C1114.33 557.85 1114.89 558.527 1115.58 559.035C1116.29 559.543 1117.2 559.797 1118.32 559.797ZM1130.72 546.203C1130.72 544.784 1130.95 543.514 1131.4 542.395C1131.87 541.275 1132.51 540.324 1133.32 539.543C1134.14 538.749 1135.1 538.143 1136.21 537.727C1137.31 537.297 1138.49 537.082 1139.74 537.082C1141.67 537.082 1143.25 537.453 1144.49 538.195C1145.73 538.924 1146.7 539.901 1147.42 541.125C1148.15 542.349 1148.65 543.749 1148.94 545.324C1149.24 546.9 1149.39 548.54 1149.39 550.246C1149.39 551.978 1149.18 553.638 1148.75 555.227C1148.32 556.815 1147.66 558.221 1146.77 559.445C1145.9 560.669 1144.8 561.646 1143.47 562.375C1142.14 563.091 1140.58 563.449 1138.79 563.449C1137.51 563.449 1136.3 563.254 1135.17 562.863C1134.04 562.473 1133.04 561.906 1132.18 561.164L1134.39 558.195C1135.05 558.781 1135.74 559.198 1136.44 559.445C1137.16 559.68 1137.94 559.797 1138.79 559.797C1139.88 559.797 1140.85 559.582 1141.7 559.152C1142.55 558.71 1143.27 558.091 1143.84 557.297C1144.42 556.49 1144.85 555.539 1145.13 554.445C1145.43 553.352 1145.58 552.147 1145.58 550.832C1145.19 552.199 1144.44 553.312 1143.32 554.172C1142.2 555.018 1140.71 555.441 1138.86 555.441C1137.77 555.441 1136.73 555.207 1135.74 554.738C1134.76 554.27 1133.9 553.632 1133.14 552.824C1132.4 552.004 1131.81 551.027 1131.36 549.895C1130.93 548.762 1130.72 547.531 1130.72 546.203ZM1134.74 546.203C1134.74 547.805 1135.18 549.146 1136.07 550.227C1136.96 551.307 1138.23 551.848 1139.88 551.848C1141.47 551.848 1142.74 551.346 1143.71 550.344C1144.67 549.341 1145.15 548.026 1145.15 546.398C1145.15 545.604 1145.04 544.868 1144.82 544.191C1144.61 543.501 1144.29 542.896 1143.84 542.375C1143.41 541.854 1142.85 541.451 1142.16 541.164C1141.49 540.865 1140.67 540.715 1139.7 540.715C1138.27 540.715 1137.09 541.197 1136.15 542.16C1135.21 543.124 1134.74 544.471 1134.74 546.203ZM1175.66 544.797H1192.91V548.195H1179.7V563H1175.66V544.797ZM1215.21 553.918C1215.21 555.337 1214.98 556.626 1214.53 557.785C1214.08 558.944 1213.44 559.947 1212.59 560.793C1211.76 561.626 1210.76 562.277 1209.59 562.746C1208.41 563.215 1207.11 563.449 1205.66 563.449C1204.24 563.449 1202.95 563.215 1201.77 562.746C1200.6 562.277 1199.59 561.626 1198.75 560.793C1197.91 559.947 1197.27 558.944 1196.81 557.785C1196.37 556.626 1196.15 555.337 1196.15 553.918C1196.15 552.538 1196.37 551.262 1196.81 550.09C1197.27 548.905 1197.91 547.889 1198.75 547.043C1199.59 546.184 1200.6 545.526 1201.77 545.07C1202.95 544.602 1204.24 544.367 1205.66 544.367C1207.11 544.367 1208.41 544.602 1209.59 545.07C1210.76 545.526 1211.76 546.184 1212.59 547.043C1213.44 547.889 1214.08 548.905 1214.53 550.09C1214.98 551.262 1215.21 552.538 1215.21 553.918ZM1211.19 553.918C1211.19 553.098 1211.06 552.323 1210.8 551.594C1210.55 550.852 1210.18 550.22 1209.7 549.699C1209.22 549.178 1208.64 548.768 1207.95 548.469C1207.27 548.156 1206.51 548 1205.66 548C1204.8 548 1204.03 548.156 1203.36 548.469C1202.68 548.768 1202.11 549.178 1201.64 549.699C1201.17 550.22 1200.8 550.852 1200.54 551.594C1200.3 552.323 1200.17 553.098 1200.17 553.918C1200.17 554.777 1200.3 555.559 1200.54 556.262C1200.8 556.965 1201.17 557.583 1201.64 558.117C1202.11 558.651 1202.68 559.068 1203.36 559.367C1204.03 559.654 1204.8 559.797 1205.66 559.797C1206.51 559.797 1207.27 559.654 1207.95 559.367C1208.64 559.068 1209.22 558.651 1209.7 558.117C1210.18 557.583 1210.55 556.965 1210.8 556.262C1211.06 555.559 1211.19 554.777 1211.19 553.918ZM1218.38 559.367C1219.12 558.964 1219.72 558.501 1220.19 557.98C1220.66 557.46 1221.02 556.802 1221.29 556.008C1221.56 555.201 1221.75 554.224 1221.85 553.078C1221.96 551.932 1222.01 550.559 1222.01 548.957V544.797H1233.61V559.367H1236.58V569.23H1232.93V563H1222.01V569.23H1218.38V559.367ZM1226.05 549.758C1226.05 550.5 1226.02 551.34 1225.97 552.277C1225.92 553.215 1225.79 554.139 1225.58 555.051C1225.39 555.949 1225.08 556.789 1224.66 557.57C1224.26 558.339 1223.68 558.938 1222.93 559.367H1229.57V548.195H1226.05V549.758ZM1258.26 544.797L1250.41 566.555C1249.82 568.13 1248.97 569.217 1247.85 569.816C1246.73 570.415 1245.39 570.715 1243.84 570.715C1243.31 570.715 1242.74 570.663 1242.12 570.559C1241.51 570.454 1240.88 570.279 1240.21 570.031L1241.05 566.32C1241.61 566.529 1242.12 566.672 1242.59 566.75C1243.06 566.841 1243.48 566.887 1243.84 566.887C1245.05 566.887 1245.88 566.34 1246.32 565.246L1247.05 563.488L1240.09 544.797H1244.29L1249.29 558.566L1253.92 544.797H1258.26Z" fill="white"/>
</svg>
