<svg width="1440" height="884" viewBox="0 0 1440 884" fill="none" xmlns="http://www.w3.org/2000/svg">
<rect width="1440" height="884" fill="black"/>
<path d="M546.797 105.414L541.289 136H537.492L534.375 121.07L531.211 136H527.461L522 105.414H525.398L529.711 130.586L532.781 114.156H535.945L539.039 130.586L543.352 105.414H546.797ZM552.891 126.203C553.125 128.516 553.969 130.359 555.422 131.734C556.875 133.109 558.766 133.797 561.094 133.797C562.734 133.797 564.195 133.461 565.477 132.789C566.758 132.117 567.719 131.281 568.359 130.281L570.609 131.828C569.516 133.359 568.211 134.531 566.695 135.344C565.18 136.141 563.312 136.539 561.094 136.539C559.406 136.539 557.859 136.258 556.453 135.695C555.047 135.133 553.828 134.352 552.797 133.352C551.781 132.336 550.992 131.133 550.43 129.742C549.867 128.352 549.586 126.805 549.586 125.102C549.586 123.445 549.836 121.922 550.336 120.531C550.852 119.125 551.586 117.914 552.539 116.898C553.508 115.867 554.68 115.07 556.055 114.508C557.43 113.93 558.969 113.641 560.672 113.641C562.531 113.641 564.156 113.953 565.547 114.578C566.938 115.203 568.094 116.07 569.016 117.18C569.953 118.273 570.641 119.586 571.078 121.117C571.531 122.648 571.758 124.344 571.758 126.203H552.891ZM568.359 123.461C568 121.07 567.133 119.289 565.758 118.117C564.383 116.945 562.688 116.359 560.672 116.359C559.641 116.359 558.688 116.531 557.812 116.875C556.938 117.203 556.164 117.68 555.492 118.305C554.82 118.93 554.258 119.688 553.805 120.578C553.352 121.453 553.062 122.414 552.938 123.461H568.359ZM588.984 109.797H584.625V105.414H588.984V109.797ZM593.344 136H580.242V133.258H585.188V116.898H580.242V114.156H588.422V133.258H593.344V136ZM622.781 135.766C622.781 137.266 622.523 138.602 622.008 139.773C621.492 140.945 620.766 141.938 619.828 142.75C618.906 143.562 617.812 144.18 616.547 144.602C615.297 145.039 613.898 145.258 612.352 145.258C610.18 145.258 608.328 144.852 606.797 144.039C605.281 143.227 603.969 142.055 602.859 140.523L605.109 138.789C605.781 139.805 606.75 140.656 608.016 141.344C609.281 142.031 610.727 142.375 612.352 142.375C614.57 142.375 616.32 141.812 617.602 140.688C618.898 139.578 619.547 137.969 619.547 135.859V133.516C617.641 135.203 615.469 136.047 613.031 136.047C609.609 136.047 606.922 135.07 604.969 133.117C603.016 131.164 602.039 128.492 602.039 125.102C602.039 123.445 602.289 121.922 602.789 120.531C603.305 119.125 604.031 117.914 604.969 116.898C605.922 115.867 607.078 115.07 608.438 114.508C609.797 113.93 611.328 113.641 613.031 113.641C614.219 113.641 615.367 113.852 616.477 114.273C617.602 114.68 618.625 115.297 619.547 116.125V114.156H622.781V135.766ZM619.547 119.242C618.625 118.227 617.609 117.492 616.5 117.039C615.406 116.586 614.25 116.359 613.031 116.359C611.75 116.359 610.617 116.586 609.633 117.039C608.664 117.492 607.859 118.109 607.219 118.891C606.578 119.672 606.086 120.602 605.742 121.68C605.414 122.742 605.25 123.883 605.25 125.102C605.25 127.602 605.898 129.594 607.195 131.078C608.492 132.562 610.438 133.305 613.031 133.305C614.25 133.305 615.406 133.078 616.5 132.625C617.609 132.156 618.625 131.406 619.547 130.375V119.242ZM648.984 136H645.75V122.523C645.75 120.57 645.328 119.055 644.484 117.977C643.641 116.898 642.273 116.359 640.383 116.359C639.195 116.359 638.117 116.633 637.148 117.18C636.195 117.727 635.383 118.461 634.711 119.383C634.039 120.289 633.523 121.336 633.164 122.523C632.82 123.695 632.648 124.922 632.648 126.203V136H629.438V105.414H632.648V119.641C634.195 115.641 636.953 113.641 640.922 113.641C646.297 113.641 648.984 116.602 648.984 122.523V136ZM676.57 129.039C676.32 131.336 675.414 133.164 673.852 134.523C672.305 135.867 670.367 136.539 668.039 136.539C666.758 136.539 665.586 136.328 664.523 135.906C663.461 135.484 662.555 134.898 661.805 134.148C661.055 133.398 660.469 132.5 660.047 131.453C659.641 130.391 659.438 129.234 659.438 127.984V116.898H654.492V114.156H659.438V105.414H662.648V114.156H671.953V116.898H662.648V127.984C662.648 128.781 662.773 129.531 663.023 130.234C663.289 130.938 663.648 131.555 664.102 132.086C664.57 132.617 665.133 133.039 665.789 133.352C666.445 133.648 667.195 133.797 668.039 133.797C669.633 133.797 670.961 133.305 672.023 132.32C673.102 131.32 673.719 130.031 673.875 128.453L676.57 129.039ZM729.305 122.758C729.023 124.102 728.57 125.453 727.945 126.812C727.32 128.172 726.547 129.461 725.625 130.68L729.305 134.125L727.102 136.633L723.422 133.023C722.266 134.055 720.984 134.898 719.578 135.555C718.172 136.211 716.648 136.539 715.008 136.539C713.82 136.539 712.695 136.32 711.633 135.883C710.586 135.445 709.672 134.852 708.891 134.102C708.109 133.352 707.484 132.477 707.016 131.477C706.547 130.461 706.312 129.359 706.312 128.172C706.312 127.188 706.422 126.289 706.641 125.477C706.844 124.648 707.125 123.906 707.484 123.25C707.859 122.594 708.297 122.008 708.797 121.492C709.297 120.961 709.836 120.469 710.414 120.016C709.445 118.797 708.695 117.594 708.164 116.406C707.633 115.203 707.367 113.992 707.367 112.773C707.367 110.367 708.062 108.453 709.453 107.031C710.859 105.609 712.727 104.898 715.055 104.898C716.117 104.898 717.109 105.062 718.031 105.391C718.969 105.703 719.781 106.156 720.469 106.75C721.156 107.344 721.688 108.062 722.062 108.906C722.453 109.75 722.648 110.719 722.648 111.812C722.648 113.031 722.406 114.07 721.922 114.93C721.438 115.789 720.828 116.547 720.094 117.203C719.359 117.859 718.523 118.453 717.586 118.984C716.664 119.516 715.758 120.07 714.867 120.648L723.305 128.57C724.055 127.539 724.664 126.461 725.133 125.336C725.617 124.195 725.984 123.078 726.234 121.984L729.305 122.758ZM715.008 133.445C716.227 133.445 717.359 133.219 718.406 132.766C719.469 132.297 720.414 131.68 721.242 130.914L713.18 123.039L712.477 122.359C711.664 123.062 711.008 123.875 710.508 124.797C710.023 125.703 709.781 126.828 709.781 128.172C709.781 129.672 710.266 130.93 711.234 131.945C712.219 132.945 713.477 133.445 715.008 133.445ZM710.695 112.773C710.695 113.508 710.828 114.344 711.094 115.281C711.375 116.203 711.961 117.25 712.852 118.422C713.648 117.953 714.438 117.492 715.219 117.039C716.016 116.586 716.711 116.109 717.305 115.609C717.914 115.094 718.398 114.523 718.758 113.898C719.133 113.273 719.32 112.547 719.32 111.719C719.32 110.5 718.914 109.539 718.102 108.836C717.289 108.133 716.273 107.781 715.055 107.781C714.383 107.781 713.773 107.922 713.227 108.203C712.695 108.469 712.234 108.836 711.844 109.305C711.453 109.758 711.164 110.289 710.977 110.898C710.789 111.508 710.695 112.133 710.695 112.773ZM780.375 128.031C780.375 129.312 780.109 130.477 779.578 131.523C779.047 132.555 778.336 133.445 777.445 134.195C776.555 134.945 775.531 135.523 774.375 135.93C773.219 136.336 772.016 136.539 770.766 136.539C769.047 136.539 767.469 136.219 766.031 135.578C764.594 134.938 763.453 133.992 762.609 132.742V136H759.891V126.695H762.609C762.609 127.742 762.852 128.703 763.336 129.578C763.82 130.438 764.438 131.18 765.188 131.805C765.938 132.43 766.797 132.922 767.766 133.281C768.75 133.625 769.75 133.797 770.766 133.797C771.672 133.797 772.508 133.672 773.273 133.422C774.039 133.156 774.711 132.789 775.289 132.32C775.867 131.836 776.32 131.25 776.648 130.562C776.992 129.875 777.164 129.094 777.164 128.219C777.164 127.234 776.945 126.391 776.508 125.688C776.086 124.984 775.508 124.383 774.773 123.883C774.055 123.383 773.242 122.961 772.336 122.617C771.43 122.258 770.508 121.906 769.57 121.562C768.461 121.172 767.352 120.766 766.242 120.344C765.133 119.906 764.141 119.359 763.266 118.703C762.391 118.047 761.68 117.25 761.133 116.312C760.586 115.359 760.312 114.18 760.312 112.773C760.312 111.523 760.578 110.414 761.109 109.445C761.641 108.461 762.336 107.633 763.195 106.961C764.055 106.289 765.055 105.781 766.195 105.438C767.336 105.078 768.508 104.898 769.711 104.898C771.195 104.898 772.562 105.203 773.812 105.812C775.078 106.422 776.062 107.352 776.766 108.602V105.414H779.602V114.156H776.766C776.766 113.234 776.57 112.375 776.18 111.578C775.805 110.766 775.289 110.078 774.633 109.516C773.977 108.938 773.227 108.484 772.383 108.156C771.539 107.812 770.648 107.641 769.711 107.641C768.883 107.641 768.094 107.734 767.344 107.922C766.594 108.109 765.938 108.414 765.375 108.836C764.812 109.242 764.359 109.773 764.016 110.43C763.688 111.086 763.523 111.867 763.523 112.773C763.523 113.57 763.719 114.25 764.109 114.812C764.516 115.375 765.055 115.875 765.727 116.312C766.398 116.734 767.172 117.125 768.047 117.484C768.938 117.828 769.844 118.18 770.766 118.539C771.922 118.945 773.07 119.398 774.211 119.898C775.352 120.398 776.375 121 777.281 121.703C778.188 122.406 778.93 123.273 779.508 124.305C780.086 125.32 780.375 126.562 780.375 128.031ZM807.586 129.039C807.336 131.336 806.43 133.164 804.867 134.523C803.32 135.867 801.383 136.539 799.055 136.539C797.773 136.539 796.602 136.328 795.539 135.906C794.477 135.484 793.57 134.898 792.82 134.148C792.07 133.398 791.484 132.5 791.062 131.453C790.656 130.391 790.453 129.234 790.453 127.984V116.898H785.508V114.156H790.453V105.414H793.664V114.156H802.969V116.898H793.664V127.984C793.664 128.781 793.789 129.531 794.039 130.234C794.305 130.938 794.664 131.555 795.117 132.086C795.586 132.617 796.148 133.039 796.805 133.352C797.461 133.648 798.211 133.797 799.055 133.797C800.648 133.797 801.977 133.305 803.039 132.32C804.117 131.32 804.734 130.031 804.891 128.453L807.586 129.039ZM834.234 114.156L822.422 141.531C821.812 143.062 820.953 144.062 819.844 144.531C818.734 145.016 817.508 145.258 816.164 145.258C814.664 145.258 813.164 144.984 811.664 144.438L812.297 141.672C813.031 141.984 813.75 142.203 814.453 142.328C815.156 142.469 815.727 142.539 816.164 142.539C817.227 142.539 817.953 142.281 818.344 141.766C818.75 141.25 819.102 140.641 819.398 139.938L820.734 136.633L810.984 114.156H814.781L822.656 133.258L830.391 114.156H834.234ZM855.375 136H842.273V133.258H847.219V108.156H842.273V105.414H850.453V133.258H855.375V136ZM867.328 126.203C867.562 128.516 868.406 130.359 869.859 131.734C871.312 133.109 873.203 133.797 875.531 133.797C877.172 133.797 878.633 133.461 879.914 132.789C881.195 132.117 882.156 131.281 882.797 130.281L885.047 131.828C883.953 133.359 882.648 134.531 881.133 135.344C879.617 136.141 877.75 136.539 875.531 136.539C873.844 136.539 872.297 136.258 870.891 135.695C869.484 135.133 868.266 134.352 867.234 133.352C866.219 132.336 865.43 131.133 864.867 129.742C864.305 128.352 864.023 126.805 864.023 125.102C864.023 123.445 864.273 121.922 864.773 120.531C865.289 119.125 866.023 117.914 866.977 116.898C867.945 115.867 869.117 115.07 870.492 114.508C871.867 113.93 873.406 113.641 875.109 113.641C876.969 113.641 878.594 113.953 879.984 114.578C881.375 115.203 882.531 116.07 883.453 117.18C884.391 118.273 885.078 119.586 885.516 121.117C885.969 122.648 886.195 124.344 886.195 126.203H867.328ZM882.797 123.461C882.438 121.07 881.57 119.289 880.195 118.117C878.82 116.945 877.125 116.359 875.109 116.359C874.078 116.359 873.125 116.531 872.25 116.875C871.375 117.203 870.602 117.68 869.93 118.305C869.258 118.93 868.695 119.688 868.242 120.578C867.789 121.453 867.5 122.414 867.375 123.461H882.797ZM911.578 129.953C911.578 131.234 911.258 132.297 910.617 133.141C909.977 133.984 909.148 134.656 908.133 135.156C907.133 135.656 906.008 136.008 904.758 136.211C903.523 136.43 902.312 136.539 901.125 136.539C899.141 136.539 897.164 136.25 895.195 135.672C893.227 135.094 891.523 134.336 890.086 133.398L891.516 130.633C893.125 131.648 894.711 132.43 896.273 132.977C897.836 133.523 899.453 133.797 901.125 133.797C905.953 133.797 908.367 132.547 908.367 130.047C908.367 129.438 908.164 128.945 907.758 128.57C907.367 128.18 906.836 127.867 906.164 127.633C905.492 127.383 904.719 127.188 903.844 127.047C902.984 126.906 902.078 126.773 901.125 126.648C899.906 126.477 898.695 126.273 897.492 126.039C896.289 125.805 895.188 125.453 894.188 124.984C893.203 124.516 892.406 123.891 891.797 123.109C891.203 122.328 890.906 121.297 890.906 120.016C890.906 118.922 891.18 117.977 891.727 117.18C892.289 116.383 893.031 115.719 893.953 115.188C894.891 114.656 895.984 114.266 897.234 114.016C898.484 113.766 899.781 113.641 901.125 113.641C903.047 113.641 904.766 113.867 906.281 114.32C907.797 114.758 909.164 115.391 910.383 116.219L909.094 118.727C907.844 117.852 906.578 117.242 905.297 116.898C904.016 116.539 902.625 116.359 901.125 116.359C900.453 116.359 899.703 116.422 898.875 116.547C898.062 116.656 897.305 116.859 896.602 117.156C895.898 117.438 895.305 117.812 894.82 118.281C894.352 118.734 894.117 119.312 894.117 120.016C894.117 120.625 894.312 121.117 894.703 121.492C895.109 121.852 895.648 122.156 896.32 122.406C896.992 122.641 897.758 122.828 898.617 122.969C899.492 123.109 900.406 123.242 901.359 123.367C902.547 123.539 903.742 123.742 904.945 123.977C906.164 124.211 907.266 124.555 908.25 125.008C909.25 125.461 910.055 126.078 910.664 126.859C911.273 127.641 911.578 128.672 911.578 129.953Z" fill="white"/>
<path d="M200.756 354L196.304 339.27H175.843L171.486 354H161.208L180.485 292.191H191.757L211.034 354H200.756ZM178.448 330.603H193.699L186.121 305.121L178.448 330.603ZM258.776 354H248.972V326.766C248.972 323.324 248.325 320.94 247.03 319.614C245.736 318.288 243.857 317.625 241.394 317.625C237.763 317.625 234.795 319.093 232.49 322.03C230.216 324.966 229.08 329.024 229.08 334.202V354H219.275V309.857H229.08V320.94C230.058 317.12 231.874 314.152 234.526 312.036C237.179 309.889 240.447 308.815 244.331 308.815C248.846 308.815 252.382 310.284 254.94 313.22C257.498 316.157 258.776 320.672 258.776 326.766V354ZM315.186 331.976C315.186 335.418 314.633 338.544 313.528 341.354C312.455 344.164 310.892 346.596 308.839 348.648C306.819 350.669 304.387 352.248 301.545 353.384C298.704 354.521 295.53 355.089 292.025 355.089C288.584 355.089 285.442 354.521 282.6 353.384C279.758 352.248 277.311 350.669 275.259 348.648C273.238 346.596 271.675 344.164 270.57 341.354C269.496 338.544 268.959 335.418 268.959 331.976C268.959 328.629 269.496 325.535 270.57 322.693C271.675 319.819 273.238 317.357 275.259 315.304C277.311 313.22 279.758 311.626 282.6 310.521C285.442 309.384 288.584 308.815 292.025 308.815C295.53 308.815 298.704 309.384 301.545 310.521C304.387 311.626 306.819 313.22 308.839 315.304C310.892 317.357 312.455 319.819 313.528 322.693C314.633 325.535 315.186 328.629 315.186 331.976ZM305.429 331.976C305.429 329.987 305.113 328.108 304.482 326.34C303.882 324.54 302.998 323.009 301.83 321.746C300.661 320.483 299.24 319.488 297.567 318.762C295.925 318.004 294.078 317.625 292.025 317.625C289.941 317.625 288.078 318.004 286.437 318.762C284.795 319.488 283.405 320.483 282.269 321.746C281.132 323.009 280.248 324.54 279.616 326.34C279.016 328.108 278.716 329.987 278.716 331.976C278.716 334.06 279.016 335.955 279.616 337.66C280.248 339.365 281.132 340.865 282.269 342.159C283.405 343.454 284.795 344.464 286.437 345.19C288.078 345.885 289.941 346.232 292.025 346.232C294.078 346.232 295.925 345.885 297.567 345.19C299.24 344.464 300.661 343.454 301.83 342.159C302.998 340.865 303.882 339.365 304.482 337.66C305.113 335.955 305.429 334.06 305.429 331.976ZM364.681 354H354.876V326.766C354.876 323.324 354.229 320.94 352.935 319.614C351.64 318.288 349.761 317.625 347.298 317.625C343.667 317.625 340.699 319.093 338.394 322.03C336.121 324.966 334.984 329.024 334.984 334.202V354H325.18V309.857H334.984V320.94C335.963 317.12 337.778 314.152 340.431 312.036C343.083 309.889 346.351 308.815 350.235 308.815C354.75 308.815 358.287 310.284 360.844 313.22C363.402 316.157 364.681 320.672 364.681 326.766V354ZM419.575 309.857L400.535 362.62C399.114 366.441 397.046 369.062 394.33 370.482C391.615 371.903 388.378 372.614 384.621 372.614C383.326 372.614 381.937 372.487 380.453 372.235C378.969 371.982 377.421 371.556 375.811 370.956L377.848 361.957C379.205 362.462 380.453 362.81 381.589 362.999C382.726 363.22 383.736 363.331 384.621 363.331C387.557 363.331 389.562 362.036 390.636 359.447L392.388 355.184L375.527 309.857H385.71L397.835 343.249L409.06 309.857H419.575ZM472.906 354H463.102V323.735C463.102 321.651 462.881 320.119 462.438 319.141C462.028 318.13 461.286 317.625 460.212 317.625C458.255 317.625 457.007 318.73 456.471 320.94C455.965 323.119 455.713 326.308 455.713 330.508V354H445.909V323.735C445.909 321.651 445.688 320.119 445.246 319.141C444.804 318.13 444.03 317.625 442.925 317.625C440.999 317.625 439.783 318.73 439.278 320.94C438.804 323.119 438.567 326.308 438.567 330.508V354H428.763V309.857H438.662V316.251C439.357 313.82 440.383 311.973 441.741 310.71C443.098 309.447 444.914 308.815 447.188 308.815C449.082 308.815 450.661 309.4 451.924 310.568C453.218 311.705 454.103 313.283 454.576 315.304C455.681 313.094 456.818 311.468 457.986 310.426C459.186 309.352 461.018 308.815 463.48 308.815C466.512 308.815 468.833 309.936 470.443 312.178C472.085 314.389 472.906 317.751 472.906 322.267V354ZM526.995 331.976C526.995 335.418 526.442 338.544 525.337 341.354C524.263 344.164 522.7 346.596 520.648 348.648C518.627 350.669 516.196 352.248 513.354 353.384C510.512 354.521 507.339 355.089 503.834 355.089C500.392 355.089 497.25 354.521 494.409 353.384C491.567 352.248 489.12 350.669 487.067 348.648C485.047 346.596 483.484 344.164 482.378 341.354C481.305 338.544 480.768 335.418 480.768 331.976C480.768 328.629 481.305 325.535 482.378 322.693C483.484 319.819 485.047 317.357 487.067 315.304C489.12 313.22 491.567 311.626 494.409 310.521C497.25 309.384 500.392 308.815 503.834 308.815C507.339 308.815 510.512 309.384 513.354 310.521C516.196 311.626 518.627 313.22 520.648 315.304C522.7 317.357 524.263 319.819 525.337 322.693C526.442 325.535 526.995 328.629 526.995 331.976ZM517.238 331.976C517.238 329.987 516.922 328.108 516.291 326.34C515.691 324.54 514.806 323.009 513.638 321.746C512.47 320.483 511.049 319.488 509.375 318.762C507.734 318.004 505.886 317.625 503.834 317.625C501.75 317.625 499.887 318.004 498.245 318.762C496.603 319.488 495.214 320.483 494.077 321.746C492.94 323.009 492.056 324.54 491.425 326.34C490.825 328.108 490.525 329.987 490.525 331.976C490.525 334.06 490.825 335.955 491.425 337.66C492.056 339.365 492.94 340.865 494.077 342.159C495.214 343.454 496.603 344.464 498.245 345.19C499.887 345.885 501.75 346.232 503.834 346.232C505.886 346.232 507.734 345.885 509.375 345.19C511.049 344.464 512.47 343.454 513.638 342.159C514.806 340.865 515.691 339.365 516.291 337.66C516.922 335.955 517.238 334.06 517.238 331.976ZM536.988 309.857H546.792V337.139C546.792 340.549 547.44 342.917 548.734 344.243C550.029 345.569 551.908 346.232 554.371 346.232C557.97 346.232 560.923 344.764 563.228 341.828C565.533 338.891 566.685 334.834 566.685 329.655V309.857H576.489V354H566.685V342.964C565.706 346.753 563.891 349.722 561.238 351.869C558.586 354.016 555.318 355.089 551.434 355.089C546.919 355.089 543.382 353.621 540.825 350.685C538.267 347.716 536.988 343.201 536.988 337.139V309.857ZM630.578 340.786C630.578 343.659 629.931 345.996 628.636 347.795C627.342 349.595 625.668 351.048 623.616 352.153C621.595 353.258 619.321 354.016 616.795 354.426C614.301 354.868 611.854 355.089 609.454 355.089C605.444 355.089 601.45 354.505 597.471 353.337C593.493 352.169 590.051 350.637 587.146 348.743L591.219 340.691C594.693 342.712 597.866 344.148 600.739 345.001C603.644 345.822 606.549 346.232 609.454 346.232C613.401 346.232 616.274 345.822 618.074 345.001C619.874 344.148 620.774 342.98 620.774 341.496C620.774 340.77 620.521 340.17 620.016 339.696C619.511 339.223 618.674 338.796 617.506 338.417C616.338 338.007 614.79 337.612 612.864 337.233C610.97 336.823 608.602 336.397 605.76 335.955C603.486 335.576 601.323 335.118 599.271 334.581C597.25 334.013 595.466 333.223 593.919 332.213C592.372 331.202 591.125 329.924 590.177 328.376C589.262 326.829 588.804 324.887 588.804 322.551C588.804 320.183 589.404 318.13 590.604 316.394C591.835 314.625 593.43 313.173 595.387 312.036C597.376 310.899 599.603 310.078 602.065 309.573C604.528 309.068 606.991 308.815 609.454 308.815C612.927 308.815 616.29 309.273 619.542 310.189C622.826 311.073 625.7 312.352 628.163 314.025L624.279 321.604C621.816 320.056 619.416 319.014 617.08 318.478C614.775 317.909 612.233 317.625 609.454 317.625C608.286 317.625 607.07 317.688 605.807 317.814C604.544 317.941 603.376 318.193 602.302 318.572C601.229 318.92 600.329 319.409 599.603 320.041C598.908 320.64 598.561 321.382 598.561 322.267C598.561 323.435 599.587 324.398 601.639 325.156C603.723 325.882 607.26 326.608 612.249 327.334C614.964 327.713 617.443 328.203 619.685 328.803C621.926 329.371 623.853 330.16 625.463 331.171C627.073 332.15 628.32 333.429 629.205 335.007C630.12 336.555 630.578 338.481 630.578 340.786ZM737.667 310.663C737.667 316.851 735.788 321.461 732.03 324.493C728.273 327.492 723.031 328.992 716.306 328.992H705.649V354H695.845V292.191H716.211C723 292.191 728.273 293.754 732.03 296.88C735.788 299.974 737.667 304.569 737.667 310.663ZM727.862 310.521C727.862 307.363 726.82 304.995 724.736 303.416C722.684 301.837 719.874 301.048 716.306 301.048H705.649V320.135H716.306C719.874 320.135 722.684 319.346 724.736 317.767C726.82 316.188 727.862 313.773 727.862 310.521ZM789.529 320.325C788.361 319.756 787.161 319.33 785.93 319.046C784.73 318.73 783.34 318.572 781.762 318.572C779.583 318.572 777.531 318.904 775.604 319.567C773.71 320.198 772.068 321.161 770.679 322.456C769.289 323.751 768.2 325.377 767.411 327.334C766.653 329.261 766.274 331.55 766.274 334.202V345.19H776.173V354H746.476V345.19H756.47V318.714H746.476V309.857H766.274V320.94C767.884 316.52 770.252 313.394 773.378 311.562C776.536 309.731 780.278 308.815 784.604 308.815C785.961 308.815 787.382 308.958 788.866 309.242C790.35 309.526 791.803 310.031 793.224 310.757L789.529 320.325ZM844.708 331.976C844.708 335.418 844.155 338.544 843.05 341.354C841.976 344.164 840.413 346.596 838.361 348.648C836.34 350.669 833.909 352.248 831.067 353.384C828.225 354.521 825.052 355.089 821.547 355.089C818.105 355.089 814.963 354.521 812.122 353.384C809.28 352.248 806.833 350.669 804.78 348.648C802.759 346.596 801.196 344.164 800.091 341.354C799.018 338.544 798.481 335.418 798.481 331.976C798.481 328.629 799.018 325.535 800.091 322.693C801.196 319.819 802.759 317.357 804.78 315.304C806.833 313.22 809.28 311.626 812.122 310.521C814.963 309.384 818.105 308.815 821.547 308.815C825.052 308.815 828.225 309.384 831.067 310.521C833.909 311.626 836.34 313.22 838.361 315.304C840.413 317.357 841.976 319.819 843.05 322.693C844.155 325.535 844.708 328.629 844.708 331.976ZM834.951 331.976C834.951 329.987 834.635 328.108 834.003 326.34C833.403 324.54 832.519 323.009 831.351 321.746C830.183 320.483 828.762 319.488 827.088 318.762C825.446 318.004 823.599 317.625 821.547 317.625C819.463 317.625 817.6 318.004 815.958 318.762C814.316 319.488 812.927 320.483 811.79 321.746C810.653 323.009 809.769 324.54 809.138 326.34C808.538 328.108 808.238 329.987 808.238 331.976C808.238 334.06 808.538 335.955 809.138 337.66C809.769 339.365 810.653 340.865 811.79 342.159C812.927 343.454 814.316 344.464 815.958 345.19C817.6 345.885 819.463 346.232 821.547 346.232C823.599 346.232 825.446 345.885 827.088 345.19C828.762 344.464 830.183 343.454 831.351 342.159C832.519 340.865 833.403 339.365 834.003 337.66C834.635 335.955 834.951 334.06 834.951 331.976ZM280.185 456L275.732 441.27H255.271L250.914 456H240.636L259.913 394.191H271.186L290.462 456H280.185ZM257.876 432.603H273.127L265.549 407.121L257.876 432.603ZM338.205 456H328.4V428.766C328.4 425.324 327.753 422.94 326.458 421.614C325.164 420.288 323.285 419.625 320.822 419.625C317.191 419.625 314.223 421.093 311.918 424.03C309.645 426.966 308.508 431.024 308.508 436.202V456H298.704V411.857H308.508V422.94C309.487 419.12 311.302 416.152 313.955 414.036C316.607 411.889 319.875 410.815 323.759 410.815C328.274 410.815 331.811 412.284 334.368 415.22C336.926 418.157 338.205 422.672 338.205 428.766V456ZM394.614 433.976C394.614 437.418 394.062 440.544 392.957 443.354C391.883 446.164 390.32 448.596 388.268 450.648C386.247 452.669 383.815 454.248 380.974 455.384C378.132 456.521 374.958 457.089 371.454 457.089C368.012 457.089 364.87 456.521 362.028 455.384C359.187 454.248 356.739 452.669 354.687 450.648C352.666 448.596 351.103 446.164 349.998 443.354C348.924 440.544 348.388 437.418 348.388 433.976C348.388 430.629 348.924 427.535 349.998 424.693C351.103 421.819 352.666 419.357 354.687 417.304C356.739 415.22 359.187 413.626 362.028 412.521C364.87 411.384 368.012 410.815 371.454 410.815C374.958 410.815 378.132 411.384 380.974 412.521C383.815 413.626 386.247 415.22 388.268 417.304C390.32 419.357 391.883 421.819 392.957 424.693C394.062 427.535 394.614 430.629 394.614 433.976ZM384.857 433.976C384.857 431.987 384.542 430.108 383.91 428.34C383.31 426.54 382.426 425.009 381.258 423.746C380.09 422.483 378.669 421.488 376.995 420.762C375.353 420.004 373.506 419.625 371.454 419.625C369.37 419.625 367.507 420.004 365.865 420.762C364.223 421.488 362.833 422.483 361.697 423.746C360.56 425.009 359.676 426.54 359.044 428.34C358.444 430.108 358.145 431.987 358.145 433.976C358.145 436.06 358.444 437.955 359.044 439.66C359.676 441.365 360.56 442.865 361.697 444.159C362.833 445.454 364.223 446.464 365.865 447.19C367.507 447.885 369.37 448.232 371.454 448.232C373.506 448.232 375.353 447.885 376.995 447.19C378.669 446.464 380.09 445.454 381.258 444.159C382.426 442.865 383.31 441.365 383.91 439.66C384.542 437.955 384.857 436.06 384.857 433.976ZM444.109 456H434.305V428.766C434.305 425.324 433.657 422.94 432.363 421.614C431.068 420.288 429.189 419.625 426.727 419.625C423.095 419.625 420.127 421.093 417.822 424.03C415.549 426.966 414.412 431.024 414.412 436.202V456H404.608V411.857H414.412V422.94C415.391 419.12 417.207 416.152 419.859 414.036C422.511 411.889 425.779 410.815 429.663 410.815C434.178 410.815 437.715 412.284 440.272 415.22C442.83 418.157 444.109 422.672 444.109 428.766V456ZM499.003 411.857L479.963 464.62C478.542 468.441 476.474 471.062 473.758 472.482C471.043 473.903 467.806 474.614 464.049 474.614C462.754 474.614 461.365 474.487 459.881 474.235C458.397 473.982 456.85 473.556 455.239 472.956L457.276 463.957C458.634 464.462 459.881 464.81 461.018 464.999C462.154 465.22 463.165 465.331 464.049 465.331C466.985 465.331 468.99 464.036 470.064 461.447L471.816 457.184L454.955 411.857H465.138L477.263 445.249L488.488 411.857H499.003ZM552.334 456H542.53V425.735C542.53 423.651 542.309 422.119 541.867 421.141C541.456 420.13 540.714 419.625 539.641 419.625C537.683 419.625 536.436 420.73 535.899 422.94C535.394 425.119 535.141 428.308 535.141 432.508V456H525.337V425.735C525.337 423.651 525.116 422.119 524.674 421.141C524.232 420.13 523.458 419.625 522.353 419.625C520.427 419.625 519.211 420.73 518.706 422.94C518.232 425.119 517.996 428.308 517.996 432.508V456H508.191V411.857H518.09V418.251C518.785 415.82 519.811 413.973 521.169 412.71C522.527 411.447 524.342 410.815 526.616 410.815C528.51 410.815 530.089 411.4 531.352 412.568C532.647 413.705 533.531 415.283 534.004 417.304C535.11 415.094 536.246 413.468 537.415 412.426C538.614 411.352 540.446 410.815 542.909 410.815C545.94 410.815 548.261 411.936 549.871 414.178C551.513 416.389 552.334 419.751 552.334 424.267V456ZM606.423 433.976C606.423 437.418 605.87 440.544 604.765 443.354C603.692 446.164 602.129 448.596 600.076 450.648C598.055 452.669 595.624 454.248 592.782 455.384C589.94 456.521 586.767 457.089 583.262 457.089C579.82 457.089 576.679 456.521 573.837 455.384C570.995 454.248 568.548 452.669 566.496 450.648C564.475 448.596 562.912 446.164 561.807 443.354C560.733 440.544 560.196 437.418 560.196 433.976C560.196 430.629 560.733 427.535 561.807 424.693C562.912 421.819 564.475 419.357 566.496 417.304C568.548 415.22 570.995 413.626 573.837 412.521C576.679 411.384 579.82 410.815 583.262 410.815C586.767 410.815 589.94 411.384 592.782 412.521C595.624 413.626 598.055 415.22 600.076 417.304C602.129 419.357 603.692 421.819 604.765 424.693C605.87 427.535 606.423 430.629 606.423 433.976ZM596.666 433.976C596.666 431.987 596.35 430.108 595.719 428.34C595.119 426.54 594.235 425.009 593.066 423.746C591.898 422.483 590.477 421.488 588.804 420.762C587.162 420.004 585.315 419.625 583.262 419.625C581.178 419.625 579.315 420.004 577.673 420.762C576.031 421.488 574.642 422.483 573.505 423.746C572.369 425.009 571.485 426.54 570.853 428.34C570.253 430.108 569.953 431.987 569.953 433.976C569.953 436.06 570.253 437.955 570.853 439.66C571.485 441.365 572.369 442.865 573.505 444.159C574.642 445.454 576.031 446.464 577.673 447.19C579.315 447.885 581.178 448.232 583.262 448.232C585.315 448.232 587.162 447.885 588.804 447.19C590.477 446.464 591.898 445.454 593.066 444.159C594.235 442.865 595.119 441.365 595.719 439.66C596.35 437.955 596.666 436.06 596.666 433.976ZM616.417 411.857H626.221V439.139C626.221 442.549 626.868 444.917 628.163 446.243C629.457 447.569 631.336 448.232 633.799 448.232C637.398 448.232 640.351 446.764 642.656 443.828C644.961 440.891 646.113 436.834 646.113 431.655V411.857H655.917V456H646.113V444.964C645.134 448.753 643.319 451.722 640.667 453.869C638.014 456.016 634.746 457.089 630.862 457.089C626.347 457.089 622.811 455.621 620.253 452.685C617.695 449.716 616.417 445.201 616.417 439.139V411.857ZM710.006 442.786C710.006 445.659 709.359 447.996 708.064 449.795C706.77 451.595 705.096 453.048 703.044 454.153C701.023 455.258 698.75 456.016 696.224 456.426C693.729 456.868 691.282 457.089 688.882 457.089C684.872 457.089 680.878 456.505 676.899 455.337C672.921 454.169 669.479 452.637 666.574 450.743L670.647 442.691C674.121 444.712 677.294 446.148 680.167 447.001C683.072 447.822 685.977 448.232 688.882 448.232C692.829 448.232 695.703 447.822 697.502 447.001C699.302 446.148 700.202 444.98 700.202 443.496C700.202 442.77 699.95 442.17 699.444 441.696C698.939 441.223 698.102 440.796 696.934 440.417C695.766 440.007 694.219 439.612 692.292 439.233C690.398 438.823 688.03 438.397 685.188 437.955C682.915 437.576 680.752 437.118 678.699 436.581C676.678 436.013 674.894 435.223 673.347 434.213C671.8 433.202 670.553 431.924 669.605 430.376C668.69 428.829 668.232 426.887 668.232 424.551C668.232 422.183 668.832 420.13 670.032 418.394C671.263 416.625 672.858 415.173 674.815 414.036C676.805 412.899 679.031 412.078 681.494 411.573C683.957 411.068 686.419 410.815 688.882 410.815C692.356 410.815 695.718 411.273 698.971 412.189C702.255 413.073 705.128 414.352 707.591 416.025L703.707 423.604C701.244 422.056 698.844 421.014 696.508 420.478C694.203 419.909 691.661 419.625 688.882 419.625C687.714 419.625 686.498 419.688 685.235 419.814C683.972 419.941 682.804 420.193 681.73 420.572C680.657 420.92 679.757 421.409 679.031 422.041C678.336 422.64 677.989 423.382 677.989 424.267C677.989 425.435 679.015 426.398 681.067 427.156C683.151 427.882 686.688 428.608 691.677 429.334C694.392 429.713 696.871 430.203 699.113 430.803C701.355 431.371 703.281 432.16 704.891 433.171C706.501 434.15 707.749 435.429 708.633 437.007C709.549 438.555 710.006 440.481 710.006 442.786ZM817.095 412.663C817.095 418.851 815.216 423.461 811.458 426.493C807.701 429.492 802.459 430.992 795.734 430.992H785.077V456H775.273V394.191H795.639C802.428 394.191 807.701 395.754 811.458 398.88C815.216 401.974 817.095 406.569 817.095 412.663ZM807.291 412.521C807.291 409.363 806.249 406.995 804.165 405.416C802.112 403.837 799.302 403.048 795.734 403.048H785.077V422.135H795.734C799.302 422.135 802.112 421.346 804.165 419.767C806.249 418.188 807.291 415.773 807.291 412.521ZM868.958 422.325C867.789 421.756 866.589 421.33 865.358 421.046C864.158 420.73 862.769 420.572 861.19 420.572C859.011 420.572 856.959 420.904 855.033 421.567C853.138 422.198 851.496 423.161 850.107 424.456C848.718 425.751 847.628 427.377 846.839 429.334C846.081 431.261 845.702 433.55 845.702 436.202V447.19H855.601V456H825.904V447.19H835.898V420.714H825.904V411.857H845.702V422.94C847.312 418.52 849.681 415.394 852.807 413.562C855.964 411.731 859.706 410.815 864.032 410.815C865.389 410.815 866.81 410.958 868.294 411.242C869.778 411.526 871.231 412.031 872.652 412.757L868.958 422.325ZM924.136 433.976C924.136 437.418 923.583 440.544 922.478 443.354C921.404 446.164 919.841 448.596 917.789 450.648C915.768 452.669 913.337 454.248 910.495 455.384C907.653 456.521 904.48 457.089 900.975 457.089C897.533 457.089 894.392 456.521 891.55 455.384C888.708 454.248 886.261 452.669 884.208 450.648C882.188 448.596 880.625 446.164 879.52 443.354C878.446 440.544 877.909 437.418 877.909 433.976C877.909 430.629 878.446 427.535 879.52 424.693C880.625 421.819 882.188 419.357 884.208 417.304C886.261 415.22 888.708 413.626 891.55 412.521C894.392 411.384 897.533 410.815 900.975 410.815C904.48 410.815 907.653 411.384 910.495 412.521C913.337 413.626 915.768 415.22 917.789 417.304C919.841 419.357 921.404 421.819 922.478 424.693C923.583 427.535 924.136 430.629 924.136 433.976ZM914.379 433.976C914.379 431.987 914.063 430.108 913.432 428.34C912.832 426.54 911.948 425.009 910.779 423.746C909.611 422.483 908.19 421.488 906.517 420.762C904.875 420.004 903.028 419.625 900.975 419.625C898.891 419.625 897.028 420.004 895.386 420.762C893.744 421.488 892.355 422.483 891.218 423.746C890.082 425.009 889.197 426.54 888.566 428.34C887.966 430.108 887.666 431.987 887.666 433.976C887.666 436.06 887.966 437.955 888.566 439.66C889.197 441.365 890.082 442.865 891.218 444.159C892.355 445.454 893.744 446.464 895.386 447.19C897.028 447.885 898.891 448.232 900.975 448.232C903.028 448.232 904.875 447.885 906.517 447.19C908.19 446.464 909.611 445.454 910.779 444.159C911.948 442.865 912.832 441.365 913.432 439.66C914.063 437.955 914.379 436.06 914.379 433.976ZM232.963 558H226.001L223.87 540.333H199.383L190.005 558H182.995L216.67 496.191H225.48L232.963 558ZM223.254 534.603L219.654 502.727L202.509 534.603H223.254ZM280.563 558H274.075L279.806 530.766C280.658 526.819 280.453 523.756 279.19 521.578C277.927 519.399 275.385 518.31 271.564 518.31C269.165 518.31 266.875 518.862 264.697 519.967C262.55 521.072 260.592 522.556 258.824 524.419C257.087 526.251 255.603 528.366 254.372 530.766C253.172 533.134 252.303 535.613 251.767 538.202L247.599 558H241.11L250.393 513.857H256.929L254.608 524.94C259.439 516.857 265.865 512.815 273.885 512.815C284.747 512.815 288.884 518.799 286.294 530.766L280.563 558ZM341.662 536.071C340.904 539.513 339.673 542.639 337.968 545.449C336.294 548.259 334.226 550.674 331.763 552.695C329.332 554.685 326.553 556.248 323.427 557.384C320.333 558.521 317.033 559.089 313.528 559.089C310.118 559.089 307.118 558.521 304.529 557.384C301.94 556.248 299.84 554.685 298.23 552.695C296.62 550.674 295.562 548.259 295.057 545.449C294.52 542.639 294.646 539.513 295.436 536.071C296.13 532.724 297.33 529.614 299.035 526.74C300.772 523.835 302.856 521.372 305.287 519.352C307.75 517.299 310.529 515.705 313.623 514.568C316.749 513.4 320.017 512.815 323.427 512.815C326.932 512.815 329.979 513.4 332.568 514.568C335.158 515.705 337.257 517.299 338.868 519.352C340.478 521.372 341.52 523.835 341.994 526.74C342.499 529.614 342.388 532.724 341.662 536.071ZM335.173 536.071C335.71 533.545 335.821 531.224 335.505 529.108C335.221 526.961 334.51 525.083 333.374 523.472C332.237 521.862 330.737 520.599 328.874 519.683C327.011 518.767 324.785 518.31 322.196 518.31C319.607 518.31 317.175 518.767 314.902 519.683C312.628 520.599 310.623 521.862 308.887 523.472C307.15 525.083 305.682 526.961 304.482 529.108C303.282 531.224 302.43 533.545 301.924 536.071C301.324 538.597 301.167 540.933 301.451 543.081C301.766 545.196 302.461 547.028 303.535 548.575C304.64 550.122 306.124 551.338 307.987 552.222C309.881 553.106 312.123 553.548 314.712 553.548C317.302 553.548 319.717 553.106 321.959 552.222C324.232 551.338 326.253 550.122 328.021 548.575C329.821 547.028 331.321 545.196 332.521 543.081C333.721 540.933 334.605 538.597 335.173 536.071ZM386.468 558H379.979L385.71 530.766C386.562 526.819 386.357 523.756 385.094 521.578C383.831 519.399 381.289 518.31 377.469 518.31C375.069 518.31 372.78 518.862 370.601 519.967C368.454 521.072 366.496 522.556 364.728 524.419C362.991 526.251 361.507 528.366 360.276 530.766C359.076 533.134 358.208 535.613 357.671 538.202L353.503 558H347.014L356.297 513.857H362.833L360.513 524.94C365.344 516.857 371.769 512.815 379.79 512.815C390.652 512.815 394.788 518.799 392.199 530.766L386.468 558ZM452.445 513.857L416.828 569.178C414.965 572.272 412.802 574.293 410.339 575.24C407.876 576.219 405.287 576.708 402.571 576.708C399.54 576.708 396.667 576.156 393.951 575.051L396.367 569.462C397.661 570.093 399.003 570.535 400.393 570.788C401.782 571.072 402.934 571.214 403.85 571.214C405.966 571.214 407.529 570.693 408.539 569.651C409.549 568.609 410.513 567.378 411.428 565.957L415.596 559.279L405.508 513.857H413.133L420.901 552.458L444.677 513.857H452.445ZM494.74 558H488.204L494.93 526.267C495.435 523.741 495.388 521.783 494.788 520.394C494.219 519.004 493.098 518.31 491.425 518.31C488.962 518.31 486.878 519.604 485.173 522.193C483.468 524.783 482.126 528.414 481.147 533.087L475.89 558H469.401L476.079 526.267C476.616 523.741 476.569 521.783 475.937 520.394C475.337 519.004 474.2 518.31 472.527 518.31C470.948 518.31 469.606 518.767 468.501 519.683C467.427 520.599 466.48 521.767 465.659 523.188C464.87 524.609 464.207 526.188 463.67 527.924C463.165 529.661 462.723 531.382 462.344 533.087L457.086 558H450.598L459.881 513.857H466.417L465.043 520.251C467.506 515.294 470.995 512.815 475.511 512.815C479.837 512.815 482.299 514.978 482.899 519.304C485.994 514.978 489.514 512.815 493.461 512.815C497.219 512.815 499.729 513.936 500.992 516.178C502.255 518.389 502.397 521.751 501.418 526.267L494.74 558ZM553.471 536.071C552.713 539.513 551.481 542.639 549.776 545.449C548.103 548.259 546.035 550.674 543.572 552.695C541.14 554.685 538.362 556.248 535.236 557.384C532.141 558.521 528.842 559.089 525.337 559.089C521.927 559.089 518.927 558.521 516.338 557.384C513.749 556.248 511.649 554.685 510.039 552.695C508.428 550.674 507.37 548.259 506.865 545.449C506.328 542.639 506.455 539.513 507.244 536.071C507.939 532.724 509.139 529.614 510.844 526.74C512.58 523.835 514.664 521.372 517.096 519.352C519.559 517.299 522.337 515.705 525.432 514.568C528.558 513.4 531.826 512.815 535.236 512.815C538.741 512.815 541.788 513.4 544.377 514.568C546.966 515.705 549.066 517.299 550.676 519.352C552.287 521.372 553.329 523.835 553.802 526.74C554.307 529.614 554.197 532.724 553.471 536.071ZM546.982 536.071C547.519 533.545 547.629 531.224 547.313 529.108C547.029 526.961 546.319 525.083 545.182 523.472C544.045 521.862 542.546 520.599 540.683 519.683C538.82 518.767 536.594 518.31 534.004 518.31C531.415 518.31 528.984 518.767 526.71 519.683C524.437 520.599 522.432 521.862 520.695 523.472C518.959 525.083 517.49 526.961 516.291 529.108C515.091 531.224 514.238 533.545 513.733 536.071C513.133 538.597 512.975 540.933 513.259 543.081C513.575 545.196 514.27 547.028 515.343 548.575C516.448 550.122 517.932 551.338 519.795 552.222C521.69 553.106 523.932 553.548 526.521 553.548C529.11 553.548 531.526 553.106 533.768 552.222C536.041 551.338 538.062 550.122 539.83 548.575C541.63 547.028 543.13 545.196 544.33 543.081C545.529 540.933 546.414 538.597 546.982 536.071ZM568.106 513.857H574.642L568.816 541.139C568.027 545.086 568.248 548.148 569.479 550.327C570.711 552.474 573.237 553.548 577.058 553.548C579.457 553.548 581.747 552.995 583.925 551.89C586.136 550.785 588.109 549.317 589.846 547.485C591.614 545.622 593.082 543.507 594.25 541.139C595.45 538.739 596.35 536.244 596.95 533.655L601.118 513.857H607.607L598.276 558H591.788L594.108 546.964C589.277 555.048 582.852 559.089 574.832 559.089C563.97 559.089 559.802 553.106 562.328 541.139L568.106 513.857ZM654.923 545.78C654.418 548.369 653.328 550.517 651.655 552.222C650.013 553.927 648.055 555.285 645.782 556.295C643.54 557.305 641.109 558.016 638.488 558.426C635.867 558.868 633.357 559.089 630.957 559.089C626.947 559.089 623.079 558.505 619.353 557.337C615.659 556.169 612.549 554.637 610.022 552.743L614.096 547.154C616.938 549.206 619.811 550.785 622.716 551.89C625.621 552.995 628.763 553.548 632.141 553.548C641.898 553.548 647.329 551.022 648.434 545.97C648.687 544.738 648.481 543.744 647.818 542.986C647.187 542.196 646.24 541.565 644.977 541.091C643.714 540.586 642.245 540.191 640.572 539.907C638.898 539.623 637.114 539.355 635.22 539.102C632.852 538.755 630.499 538.344 628.163 537.871C625.826 537.397 623.758 536.687 621.958 535.739C620.158 534.792 618.816 533.529 617.932 531.95C617.048 530.371 616.874 528.287 617.411 525.698C617.916 523.488 618.895 521.578 620.348 519.967C621.8 518.357 623.568 517.015 625.652 515.941C627.768 514.868 630.152 514.078 632.804 513.573C635.457 513.068 638.14 512.815 640.856 512.815C644.74 512.815 648.118 513.273 650.992 514.189C653.865 515.073 656.344 516.352 658.428 518.025L654.733 523.093C652.618 521.325 650.329 520.094 647.866 519.399C645.403 518.673 642.656 518.31 639.625 518.31C638.267 518.31 636.735 518.436 635.03 518.688C633.357 518.91 631.746 519.32 630.199 519.92C628.652 520.488 627.294 521.246 626.126 522.193C624.958 523.109 624.216 524.277 623.9 525.698C623.647 526.93 623.837 527.924 624.468 528.682C625.131 529.408 626.079 530.024 627.31 530.529C628.573 531.003 630.041 531.382 631.715 531.666C633.42 531.95 635.204 532.219 637.067 532.471C639.403 532.819 641.756 533.229 644.124 533.703C646.492 534.176 648.576 534.871 650.376 535.787C652.176 536.702 653.534 537.95 654.449 539.528C655.365 541.107 655.523 543.191 654.923 545.78ZM768.689 513.857C767.458 519.825 764.679 524.262 760.354 527.167C756.028 530.071 750.502 531.524 743.776 531.524H729.804L724.168 558H717.679L730.751 496.191H751.118C757.906 496.191 762.848 497.675 765.942 500.643C769.068 503.58 769.984 507.984 768.689 513.857ZM762.201 513.857C763.116 509.595 762.438 506.516 760.164 504.622C757.891 502.695 754.528 501.732 750.076 501.732H736.104L730.941 525.982H744.913C749.397 525.982 753.17 525.035 756.233 523.141C759.296 521.215 761.285 518.12 762.201 513.857ZM818.042 520.062C815.926 518.894 813.243 518.31 809.99 518.31C807.338 518.31 804.859 518.878 802.554 520.015C800.281 521.151 798.213 522.651 796.35 524.514C794.518 526.346 792.955 528.461 791.661 530.861C790.366 533.229 789.466 535.676 788.961 538.202L785.93 552.458H795.923L794.787 558H768.311L769.447 552.458H779.441L786.451 519.399H776.457L777.594 513.857H794.076L791.755 524.94C796.492 516.857 802.996 512.815 811.269 512.815C813.542 512.815 815.469 512.958 817.047 513.242C818.626 513.526 820.031 514.031 821.263 514.757L818.042 520.062ZM871.184 536.071C870.426 539.513 869.194 542.639 867.489 545.449C865.816 548.259 863.748 550.674 861.285 552.695C858.853 554.685 856.075 556.248 852.949 557.384C849.854 558.521 846.555 559.089 843.05 559.089C839.64 559.089 836.64 558.521 834.051 557.384C831.462 556.248 829.362 554.685 827.751 552.695C826.141 550.674 825.083 548.259 824.578 545.449C824.041 542.639 824.168 539.513 824.957 536.071C825.652 532.724 826.852 529.614 828.557 526.74C830.293 523.835 832.377 521.372 834.809 519.352C837.271 517.299 840.05 515.705 843.145 514.568C846.271 513.4 849.539 512.815 852.949 512.815C856.454 512.815 859.501 513.4 862.09 514.568C864.679 515.705 866.779 517.299 868.389 519.352C870 521.372 871.042 523.835 871.515 526.74C872.02 529.614 871.91 532.724 871.184 536.071ZM864.695 536.071C865.232 533.545 865.342 531.224 865.026 529.108C864.742 526.961 864.032 525.083 862.895 523.472C861.758 521.862 860.258 520.599 858.396 519.683C856.533 518.767 854.306 518.31 851.717 518.31C849.128 518.31 846.697 518.767 844.423 519.683C842.15 520.599 840.145 521.862 838.408 523.472C836.672 525.083 835.203 526.961 834.003 529.108C832.804 531.224 831.951 533.545 831.446 536.071C830.846 538.597 830.688 540.933 830.972 543.081C831.288 545.196 831.983 547.028 833.056 548.575C834.161 550.122 835.645 551.338 837.508 552.222C839.403 553.106 841.645 553.548 844.234 553.548C846.823 553.548 849.239 553.106 851.48 552.222C853.754 551.338 855.775 550.122 857.543 548.575C859.343 547.028 860.843 545.196 862.042 543.081C863.242 540.933 864.126 538.597 864.695 536.071ZM90.2104 660L88.8369 645.27H68.376L60.8926 660H50.6147L83.0112 598.191H94.2837L100.488 660H90.2104ZM72.8281 636.603H88.0791L85.9478 611.121L72.8281 636.603ZM148.183 660H138.426L144.11 632.766C144.836 629.324 144.694 626.94 143.684 625.614C142.673 624.288 140.952 623.625 138.521 623.625C134.89 623.625 131.622 625.093 128.717 628.03C125.812 630.966 123.807 635.024 122.702 640.202L118.534 660H108.729L118.013 615.857H127.817L125.496 626.94C127.296 623.12 129.743 620.152 132.837 618.036C135.963 615.889 139.468 614.815 143.352 614.815C147.867 614.815 151.072 616.284 152.967 619.22C154.893 622.157 155.209 626.672 153.914 632.766L148.183 660ZM209.282 637.976C208.524 641.418 207.292 644.544 205.587 647.354C203.914 650.164 201.846 652.596 199.383 654.648C196.951 656.669 194.173 658.248 191.047 659.384C187.952 660.521 184.653 661.089 181.148 661.089C177.738 661.089 174.738 660.521 172.149 659.384C169.56 658.248 167.46 656.669 165.85 654.648C164.239 652.596 163.181 650.164 162.676 647.354C162.139 644.544 162.266 641.418 163.055 637.976C163.75 634.629 164.95 631.535 166.655 628.693C168.391 625.819 170.475 623.357 172.907 621.304C175.37 619.22 178.148 617.626 181.243 616.521C184.369 615.384 187.637 614.815 191.047 614.815C194.552 614.815 197.599 615.384 200.188 616.521C202.777 617.626 204.877 619.22 206.487 621.304C208.098 623.357 209.14 625.819 209.613 628.693C210.118 631.535 210.008 634.629 209.282 637.976ZM199.525 637.976C199.904 635.987 199.983 634.108 199.762 632.34C199.541 630.54 198.972 629.009 198.057 627.746C197.141 626.483 195.941 625.488 194.457 624.762C192.973 624.004 191.189 623.625 189.105 623.625C187.053 623.625 185.111 624.004 183.279 624.762C181.479 625.488 179.885 626.483 178.496 627.746C177.106 629.009 175.906 630.54 174.896 632.34C173.917 634.108 173.222 635.987 172.812 637.976C172.37 640.06 172.275 641.955 172.528 643.66C172.78 645.365 173.333 646.865 174.186 648.159C175.038 649.454 176.222 650.464 177.738 651.19C179.253 651.885 181.037 652.232 183.09 652.232C185.174 652.232 187.1 651.885 188.868 651.19C190.668 650.464 192.294 649.454 193.747 648.159C195.199 646.865 196.399 645.365 197.346 643.66C198.325 641.955 199.051 640.06 199.525 637.976ZM254.087 660H244.331L250.014 632.766C250.74 629.324 250.598 626.94 249.588 625.614C248.577 624.288 246.857 623.625 244.425 623.625C240.794 623.625 237.526 625.093 234.621 628.03C231.716 630.966 229.711 635.024 228.606 640.202L224.438 660H214.634L223.917 615.857H233.721L231.4 626.94C233.2 623.12 235.647 620.152 238.742 618.036C241.868 615.889 245.373 614.815 249.256 614.815C253.772 614.815 256.977 616.284 258.871 619.22C260.797 622.157 261.113 626.672 259.818 632.766L254.087 660ZM318.312 615.857L288.142 668.62C285.868 672.441 283.232 675.062 280.232 676.482C277.232 677.903 273.854 678.614 270.096 678.614C268.802 678.614 267.444 678.487 266.023 678.235C264.602 677.982 263.15 677.556 261.666 676.956L265.549 667.957C266.781 668.462 267.949 668.81 269.054 668.999C270.128 669.22 271.122 669.331 272.038 669.331C274.943 669.331 277.232 668.036 278.906 665.447L281.558 661.184L274.264 615.857H284.447L289.515 649.249L307.845 615.857H318.312ZM362.36 660H352.556L358.95 629.735C359.392 627.651 359.502 626.119 359.281 625.141C359.06 624.13 358.397 623.625 357.292 623.625C355.366 623.625 353.913 624.73 352.935 626.94C351.956 629.119 351.008 632.308 350.093 636.508L345.167 660H335.363L341.757 629.735C342.23 627.651 342.325 626.119 342.041 625.141C341.788 624.13 341.11 623.625 340.004 623.625C338.078 623.625 336.642 624.73 335.694 626.94C334.779 629.119 333.863 632.308 332.947 636.508L328.021 660H318.217L327.5 615.857H337.399L336.073 622.251C337.273 619.82 338.694 617.973 340.336 616.71C342.009 615.447 343.983 614.815 346.256 614.815C348.119 614.815 349.556 615.4 350.566 616.568C351.608 617.705 352.129 619.283 352.129 621.304C353.771 619.094 355.303 617.468 356.724 616.426C358.145 615.352 360.086 614.815 362.549 614.815C365.581 614.815 367.665 615.936 368.801 618.178C369.938 620.389 370.017 623.751 369.038 628.267L362.36 660ZM421.09 637.976C420.333 641.418 419.101 644.544 417.396 647.354C415.722 650.164 413.654 652.596 411.191 654.648C408.76 656.669 405.981 658.248 402.855 659.384C399.761 660.521 396.461 661.089 392.957 661.089C389.546 661.089 386.547 660.521 383.958 659.384C381.368 658.248 379.269 656.669 377.658 654.648C376.048 652.596 374.99 650.164 374.485 647.354C373.948 644.544 374.074 641.418 374.864 637.976C375.558 634.629 376.758 631.535 378.463 628.693C380.2 625.819 382.284 623.357 384.715 621.304C387.178 619.22 389.957 617.626 393.051 616.521C396.177 615.384 399.445 614.815 402.855 614.815C406.36 614.815 409.407 615.384 411.997 616.521C414.586 617.626 416.686 619.22 418.296 621.304C419.906 623.357 420.948 625.819 421.422 628.693C421.927 631.535 421.817 634.629 421.09 637.976ZM411.333 637.976C411.712 635.987 411.791 634.108 411.57 632.34C411.349 630.54 410.781 629.009 409.865 627.746C408.95 626.483 407.75 625.488 406.266 624.762C404.782 624.004 402.998 623.625 400.914 623.625C398.861 623.625 396.919 624.004 395.088 624.762C393.288 625.488 391.694 626.483 390.304 627.746C388.915 629.009 387.715 630.54 386.705 632.34C385.726 634.108 385.031 635.987 384.621 637.976C384.179 640.06 384.084 641.955 384.336 643.66C384.589 645.365 385.142 646.865 385.994 648.159C386.847 649.454 388.031 650.464 389.546 651.19C391.062 651.885 392.846 652.232 394.898 652.232C396.982 652.232 398.909 651.885 400.677 651.19C402.477 650.464 404.103 649.454 405.555 648.159C407.008 646.865 408.208 645.365 409.155 643.66C410.134 641.955 410.86 640.06 411.333 637.976ZM435.726 615.857H445.53L439.704 643.139C439.009 646.549 439.167 648.917 440.178 650.243C441.22 651.569 442.972 652.232 445.435 652.232C449.066 652.232 452.334 650.764 455.239 647.828C458.144 644.891 460.149 640.834 461.254 635.655L465.422 615.857H475.227L465.896 660H456.139L458.46 648.964C456.629 652.753 454.166 655.722 451.071 657.869C447.977 660.016 444.488 661.089 440.604 661.089C436.057 661.089 432.836 659.621 430.942 656.685C429.047 653.716 428.716 649.201 429.947 643.139L435.726 615.857ZM522.732 646.786C522.164 649.659 521.027 651.996 519.322 653.795C517.648 655.595 515.675 657.048 513.401 658.153C511.16 659.258 508.728 660.016 506.107 660.426C503.487 660.868 500.976 661.089 498.577 661.089C494.567 661.089 490.699 660.505 486.973 659.337C483.278 658.169 480.168 656.637 477.642 654.743L483.468 646.691C486.499 648.712 489.372 650.148 492.088 651.001C494.803 651.822 497.614 652.232 500.519 652.232C504.465 652.232 507.418 651.822 509.375 651.001C511.365 650.148 512.517 648.98 512.833 647.496C512.991 646.77 512.849 646.17 512.407 645.696C511.996 645.223 511.254 644.796 510.181 644.417C509.107 644.007 507.67 643.612 505.871 643.233C504.071 642.823 501.782 642.397 499.003 641.955C496.793 641.576 494.724 641.118 492.798 640.581C490.904 640.013 489.293 639.223 487.967 638.213C486.641 637.202 485.662 635.924 485.031 634.376C484.431 632.829 484.368 630.887 484.841 628.551C485.347 626.183 486.404 624.13 488.015 622.394C489.625 620.625 491.535 619.173 493.746 618.036C495.956 616.899 498.34 616.078 500.897 615.573C503.487 615.068 506.013 614.815 508.476 614.815C511.98 614.815 515.264 615.273 518.327 616.189C521.39 617.073 523.963 618.352 526.047 620.025L520.506 627.604C518.453 626.056 516.306 625.014 514.064 624.478C511.823 623.909 509.312 623.625 506.534 623.625C505.365 623.625 504.134 623.688 502.839 623.814C501.576 623.941 500.376 624.193 499.24 624.572C498.103 624.92 497.108 625.409 496.256 626.041C495.435 626.64 494.914 627.382 494.693 628.267C494.44 629.435 495.261 630.398 497.156 631.156C499.082 631.882 502.476 632.608 507.339 633.334C509.991 633.713 512.359 634.203 514.443 634.803C516.559 635.371 518.311 636.16 519.701 637.171C521.09 638.15 522.069 639.429 522.637 641.007C523.237 642.555 523.269 644.481 522.732 646.786ZM636.309 616.663C634.951 622.851 632.078 627.461 627.689 630.493C623.3 633.492 617.743 634.992 611.017 634.992H600.313L595.103 660H585.299L598.371 598.191H618.737C625.526 598.191 630.452 599.754 633.515 602.88C636.609 605.974 637.541 610.569 636.309 616.663ZM626.505 616.521C627.168 613.363 626.631 610.995 624.895 609.416C623.189 607.837 620.569 607.048 617.032 607.048H606.328L602.255 626.135H612.959C616.495 626.135 619.464 625.346 621.863 623.767C624.263 622.188 625.81 619.773 626.505 616.521ZM686.088 626.325C685.046 625.756 683.941 625.33 682.772 625.046C681.604 624.73 680.246 624.572 678.699 624.572C676.489 624.572 674.358 624.904 672.305 625.567C670.284 626.198 668.437 627.161 666.764 628.456C665.09 629.751 663.669 631.377 662.501 633.334C661.333 635.261 660.464 637.55 659.896 640.202L657.528 651.19H667.427L665.58 660H635.93L637.777 651.19H647.771L653.36 624.714H643.366L645.213 615.857H665.011L662.69 626.94C665.216 622.52 668.248 619.394 671.784 617.562C675.352 615.731 679.299 614.815 683.625 614.815C684.983 614.815 686.372 614.958 687.793 615.242C689.214 615.526 690.54 616.031 691.771 616.757L686.088 626.325ZM738.803 637.976C738.045 641.418 736.814 644.544 735.109 647.354C733.435 650.164 731.367 652.596 728.904 654.648C726.473 656.669 723.694 658.248 720.568 659.384C717.474 660.521 714.174 661.089 710.669 661.089C707.259 661.089 704.26 660.521 701.67 659.384C699.081 658.248 696.981 656.669 695.371 654.648C693.761 652.596 692.703 650.164 692.198 647.354C691.661 644.544 691.787 641.418 692.577 637.976C693.271 634.629 694.471 631.535 696.176 628.693C697.913 625.819 699.997 623.357 702.428 621.304C704.891 619.22 707.67 617.626 710.764 616.521C713.89 615.384 717.158 614.815 720.568 614.815C724.073 614.815 727.12 615.384 729.709 616.521C732.299 617.626 734.398 619.22 736.009 621.304C737.619 623.357 738.661 625.819 739.135 628.693C739.64 631.535 739.529 634.629 738.803 637.976ZM729.046 637.976C729.425 635.987 729.504 634.108 729.283 632.34C729.062 630.54 728.494 629.009 727.578 627.746C726.662 626.483 725.463 625.488 723.979 624.762C722.494 624.004 720.71 623.625 718.626 623.625C716.574 623.625 714.632 624.004 712.801 624.762C711.001 625.488 709.406 626.483 708.017 627.746C706.628 629.009 705.428 630.54 704.417 632.34C703.439 634.108 702.744 635.987 702.333 637.976C701.891 640.06 701.797 641.955 702.049 643.66C702.302 645.365 702.854 646.865 703.707 648.159C704.56 649.454 705.744 650.464 707.259 651.19C708.775 651.885 710.559 652.232 712.611 652.232C714.695 652.232 716.621 651.885 718.39 651.19C720.189 650.464 721.816 649.454 723.268 648.159C724.721 646.865 725.92 645.365 726.868 643.66C727.847 641.955 728.573 640.06 729.046 637.976Z" fill="#262525"/>
<path d="M950.328 354H937.918L921.91 328.992H917.458V354H907.653V292.191H928.02C934.808 292.191 940.081 293.754 943.839 296.88C947.596 299.974 949.475 304.569 949.475 310.663C949.475 313.378 949.049 315.778 948.196 317.862C947.375 319.914 946.191 321.682 944.644 323.167C943.128 324.651 941.344 325.835 939.292 326.719C937.271 327.571 935.077 328.155 932.708 328.471L950.328 354ZM939.671 310.521C939.671 307.363 938.629 304.995 936.545 303.416C934.493 301.837 931.651 301.048 928.02 301.048H917.458V320.135H928.02C931.651 320.135 934.493 319.346 936.545 317.767C938.629 316.188 939.671 313.773 939.671 310.521ZM967.284 335.67C967.757 338.702 969.194 341.228 971.594 343.249C974.025 345.238 977.277 346.232 981.351 346.232C984.54 346.232 987.303 345.743 989.639 344.764C992.007 343.754 994.044 342.428 995.749 340.786L1000.77 347.701C997.928 350.542 994.912 352.484 991.723 353.526C988.566 354.568 985.108 355.089 981.351 355.089C977.94 355.089 974.767 354.521 971.831 353.384C968.894 352.248 966.352 350.669 964.205 348.648C962.058 346.596 960.369 344.164 959.137 341.354C957.937 338.544 957.337 335.418 957.337 331.976C957.337 328.629 957.89 325.55 958.995 322.74C960.132 319.898 961.711 317.451 963.731 315.399C965.784 313.315 968.231 311.705 971.073 310.568C973.915 309.4 977.056 308.815 980.498 308.815C984.066 308.815 987.303 309.431 990.208 310.663C993.112 311.862 995.591 313.615 997.644 315.92C999.728 318.225 1001.35 321.051 1002.52 324.398C1003.69 327.713 1004.27 331.471 1004.27 335.67H967.284ZM993.191 327.05C992.686 324.208 991.218 321.935 988.787 320.23C986.355 318.493 983.592 317.625 980.498 317.625C977.404 317.625 974.625 318.493 972.162 320.23C969.699 321.935 968.215 324.208 967.71 327.05H993.191ZM1053.06 353.526C1053.06 356.558 1052.54 359.257 1051.5 361.625C1050.45 363.994 1048.99 365.999 1047.09 367.641C1045.23 369.283 1043.02 370.53 1040.46 371.382C1037.93 372.266 1035.11 372.708 1031.98 372.708C1024.31 372.708 1017.76 370.388 1012.33 365.746L1016.97 358.168C1021.48 362.052 1026.49 363.994 1031.98 363.994C1035.36 363.994 1038.08 363.157 1040.13 361.483C1042.21 359.841 1043.25 357.252 1043.25 353.716V348.979C1041.23 350.716 1039.29 352.011 1037.43 352.863C1035.57 353.684 1033.4 354.095 1030.94 354.095C1028.1 354.095 1025.46 353.495 1023.03 352.295C1020.6 351.095 1018.5 349.469 1016.73 347.417C1014.99 345.333 1013.62 342.917 1012.61 340.17C1011.63 337.423 1011.14 334.502 1011.14 331.408C1011.14 328.313 1011.63 325.393 1012.61 322.646C1013.62 319.867 1014.99 317.467 1016.73 315.446C1018.5 313.394 1020.6 311.784 1023.03 310.615C1025.46 309.415 1028.1 308.815 1030.94 308.815C1033.4 308.815 1035.6 309.242 1037.52 310.094C1039.45 310.915 1041.36 312.162 1043.25 313.836V309.857H1053.06V353.526ZM1043.25 321.604C1042.09 320.309 1040.57 319.33 1038.71 318.667C1036.88 317.972 1035.09 317.625 1033.36 317.625C1029.66 317.625 1026.66 318.92 1024.36 321.509C1022.08 324.098 1020.95 327.398 1020.95 331.408C1020.95 333.397 1021.25 335.244 1021.85 336.949C1022.48 338.623 1023.33 340.075 1024.4 341.307C1025.51 342.538 1026.82 343.517 1028.33 344.243C1029.88 344.938 1031.56 345.285 1033.36 345.285C1035.09 345.285 1036.88 344.938 1038.71 344.243C1040.57 343.517 1042.09 342.507 1043.25 341.212V321.604ZM1066.51 309.857H1076.31V337.139C1076.31 340.549 1076.96 342.917 1078.26 344.243C1079.55 345.569 1081.43 346.232 1083.89 346.232C1087.49 346.232 1090.44 344.764 1092.75 341.828C1095.05 338.891 1096.21 334.834 1096.21 329.655V309.857H1106.01V354H1096.21V342.964C1095.23 346.753 1093.41 349.722 1090.76 351.869C1088.11 354.016 1084.84 355.089 1080.96 355.089C1076.44 355.089 1072.9 353.621 1070.35 350.685C1067.79 347.716 1066.51 343.201 1066.51 337.139V309.857ZM1154.27 354H1124.62V345.19H1134.29V301.048H1124.62V292.191H1144.09V345.19H1154.27V354ZM1169.9 341.307C1169.9 338.717 1170.6 336.46 1171.99 334.534C1173.38 332.576 1175.19 330.95 1177.43 329.655C1179.71 328.361 1182.3 327.398 1185.2 326.766C1188.14 326.103 1191.12 325.771 1194.15 325.771C1195.83 325.771 1197.26 325.803 1198.46 325.866C1199.66 325.929 1200.88 326.024 1202.11 326.15V324.398C1202.11 322.093 1201.21 320.372 1199.41 319.235C1197.64 318.099 1195.31 317.53 1192.4 317.53C1189.75 317.53 1187.05 317.909 1184.3 318.667C1181.56 319.393 1178.95 320.467 1176.49 321.888L1172.51 314.215C1175.41 312.541 1178.52 311.231 1181.84 310.284C1185.19 309.305 1188.71 308.815 1192.4 308.815C1194.8 308.815 1197.15 309.084 1199.46 309.621C1201.8 310.157 1203.88 311.042 1205.71 312.273C1207.57 313.504 1209.06 315.115 1210.16 317.104C1211.27 319.062 1211.82 321.493 1211.82 324.398V354H1202.11V347.511C1200.56 349.911 1198.27 351.774 1195.24 353.1C1192.24 354.426 1189.01 355.089 1185.53 355.089C1183.39 355.089 1181.35 354.789 1179.42 354.189C1177.53 353.621 1175.89 352.753 1174.5 351.584C1173.11 350.416 1171.99 348.979 1171.14 347.274C1170.31 345.538 1169.9 343.549 1169.9 341.307ZM1188.04 346.327C1189.97 346.327 1191.77 346.09 1193.44 345.617C1195.15 345.111 1196.65 344.433 1197.94 343.58C1199.24 342.696 1200.25 341.638 1200.97 340.407C1201.73 339.175 1202.11 337.818 1202.11 336.333V334.676C1200.56 334.423 1199.11 334.281 1197.75 334.25C1196.4 334.218 1195.2 334.202 1194.15 334.202C1189.35 334.202 1185.72 334.834 1183.26 336.097C1180.83 337.36 1179.61 338.923 1179.61 340.786C1179.61 344.48 1182.42 346.327 1188.04 346.327ZM1266.1 320.325C1264.93 319.756 1263.73 319.33 1262.5 319.046C1261.3 318.73 1259.91 318.572 1258.33 318.572C1256.15 318.572 1254.1 318.904 1252.17 319.567C1250.28 320.198 1248.64 321.161 1247.25 322.456C1245.86 323.751 1244.77 325.377 1243.98 327.334C1243.22 329.261 1242.84 331.55 1242.84 334.202V345.19H1252.74V354H1223.05V345.19H1233.04V318.714H1223.05V309.857H1242.84V320.94C1244.45 316.52 1246.82 313.394 1249.95 311.562C1253.11 309.731 1256.85 308.815 1261.17 308.815C1262.53 308.815 1263.95 308.958 1265.44 309.242C1266.92 309.526 1268.37 310.031 1269.79 310.757L1266.1 320.325ZM1028.81 439.044C1028.81 444.664 1026.9 448.896 1023.08 451.737C1019.26 454.579 1013.83 456 1006.78 456H987.082V394.191H1005.7C1008.28 394.191 1010.83 394.412 1013.32 394.854C1015.82 395.264 1018.04 396.054 1020 397.222C1021.99 398.39 1023.6 400.032 1024.83 402.148C1026.06 404.232 1026.68 406.947 1026.68 410.294C1026.68 413.42 1025.87 416.278 1024.26 418.867C1022.68 421.456 1020.28 423.319 1017.06 424.456C1021.01 425.688 1023.95 427.408 1025.87 429.619C1027.83 431.829 1028.81 434.971 1028.81 439.044ZM1016.97 411.573C1016.97 409.773 1016.62 408.305 1015.93 407.168C1015.26 406.032 1014.39 405.163 1013.32 404.563C1012.25 403.932 1011.05 403.521 1009.72 403.332C1008.4 403.143 1007.05 403.048 1005.7 403.048H996.886V420.099H1005.7C1007.05 420.099 1008.4 420.004 1009.72 419.814C1011.05 419.625 1012.25 419.23 1013.32 418.63C1014.39 417.999 1015.26 417.115 1015.93 415.978C1016.62 414.841 1016.97 413.373 1016.97 411.573ZM1019.1 438.049C1019.1 434.955 1018.01 432.666 1015.83 431.182C1013.68 429.698 1010.67 428.956 1006.78 428.956H996.886V447.19H1006.78C1010.67 447.19 1013.68 446.448 1015.83 444.964C1018.01 443.449 1019.1 441.144 1019.1 438.049ZM1082.99 433.976C1082.99 437.418 1082.44 440.544 1081.33 443.354C1080.26 446.164 1078.7 448.596 1076.65 450.648C1074.62 452.669 1072.19 454.248 1069.35 455.384C1066.51 456.521 1063.34 457.089 1059.83 457.089C1056.39 457.089 1053.25 456.521 1050.41 455.384C1047.56 454.248 1045.12 452.669 1043.06 450.648C1041.04 448.596 1039.48 446.164 1038.38 443.354C1037.3 440.544 1036.77 437.418 1036.77 433.976C1036.77 430.629 1037.3 427.535 1038.38 424.693C1039.48 421.819 1041.04 419.357 1043.06 417.304C1045.12 415.22 1047.56 413.626 1050.41 412.521C1053.25 411.384 1056.39 410.815 1059.83 410.815C1063.34 410.815 1066.51 411.384 1069.35 412.521C1072.19 413.626 1074.62 415.22 1076.65 417.304C1078.7 419.357 1080.26 421.819 1081.33 424.693C1082.44 427.535 1082.99 430.629 1082.99 433.976ZM1073.24 433.976C1073.24 431.987 1072.92 430.108 1072.29 428.34C1071.69 426.54 1070.8 425.009 1069.64 423.746C1068.47 422.483 1067.05 421.488 1065.37 420.762C1063.73 420.004 1061.88 419.625 1059.83 419.625C1057.75 419.625 1055.88 420.004 1054.24 420.762C1052.6 421.488 1051.21 422.483 1050.07 423.746C1048.94 425.009 1048.05 426.54 1047.42 428.34C1046.82 430.108 1046.52 431.987 1046.52 433.976C1046.52 436.06 1046.82 437.955 1047.42 439.66C1048.05 441.365 1048.94 442.865 1050.07 444.159C1051.21 445.454 1052.6 446.464 1054.24 447.19C1055.88 447.885 1057.75 448.232 1059.83 448.232C1061.88 448.232 1063.73 447.885 1065.37 447.19C1067.05 446.464 1068.47 445.454 1069.64 444.159C1070.8 442.865 1071.69 441.365 1072.29 439.66C1072.92 437.955 1073.24 436.06 1073.24 433.976ZM1127.8 456H1098.15V447.19H1107.81V403.048H1098.15V394.191H1117.61V447.19H1127.8V456ZM1185.44 456H1175.63V451.927C1173.74 453.6 1171.83 454.879 1169.9 455.763C1167.98 456.647 1165.78 457.089 1163.32 457.089C1160.48 457.089 1157.84 456.521 1155.41 455.384C1152.98 454.248 1150.88 452.669 1149.11 450.648C1147.37 448.596 1146 446.148 1144.99 443.307C1144.01 440.465 1143.52 437.355 1143.52 433.976C1143.52 430.629 1144.01 427.535 1144.99 424.693C1146 421.819 1147.37 419.372 1149.11 417.352C1150.88 415.299 1152.98 413.705 1155.41 412.568C1157.84 411.4 1160.48 410.815 1163.32 410.815C1165.78 410.815 1167.98 411.242 1169.9 412.094C1171.83 412.915 1173.74 414.162 1175.63 415.836V403.048H1167.11V394.191H1185.44V456ZM1175.63 423.604C1174.47 422.309 1172.95 421.33 1171.09 420.667C1169.26 419.972 1167.5 419.625 1165.83 419.625C1162.14 419.625 1159.12 420.951 1156.78 423.604C1154.48 426.256 1153.33 429.713 1153.33 433.976C1153.33 438.239 1154.48 441.681 1156.78 444.301C1159.12 446.922 1162.14 448.232 1165.83 448.232C1167.5 448.232 1169.26 447.901 1171.09 447.238C1172.95 446.543 1174.47 445.549 1175.63 444.254V423.604ZM962.453 558H935.977L937.161 552.458H947.154L957.906 501.732H947.912L949.096 496.191H975.572L974.388 501.732H964.395L953.643 552.458H963.637L962.453 558ZM1027.62 543.933C1026.14 548.575 1023.54 552.269 1019.81 555.016C1016.12 557.732 1011.9 559.089 1007.16 559.089C1004.57 559.089 1002.3 558.663 1000.34 557.811C998.417 556.958 996.854 555.774 995.654 554.258C994.486 552.743 993.697 550.927 993.286 548.812C992.907 546.664 992.97 544.328 993.476 541.802L998.259 519.399H988.266L989.402 513.857H999.396L1003.19 496.191H1009.67L1005.88 513.857H1024.74L1023.55 519.399H1004.75L1000.01 541.802C999.664 543.412 999.585 544.928 999.775 546.349C999.996 547.77 1000.45 549.017 1001.15 550.09C1001.87 551.164 1002.82 552.016 1003.99 552.648C1005.19 553.248 1006.64 553.548 1008.35 553.548C1011.57 553.548 1014.47 552.553 1017.06 550.564C1019.65 548.543 1021.47 545.938 1022.51 542.749L1027.62 543.933ZM1035.49 546.064C1036.06 543.286 1037.22 540.965 1038.99 539.102C1040.79 537.208 1042.94 535.723 1045.43 534.65C1047.93 533.545 1050.69 532.755 1053.72 532.282C1056.75 531.777 1059.78 531.524 1062.82 531.524C1063.98 531.524 1065.03 531.54 1065.94 531.571C1066.86 531.603 1067.73 531.65 1068.55 531.713C1069.4 531.777 1070.22 531.855 1071.01 531.95C1071.83 532.045 1072.76 532.155 1073.8 532.282L1074.47 529.108C1074.94 526.961 1074.85 525.193 1074.18 523.804C1073.55 522.414 1072.64 521.325 1071.44 520.536C1070.24 519.715 1068.93 519.146 1067.5 518.831C1066.08 518.483 1064.85 518.31 1063.81 518.31C1060.49 518.31 1057.37 518.752 1054.43 519.636C1051.5 520.52 1048.67 521.704 1045.95 523.188L1044.01 518.31C1047.04 516.699 1050.33 515.389 1053.86 514.378C1057.4 513.336 1061.14 512.815 1065.09 512.815C1067.46 512.815 1069.75 513.131 1071.96 513.763C1074.17 514.363 1076.05 515.31 1077.59 516.604C1079.14 517.868 1080.23 519.541 1080.86 521.625C1081.52 523.709 1081.56 526.203 1080.96 529.108L1074.85 558H1068.36L1069.92 550.611C1068.44 552.032 1066.86 553.279 1065.18 554.353C1063.54 555.427 1061.87 556.311 1060.16 557.005C1058.46 557.668 1056.75 558.174 1055.05 558.521C1053.37 558.9 1051.83 559.089 1050.41 559.089C1044.6 559.089 1040.43 557.968 1037.9 555.727C1035.38 553.485 1034.57 550.264 1035.49 546.064ZM1051.59 553.548C1054.31 553.548 1056.83 553.153 1059.17 552.364C1061.54 551.543 1063.59 550.532 1065.33 549.333C1067.09 548.133 1068.55 546.854 1069.68 545.496C1070.82 544.138 1071.51 542.907 1071.77 541.802L1072.62 537.634C1070.57 537.318 1068.56 537.144 1066.6 537.113C1064.68 537.081 1063 537.065 1061.58 537.065C1059.25 537.065 1056.96 537.223 1054.72 537.539C1052.51 537.855 1050.52 538.376 1048.75 539.102C1047.01 539.797 1045.53 540.712 1044.3 541.849C1043.06 542.986 1042.29 544.391 1041.98 546.064C1041.53 547.927 1042.05 549.648 1043.54 551.227C1045.02 552.774 1047.71 553.548 1051.59 553.548ZM1121.31 558H1094.83L1096.02 552.458H1106.01L1116.76 501.732H1106.77L1107.95 496.191H1124.44L1112.5 552.458H1122.49L1121.31 558ZM1176.68 505.048H1167.87L1169.71 496.191H1178.52L1176.68 505.048ZM1174.26 558H1147.79L1148.97 552.458H1158.96L1165.93 519.399H1155.93L1157.12 513.857H1173.6L1165.45 552.458H1175.45L1174.26 558ZM1236.17 549.569C1233.64 552.474 1230.58 554.795 1226.98 556.532C1223.38 558.237 1219.35 559.089 1214.9 559.089C1211.49 559.089 1208.47 558.521 1205.85 557.384C1203.23 556.248 1201.1 554.669 1199.46 552.648C1197.85 550.596 1196.77 548.164 1196.24 545.354C1195.67 542.544 1195.78 539.418 1196.57 535.976C1197.3 532.629 1198.48 529.535 1200.12 526.693C1201.76 523.819 1203.75 521.372 1206.09 519.352C1208.46 517.299 1211.16 515.705 1214.19 514.568C1217.25 513.4 1220.5 512.815 1223.95 512.815C1225.3 512.815 1226.65 512.973 1227.97 513.289C1229.3 513.605 1230.51 514.094 1231.62 514.757C1232.75 515.389 1233.72 516.162 1234.51 517.078C1235.33 517.962 1235.88 519.02 1236.17 520.251L1237.49 513.857H1243.32L1239.62 531.524H1233.8C1234.21 529.566 1234.22 527.782 1233.84 526.172C1233.5 524.562 1232.82 523.172 1231.81 522.004C1230.83 520.836 1229.53 519.936 1227.92 519.304C1226.35 518.641 1224.59 518.31 1222.67 518.31C1220.01 518.31 1217.6 518.767 1215.42 519.683C1213.27 520.599 1211.36 521.846 1209.69 523.425C1208.05 525.004 1206.66 526.867 1205.52 529.014C1204.42 531.129 1203.59 533.45 1203.06 535.976C1202.49 538.502 1202.36 540.839 1202.68 542.986C1202.99 545.101 1203.72 546.933 1204.86 548.48C1205.99 550.027 1207.49 551.259 1209.36 552.174C1211.25 553.09 1213.49 553.548 1216.08 553.548C1219.37 553.548 1222.43 552.901 1225.27 551.606C1228.11 550.311 1230.45 548.59 1232.28 546.443L1236.17 549.569ZM842.387 643.044C841.155 648.664 838.345 652.896 833.956 655.737C829.567 658.579 823.852 660 816.811 660H797.107L810.18 598.191H828.841C831.398 598.191 833.877 598.412 836.277 598.854C838.677 599.264 840.729 600.054 842.434 601.222C844.171 602.39 845.434 604.032 846.223 606.148C847.044 608.232 847.091 610.947 846.365 614.294C845.671 617.42 844.25 620.278 842.103 622.867C839.987 625.456 837.208 627.319 833.767 628.456C837.461 629.688 840.034 631.408 841.487 633.619C842.939 635.829 843.239 638.971 842.387 643.044ZM836.372 615.573C836.782 613.773 836.75 612.305 836.277 611.168C835.835 610.032 835.14 609.163 834.193 608.563C833.277 607.932 832.188 607.521 830.925 607.332C829.662 607.143 828.351 607.048 826.994 607.048H818.137L814.442 624.099H823.299C824.657 624.099 826.015 624.004 827.373 623.814C828.73 623.625 830.009 623.23 831.209 622.63C832.409 621.999 833.467 621.115 834.382 619.978C835.33 618.841 835.993 617.373 836.372 615.573ZM832.914 642.049C833.546 638.955 832.93 636.666 831.067 635.182C829.236 633.698 826.378 632.956 822.494 632.956H812.643L808.759 651.19H818.658C822.51 651.19 825.683 650.448 828.178 648.964C830.672 647.449 832.251 645.144 832.914 642.049ZM897.66 637.976C896.902 641.418 895.67 644.544 893.965 647.354C892.292 650.164 890.224 652.596 887.761 654.648C885.329 656.669 882.551 658.248 879.425 659.384C876.33 660.521 873.031 661.089 869.526 661.089C866.116 661.089 863.116 660.521 860.527 659.384C857.938 658.248 855.838 656.669 854.228 654.648C852.617 652.596 851.559 650.164 851.054 647.354C850.517 644.544 850.644 641.418 851.433 637.976C852.128 634.629 853.328 631.535 855.033 628.693C856.769 625.819 858.853 623.357 861.285 621.304C863.748 619.22 866.526 617.626 869.621 616.521C872.747 615.384 876.015 614.815 879.425 614.815C882.93 614.815 885.977 615.384 888.566 616.521C891.155 617.626 893.255 619.22 894.865 621.304C896.476 623.357 897.518 625.819 897.991 628.693C898.496 631.535 898.386 634.629 897.66 637.976ZM887.903 637.976C888.282 635.987 888.361 634.108 888.14 632.34C887.919 630.54 887.35 629.009 886.435 627.746C885.519 626.483 884.319 625.488 882.835 624.762C881.351 624.004 879.567 623.625 877.483 623.625C875.431 623.625 873.489 624.004 871.657 624.762C869.857 625.488 868.263 626.483 866.874 627.746C865.484 629.009 864.284 630.54 863.274 632.34C862.295 634.108 861.6 635.987 861.19 637.976C860.748 640.06 860.653 641.955 860.906 643.66C861.158 645.365 861.711 646.865 862.563 648.159C863.416 649.454 864.6 650.464 866.116 651.19C867.631 651.885 869.415 652.232 871.468 652.232C873.552 652.232 875.478 651.885 877.246 651.19C879.046 650.464 880.672 649.454 882.125 648.159C883.577 646.865 884.777 645.365 885.724 643.66C886.703 641.955 887.429 640.06 887.903 637.976ZM937.824 660H908.127L909.974 651.19H919.684L929.109 607.048H919.399L921.247 598.191H940.76L929.488 651.19H939.671L937.824 660ZM995.417 660H985.661L986.418 655.927C984.208 657.6 982.029 658.879 979.882 659.763C977.767 660.647 975.478 661.089 973.015 661.089C970.173 661.089 967.663 660.521 965.484 659.384C963.337 658.248 961.6 656.669 960.274 654.648C958.948 652.596 958.095 650.148 957.716 647.307C957.306 644.465 957.464 641.355 958.19 637.976C958.885 634.629 960.037 631.535 961.647 628.693C963.289 625.819 965.184 623.372 967.331 621.352C969.51 619.299 971.941 617.705 974.625 616.568C977.309 615.4 980.072 614.815 982.914 614.815C985.376 614.815 987.476 615.242 989.213 616.094C990.981 616.915 992.607 618.162 994.091 619.836L996.886 607.048H988.36L990.208 598.191H1008.54L995.417 660ZM992.434 627.604C991.581 626.309 990.302 625.33 988.597 624.667C986.892 623.972 985.187 623.625 983.482 623.625C979.819 623.625 976.535 624.951 973.63 627.604C970.757 630.256 968.878 633.713 967.994 637.976C967.078 642.239 967.505 645.681 969.273 648.301C971.073 650.922 973.82 652.232 977.514 652.232C979.188 652.232 981.003 651.901 982.961 651.238C984.95 650.543 986.655 649.549 988.076 648.254L992.434 627.604ZM1096.59 660H1066.89L1068.74 651.19H1078.54L1087.97 607.048H1078.16L1080.01 598.191H1109.71L1107.86 607.048H1097.77L1088.34 651.19H1098.43L1096.59 660ZM1160 645.933C1158.52 650.575 1155.92 654.269 1152.19 657.016C1148.5 659.732 1144.28 661.089 1139.54 661.089C1136.95 661.089 1134.68 660.663 1132.72 659.811C1130.8 658.958 1129.23 657.774 1128.03 656.258C1126.87 654.743 1126.08 652.927 1125.67 650.812C1125.29 648.664 1125.35 646.328 1125.86 643.802L1129.93 624.714H1119.94L1121.78 615.857H1131.78L1135.57 598.191H1145.37L1141.58 615.857H1160.1L1158.25 624.714H1139.73L1135.66 643.802C1135.09 646.644 1135.34 648.759 1136.42 650.148C1137.52 651.538 1139.21 652.232 1141.49 652.232C1144.26 652.232 1146.49 651.427 1148.16 649.817C1149.87 648.207 1151.1 646.265 1151.86 643.991L1160 645.933ZM1167.87 647.307C1168.44 644.717 1169.62 642.46 1171.42 640.534C1173.25 638.576 1175.43 636.95 1177.96 635.655C1180.48 634.361 1183.26 633.398 1186.29 632.766C1189.32 632.103 1192.37 631.771 1195.43 631.771C1197.11 631.771 1198.54 631.803 1199.74 631.866C1200.94 631.929 1202.14 632.024 1203.34 632.15L1203.67 630.398C1204.18 628.093 1203.66 626.372 1202.11 625.235C1200.56 624.099 1198.34 623.53 1195.43 623.53C1192.78 623.53 1190 623.909 1187.1 624.667C1184.22 625.393 1181.4 626.467 1178.62 627.888L1176.3 620.215C1179.52 618.541 1182.91 617.231 1186.48 616.284C1190.05 615.305 1193.66 614.815 1197.33 614.815C1199.73 614.815 1202.03 615.084 1204.24 615.621C1206.45 616.157 1208.35 617.042 1209.93 618.273C1211.5 619.504 1212.63 621.115 1213.29 623.104C1213.98 625.062 1214 627.493 1213.34 630.398L1207.13 660H1197.47L1198.8 653.511C1196.74 655.911 1194.06 657.774 1190.74 659.1C1187.46 660.426 1184.07 661.089 1180.56 661.089C1178.44 661.089 1176.49 660.789 1174.69 660.189C1172.92 659.621 1171.47 658.753 1170.33 657.584C1169.19 656.416 1168.39 654.979 1167.91 653.274C1167.44 651.538 1167.43 649.549 1167.87 647.307ZM1184.92 652.327C1186.88 652.327 1188.74 652.09 1190.51 651.617C1192.28 651.111 1193.9 650.433 1195.39 649.58C1196.9 648.696 1198.15 647.638 1199.13 646.407C1200.14 645.175 1200.8 643.818 1201.12 642.333L1201.54 640.676C1200.03 640.423 1198.59 640.281 1197.23 640.25C1195.87 640.218 1194.69 640.202 1193.68 640.202C1188.88 640.202 1185.12 640.834 1182.41 642.097C1179.69 643.36 1178.11 644.923 1177.67 646.786C1176.88 650.48 1179.3 652.327 1184.92 652.327ZM1255.54 660H1225.84L1227.69 651.19H1237.4L1246.82 607.048H1237.11L1238.96 598.191H1258.47L1247.2 651.19H1257.38L1255.54 660ZM1309.96 610.126H1298.02L1300.53 598.191H1312.47L1309.96 610.126ZM1308.39 660H1278.7L1280.54 651.19H1290.35L1295.98 624.714H1286.18L1288.03 615.857H1307.64L1300.15 651.19H1310.24L1308.39 660ZM1368.02 653.701C1364.61 656.542 1361.22 658.484 1357.84 659.526C1354.49 660.568 1350.97 661.089 1347.28 661.089C1343.58 661.089 1340.35 660.537 1337.57 659.432C1334.79 658.326 1332.58 656.779 1330.94 654.79C1329.3 652.769 1328.21 650.338 1327.67 647.496C1327.1 644.654 1327.21 641.481 1328 637.976C1328.7 634.629 1329.91 631.535 1331.65 628.693C1333.42 625.819 1335.45 623.372 1337.76 621.352C1340.1 619.299 1342.69 617.705 1345.53 616.568C1348.37 615.4 1351.24 614.815 1354.15 614.815C1357.21 614.815 1359.7 615.447 1361.63 616.71C1363.59 617.973 1364.82 619.82 1365.32 622.251L1366.7 615.857H1375.41L1371.06 636.413H1362.34C1363.16 632.529 1362.75 629.435 1361.11 627.13C1359.47 624.793 1356.93 623.625 1353.48 623.625C1352.13 623.625 1350.66 623.909 1349.08 624.478C1347.5 625.014 1345.95 625.867 1344.44 627.035C1342.92 628.203 1341.56 629.688 1340.36 631.487C1339.16 633.287 1338.3 635.45 1337.76 637.976C1337.25 640.439 1337.19 642.57 1337.57 644.37C1337.98 646.138 1338.69 647.607 1339.7 648.775C1340.74 649.912 1342.09 650.78 1343.73 651.38C1345.4 651.948 1347.17 652.232 1349.03 652.232C1352.19 652.232 1355.05 651.743 1357.6 650.764C1360.16 649.754 1362.45 648.428 1364.47 646.786L1368.02 653.701Z" fill="white"/>
</svg>
