<svg width="1440" height="892" viewBox="0 0 1440 892" fill="none" xmlns="http://www.w3.org/2000/svg">
<path d="M131 174H1383V340H741.428H131V174Z" fill="#EBEBEB"/>
<rect width="1440" height="892" fill="#EBEBEB"/>
<rect x="161" y="106" width="1119" height="633" fill="white"/>
<path d="M985 464C985 450.193 996.193 439 1010 439H1174C1187.81 439 1199 450.193 1199 464V626C1199 639.807 1187.81 651 1174 651H1010C996.193 651 985 639.807 985 626V464Z" fill="#F5F5F7"/>
<path d="M238 211C238 197.193 249.193 186 263 186H427C440.807 186 452 197.193 452 211V373C452 386.807 440.807 398 427 398H263C249.193 398 238 386.807 238 373V211Z" fill="#F5F5F7"/>
<path d="M740 464C740 450.193 751.193 439 765 439H929C942.807 439 954 450.193 954 464V626C954 639.807 942.807 651 929 651H765C751.193 651 740 639.807 740 626V464Z" fill="#F5F5F7"/>
<path d="M494 461C494 447.193 505.193 436 519 436H683C696.807 436 708 447.193 708 461V623C708 636.807 696.807 648 683 648H519C505.193 648 494 636.807 494 623V461Z" fill="#F5F5F7"/>
<path d="M238 464C238 450.193 249.193 439 263 439H427C440.807 439 452 450.193 452 464V626C452 639.807 440.807 651 427 651H263C249.193 651 238 639.807 238 626V464Z" fill="#F5F5F7"/>
<path d="M985 211C985 197.193 996.193 186 1010 186H1174C1187.81 186 1199 197.193 1199 211V373C1199 386.807 1187.81 398 1174 398H1010C996.193 398 985 386.807 985 373V211Z" fill="#F5F5F7"/>
<path d="M739 211C739 197.193 750.193 186 764 186H928C941.807 186 953 197.193 953 211V373C953 386.807 941.807 398 928 398H764C750.193 398 739 386.807 739 373V211Z" fill="#F5F5F7"/>
<path d="M494 211C494 197.193 505.193 186 519 186H683C696.807 186 708 197.193 708 211V373C708 386.807 696.807 398 683 398H519C505.193 398 494 386.807 494 373V211Z" fill="#F5F5F7"/>
<path d="M691.375 155H690.657L690.057 153.179H687.537L686.946 155H686.229L688.348 148.628H689.256L691.375 155ZM689.866 152.588L688.797 149.302L687.728 152.588H689.866ZM696.287 155H695.613V152.192C695.613 151.785 695.525 151.47 695.35 151.245C695.174 151.021 694.889 150.908 694.495 150.908C694.248 150.908 694.023 150.965 693.821 151.079C693.623 151.193 693.453 151.346 693.313 151.538C693.174 151.727 693.066 151.945 692.991 152.192C692.92 152.437 692.884 152.692 692.884 152.959V155H692.215V150.449H692.884V151.592C693.206 150.758 693.781 150.342 694.607 150.342C695.727 150.342 696.287 150.959 696.287 152.192V155ZM702.103 152.739C702.103 153.094 702.046 153.416 701.932 153.706C701.821 153.996 701.66 154.245 701.448 154.453C701.24 154.658 700.989 154.819 700.696 154.937C700.403 155.054 700.076 155.112 699.715 155.112C699.36 155.112 699.036 155.054 698.743 154.937C698.45 154.819 698.198 154.658 697.986 154.453C697.778 154.245 697.617 153.996 697.503 153.706C697.392 153.416 697.337 153.094 697.337 152.739C697.337 152.394 697.392 152.074 697.503 151.777C697.617 151.478 697.778 151.224 697.986 151.016C698.198 150.804 698.45 150.64 698.743 150.522C699.036 150.402 699.36 150.342 699.715 150.342C700.076 150.342 700.403 150.402 700.696 150.522C700.989 150.64 701.24 150.804 701.448 151.016C701.66 151.224 701.821 151.478 701.932 151.777C702.046 152.074 702.103 152.394 702.103 152.739ZM701.434 152.739C701.434 152.479 701.395 152.24 701.316 152.021C701.242 151.8 701.129 151.606 700.979 151.44C700.83 151.274 700.647 151.144 700.433 151.05C700.221 150.955 699.982 150.908 699.715 150.908C699.448 150.908 699.207 150.955 698.992 151.05C698.781 151.144 698.602 151.274 698.455 151.44C698.309 151.606 698.196 151.8 698.118 152.021C698.043 152.24 698.006 152.479 698.006 152.739C698.006 153 698.043 153.241 698.118 153.462C698.196 153.68 698.309 153.869 698.455 154.028C698.602 154.188 698.781 154.313 698.992 154.404C699.207 154.495 699.448 154.541 699.715 154.541C699.982 154.541 700.221 154.495 700.433 154.404C700.647 154.313 700.83 154.188 700.979 154.028C701.129 153.869 701.242 153.68 701.316 153.462C701.395 153.241 701.434 153 701.434 152.739ZM707.205 155H706.531V152.192C706.531 151.785 706.443 151.47 706.268 151.245C706.092 151.021 705.807 150.908 705.413 150.908C705.166 150.908 704.941 150.965 704.739 151.079C704.541 151.193 704.371 151.346 704.231 151.538C704.091 151.727 703.984 151.945 703.909 152.192C703.838 152.437 703.802 152.692 703.802 152.959V155H703.133V150.449H703.802V151.592C704.124 150.758 704.699 150.342 705.525 150.342C706.645 150.342 707.205 150.959 707.205 152.192V155ZM713.045 150.449L710.584 156.152C710.457 156.471 710.278 156.68 710.047 156.777C709.816 156.878 709.56 156.929 709.28 156.929C708.968 156.929 708.655 156.872 708.343 156.758L708.475 156.182C708.628 156.247 708.777 156.292 708.924 156.318C709.07 156.348 709.189 156.362 709.28 156.362C709.502 156.362 709.653 156.309 709.734 156.201C709.819 156.094 709.892 155.967 709.954 155.82L710.232 155.132L708.201 150.449H708.992L710.633 154.429L712.244 150.449H713.045ZM718.362 155H717.693V151.729C717.693 151.468 717.648 151.266 717.557 151.123C717.465 150.98 717.334 150.908 717.161 150.908C716.907 150.908 716.72 151.042 716.6 151.309C716.482 151.576 716.424 151.95 716.424 152.432V155H715.75V151.729C715.75 151.468 715.703 151.266 715.608 151.123C715.517 150.98 715.385 150.908 715.213 150.908C715.053 150.908 714.926 150.955 714.832 151.05C714.738 151.144 714.663 151.265 714.607 151.411C714.555 151.558 714.521 151.72 714.505 151.899C714.489 152.078 714.48 152.256 714.48 152.432V155H713.812V150.449H714.48V151.108C714.62 150.597 714.925 150.342 715.394 150.342C715.84 150.342 716.142 150.565 716.302 151.011C716.523 150.565 716.836 150.342 717.239 150.342C717.627 150.342 717.91 150.457 718.089 150.688C718.271 150.916 718.362 151.263 718.362 151.729V155ZM723.938 152.739C723.938 153.094 723.882 153.416 723.768 153.706C723.657 153.996 723.496 154.245 723.284 154.453C723.076 154.658 722.825 154.819 722.532 154.937C722.239 155.054 721.912 155.112 721.551 155.112C721.196 155.112 720.872 155.054 720.579 154.937C720.286 154.819 720.034 154.658 719.822 154.453C719.614 154.245 719.453 153.996 719.339 153.706C719.228 153.416 719.173 153.094 719.173 152.739C719.173 152.394 719.228 152.074 719.339 151.777C719.453 151.478 719.614 151.224 719.822 151.016C720.034 150.804 720.286 150.64 720.579 150.522C720.872 150.402 721.196 150.342 721.551 150.342C721.912 150.342 722.239 150.402 722.532 150.522C722.825 150.64 723.076 150.804 723.284 151.016C723.496 151.224 723.657 151.478 723.768 151.777C723.882 152.074 723.938 152.394 723.938 152.739ZM723.27 152.739C723.27 152.479 723.23 152.24 723.152 152.021C723.077 151.8 722.965 151.606 722.815 151.44C722.666 151.274 722.483 151.144 722.269 151.05C722.057 150.955 721.818 150.908 721.551 150.908C721.284 150.908 721.043 150.955 720.828 151.05C720.617 151.144 720.438 151.274 720.291 151.44C720.145 151.606 720.032 151.8 719.954 152.021C719.879 152.24 719.842 152.479 719.842 152.739C719.842 153 719.879 153.241 719.954 153.462C720.032 153.68 720.145 153.869 720.291 154.028C720.438 154.188 720.617 154.313 720.828 154.404C721.043 154.495 721.284 154.541 721.551 154.541C721.818 154.541 722.057 154.495 722.269 154.404C722.483 154.313 722.666 154.188 722.815 154.028C722.965 153.869 723.077 153.68 723.152 153.462C723.23 153.241 723.27 153 723.27 152.739ZM724.969 150.449H725.638V153.262C725.638 153.669 725.726 153.984 725.901 154.209C726.08 154.43 726.367 154.541 726.761 154.541C727.008 154.541 727.231 154.484 727.43 154.37C727.628 154.256 727.798 154.105 727.938 153.916C728.077 153.724 728.183 153.506 728.255 153.262C728.33 153.014 728.367 152.757 728.367 152.49V150.449H729.041V155H728.367V153.862C728.048 154.696 727.475 155.112 726.648 155.112C725.529 155.112 724.969 154.495 724.969 153.262V150.449ZM734.617 153.74C734.617 154.007 734.55 154.229 734.417 154.404C734.284 154.58 734.111 154.72 733.899 154.824C733.691 154.928 733.457 155.002 733.196 155.044C732.939 155.09 732.687 155.112 732.439 155.112C732.026 155.112 731.614 155.052 731.204 154.932C730.794 154.811 730.439 154.653 730.14 154.458L730.438 153.882C730.773 154.093 731.103 154.256 731.429 154.37C731.754 154.484 732.091 154.541 732.439 154.541C733.445 154.541 733.948 154.281 733.948 153.76C733.948 153.633 733.906 153.53 733.821 153.452C733.74 153.371 733.629 153.306 733.489 153.257C733.349 153.205 733.188 153.164 733.006 153.135C732.827 153.105 732.638 153.078 732.439 153.052C732.186 153.016 731.933 152.974 731.683 152.925C731.432 152.876 731.202 152.803 730.994 152.705C730.789 152.607 730.623 152.477 730.496 152.314C730.372 152.152 730.311 151.937 730.311 151.67C730.311 151.442 730.368 151.245 730.481 151.079C730.599 150.913 730.753 150.775 730.945 150.664C731.141 150.553 731.368 150.472 731.629 150.42C731.889 150.368 732.16 150.342 732.439 150.342C732.84 150.342 733.198 150.389 733.514 150.483C733.829 150.575 734.114 150.706 734.368 150.879L734.1 151.401C733.839 151.219 733.576 151.092 733.309 151.021C733.042 150.946 732.752 150.908 732.439 150.908C732.299 150.908 732.143 150.921 731.971 150.947C731.801 150.97 731.644 151.012 731.497 151.074C731.351 151.133 731.227 151.211 731.126 151.309C731.028 151.403 730.979 151.523 730.979 151.67C730.979 151.797 731.02 151.899 731.102 151.978C731.186 152.052 731.299 152.116 731.438 152.168C731.578 152.217 731.738 152.256 731.917 152.285C732.099 152.314 732.29 152.342 732.488 152.368C732.736 152.404 732.985 152.446 733.235 152.495C733.489 152.544 733.719 152.616 733.924 152.71C734.132 152.804 734.3 152.933 734.427 153.096C734.554 153.258 734.617 153.473 734.617 153.74ZM745.647 150.449C745.647 151.064 745.455 151.522 745.071 151.821C744.687 152.121 744.148 152.271 743.455 152.271H742.015V155H741.346V148.628H743.445C744.145 148.628 744.687 148.781 745.071 149.087C745.455 149.39 745.647 149.844 745.647 150.449ZM744.979 150.449C744.979 150.01 744.84 149.692 744.563 149.497C744.287 149.299 743.917 149.199 743.455 149.199H742.015V151.699H743.455C743.917 151.699 744.287 151.602 744.563 151.406C744.84 151.208 744.979 150.889 744.979 150.449ZM750.867 151.089C750.626 150.968 750.34 150.908 750.008 150.908C749.734 150.908 749.49 150.967 749.275 151.084C749.061 151.201 748.878 151.356 748.729 151.548C748.579 151.737 748.463 151.955 748.382 152.202C748.304 152.446 748.265 152.699 748.265 152.959V154.429H749.295V155H746.565V154.429H747.596V151.021H746.565V150.449H748.265V151.592C748.571 150.758 749.152 150.342 750.008 150.342C750.239 150.342 750.439 150.356 750.608 150.386C750.781 150.415 750.94 150.467 751.087 150.542L750.867 151.089ZM756.692 152.739C756.692 153.094 756.635 153.416 756.521 153.706C756.411 153.996 756.25 154.245 756.038 154.453C755.83 154.658 755.579 154.819 755.286 154.937C754.993 155.054 754.666 155.112 754.305 155.112C753.95 155.112 753.626 155.054 753.333 154.937C753.04 154.819 752.788 154.658 752.576 154.453C752.368 154.245 752.207 153.996 752.093 153.706C751.982 153.416 751.927 153.094 751.927 152.739C751.927 152.394 751.982 152.074 752.093 151.777C752.207 151.478 752.368 151.224 752.576 151.016C752.788 150.804 753.04 150.64 753.333 150.522C753.626 150.402 753.95 150.342 754.305 150.342C754.666 150.342 754.993 150.402 755.286 150.522C755.579 150.64 755.83 150.804 756.038 151.016C756.25 151.224 756.411 151.478 756.521 151.777C756.635 152.074 756.692 152.394 756.692 152.739ZM756.023 152.739C756.023 152.479 755.984 152.24 755.906 152.021C755.831 151.8 755.719 151.606 755.569 151.44C755.42 151.274 755.237 151.144 755.022 151.05C754.811 150.955 754.572 150.908 754.305 150.908C754.038 150.908 753.797 150.955 753.582 151.05C753.37 151.144 753.191 151.274 753.045 151.44C752.898 151.606 752.786 151.8 752.708 152.021C752.633 152.24 752.596 152.479 752.596 152.739C752.596 153 752.633 153.241 752.708 153.462C752.786 153.68 752.898 153.869 753.045 154.028C753.191 154.188 753.37 154.313 753.582 154.404C753.797 154.495 754.038 154.541 754.305 154.541C754.572 154.541 754.811 154.495 755.022 154.404C755.237 154.313 755.42 154.188 755.569 154.028C755.719 153.869 755.831 153.68 755.906 153.462C755.984 153.241 756.023 153 756.023 152.739Z" fill="#141313"/>
<path d="M375.639 292.377C374.818 296.296 373.497 300.238 371.674 304.203C369.851 308.168 367.595 311.928 364.906 315.482L375.639 325.531L369.213 332.846L358.48 322.318C355.108 325.326 351.371 327.787 347.27 329.701C343.168 331.615 338.725 332.572 333.939 332.572C330.476 332.572 327.195 331.934 324.096 330.658C321.042 329.382 318.376 327.65 316.098 325.463C313.819 323.275 311.996 320.723 310.629 317.807C309.262 314.844 308.578 311.632 308.578 308.168C308.578 305.297 308.897 302.676 309.535 300.307C310.128 297.891 310.948 295.727 311.996 293.812C313.09 291.898 314.366 290.189 315.824 288.686C317.283 287.136 318.855 285.701 320.541 284.379C317.715 280.824 315.528 277.315 313.979 273.852C312.429 270.342 311.654 266.811 311.654 263.256C311.654 256.238 313.682 250.655 317.738 246.508C321.84 242.361 327.286 240.287 334.076 240.287C337.175 240.287 340.069 240.766 342.758 241.723C345.492 242.634 347.862 243.956 349.867 245.688C351.872 247.419 353.422 249.516 354.516 251.977C355.655 254.438 356.225 257.263 356.225 260.453C356.225 264.008 355.518 267.038 354.105 269.545C352.693 272.051 350.915 274.262 348.773 276.176C346.632 278.09 344.193 279.822 341.459 281.371C338.77 282.921 336.127 284.538 333.529 286.225L358.139 309.33C360.326 306.322 362.104 303.178 363.471 299.896C364.883 296.57 365.954 293.311 366.684 290.121L375.639 292.377ZM333.939 323.549C337.494 323.549 340.798 322.888 343.852 321.566C346.951 320.199 349.708 318.399 352.123 316.166L328.607 293.197L326.557 291.215C324.187 293.266 322.273 295.635 320.814 298.324C319.402 300.967 318.695 304.249 318.695 308.168C318.695 312.543 320.108 316.212 322.934 319.174C325.805 322.09 329.473 323.549 333.939 323.549ZM321.361 263.256C321.361 265.398 321.749 267.836 322.523 270.57C323.344 273.259 325.053 276.312 327.65 279.73C329.975 278.363 332.276 277.019 334.555 275.697C336.879 274.376 338.907 272.986 340.639 271.527C342.416 270.023 343.829 268.36 344.877 266.537C345.971 264.714 346.518 262.595 346.518 260.18C346.518 256.625 345.333 253.822 342.963 251.771C340.593 249.721 337.631 248.695 334.076 248.695C332.117 248.695 330.339 249.105 328.744 249.926C327.195 250.701 325.85 251.771 324.711 253.139C323.572 254.46 322.729 256.01 322.182 257.787C321.635 259.564 321.361 261.387 321.361 263.256Z" fill="black"/>
<path d="M634.498 300.824H619.391V315.932H611.393V300.824H593.893V315.932H585.895V300.824H570.787V293.305H585.895V275.258H570.787V267.807H585.895V252.221H593.893V267.807H611.393V252.221H619.391V267.807H634.498V275.258H619.391V293.305H634.498V300.824ZM611.393 293.305V275.258H593.893V293.305H611.393Z" fill="black"/>
<path d="M849.668 266.65C849.668 268.975 849.212 271.185 848.301 273.281C847.435 275.378 846.204 277.201 844.609 278.75C843.06 280.299 841.237 281.553 839.141 282.51C837.044 283.421 834.811 283.877 832.441 283.877C830.117 283.877 827.907 283.421 825.811 282.51C823.714 281.553 821.891 280.299 820.342 278.75C818.792 277.201 817.585 275.378 816.719 273.281C815.853 271.185 815.42 268.975 815.42 266.65C815.42 264.326 815.853 262.093 816.719 259.951C817.585 257.764 818.792 255.918 820.342 254.414C821.891 252.865 823.714 251.634 825.811 250.723C827.907 249.766 830.117 249.287 832.441 249.287C834.811 249.287 837.044 249.766 839.141 250.723C841.237 251.634 843.06 252.865 844.609 254.414C846.204 255.918 847.435 257.764 848.301 259.951C849.212 262.093 849.668 264.326 849.668 266.65ZM880.498 253.047L823.35 341.846L816.924 337.744L874.209 248.74L880.498 253.047ZM882.48 324.346C882.48 326.761 882.002 328.994 881.045 331.045C880.133 333.096 878.903 334.919 877.354 336.514C875.804 338.109 873.958 339.339 871.816 340.205C869.674 341.117 867.441 341.572 865.117 341.572C862.747 341.572 860.514 341.117 858.418 340.205C856.322 339.339 854.499 338.132 852.949 336.582C851.445 335.033 850.215 333.21 849.258 331.113C848.346 329.017 847.891 326.761 847.891 324.346C847.891 321.976 848.346 319.743 849.258 317.646C850.215 315.55 851.445 313.75 852.949 312.246C854.499 310.697 856.322 309.489 858.418 308.623C860.514 307.712 862.747 307.256 865.117 307.256C867.441 307.256 869.652 307.712 871.748 308.623C873.844 309.489 875.69 310.697 877.285 312.246C878.88 313.75 880.133 315.55 881.045 317.646C882.002 319.743 882.48 321.976 882.48 324.346ZM842.695 266.65C842.695 263.734 841.715 261.273 839.756 259.268C837.796 257.262 835.358 256.26 832.441 256.26C829.57 256.26 827.155 257.262 825.195 259.268C823.236 261.273 822.256 263.734 822.256 266.65C822.256 269.521 823.236 271.96 825.195 273.965C827.155 275.97 829.57 276.973 832.441 276.973C835.358 276.973 837.796 275.97 839.756 273.965C841.715 271.96 842.695 269.521 842.695 266.65ZM875.439 324.346C875.439 321.429 874.437 318.991 872.432 317.031C870.426 315.072 867.988 314.092 865.117 314.092C862.201 314.092 859.762 315.072 857.803 317.031C855.843 318.991 854.863 321.429 854.863 324.346C854.863 327.217 855.843 329.655 857.803 331.66C859.762 333.665 862.201 334.668 865.117 334.668C867.988 334.668 870.426 333.665 872.432 331.66C874.437 329.655 875.439 327.217 875.439 324.346Z" fill="black"/>
<path d="M1126.39 293.242C1126.39 296.341 1126.14 299.486 1125.64 302.676C1125.14 305.866 1124.27 308.76 1123.04 311.357C1121.81 313.91 1120.17 316.006 1118.12 317.646C1116.07 319.287 1113.52 320.107 1110.46 320.107C1109.14 320.107 1107.87 319.88 1106.63 319.424C1105.4 318.968 1104.31 318.307 1103.35 317.441C1102.4 316.576 1101.62 315.573 1101.03 314.434C1100.48 313.249 1100.21 311.927 1100.21 310.469V308.555C1099.21 311.973 1097.63 314.753 1095.49 316.895C1093.35 319.036 1090.87 320.107 1088.04 320.107C1085.03 320.107 1082.53 319.447 1080.52 318.125C1078.52 316.803 1076.9 315.049 1075.67 312.861C1074.48 310.674 1073.64 308.19 1073.14 305.41C1072.64 302.63 1072.39 299.782 1072.39 296.865C1072.39 293.493 1072.77 290.28 1073.55 287.227C1074.32 284.128 1075.49 281.416 1077.04 279.092C1078.58 276.722 1080.5 274.854 1082.78 273.486C1085.1 272.074 1087.79 271.367 1090.84 271.367C1092.44 271.367 1094.12 271.777 1095.9 272.598C1097.68 273.372 1099.12 274.603 1100.21 276.289V272.666H1109.16V308.555C1109.16 310.013 1109.44 311.061 1109.98 311.699C1110.53 312.337 1111.33 312.656 1112.38 312.656C1113.65 312.656 1114.75 312.041 1115.66 310.811C1116.57 309.58 1117.3 308.031 1117.85 306.162C1118.39 304.248 1118.78 302.152 1119.01 299.873C1119.28 297.594 1119.42 295.384 1119.42 293.242C1119.42 290.098 1119.21 286.976 1118.8 283.877C1118.44 280.732 1117.8 277.77 1116.89 274.99C1116.02 272.165 1114.88 269.567 1113.47 267.197C1112.06 264.782 1110.33 262.708 1108.28 260.977C1106.27 259.199 1103.92 257.832 1101.23 256.875C1098.59 255.872 1095.58 255.371 1092.21 255.371C1087.06 255.371 1082.75 256.465 1079.29 258.652C1075.83 260.84 1073.02 263.779 1070.88 267.471C1068.79 271.162 1067.28 275.423 1066.37 280.254C1065.46 285.085 1065 290.166 1065 295.498C1065 300.739 1065.46 305.775 1066.37 310.605C1067.28 315.391 1068.79 319.629 1070.88 323.32C1073.02 327.012 1075.83 329.951 1079.29 332.139C1082.8 334.326 1087.11 335.42 1092.21 335.42C1095.95 335.42 1099.3 334.759 1102.26 333.438C1105.22 332.116 1107.91 330.339 1110.33 328.105L1114.36 332.754C1108.53 338.633 1101.14 341.572 1092.21 341.572C1088.02 341.572 1084.26 341.003 1080.93 339.863C1077.65 338.678 1074.73 337.038 1072.18 334.941C1069.68 332.845 1067.51 330.361 1065.69 327.49C1063.91 324.619 1062.45 321.475 1061.31 318.057C1060.17 314.639 1059.35 311.016 1058.85 307.188C1058.3 303.359 1058.03 299.463 1058.03 295.498C1058.03 291.442 1058.3 287.5 1058.85 283.672C1059.4 279.798 1060.24 276.152 1061.38 272.734C1062.52 269.316 1063.98 266.172 1065.76 263.301C1067.58 260.43 1069.77 257.969 1072.32 255.918C1074.87 253.822 1077.79 252.204 1081.07 251.064C1084.35 249.88 1088.06 249.287 1092.21 249.287C1098.36 249.287 1103.6 250.563 1107.93 253.115C1112.31 255.622 1115.86 258.949 1118.6 263.096C1121.33 267.243 1123.31 271.937 1124.54 277.178C1125.78 282.419 1126.39 287.773 1126.39 293.242ZM1100.21 284.766C1099.16 282.533 1097.91 280.983 1096.45 280.117C1095.04 279.206 1093.46 278.75 1091.73 278.75C1090 278.75 1088.5 279.274 1087.22 280.322C1085.99 281.325 1084.96 282.692 1084.14 284.424C1083.32 286.11 1082.71 288.047 1082.3 290.234C1081.93 292.376 1081.75 294.564 1081.75 296.797C1081.75 301.764 1082.39 305.501 1083.67 308.008C1084.99 310.514 1086.83 311.768 1089.2 311.768C1090.89 311.768 1092.42 311.266 1093.78 310.264C1095.15 309.215 1096.31 307.871 1097.27 306.23C1098.23 304.544 1098.96 302.676 1099.46 300.625C1099.96 298.529 1100.21 296.455 1100.21 294.404V284.766Z" fill="black"/>
<path d="M372.105 530.43L348.727 543.008L372.105 555.928L368.346 562.354L345.65 548.477L346.607 574.932H338.678L339.635 548.477L316.939 562.354L313.18 555.928L336.559 543.008L313.18 530.43L316.939 523.867L339.635 537.881L338.678 511.221H346.607L345.65 537.881L368.346 523.867L372.105 530.43Z" fill="black"/>
<path d="M605.15 590H593.529L579.652 520.137V590H570.287V500.791H583.48L595.785 565.049V500.791H605.15V590ZM627.709 558.623C632.995 558.623 635.639 554.248 635.639 545.498C635.639 536.794 632.995 532.441 627.709 532.441C622.195 532.441 619.438 536.794 619.438 545.498C619.438 554.248 622.195 558.623 627.709 558.623ZM627.572 566.211C615.906 566.211 610.072 559.307 610.072 545.498C610.072 531.689 615.906 524.785 627.572 524.785C639.239 524.785 645.072 531.689 645.072 545.498C645.072 559.307 639.239 566.211 627.572 566.211ZM610.209 582.002H645.072V590H610.209V582.002Z" fill="black"/>
<path d="M1087.43 591.094C1083.6 590.638 1080.11 589.704 1076.97 588.291C1073.87 586.833 1071.18 585.033 1068.9 582.891C1066.62 580.703 1064.75 578.219 1063.29 575.439C1061.84 572.66 1060.83 569.72 1060.29 566.621L1069.11 564.365C1070.15 568.968 1072.14 572.979 1075.05 576.396C1078.01 579.769 1082.14 581.934 1087.43 582.891V546.865C1083.6 545.452 1080.18 544.017 1077.17 542.559C1074.21 541.055 1071.68 539.346 1069.58 537.432C1067.49 535.518 1065.89 533.33 1064.8 530.869C1063.75 528.363 1063.23 525.446 1063.23 522.119C1063.23 519.202 1063.77 516.468 1064.87 513.916C1066.01 511.364 1067.6 509.062 1069.65 507.012C1071.7 504.915 1074.21 503.229 1077.17 501.953C1080.18 500.632 1083.6 499.743 1087.43 499.287V488.076H1096.86V499.287C1100.28 499.743 1103.42 500.745 1106.29 502.295C1109.21 503.844 1111.72 505.736 1113.81 507.969C1115.91 510.202 1117.6 512.686 1118.87 515.42C1120.15 518.109 1120.92 520.843 1121.2 523.623L1111.42 525.332C1110.83 521.322 1109.35 517.653 1106.98 514.326C1104.61 510.999 1101.23 508.88 1096.86 507.969V540.166C1105.15 543.219 1111.37 546.751 1115.52 550.762C1119.67 554.727 1121.74 560.059 1121.74 566.758C1121.74 569.857 1121.17 572.773 1120.03 575.508C1118.94 578.242 1117.32 580.703 1115.18 582.891C1113.04 585.033 1110.42 586.855 1107.32 588.359C1104.26 589.818 1100.78 590.729 1096.86 591.094V602.715H1087.43V591.094ZM1111.56 567.578C1111.56 563.659 1110.3 560.332 1107.8 557.598C1105.34 554.818 1101.69 552.357 1096.86 550.215V582.891C1102.15 582.116 1105.88 580.316 1108.07 577.49C1110.3 574.619 1111.47 571.315 1111.56 567.578ZM1072.87 521.982C1072.87 525.492 1074.16 528.431 1076.76 530.801C1079.4 533.125 1082.96 535.176 1087.43 536.953V507.832C1084.92 508.197 1082.73 508.88 1080.86 509.883C1078.99 510.84 1077.47 511.979 1076.28 513.301C1075.14 514.577 1074.28 515.967 1073.69 517.471C1073.14 518.975 1072.87 520.479 1072.87 521.982Z" fill="black"/>
<path d="M850.557 589.572C846.045 589.572 842.126 589.025 838.799 587.932C835.518 586.838 832.419 585.174 829.502 582.941V613.498H820.137V523.879C820.137 520.051 820.889 516.519 822.393 513.283C823.896 510.002 825.924 507.176 828.477 504.807C831.029 502.391 834.082 500.546 837.637 499.27C841.191 497.948 845.02 497.287 849.121 497.287C853.496 497.287 857.415 497.971 860.879 499.338C864.342 500.66 867.259 502.391 869.629 504.533C871.999 506.675 873.822 509.182 875.098 512.053C876.374 514.878 877.012 517.749 877.012 520.666C877.012 525.406 875.667 529.598 872.979 533.244C870.335 536.89 866.53 539.556 861.562 541.242C867.624 543.111 872.34 545.936 875.713 549.719C879.085 553.501 880.771 558.195 880.771 563.801C880.771 567.538 880.02 570.979 878.516 574.123C877.012 577.222 874.938 579.911 872.295 582.189C869.652 584.468 866.484 586.268 862.793 587.59C859.102 588.911 855.023 589.572 850.557 589.572ZM850.557 581.574C857.074 581.574 862.178 579.934 865.869 576.652C869.561 573.371 871.406 569.087 871.406 563.801C871.406 558.469 869.469 554.139 865.596 550.812C861.722 547.44 856.003 545.754 848.438 545.754H842.285V537.756H848.438C855.046 537.756 859.876 536.138 862.93 532.902C866.029 529.667 867.578 525.588 867.578 520.666C867.578 518.98 867.236 517.225 866.553 515.402C865.869 513.579 864.798 511.939 863.34 510.48C861.882 508.977 859.99 507.746 857.666 506.789C855.342 505.786 852.493 505.285 849.121 505.285C846.706 505.285 844.313 505.65 841.943 506.379C839.619 507.108 837.523 508.247 835.654 509.797C833.831 511.346 832.35 513.283 831.211 515.607C830.072 517.932 829.502 520.689 829.502 523.879V573.303C832.236 576.265 835.267 578.384 838.594 579.66C841.966 580.936 845.954 581.574 850.557 581.574Z" fill="black"/>
<path d="M707.733 710H704.677V709.092H705.702V705.469C705.657 705.628 705.577 705.77 705.463 705.894C705.352 706.017 705.217 706.121 705.058 706.206C704.901 706.287 704.726 706.351 704.53 706.396C704.338 706.439 704.14 706.46 703.935 706.46V705.449C704.156 705.449 704.371 705.413 704.579 705.342C704.791 705.267 704.979 705.155 705.146 705.005C705.312 704.855 705.445 704.668 705.546 704.443C705.65 704.215 705.702 703.944 705.702 703.628H706.713V709.092H707.733V710ZM713.944 710H710.883V709.092H711.903V708.301H709.394V707.388L711.723 703.628H712.904V707.388H713.944V708.301H712.904V709.092H713.944V710ZM711.903 707.388V704.819L710.302 707.388H711.903ZM714.691 706.812C714.691 706.385 714.737 705.973 714.828 705.576C714.919 705.179 715.061 704.829 715.253 704.526C715.445 704.224 715.696 703.981 716.005 703.799C716.317 703.613 716.693 703.521 717.133 703.521C717.572 703.521 717.947 703.613 718.256 703.799C718.568 703.981 718.822 704.224 719.018 704.526C719.213 704.829 719.354 705.179 719.442 705.576C719.53 705.973 719.574 706.385 719.574 706.812C719.574 707.238 719.53 707.65 719.442 708.047C719.354 708.441 719.215 708.792 719.022 709.102C718.83 709.408 718.578 709.653 718.266 709.839C717.956 710.021 717.579 710.112 717.133 710.112C716.687 710.112 716.308 710.021 715.995 709.839C715.686 709.653 715.434 709.408 715.238 709.102C715.046 708.792 714.908 708.441 714.823 708.047C714.735 707.65 714.691 707.238 714.691 706.812ZM715.702 706.812C715.702 707.111 715.722 707.401 715.761 707.681L718.261 705.171C718.15 704.95 718.004 704.771 717.821 704.634C717.642 704.497 717.413 704.429 717.133 704.429C716.667 704.429 716.312 704.639 716.068 705.059C715.824 705.479 715.702 706.063 715.702 706.812ZM717.133 709.199C717.419 709.199 717.654 709.129 717.836 708.989C718.021 708.849 718.166 708.667 718.271 708.442C718.378 708.215 718.453 707.957 718.495 707.671C718.541 707.384 718.563 707.098 718.563 706.812C718.563 706.538 718.544 706.271 718.505 706.011L716.024 708.501C716.135 708.713 716.277 708.882 716.449 709.009C716.625 709.136 716.853 709.199 717.133 709.199ZM726.01 705.449H727.021V705.859C727.213 705.687 727.406 705.558 727.602 705.474C727.8 705.386 728.026 705.342 728.28 705.342C728.573 705.342 728.845 705.402 729.096 705.522C729.346 705.64 729.561 705.804 729.74 706.016C729.919 706.224 730.061 706.476 730.165 706.772C730.269 707.065 730.321 707.384 730.321 707.729C730.321 708.078 730.269 708.398 730.165 708.691C730.061 708.984 729.919 709.237 729.74 709.448C729.561 709.657 729.346 709.819 729.096 709.937C728.845 710.054 728.573 710.112 728.28 710.112C728.026 710.112 727.8 710.067 727.602 709.976C727.406 709.884 727.213 709.753 727.021 709.58V711.821H726.01V705.449ZM727.021 708.779C727.141 708.913 727.294 709.017 727.479 709.092C727.668 709.163 727.849 709.199 728.021 709.199C728.402 709.199 728.712 709.064 728.949 708.794C729.19 708.524 729.311 708.169 729.311 707.729C729.311 707.29 729.19 706.934 728.949 706.66C728.712 706.387 728.402 706.25 728.021 706.25C727.849 706.25 727.668 706.286 727.479 706.357C727.294 706.426 727.141 706.527 727.021 706.66V708.779ZM735.897 707.729C735.897 708.084 735.84 708.407 735.727 708.696C735.616 708.986 735.455 709.237 735.243 709.448C735.035 709.657 734.784 709.819 734.491 709.937C734.198 710.054 733.871 710.112 733.51 710.112C733.155 710.112 732.831 710.054 732.538 709.937C732.245 709.819 731.993 709.657 731.781 709.448C731.573 709.237 731.412 708.986 731.298 708.696C731.187 708.407 731.132 708.084 731.132 707.729C731.132 707.384 731.187 707.065 731.298 706.772C731.412 706.476 731.573 706.222 731.781 706.011C731.993 705.796 732.245 705.632 732.538 705.518C732.831 705.4 733.155 705.342 733.51 705.342C733.871 705.342 734.198 705.4 734.491 705.518C734.784 705.632 735.035 705.796 735.243 706.011C735.455 706.222 735.616 706.476 735.727 706.772C735.84 707.065 735.897 707.384 735.897 707.729ZM734.892 707.729C734.892 707.524 734.859 707.331 734.794 707.148C734.732 706.963 734.641 706.805 734.521 706.675C734.4 706.545 734.254 706.442 734.081 706.367C733.912 706.289 733.721 706.25 733.51 706.25C733.295 706.25 733.103 706.289 732.934 706.367C732.764 706.442 732.621 706.545 732.504 706.675C732.387 706.805 732.296 706.963 732.23 707.148C732.169 707.331 732.138 707.524 732.138 707.729C732.138 707.944 732.169 708.14 732.23 708.315C732.296 708.491 732.387 708.646 732.504 708.779C732.621 708.913 732.764 709.017 732.934 709.092C733.103 709.163 733.295 709.199 733.51 709.199C733.721 709.199 733.912 709.163 734.081 709.092C734.254 709.017 734.4 708.913 734.521 708.779C734.641 708.646 734.732 708.491 734.794 708.315C734.859 708.14 734.892 707.944 734.892 707.729ZM739.579 704.858H738.349V703.628H739.579V704.858ZM740.507 710H737.45V709.092H738.456V706.362H737.45V705.449H739.467V709.092H740.507V710ZM746.459 710H745.448V707.192C745.448 706.838 745.382 706.592 745.248 706.455C745.115 706.318 744.921 706.25 744.667 706.25C744.293 706.25 743.987 706.401 743.749 706.704C743.515 707.007 743.397 707.425 743.397 707.959V710H742.387V705.449H743.397V706.592C743.498 706.198 743.686 705.892 743.959 705.674C744.232 705.452 744.569 705.342 744.97 705.342C745.435 705.342 745.8 705.493 746.063 705.796C746.327 706.099 746.459 706.564 746.459 707.192V710ZM752.206 708.55C752.154 709.028 751.965 709.409 751.64 709.692C751.317 709.972 750.914 710.112 750.429 710.112C750.162 710.112 749.918 710.068 749.696 709.98C749.475 709.893 749.286 709.771 749.13 709.614C748.974 709.458 748.852 709.271 748.764 709.053C748.679 708.831 748.637 708.59 748.637 708.33V706.362H747.606V705.449H748.637V703.628H749.647V705.449H751.557V706.362H749.647V708.33C749.647 708.623 749.719 708.841 749.862 708.984C750.006 709.128 750.194 709.199 750.429 709.199C750.715 709.199 750.928 709.116 751.068 708.95C751.208 708.784 751.291 708.584 751.317 708.35L752.206 708.55Z" fill="#59A5D7"/>
</svg>
