<svg width="1301" height="485" viewBox="0 0 1301 485" fill="none" xmlns="http://www.w3.org/2000/svg">
<rect x="0.75" y="0.75" width="1269.5" height="391.5" rx="44.25" stroke="#59A5D7" stroke-width="1.5"/>
<rect x="273" y="134" width="55" height="114" rx="10" fill="black"/>
<rect x="863" y="134" width="55" height="114" rx="10" fill="black"/>
<g filter="url(#filter0_d_45_82)">
<path d="M222.869 183.569H214.739V170.869H207.005V211.826H216.102V220H188.855V211.826H197.908V170.869H190.086V183.569H182V162.651H222.869V183.569ZM269.935 220H260.838V194.907H242.381V220H233.284V162.651H242.381V186.689H260.838V162.651H269.935V220ZM368.196 220H357.649L340.643 178.428V220H331.546V162.651H342.972L359.1 202.158V162.651H368.196V220ZM419.217 220H408.582L393.553 193.281L389.773 197.764V220H380.677V162.651H389.773V185.151L407.615 162.651H419.305L399.31 186.426L419.217 220ZM467.161 204.268C467.161 206.904 466.707 209.263 465.799 211.343C464.92 213.394 463.704 215.137 462.151 216.572C460.628 218.008 458.797 219.106 456.658 219.868C454.549 220.63 452.293 221.011 449.891 221.011C447.195 221.011 444.764 220.527 442.596 219.561C440.428 218.594 438.567 216.997 437.015 214.771V220H428.841V201.279H437.015C437.015 203.154 437.337 204.81 437.981 206.245C438.655 207.681 439.534 208.896 440.618 209.893C441.702 210.859 442.962 211.606 444.397 212.134C445.833 212.632 447.356 212.881 448.968 212.881C451.692 212.881 453.89 212.251 455.56 210.991C457.229 209.731 458.064 207.725 458.064 204.971C458.064 203.535 457.801 202.305 457.273 201.279C456.775 200.254 456.043 199.346 455.076 198.555C454.139 197.734 452.981 197.031 451.604 196.445C450.228 195.83 448.66 195.186 446.902 194.512C444.822 193.809 442.742 193.018 440.662 192.139C438.582 191.26 436.722 190.176 435.081 188.887C433.44 187.598 432.107 186.016 431.082 184.141C430.057 182.236 429.544 179.849 429.544 176.978C429.544 174.458 429.998 172.261 430.906 170.386C431.844 168.481 433.074 166.885 434.598 165.596C436.15 164.307 437.938 163.34 439.959 162.695C442.01 162.021 444.178 161.685 446.463 161.685C449.1 161.685 451.355 162.241 453.23 163.354C455.135 164.468 456.6 165.947 457.625 167.793V162.651H465.799V180.493H457.625C457.625 177.124 456.731 174.502 454.944 172.627C453.187 170.723 450.813 169.771 447.825 169.771C445.188 169.771 442.991 170.386 441.233 171.616C439.505 172.847 438.641 174.575 438.641 176.802C438.641 177.944 438.86 178.926 439.3 179.746C439.769 180.537 440.428 181.27 441.277 181.943C442.156 182.588 443.255 183.203 444.573 183.789C445.892 184.346 447.415 184.961 449.144 185.635C451.312 186.396 453.465 187.261 455.604 188.228C457.742 189.194 459.661 190.381 461.36 191.787C463.06 193.193 464.451 194.907 465.535 196.929C466.619 198.921 467.161 201.367 467.161 204.268ZM564.72 170.869H537.166V186.689H558.655V194.907H537.166V220H528.069V162.651H564.72V170.869ZM573.597 191.304C573.597 187.466 574.007 183.76 574.827 180.186C575.647 176.611 576.922 173.462 578.65 170.737C580.379 168.013 582.635 165.83 585.418 164.189C588.23 162.52 591.614 161.685 595.569 161.685C599.524 161.685 602.894 162.52 605.677 164.189C608.489 165.83 610.774 168.013 612.532 170.737C614.29 173.462 615.564 176.611 616.355 180.186C617.146 183.76 617.542 187.466 617.542 191.304C617.542 195.142 617.146 198.848 616.355 202.422C615.564 205.967 614.305 209.131 612.576 211.914C610.848 214.668 608.577 216.88 605.765 218.55C602.981 220.19 599.583 221.011 595.569 221.011C591.556 221.011 588.143 220.19 585.33 218.55C582.547 216.88 580.276 214.668 578.519 211.914C576.79 209.131 575.545 205.967 574.783 202.422C573.992 198.848 573.597 195.142 573.597 191.304ZM582.693 191.304C582.693 193.882 582.884 196.46 583.265 199.038C583.675 201.616 584.349 203.931 585.286 205.981C586.253 208.003 587.557 209.644 589.197 210.903C590.867 212.163 592.991 212.793 595.569 212.793C598.147 212.793 600.257 212.163 601.897 210.903C603.567 209.644 604.871 208.003 605.809 205.981C606.775 203.931 607.449 201.616 607.83 199.038C608.24 196.46 608.445 193.882 608.445 191.304C608.445 188.726 608.24 186.162 607.83 183.613C607.449 181.064 606.775 178.765 605.809 176.714C604.871 174.663 603.553 173.008 601.854 171.748C600.184 170.488 598.089 169.858 595.569 169.858C591.38 169.858 588.187 171.748 585.989 175.527C583.792 179.307 582.693 184.565 582.693 191.304ZM665.926 220H654.412L639.559 196.797H635.428V220H626.331V162.651H645.228C651.526 162.651 656.419 164.102 659.905 167.002C663.392 169.873 665.135 174.136 665.135 179.79C665.135 182.31 664.739 184.536 663.948 186.47C663.187 188.374 662.088 190.015 660.652 191.392C659.246 192.769 657.591 193.867 655.687 194.688C653.812 195.479 651.775 196.021 649.578 196.313L665.926 220ZM656.038 179.658C656.038 176.729 655.071 174.531 653.138 173.066C651.233 171.602 648.597 170.869 645.228 170.869H635.428V188.579H645.228C648.597 188.579 651.233 187.847 653.138 186.382C655.071 184.917 656.038 182.676 656.038 179.658ZM766.165 162.651L757.288 220H747.928L742.874 195.259L737.908 220H728.548L719.671 162.651H729.119L734.393 201.279L738.567 179.043H747.269L751.312 201.279L756.717 162.651H766.165ZM805.672 220L801.541 206.333H782.557L778.514 220H768.978L786.863 162.651H797.322L815.208 220H805.672ZM784.974 198.291H799.124L792.093 174.648L784.974 198.291ZM861.57 183.569H853.44V170.869H845.706V211.826H854.803V220H827.557V211.826H836.609V170.869H828.787V183.569H820.701V162.651H861.57V183.569ZM957.767 220H948.67V194.907H930.213V220H921.116V162.651H930.213V186.689H948.67V162.651H957.767V220ZM1002.46 220H974.949V211.826H984.002V170.869H974.949V162.651H1002.46V170.869H993.099V211.826H1002.46V220ZM1056.03 220H1045.48L1028.47 178.428V220H1019.38V162.651H1030.8L1046.93 202.158V162.651H1056.03V220ZM1109.55 191.479C1109.55 195.376 1109.16 199.097 1108.37 202.642C1107.61 206.187 1106.33 209.321 1104.54 212.046C1102.79 214.771 1100.5 216.953 1097.69 218.594C1094.91 220.205 1091.51 221.011 1087.49 221.011C1083.48 221.011 1080.08 220.19 1077.3 218.55C1074.51 216.88 1072.23 214.683 1070.44 211.958C1068.68 209.233 1067.41 206.084 1066.62 202.51C1065.86 198.936 1065.48 195.229 1065.48 191.392C1065.48 187.554 1065.86 183.848 1066.62 180.273C1067.41 176.699 1068.68 173.535 1070.44 170.781C1072.23 168.027 1074.51 165.83 1077.3 164.189C1080.08 162.52 1083.48 161.685 1087.49 161.685C1088.64 161.685 1089.81 161.846 1091.01 162.168C1092.21 162.49 1093.35 162.988 1094.44 163.662C1095.52 164.307 1096.47 165.112 1097.29 166.079C1098.14 167.046 1098.74 168.159 1099.09 169.419V162.651H1107.31V182.998H1099.09C1099.09 181.211 1098.82 179.526 1098.26 177.944C1097.7 176.333 1096.91 174.927 1095.89 173.726C1094.86 172.524 1093.63 171.587 1092.2 170.913C1090.76 170.21 1089.19 169.858 1087.49 169.858C1084.92 169.858 1082.81 170.503 1081.17 171.792C1079.52 173.081 1078.21 174.751 1077.21 176.802C1076.21 178.853 1075.51 181.152 1075.1 183.701C1074.72 186.25 1074.53 188.813 1074.53 191.392C1074.53 193.97 1074.72 196.533 1075.1 199.082C1075.51 201.631 1076.2 203.931 1077.17 205.981C1078.13 208.003 1079.45 209.644 1081.12 210.903C1082.79 212.163 1084.92 212.793 1087.49 212.793C1091.21 212.793 1094.22 211.606 1096.5 209.233C1098.79 206.86 1100.35 203.184 1101.2 198.203H1089.12V190.029H1109.55V191.479ZM1141.94 162.651L1139.7 203.608H1132.23L1129.99 162.651H1141.94ZM1141.5 220H1130.43V208.926H1141.5V220Z" fill="black"/>
<path d="M314.363 220L310.232 206.333H291.248L287.205 220H277.669L295.555 162.651H306.014L323.899 220H314.363ZM293.665 198.291H307.815L300.784 174.648L293.665 198.291ZM911.668 202.466C910.965 205.278 910.027 207.827 908.855 210.112C907.684 212.397 906.248 214.346 904.549 215.957C902.879 217.568 900.916 218.813 898.66 219.692C896.434 220.571 893.87 221.011 890.97 221.011C886.956 221.011 883.558 220.19 880.774 218.55C877.991 216.88 875.706 214.668 873.919 211.914C872.161 209.131 870.887 205.967 870.096 202.422C869.334 198.848 868.953 195.142 868.953 191.304C868.953 187.466 869.334 183.76 870.096 180.186C870.887 176.611 872.146 173.462 873.875 170.737C875.633 168.013 877.859 165.83 880.555 164.189C883.25 162.52 886.546 161.685 890.442 161.685C891.702 161.685 892.977 161.846 894.266 162.168C895.555 162.49 896.756 162.988 897.869 163.662C898.982 164.307 899.949 165.112 900.77 166.079C901.619 167.046 902.22 168.159 902.571 169.419V162.651H910.789V184.36H902.571C902.571 182.573 902.352 180.815 901.912 179.087C901.473 177.329 900.77 175.776 899.803 174.429C898.836 173.081 897.62 171.982 896.155 171.133C894.69 170.283 892.962 169.858 890.97 169.858C888.392 169.858 886.282 170.488 884.642 171.748C883.001 173.008 881.683 174.663 880.687 176.714C879.69 178.765 878.987 181.064 878.577 183.613C878.196 186.162 878.006 188.726 878.006 191.304C878.006 193.882 878.196 196.46 878.577 199.038C878.987 201.616 879.676 203.931 880.643 205.981C881.609 208.003 882.928 209.644 884.598 210.903C886.268 212.163 888.392 212.793 890.97 212.793C894.69 212.793 897.547 211.606 899.539 209.233C901.561 206.86 903.172 203.667 904.373 199.653L911.668 202.466Z" fill="#EBEBEB"/>
</g>
<path d="M643.33 473.973C643.33 474.272 643.302 474.54 643.247 474.778C643.197 475.016 643.103 475.257 642.964 475.5C642.832 475.744 642.654 476.001 642.433 476.272C642.212 476.544 641.932 476.854 641.595 477.202L637.818 481.029H642.392V478.904H643.363V482H636.324V480.996L640.541 476.712C640.756 476.497 640.961 476.281 641.155 476.065C641.354 475.849 641.531 475.631 641.686 475.409C641.841 475.188 641.963 474.958 642.051 474.72C642.14 474.482 642.184 474.233 642.184 473.973C642.184 473.309 641.963 472.808 641.52 472.471C641.083 472.128 640.541 471.956 639.893 471.956C638.986 471.956 638.299 472.208 637.834 472.711C637.37 473.215 637.137 473.943 637.137 474.895H636.083C636.083 473.672 636.41 472.714 637.062 472.022C637.715 471.331 638.659 470.985 639.893 470.985C640.358 470.985 640.795 471.054 641.205 471.192C641.62 471.325 641.985 471.519 642.3 471.773C642.621 472.028 642.873 472.341 643.056 472.711C643.238 473.077 643.33 473.497 643.33 473.973ZM646.144 476.596C646.144 477.399 646.24 478.151 646.434 478.854L651.506 473.5C651.24 473.002 650.911 472.62 650.518 472.354C650.131 472.089 649.677 471.956 649.157 471.956C648.183 471.956 647.436 472.371 646.916 473.201C646.401 474.026 646.144 475.157 646.144 476.596ZM646.824 479.775C647.372 480.749 648.15 481.236 649.157 481.236C650.109 481.236 650.847 480.824 651.373 480C651.899 479.169 652.162 478.035 652.162 476.596C652.162 476.198 652.137 475.821 652.087 475.467C652.037 475.108 651.968 474.764 651.879 474.438L646.824 479.775ZM645.006 476.596C645.006 475.871 645.084 475.171 645.239 474.496C645.394 473.821 645.634 473.223 645.961 472.703C646.287 472.183 646.714 471.768 647.239 471.458C647.771 471.143 648.41 470.985 649.157 470.985C649.904 470.985 650.54 471.143 651.066 471.458C651.597 471.768 652.029 472.183 652.361 472.703C652.693 473.223 652.934 473.821 653.083 474.496C653.232 475.171 653.307 475.871 653.307 476.596C653.307 477.321 653.232 478.021 653.083 478.696C652.934 479.371 652.696 479.966 652.369 480.481C652.043 480.996 651.614 481.411 651.083 481.726C650.557 482.036 649.915 482.191 649.157 482.191C648.399 482.191 647.754 482.036 647.223 481.726C646.697 481.411 646.268 480.996 645.936 480.481C645.61 479.966 645.374 479.371 645.23 478.696C645.081 478.021 645.006 477.321 645.006 476.596ZM661.89 473.973C661.89 474.272 661.862 474.54 661.807 474.778C661.757 475.016 661.663 475.257 661.525 475.5C661.392 475.744 661.215 476.001 660.994 476.272C660.772 476.544 660.493 476.854 660.155 477.202L656.378 481.029H660.952V478.904H661.923V482H654.884V480.996L659.101 476.712C659.317 476.497 659.522 476.281 659.715 476.065C659.915 475.849 660.092 475.631 660.247 475.409C660.402 475.188 660.523 474.958 660.612 474.72C660.7 474.482 660.745 474.233 660.745 473.973C660.745 473.309 660.523 472.808 660.081 472.471C659.643 472.128 659.101 471.956 658.454 471.956C657.546 471.956 656.86 472.208 656.395 472.711C655.93 473.215 655.698 473.943 655.698 474.895H654.644C654.644 473.672 654.97 472.714 655.623 472.022C656.276 471.331 657.22 470.985 658.454 470.985C658.918 470.985 659.356 471.054 659.765 471.192C660.18 471.325 660.545 471.519 660.861 471.773C661.182 472.028 661.434 472.341 661.616 472.711C661.799 473.077 661.89 473.497 661.89 473.973ZM671.17 473.973C671.17 474.272 671.143 474.54 671.087 474.778C671.038 475.016 670.944 475.257 670.805 475.5C670.672 475.744 670.495 476.001 670.274 476.272C670.053 476.544 669.773 476.854 669.436 477.202L665.659 481.029H670.232V478.904H671.204V482H664.165V480.996L668.381 476.712C668.597 476.497 668.802 476.281 668.996 476.065C669.195 475.849 669.372 475.631 669.527 475.409C669.682 475.188 669.804 474.958 669.892 474.72C669.981 474.482 670.025 474.233 670.025 473.973C670.025 473.309 669.804 472.808 669.361 472.471C668.924 472.128 668.381 471.956 667.734 471.956C666.826 471.956 666.14 472.208 665.675 472.711C665.21 473.215 664.978 473.943 664.978 474.895H663.924C663.924 473.672 664.25 472.714 664.903 472.022C665.556 471.331 666.5 470.985 667.734 470.985C668.199 470.985 668.636 471.054 669.045 471.192C669.46 471.325 669.826 471.519 670.141 471.773C670.462 472.028 670.714 472.341 670.896 472.711C671.079 473.077 671.17 473.497 671.17 473.973Z" fill="black"/>
<defs>
<filter id="filter0_d_45_82" x="82" y="65.6846" width="1159.94" height="259.326" filterUnits="userSpaceOnUse" color-interpolation-filters="sRGB">
<feFlood flood-opacity="0" result="BackgroundImageFix"/>
<feColorMatrix in="SourceAlpha" type="matrix" values="0 0 0 0 0 0 0 0 0 0 0 0 0 0 0 0 0 0 127 0" result="hardAlpha"/>
<feOffset dy="4"/>
<feGaussianBlur stdDeviation="50"/>
<feComposite in2="hardAlpha" operator="out"/>
<feColorMatrix type="matrix" values="0 0 0 0 0 0 0 0 0 0 0 0 0 0 0 0 0 0 0.25 0"/>
<feBlend mode="normal" in2="BackgroundImageFix" result="effect1_dropShadow_45_82"/>
<feBlend mode="normal" in="SourceGraphic" in2="effect1_dropShadow_45_82" result="shape"/>
</filter>
</defs>
</svg>
