<svg width="1272" height="457" viewBox="0 0 1272 457" fill="none" xmlns="http://www.w3.org/2000/svg">
<path d="M129.46 204H111.516L96.501 158.468H33.5127L18.7422 204H0.797852L53.7764 44.6982H76.4814L129.46 204ZM91.7402 143.697L65.0068 61.5439L38.2734 143.697H91.7402ZM252.263 204H235.417V133.81C235.417 123.637 233.22 115.743 228.825 110.128C224.431 104.513 217.31 101.705 207.463 101.705C201.278 101.705 195.663 103.129 190.617 105.978C185.653 108.826 181.421 112.651 177.922 117.452C174.423 122.172 171.737 127.625 169.865 133.81C168.075 139.913 167.18 146.301 167.18 152.975V204H150.456V90.2305H167.18V118.795C175.236 97.9616 189.6 87.5449 210.271 87.5449C238.265 87.5449 252.263 102.966 252.263 133.81V204ZM397.648 147.481C397.648 156.352 396.224 164.409 393.376 171.651C390.609 178.894 386.581 185.12 381.291 190.328C376.083 195.455 369.816 199.483 362.492 202.413C355.168 205.343 346.989 206.808 337.956 206.808C329.086 206.808 320.988 205.343 313.664 202.413C306.34 199.483 300.033 195.455 294.743 190.328C289.535 185.12 285.507 178.894 282.658 171.651C279.891 164.409 278.508 156.352 278.508 147.481C278.508 138.855 279.891 130.839 282.658 123.434C285.507 115.947 289.535 109.599 294.743 104.391C300.033 99.1009 306.34 94.9912 313.664 92.0615C320.988 89.0505 329.086 87.5449 337.956 87.5449C346.989 87.5449 355.168 89.0505 362.492 92.0615C369.816 94.9912 376.083 99.1009 381.291 104.391C386.581 109.599 390.609 115.947 393.376 123.434C396.224 130.839 397.648 138.855 397.648 147.481ZM380.925 147.481C380.925 140.971 379.948 134.99 377.995 129.537C376.123 124.003 373.316 119.161 369.572 115.011C365.829 110.86 361.271 107.605 355.9 105.245C350.611 102.885 344.629 101.705 337.956 101.705C331.283 101.705 325.261 102.885 319.89 105.245C314.6 107.605 310.124 110.86 306.462 115.011C302.8 119.161 299.992 124.003 298.039 129.537C296.167 134.99 295.231 140.971 295.231 147.481C295.231 153.992 296.167 160.014 298.039 165.548C299.992 171 302.8 175.72 306.462 179.708C310.124 183.696 314.6 186.829 319.89 189.107C325.261 191.386 331.283 192.525 337.956 192.525C344.629 192.525 350.611 191.386 355.9 189.107C361.271 186.829 365.829 183.696 369.572 179.708C373.316 175.72 376.123 171 377.995 165.548C379.948 160.014 380.925 153.992 380.925 147.481ZM525.212 204H508.366V133.81C508.366 123.637 506.169 115.743 501.774 110.128C497.38 104.513 490.259 101.705 480.412 101.705C474.227 101.705 468.612 103.129 463.566 105.978C458.602 108.826 454.37 112.651 450.871 117.452C447.372 122.172 444.686 127.625 442.814 133.81C441.024 139.913 440.129 146.301 440.129 152.975V204H423.405V90.2305H440.129V118.795C448.186 97.9616 462.549 87.5449 483.22 87.5449C511.215 87.5449 525.212 102.966 525.212 133.81V204ZM671.208 90.2305L609.685 232.809C606.511 240.784 602.035 245.992 596.257 248.434C590.479 250.956 584.09 252.218 577.092 252.218C569.279 252.218 561.467 250.794 553.654 247.945L556.95 233.541C560.775 235.169 564.519 236.308 568.181 236.959C571.843 237.691 574.813 238.058 577.092 238.058C582.626 238.058 586.41 236.715 588.444 234.029C590.56 231.344 592.391 228.17 593.938 224.508L600.896 207.296L550.114 90.2305H569.89L610.905 189.718L651.188 90.2305H671.208ZM804.143 204H787.419V122.213C787.419 115.702 786.28 110.657 784.001 107.076C781.722 103.495 778.426 101.705 774.113 101.705C767.766 101.705 763.086 105.042 760.075 111.715C757.146 118.388 755.681 127.747 755.681 139.791V204H738.835V122.213C738.835 115.702 737.655 110.657 735.295 107.076C733.016 103.495 729.72 101.705 725.407 101.705C721.42 101.705 718.246 102.885 715.886 105.245C713.526 107.605 711.654 110.616 710.271 114.278C708.968 117.94 708.114 122.009 707.707 126.485C707.3 130.961 707.097 135.396 707.097 139.791V204H690.373V90.2305H707.097V106.71C710.596 93.9333 718.205 87.5449 729.924 87.5449C741.073 87.5449 748.641 93.1195 752.629 104.269C758.163 93.1195 765.975 87.5449 776.066 87.5449C785.751 87.5449 792.831 90.4339 797.307 96.2119C801.864 101.909 804.143 110.576 804.143 122.213V204ZM943.547 147.481C943.547 156.352 942.123 164.409 939.274 171.651C936.507 178.894 932.479 185.12 927.189 190.328C921.981 195.455 915.715 199.483 908.391 202.413C901.066 205.343 892.888 206.808 883.854 206.808C874.984 206.808 866.887 205.343 859.562 202.413C852.238 199.483 845.931 195.455 840.642 190.328C835.433 185.12 831.405 178.894 828.557 171.651C825.79 164.409 824.406 156.352 824.406 147.481C824.406 138.855 825.79 130.839 828.557 123.434C831.405 115.947 835.433 109.599 840.642 104.391C845.931 99.1009 852.238 94.9912 859.562 92.0615C866.887 89.0505 874.984 87.5449 883.854 87.5449C892.888 87.5449 901.066 89.0505 908.391 92.0615C915.715 94.9912 921.981 99.1009 927.189 104.391C932.479 109.599 936.507 115.947 939.274 123.434C942.123 130.839 943.547 138.855 943.547 147.481ZM926.823 147.481C926.823 140.971 925.847 134.99 923.894 129.537C922.022 124.003 919.214 119.161 915.471 115.011C911.727 110.86 907.17 107.605 901.799 105.245C896.509 102.885 890.528 101.705 883.854 101.705C877.181 101.705 871.159 102.885 865.788 105.245C860.498 107.605 856.022 110.86 852.36 115.011C848.698 119.161 845.891 124.003 843.938 129.537C842.066 134.99 841.13 140.971 841.13 147.481C841.13 153.992 842.066 160.014 843.938 165.548C845.891 171 848.698 175.72 852.36 179.708C856.022 183.696 860.498 186.829 865.788 189.107C871.159 191.386 877.181 192.525 883.854 192.525C890.528 192.525 896.509 191.386 901.799 189.107C907.17 186.829 911.727 183.696 915.471 179.708C919.214 175.72 922.022 171 923.894 165.548C925.847 160.014 926.823 153.992 926.823 147.481ZM969.304 90.2305H986.027V160.543C986.027 170.715 988.225 178.609 992.619 184.225C997.095 189.758 1004.26 192.525 1014.1 192.525C1020.29 192.525 1025.86 191.101 1030.83 188.253C1035.79 185.405 1040.02 181.62 1043.52 176.9C1047.02 172.099 1049.67 166.646 1051.46 160.543C1053.33 154.358 1054.26 147.929 1054.26 141.256V90.2305H1071.11V204H1054.26V175.558C1046.29 196.391 1031.97 206.808 1011.3 206.808C983.301 206.808 969.304 191.386 969.304 160.543V90.2305ZM1210.51 172.506C1210.51 179.179 1208.85 184.713 1205.51 189.107C1202.17 193.502 1197.86 197.001 1192.57 199.605C1187.36 202.21 1181.5 204.041 1174.99 205.099C1168.56 206.238 1162.26 206.808 1156.07 206.808C1145.74 206.808 1135.44 205.302 1125.19 202.291C1114.93 199.28 1106.06 195.333 1098.58 190.45L1106.02 176.046C1114.4 181.336 1122.66 185.405 1130.8 188.253C1138.94 191.101 1147.36 192.525 1156.07 192.525C1181.22 192.525 1193.79 186.015 1193.79 172.994C1193.79 169.82 1192.73 167.257 1190.62 165.304C1188.58 163.269 1185.82 161.642 1182.32 160.421C1178.82 159.119 1174.79 158.102 1170.23 157.369C1165.76 156.637 1161.04 155.945 1156.07 155.294C1149.72 154.399 1143.42 153.341 1137.15 152.12C1130.88 150.899 1125.15 149.068 1119.94 146.627C1114.81 144.186 1110.66 140.93 1107.49 136.861C1104.39 132.792 1102.85 127.421 1102.85 120.748C1102.85 115.051 1104.27 110.128 1107.12 105.978C1110.05 101.827 1113.92 98.3685 1118.72 95.6016C1123.6 92.8346 1129.3 90.8001 1135.81 89.498C1142.32 88.196 1149.07 87.5449 1156.07 87.5449C1166.08 87.5449 1175.03 88.7249 1182.93 91.085C1190.82 93.3636 1197.94 96.6595 1204.29 100.973L1197.58 114.034C1191.06 109.477 1184.47 106.303 1177.8 104.513C1171.13 102.641 1163.88 101.705 1156.07 101.705C1152.57 101.705 1148.67 102.031 1144.35 102.682C1140.12 103.251 1136.17 104.309 1132.51 105.855C1128.85 107.32 1125.76 109.273 1123.23 111.715C1120.79 114.075 1119.57 117.086 1119.57 120.748C1119.57 123.922 1120.59 126.485 1122.62 128.438C1124.74 130.31 1127.55 131.897 1131.05 133.199C1134.55 134.42 1138.53 135.396 1143.01 136.129C1147.57 136.861 1152.33 137.553 1157.29 138.204C1163.48 139.099 1169.7 140.157 1175.97 141.378C1182.32 142.599 1188.05 144.389 1193.18 146.749C1198.39 149.109 1202.58 152.324 1205.75 156.393C1208.93 160.462 1210.51 165.833 1210.51 172.506ZM530.949 340.23C530.949 355.611 526.148 367.045 516.545 374.532C506.942 382.019 493.474 385.763 476.14 385.763H440.129V454H423.405V294.698H475.896C493.392 294.698 506.942 298.523 516.545 306.173C526.148 313.741 530.949 325.094 530.949 340.23ZM514.226 340.23C514.226 329.244 510.767 321.31 503.85 316.427C496.932 311.463 487.696 308.98 476.14 308.98H440.129V371.48H476.14C487.696 371.48 496.932 369.039 503.85 364.156C510.767 359.192 514.226 351.217 514.226 340.23ZM661.442 356.222C655.42 353.211 648.259 351.705 639.958 351.705C633.122 351.705 627.019 353.17 621.647 356.1C616.276 359.029 611.719 362.895 607.976 367.696C604.232 372.416 601.343 377.869 599.309 384.054C597.355 390.157 596.379 396.464 596.379 402.975V439.718H622.136V454H553.898V439.718H579.655V354.513H553.898V340.23H596.379V368.795C604.029 347.962 618.555 337.545 639.958 337.545C645.736 337.545 650.741 337.911 654.973 338.644C659.286 339.376 663.273 340.678 666.936 342.55L661.442 356.222ZM807.072 397.481C807.072 406.352 805.648 414.409 802.8 421.651C800.033 428.894 796.005 435.12 790.715 440.328C785.507 445.455 779.24 449.483 771.916 452.413C764.592 455.343 756.413 456.808 747.38 456.808C738.509 456.808 730.412 455.343 723.088 452.413C715.764 449.483 709.457 445.455 704.167 440.328C698.959 435.12 694.93 428.894 692.082 421.651C689.315 414.409 687.932 406.352 687.932 397.481C687.932 388.855 689.315 380.839 692.082 373.434C694.93 365.947 698.959 359.599 704.167 354.391C709.457 349.101 715.764 344.991 723.088 342.062C730.412 339.05 738.509 337.545 747.38 337.545C756.413 337.545 764.592 339.05 771.916 342.062C779.24 344.991 785.507 349.101 790.715 354.391C796.005 359.599 800.033 365.947 802.8 373.434C805.648 380.839 807.072 388.855 807.072 397.481ZM790.349 397.481C790.349 390.971 789.372 384.99 787.419 379.537C785.547 374.003 782.74 369.161 778.996 365.011C775.253 360.86 770.695 357.605 765.324 355.245C760.035 352.885 754.053 351.705 747.38 351.705C740.707 351.705 734.685 352.885 729.313 355.245C724.024 357.605 719.548 360.86 715.886 365.011C712.224 369.161 709.416 374.003 707.463 379.537C705.591 384.99 704.655 390.971 704.655 397.481C704.655 403.992 705.591 410.014 707.463 415.548C709.416 421 712.224 425.72 715.886 429.708C719.548 433.696 724.024 436.829 729.313 439.107C734.685 441.386 740.707 442.525 747.38 442.525C754.053 442.525 760.035 441.386 765.324 439.107C770.695 436.829 775.253 433.696 778.996 429.708C782.74 425.72 785.547 421 787.419 415.548C789.372 410.014 790.349 403.992 790.349 397.481Z" fill="#100101"/>
</svg>
