<svg width="1623" height="793" viewBox="0 0 1623 793" fill="none" xmlns="http://www.w3.org/2000/svg">
<rect y="23" width="1440" height="755" fill="#59A5D7"/>
<path d="M946.555 341.477H733.859V669.016H858.664V778H491.867V669.016H612.57V341.477H491.867V231.906H612.57C612.57 156.906 635.617 99.6797 681.711 60.2266C727.805 20.3828 790.109 0.460938 868.625 0.460938C880.344 0.460938 892.844 1.04688 906.125 2.21875C919.406 3.39062 932.883 4.75781 946.555 6.32031V112.961C923.117 110.617 901.828 109.445 882.688 109.445C851.438 109.445 826.242 111.789 807.102 116.477C787.961 120.773 772.922 128 761.984 138.156C751.438 147.922 744.016 160.617 739.719 176.242C735.812 191.867 733.859 210.422 733.859 231.906H946.555V341.477Z" fill="black"/>
<path d="M1203.05 341.477H990.359V669.016H1115.16V778H748.367V669.016H869.07V341.477H748.367V231.906H869.07C869.07 156.906 892.117 99.6797 938.211 60.2266C984.305 20.3828 1046.61 0.460938 1125.12 0.460938C1136.84 0.460938 1149.34 1.04688 1162.62 2.21875C1175.91 3.39062 1189.38 4.75781 1203.05 6.32031V112.961C1179.62 110.617 1158.33 109.445 1139.19 109.445C1107.94 109.445 1082.74 111.789 1063.6 116.477C1044.46 120.773 1029.42 128 1018.48 138.156C1007.94 147.922 1000.52 160.617 996.219 176.242C992.312 191.867 990.359 210.422 990.359 231.906H1203.05V341.477Z" fill="black"/>
<path d="M1203.05 341.477H990.359V669.016H1115.16V778H748.367V669.016H869.07V341.477H748.367V231.906H869.07C869.07 156.906 892.117 99.6797 938.211 60.2266C984.305 20.3828 1046.61 0.460938 1125.12 0.460938C1136.84 0.460938 1149.34 1.04688 1162.62 2.21875C1175.91 3.39062 1189.38 4.75781 1203.05 6.32031V112.961C1179.62 110.617 1158.33 109.445 1139.19 109.445C1107.94 109.445 1082.74 111.789 1063.6 116.477C1044.46 120.773 1029.42 128 1018.48 138.156C1007.94 147.922 1000.52 160.617 996.219 176.242C992.312 191.867 990.359 210.422 990.359 231.906H1203.05V341.477Z" fill="black"/>
<path d="M1330.84 161.008H1183.18V13.3516H1330.84V161.008ZM1442.16 778H1075.37V669.016H1196.07V341.477H1075.37V231.906H1317.36V669.016H1442.16V778Z" fill="black"/>
</svg>
