<svg width="1440" height="923" viewBox="0 0 1440 923" fill="none" xmlns="http://www.w3.org/2000/svg">
<path d="M0 0.5H1440V922.5H0V0.5Z" fill="#171111"/>
<mask id="path-2-inside-1_45_133" fill="white">
<rect x="51" y="154" width="332" height="662" rx="10"/>
</mask>
<rect x="51" y="154" width="332" height="662" rx="10" fill="#59A5D7" stroke="black" stroke-width="40" mask="url(#path-2-inside-1_45_133)"/>
<path d="M358.723 493.074L200.357 180.52C196.986 173.868 201.82 166 209.277 166H486.408C490.087 166 493.469 168.02 495.213 171.259L668.41 492.946C669.442 494.862 669.82 497.063 669.487 499.215L623.36 797.528C622.606 802.403 618.41 806 613.478 806H326.562C320.465 806 315.787 800.592 316.666 794.559L359.698 499.034C359.995 496.994 359.654 494.912 358.723 493.074Z" fill="#B0C7D9" stroke="black" stroke-width="22"/>
<path d="M468.599 220H283.718C280.686 220 278.757 223.241 280.201 225.906L391.865 431.906C392.564 433.196 393.914 434 395.382 434H578.337C581.356 434 583.287 430.784 581.867 428.119L472.129 222.119C471.434 220.815 470.077 220 468.599 220Z" fill="#F2FFAB" stroke="black" stroke-width="22"/>
<path d="M487 368H365L399 424H417H561L487 368Z" fill="#DADADA" stroke="black"/>
<path d="M491 362L420 363L349 364" stroke="black" stroke-width="22"/>
<path d="M493.867 358.152L483 266L557 405L493.867 358.152Z" fill="#59A5D7" stroke="#59A5D7"/>
<path d="M467 220L482.806 358.306C482.93 359.388 483.49 360.373 484.356 361.033L567 424" stroke="black" stroke-width="22"/>
<rect x="483.5" y="518.5" width="150" height="22" rx="9.5" fill="black" stroke="black"/>
<mask id="path-10-inside-2_45_133" fill="white">
<rect x="501" y="523" width="114" height="129" rx="10"/>
</mask>
<rect x="501" y="523" width="114" height="129" rx="10" fill="#D7D7D7" stroke="black" stroke-width="40" mask="url(#path-10-inside-2_45_133)"/>
<rect x="863" y="188" width="506" height="87" rx="40" fill="black"/>
<rect x="863" y="342" width="506" height="87" rx="40" fill="black"/>
<rect x="863" y="661" width="506" height="87" rx="40" fill="black"/>
<rect x="863" y="507" width="506" height="87" rx="40" fill="black"/>
<path d="M925.246 245H921.203V230.449H913V245H908.957V226.797H925.246V245ZM948.508 235.918C948.508 237.337 948.28 238.626 947.824 239.785C947.382 240.944 946.737 241.947 945.891 242.793C945.057 243.626 944.055 244.277 942.883 244.746C941.711 245.215 940.402 245.449 938.957 245.449C937.538 245.449 936.242 245.215 935.07 244.746C933.898 244.277 932.889 243.626 932.043 242.793C931.21 241.947 930.565 240.944 930.109 239.785C929.667 238.626 929.445 237.337 929.445 235.918C929.445 234.538 929.667 233.262 930.109 232.09C930.565 230.905 931.21 229.889 932.043 229.043C932.889 228.184 933.898 227.526 935.07 227.07C936.242 226.602 937.538 226.367 938.957 226.367C940.402 226.367 941.711 226.602 942.883 227.07C944.055 227.526 945.057 228.184 945.891 229.043C946.737 229.889 947.382 230.905 947.824 232.09C948.28 233.262 948.508 234.538 948.508 235.918ZM944.484 235.918C944.484 235.098 944.354 234.323 944.094 233.594C943.846 232.852 943.482 232.22 943 231.699C942.518 231.178 941.932 230.768 941.242 230.469C940.565 230.156 939.803 230 938.957 230C938.098 230 937.329 230.156 936.652 230.469C935.975 230.768 935.402 231.178 934.934 231.699C934.465 232.22 934.1 232.852 933.84 233.594C933.592 234.323 933.469 235.098 933.469 235.918C933.469 236.777 933.592 237.559 933.84 238.262C934.1 238.965 934.465 239.583 934.934 240.117C935.402 240.651 935.975 241.068 936.652 241.367C937.329 241.654 938.098 241.797 938.957 241.797C939.803 241.797 940.565 241.654 941.242 241.367C941.932 241.068 942.518 240.651 943 240.117C943.482 239.583 943.846 238.965 944.094 238.262C944.354 237.559 944.484 236.777 944.484 235.918ZM951.672 241.367C952.414 240.964 953.02 240.501 953.488 239.98C953.957 239.46 954.322 238.802 954.582 238.008C954.855 237.201 955.044 236.224 955.148 235.078C955.253 233.932 955.305 232.559 955.305 230.957V226.797H966.906V241.367H969.875V251.23H966.223V245H955.305V251.23H951.672V241.367ZM959.348 231.758C959.348 232.5 959.322 233.34 959.27 234.277C959.217 235.215 959.087 236.139 958.879 237.051C958.684 237.949 958.378 238.789 957.961 239.57C957.557 240.339 956.978 240.938 956.223 241.367H962.863V230.195H959.348V231.758ZM973.508 241.367C974.25 240.964 974.855 240.501 975.324 239.98C975.793 239.46 976.158 238.802 976.418 238.008C976.691 237.201 976.88 236.224 976.984 235.078C977.089 233.932 977.141 232.559 977.141 230.957V226.797H988.742V241.367H991.711V251.23H988.059V245H977.141V251.23H973.508V241.367ZM981.184 231.758C981.184 232.5 981.158 233.34 981.105 234.277C981.053 235.215 980.923 236.139 980.715 237.051C980.52 237.949 980.214 238.789 979.797 239.57C979.393 240.339 978.814 240.938 978.059 241.367H984.699V230.195H981.184V231.758ZM999.055 237.441C999.25 238.691 999.842 239.733 1000.83 240.566C1001.83 241.387 1003.18 241.797 1004.86 241.797C1006.17 241.797 1007.31 241.595 1008.27 241.191C1009.25 240.775 1010.09 240.228 1010.79 239.551L1012.86 242.402C1011.69 243.574 1010.45 244.375 1009.13 244.805C1007.83 245.234 1006.4 245.449 1004.86 245.449C1003.45 245.449 1002.14 245.215 1000.93 244.746C999.719 244.277 998.671 243.626 997.785 242.793C996.9 241.947 996.203 240.944 995.695 239.785C995.201 238.626 994.953 237.337 994.953 235.918C994.953 234.538 995.181 233.268 995.637 232.109C996.105 230.938 996.757 229.928 997.59 229.082C998.436 228.223 999.445 227.559 1000.62 227.09C1001.79 226.608 1003.08 226.367 1004.5 226.367C1005.98 226.367 1007.31 226.621 1008.51 227.129C1009.71 227.624 1010.73 228.346 1011.57 229.297C1012.43 230.247 1013.1 231.413 1013.59 232.793C1014.07 234.16 1014.31 235.71 1014.31 237.441H999.055ZM1009.74 233.887C1009.53 232.715 1008.92 231.777 1007.92 231.074C1006.92 230.358 1005.78 230 1004.5 230C1003.23 230 1002.08 230.358 1001.07 231.074C1000.05 231.777 999.439 232.715 999.23 233.887H1009.74ZM1018.14 226.797H1022.18V228.438C1022.95 227.747 1023.72 227.233 1024.5 226.895C1025.3 226.543 1026.2 226.367 1027.22 226.367C1028.39 226.367 1029.48 226.608 1030.48 227.09C1031.48 227.559 1032.34 228.216 1033.06 229.062C1033.77 229.896 1034.34 230.905 1034.76 232.09C1035.17 233.262 1035.38 234.538 1035.38 235.918C1035.38 237.311 1035.17 238.594 1034.76 239.766C1034.34 240.938 1033.77 241.947 1033.06 242.793C1032.34 243.626 1031.48 244.277 1030.48 244.746C1029.48 245.215 1028.39 245.449 1027.22 245.449C1026.2 245.449 1025.3 245.267 1024.5 244.902C1023.72 244.538 1022.95 244.01 1022.18 243.32V252.285H1018.14V226.797ZM1022.18 240.117C1022.66 240.651 1023.27 241.068 1024.02 241.367C1024.77 241.654 1025.49 241.797 1026.18 241.797C1027.71 241.797 1028.94 241.257 1029.89 240.176C1030.86 239.095 1031.34 237.676 1031.34 235.918C1031.34 234.16 1030.86 232.734 1029.89 231.641C1028.94 230.547 1027.71 230 1026.18 230C1025.49 230 1024.77 230.143 1024.02 230.43C1023.27 230.703 1022.66 231.107 1022.18 231.641V240.117ZM1046.09 245V238.32L1045.42 237.48L1041.22 245H1036.89L1042.94 234.766L1036.89 226.797H1041.34L1046.09 233.594V226.797H1050.13V233.594L1055.09 226.797H1059.33L1053.29 234.766L1059.33 245H1055.21L1050.81 237.48L1050.13 238.32V245H1046.09ZM1079.02 245H1073.78L1067.69 237.637L1065.85 239.512V245H1061.81V226.797H1065.85V234.512L1073.14 226.797H1078.68L1070.29 235.156L1079.02 245ZM1082.61 239.766C1082.61 238.698 1082.9 237.767 1083.47 236.973C1084.04 236.165 1084.79 235.495 1085.71 234.961C1086.65 234.427 1087.72 234.03 1088.92 233.77C1090.13 233.496 1091.36 233.359 1092.61 233.359C1093.3 233.359 1093.89 233.372 1094.39 233.398C1094.88 233.424 1095.38 233.464 1095.89 233.516V232.793C1095.89 231.842 1095.52 231.133 1094.78 230.664C1094.05 230.195 1093.08 229.961 1091.89 229.961C1090.79 229.961 1089.68 230.117 1088.55 230.43C1087.41 230.729 1086.34 231.172 1085.32 231.758L1083.68 228.594C1084.88 227.904 1086.16 227.363 1087.53 226.973C1088.91 226.569 1090.36 226.367 1091.89 226.367C1092.88 226.367 1093.85 226.478 1094.8 226.699C1095.76 226.921 1096.62 227.285 1097.38 227.793C1098.14 228.301 1098.76 228.965 1099.21 229.785C1099.67 230.592 1099.89 231.595 1099.89 232.793V245H1095.89V242.324C1095.25 243.314 1094.31 244.082 1093.06 244.629C1091.82 245.176 1090.49 245.449 1089.05 245.449C1088.17 245.449 1087.33 245.326 1086.54 245.078C1085.75 244.844 1085.08 244.486 1084.5 244.004C1083.93 243.522 1083.47 242.93 1083.12 242.227C1082.78 241.51 1082.61 240.69 1082.61 239.766ZM1090.09 241.836C1090.88 241.836 1091.63 241.738 1092.32 241.543C1093.02 241.335 1093.64 241.055 1094.17 240.703C1094.71 240.339 1095.12 239.902 1095.42 239.395C1095.73 238.887 1095.89 238.327 1095.89 237.715V237.031C1095.25 236.927 1094.65 236.868 1094.09 236.855C1093.53 236.842 1093.04 236.836 1092.61 236.836C1090.63 236.836 1089.13 237.096 1088.12 237.617C1087.11 238.138 1086.61 238.783 1086.61 239.551C1086.61 241.074 1087.77 241.836 1090.09 241.836ZM1144.88 236.328C1144.88 237.734 1144.64 238.997 1144.17 240.117C1143.72 241.237 1143.08 242.194 1142.26 242.988C1141.45 243.77 1140.49 244.375 1139.39 244.805C1138.28 245.234 1137.1 245.449 1135.83 245.449C1133.92 245.449 1132.34 245.085 1131.09 244.355C1129.85 243.613 1128.87 242.637 1128.16 241.426C1127.44 240.215 1126.93 238.815 1126.63 237.227C1126.35 235.638 1126.2 233.991 1126.2 232.285C1126.2 230.553 1126.41 228.893 1126.83 227.305C1127.26 225.716 1127.92 224.31 1128.8 223.086C1129.69 221.849 1130.79 220.872 1132.1 220.156C1133.42 219.44 1134.99 219.082 1136.81 219.082C1138.08 219.082 1139.29 219.277 1140.42 219.668C1141.55 220.046 1142.54 220.612 1143.39 221.367L1141.2 224.316C1140.54 223.73 1139.85 223.32 1139.13 223.086C1138.43 222.839 1137.65 222.715 1136.81 222.715C1135.71 222.715 1134.74 222.936 1133.88 223.379C1133.02 223.822 1132.3 224.447 1131.73 225.254C1131.16 226.048 1130.72 226.992 1130.42 228.086C1130.14 229.18 1129.99 230.378 1129.99 231.68C1130.4 230.326 1131.16 229.219 1132.28 228.359C1133.4 227.5 1134.88 227.07 1136.71 227.07C1137.8 227.07 1138.85 227.305 1139.84 227.773C1140.83 228.242 1141.69 228.887 1142.43 229.707C1143.19 230.514 1143.78 231.484 1144.21 232.617C1144.65 233.75 1144.88 234.987 1144.88 236.328ZM1140.83 236.328C1140.83 234.727 1140.39 233.385 1139.5 232.305C1138.63 231.224 1137.37 230.684 1135.71 230.684C1134.11 230.684 1132.83 231.185 1131.87 232.188C1130.92 233.177 1130.44 234.486 1130.44 236.113C1130.44 236.921 1130.55 237.663 1130.75 238.34C1130.98 239.017 1131.3 239.616 1131.73 240.137C1132.17 240.658 1132.73 241.068 1133.41 241.367C1134.1 241.654 1134.92 241.797 1135.87 241.797C1137.32 241.797 1138.5 241.322 1139.43 240.371C1140.36 239.408 1140.83 238.06 1140.83 236.328ZM1166.4 223.164C1164.8 224.896 1163.5 226.536 1162.51 228.086C1161.52 229.622 1160.75 231.224 1160.21 232.891C1159.66 234.557 1159.28 236.367 1159.07 238.32C1158.87 240.26 1158.75 242.487 1158.72 245H1154.6C1154.63 242.63 1154.78 240.469 1155.07 238.516C1155.37 236.549 1155.84 234.701 1156.48 232.969C1157.11 231.224 1157.95 229.564 1159 227.988C1160.04 226.4 1161.32 224.792 1162.84 223.164H1152.75V227.441H1149.15V219.512H1166.4V223.164ZM1198.39 237.969C1196.33 237.943 1194.73 237.467 1193.59 236.543C1192.44 235.618 1191.87 234.238 1191.87 232.402C1191.87 230.566 1192.45 229.173 1193.62 228.223C1194.8 227.272 1196.44 226.797 1198.55 226.797H1209.11V245H1205.07V237.969H1203.43L1197.02 245H1191.63L1198.39 237.969ZM1195.91 232.363C1195.91 233.027 1196.14 233.522 1196.61 233.848C1197.08 234.16 1197.71 234.316 1198.51 234.316H1205.07V230.449H1198.51C1197.71 230.449 1197.08 230.612 1196.61 230.938C1196.14 231.25 1195.91 231.725 1195.91 232.363ZM1231.14 231.797C1231.14 232.682 1230.8 233.516 1230.11 234.297C1229.43 235.065 1228.46 235.553 1227.18 235.762C1228.38 235.996 1229.34 236.504 1230.07 237.285C1230.81 238.053 1231.18 238.906 1231.18 239.844C1231.18 240.716 1230.95 241.504 1230.48 242.207C1230.01 242.897 1229.37 243.483 1228.55 243.965C1227.74 244.447 1226.78 244.811 1225.68 245.059C1224.57 245.319 1223.36 245.449 1222.06 245.449C1219.98 245.449 1218.26 245.13 1216.91 244.492C1215.57 243.841 1214.48 242.865 1213.66 241.562L1216.83 239.434C1217.19 240.137 1217.85 240.71 1218.8 241.152C1219.75 241.582 1220.86 241.797 1222.14 241.797C1223.64 241.797 1224.84 241.595 1225.75 241.191C1226.68 240.775 1227.14 240.215 1227.14 239.512C1227.14 239.017 1226.8 238.555 1226.12 238.125C1225.45 237.695 1224.43 237.48 1223.06 237.48H1220.17V233.848H1223.02C1224.39 233.848 1225.41 233.672 1226.09 233.32C1226.76 232.969 1227.1 232.572 1227.1 232.129C1227.1 231.478 1226.67 230.964 1225.79 230.586C1224.93 230.195 1223.78 230 1222.34 230C1219.86 230 1218.13 230.775 1217.14 232.324L1214.19 230.273C1214.99 228.971 1216.03 227.995 1217.34 227.344C1218.65 226.693 1220.3 226.367 1222.3 226.367C1223.56 226.367 1224.73 226.497 1225.79 226.758C1226.87 227.005 1227.8 227.363 1228.59 227.832C1229.38 228.288 1230.01 228.861 1230.46 229.551C1230.92 230.228 1231.14 230.977 1231.14 231.797ZM1247.9 239.395C1247.9 241.243 1247.32 242.643 1246.14 243.594C1244.97 244.531 1243.33 245 1241.22 245H1235.15V226.797H1239.17V233.848H1241.26C1243.35 233.848 1244.97 234.31 1246.14 235.234C1247.32 236.146 1247.9 237.533 1247.9 239.395ZM1243.86 239.434C1243.86 238.77 1243.62 238.281 1243.16 237.969C1242.69 237.643 1242.06 237.48 1241.26 237.48H1239.17V241.367H1241.26C1242.06 241.367 1242.69 241.204 1243.16 240.879C1243.62 240.553 1243.86 240.072 1243.86 239.434ZM1250.09 226.797H1254.13V245H1250.09V226.797ZM1275.54 245H1270.3L1264.21 237.637L1262.38 239.512V245H1258.33V226.797H1262.38V234.512L1269.66 226.797H1275.21L1266.81 235.156L1275.54 245ZM1297.88 235.918C1297.88 237.337 1297.65 238.626 1297.2 239.785C1296.76 240.944 1296.11 241.947 1295.27 242.793C1294.43 243.626 1293.43 244.277 1292.26 244.746C1291.09 245.215 1289.78 245.449 1288.33 245.449C1286.91 245.449 1285.62 245.215 1284.45 244.746C1283.27 244.277 1282.26 243.626 1281.42 242.793C1280.58 241.947 1279.94 240.944 1279.48 239.785C1279.04 238.626 1278.82 237.337 1278.82 235.918C1278.82 234.538 1279.04 233.262 1279.48 232.09C1279.94 230.905 1280.58 229.889 1281.42 229.043C1282.26 228.184 1283.27 227.526 1284.45 227.07C1285.62 226.602 1286.91 226.367 1288.33 226.367C1289.78 226.367 1291.09 226.602 1292.26 227.07C1293.43 227.526 1294.43 228.184 1295.27 229.043C1296.11 229.889 1296.76 230.905 1297.2 232.09C1297.65 233.262 1297.88 234.538 1297.88 235.918ZM1293.86 235.918C1293.86 235.098 1293.73 234.323 1293.47 233.594C1293.22 232.852 1292.86 232.22 1292.38 231.699C1291.89 231.178 1291.31 230.768 1290.62 230.469C1289.94 230.156 1289.18 230 1288.33 230C1287.47 230 1286.7 230.156 1286.03 230.469C1285.35 230.768 1284.78 231.178 1284.31 231.699C1283.84 232.22 1283.48 232.852 1283.21 233.594C1282.97 234.323 1282.84 235.098 1282.84 235.918C1282.84 236.777 1282.97 237.559 1283.21 238.262C1283.48 238.965 1283.84 239.583 1284.31 240.117C1284.78 240.651 1285.35 241.068 1286.03 241.367C1286.7 241.654 1287.47 241.797 1288.33 241.797C1289.18 241.797 1289.94 241.654 1290.62 241.367C1291.31 241.068 1291.89 240.651 1292.38 240.117C1292.86 239.583 1293.22 238.965 1293.47 238.262C1293.73 237.559 1293.86 236.777 1293.86 235.918ZM1319.21 240C1319.21 241.654 1318.6 242.904 1317.38 243.75C1316.16 244.583 1314.43 245 1312.16 245H1302V226.797H1311.44C1312.27 226.797 1313.1 226.862 1313.92 226.992C1314.75 227.109 1315.49 227.344 1316.14 227.695C1316.8 228.034 1317.32 228.516 1317.73 229.141C1318.13 229.766 1318.33 230.573 1318.33 231.562C1318.33 232.474 1318.05 233.294 1317.47 234.023C1316.9 234.753 1316.01 235.293 1314.82 235.645C1316.3 235.853 1317.4 236.335 1318.12 237.09C1318.85 237.832 1319.21 238.802 1319.21 240ZM1314.33 232.031C1314.33 231.641 1314.24 231.328 1314.07 231.094C1313.92 230.846 1313.7 230.658 1313.43 230.527C1313.17 230.384 1312.86 230.293 1312.51 230.254C1312.17 230.215 1311.83 230.195 1311.5 230.195H1306.05V233.848H1311.5C1311.83 233.848 1312.17 233.828 1312.51 233.789C1312.86 233.737 1313.17 233.646 1313.43 233.516C1313.7 233.385 1313.92 233.203 1314.07 232.969C1314.24 232.721 1314.33 232.409 1314.33 232.031ZM1315.21 239.395C1315.21 238.757 1314.94 238.281 1314.41 237.969C1313.87 237.643 1313.12 237.48 1312.16 237.48H1306.05V241.367H1312.16C1313.12 241.367 1313.87 241.204 1314.41 240.879C1314.94 240.553 1315.21 240.059 1315.21 239.395Z" fill="white"/>
<path d="M928.957 378.797H933V386.395C933 387.814 933.267 388.797 933.801 389.344C934.335 389.891 935.109 390.164 936.125 390.164C937.609 390.164 938.827 389.559 939.777 388.348C940.728 387.124 941.203 385.451 941.203 383.328V378.797H945.246V397H941.203V388.797C940.799 390.372 940.051 391.603 938.957 392.488C937.863 393.361 936.516 393.797 934.914 393.797C933.052 393.797 931.594 393.191 930.539 391.98C929.484 390.77 928.957 388.908 928.957 386.395V378.797ZM953.547 389.441C953.742 390.691 954.335 391.733 955.324 392.566C956.327 393.387 957.668 393.797 959.348 393.797C960.663 393.797 961.802 393.595 962.766 393.191C963.742 392.775 964.582 392.228 965.285 391.551L967.355 394.402C966.184 395.574 964.94 396.375 963.625 396.805C962.323 397.234 960.897 397.449 959.348 397.449C957.941 397.449 956.633 397.215 955.422 396.746C954.211 396.277 953.163 395.626 952.277 394.793C951.392 393.947 950.695 392.944 950.188 391.785C949.693 390.626 949.445 389.337 949.445 387.918C949.445 386.538 949.673 385.268 950.129 384.109C950.598 382.938 951.249 381.928 952.082 381.082C952.928 380.223 953.938 379.559 955.109 379.09C956.281 378.608 957.577 378.367 958.996 378.367C960.467 378.367 961.802 378.621 963 379.129C964.198 379.624 965.22 380.346 966.066 381.297C966.926 382.247 967.596 383.413 968.078 384.793C968.56 386.16 968.801 387.71 968.801 389.441H953.547ZM964.23 385.887C964.022 384.715 963.417 383.777 962.414 383.074C961.411 382.358 960.272 382 958.996 382C957.72 382 956.574 382.358 955.559 383.074C954.543 383.777 953.931 384.715 953.723 385.887H964.23ZM989.836 388.074H986.223V382.449H982.785V393.367H986.828V397H974.719V393.367H978.742V382.449H975.266V388.074H971.672V378.797H989.836V388.074ZM1005.87 391.395C1005.87 393.243 1005.29 394.643 1004.11 395.594C1002.94 396.531 1001.3 397 999.191 397H993.117V378.797H997.141V385.848H999.23C1001.31 385.848 1002.94 386.31 1004.11 387.234C1005.29 388.146 1005.87 389.533 1005.87 391.395ZM1001.83 391.434C1001.83 390.77 1001.59 390.281 1001.12 389.969C1000.66 389.643 1000.02 389.48 999.23 389.48H997.141V393.367H999.23C1000.02 393.367 1000.66 393.204 1001.12 392.879C1001.59 392.553 1001.83 392.072 1001.83 391.434ZM1008.06 378.797H1012.1V397H1008.06V378.797ZM1016.3 378.797H1020.34V380.438C1021.11 379.747 1021.89 379.233 1022.67 378.895C1023.46 378.543 1024.37 378.367 1025.38 378.367C1026.55 378.367 1027.64 378.608 1028.64 379.09C1029.65 379.559 1030.51 380.216 1031.22 381.062C1031.94 381.896 1032.51 382.905 1032.92 384.09C1033.34 385.262 1033.55 386.538 1033.55 387.918C1033.55 389.311 1033.34 390.594 1032.92 391.766C1032.51 392.938 1031.94 393.947 1031.22 394.793C1030.51 395.626 1029.65 396.277 1028.64 396.746C1027.64 397.215 1026.55 397.449 1025.38 397.449C1024.37 397.449 1023.46 397.267 1022.67 396.902C1021.89 396.538 1021.11 396.01 1020.34 395.32V404.285H1016.3V378.797ZM1020.34 392.117C1020.83 392.651 1021.44 393.068 1022.18 393.367C1022.93 393.654 1023.66 393.797 1024.35 393.797C1025.87 393.797 1027.11 393.257 1028.06 392.176C1029.02 391.095 1029.5 389.676 1029.5 387.918C1029.5 386.16 1029.02 384.734 1028.06 383.641C1027.11 382.547 1025.87 382 1024.35 382C1023.66 382 1022.93 382.143 1022.18 382.43C1021.44 382.703 1020.83 383.107 1020.34 383.641V392.117ZM1040.89 389.441C1041.09 390.691 1041.68 391.733 1042.67 392.566C1043.67 393.387 1045.01 393.797 1046.69 393.797C1048.01 393.797 1049.15 393.595 1050.11 393.191C1051.09 392.775 1051.93 392.228 1052.63 391.551L1054.7 394.402C1053.53 395.574 1052.28 396.375 1050.97 396.805C1049.67 397.234 1048.24 397.449 1046.69 397.449C1045.29 397.449 1043.98 397.215 1042.77 396.746C1041.55 396.277 1040.51 395.626 1039.62 394.793C1038.74 393.947 1038.04 392.944 1037.53 391.785C1037.04 390.626 1036.79 389.337 1036.79 387.918C1036.79 386.538 1037.02 385.268 1037.47 384.109C1037.94 382.938 1038.59 381.928 1039.43 381.082C1040.27 380.223 1041.28 379.559 1042.45 379.09C1043.62 378.608 1044.92 378.367 1046.34 378.367C1047.81 378.367 1049.15 378.621 1050.34 379.129C1051.54 379.624 1052.56 380.346 1053.41 381.297C1054.27 382.247 1054.94 383.413 1055.42 384.793C1055.9 386.16 1056.14 387.71 1056.14 389.441H1040.89ZM1051.57 385.887C1051.37 384.715 1050.76 383.777 1049.76 383.074C1048.76 382.358 1047.62 382 1046.34 382C1045.06 382 1043.92 382.358 1042.9 383.074C1041.89 383.777 1041.27 384.715 1041.07 385.887H1051.57ZM1098.1 397H1094.05V389.48H1085.85V397H1081.81V378.797H1085.85V385.848H1094.05V378.797H1098.1V397ZM1102.61 391.766C1102.61 390.698 1102.9 389.767 1103.47 388.973C1104.04 388.165 1104.79 387.495 1105.71 386.961C1106.65 386.427 1107.72 386.03 1108.92 385.77C1110.13 385.496 1111.36 385.359 1112.61 385.359C1113.3 385.359 1113.89 385.372 1114.39 385.398C1114.88 385.424 1115.38 385.464 1115.89 385.516V384.793C1115.89 383.842 1115.52 383.133 1114.78 382.664C1114.05 382.195 1113.08 381.961 1111.89 381.961C1110.79 381.961 1109.68 382.117 1108.55 382.43C1107.41 382.729 1106.34 383.172 1105.32 383.758L1103.68 380.594C1104.88 379.904 1106.16 379.363 1107.53 378.973C1108.91 378.569 1110.36 378.367 1111.89 378.367C1112.88 378.367 1113.85 378.478 1114.8 378.699C1115.76 378.921 1116.62 379.285 1117.38 379.793C1118.14 380.301 1118.76 380.965 1119.21 381.785C1119.67 382.592 1119.89 383.595 1119.89 384.793V397H1115.89V394.324C1115.25 395.314 1114.31 396.082 1113.06 396.629C1111.82 397.176 1110.49 397.449 1109.05 397.449C1108.17 397.449 1107.33 397.326 1106.54 397.078C1105.75 396.844 1105.08 396.486 1104.5 396.004C1103.93 395.522 1103.47 394.93 1103.12 394.227C1102.78 393.51 1102.61 392.69 1102.61 391.766ZM1110.09 393.836C1110.88 393.836 1111.63 393.738 1112.32 393.543C1113.02 393.335 1113.64 393.055 1114.17 392.703C1114.71 392.339 1115.12 391.902 1115.42 391.395C1115.73 390.887 1115.89 390.327 1115.89 389.715V389.031C1115.25 388.927 1114.65 388.868 1114.09 388.855C1113.53 388.842 1113.04 388.836 1112.61 388.836C1110.63 388.836 1109.13 389.096 1108.12 389.617C1107.11 390.138 1106.61 390.783 1106.61 391.551C1106.61 393.074 1107.77 393.836 1110.09 393.836ZM1125.48 378.797H1129.52V386.395C1129.52 387.814 1129.79 388.797 1130.32 389.344C1130.86 389.891 1131.63 390.164 1132.65 390.164C1134.13 390.164 1135.35 389.559 1136.3 388.348C1137.25 387.124 1137.73 385.451 1137.73 383.328V378.797H1141.77V397H1137.73V388.797C1137.32 390.372 1136.57 391.603 1135.48 392.488C1134.39 393.361 1133.04 393.797 1131.44 393.797C1129.58 393.797 1128.12 393.191 1127.06 391.98C1126.01 390.77 1125.48 388.908 1125.48 386.395V378.797ZM1150.07 389.441C1150.27 390.691 1150.86 391.733 1151.85 392.566C1152.85 393.387 1154.19 393.797 1155.87 393.797C1157.19 393.797 1158.33 393.595 1159.29 393.191C1160.27 392.775 1161.11 392.228 1161.81 391.551L1163.88 394.402C1162.71 395.574 1161.46 396.375 1160.15 396.805C1158.85 397.234 1157.42 397.449 1155.87 397.449C1154.46 397.449 1153.16 397.215 1151.95 396.746C1150.73 396.277 1149.69 395.626 1148.8 394.793C1147.92 393.947 1147.22 392.944 1146.71 391.785C1146.22 390.626 1145.97 389.337 1145.97 387.918C1145.97 386.538 1146.2 385.268 1146.65 384.109C1147.12 382.938 1147.77 381.928 1148.61 381.082C1149.45 380.223 1150.46 379.559 1151.63 379.09C1152.8 378.608 1154.1 378.367 1155.52 378.367C1156.99 378.367 1158.33 378.621 1159.52 379.129C1160.72 379.624 1161.74 380.346 1162.59 381.297C1163.45 382.247 1164.12 383.413 1164.6 384.793C1165.08 386.16 1165.32 387.71 1165.32 389.441H1150.07ZM1160.75 385.887C1160.55 384.715 1159.94 383.777 1158.94 383.074C1157.93 382.358 1156.8 382 1155.52 382C1154.24 382 1153.1 382.358 1152.08 383.074C1151.07 383.777 1150.45 384.715 1150.25 385.887H1160.75ZM1169.15 378.797H1173.2V380.438C1173.96 379.747 1174.74 379.233 1175.52 378.895C1176.31 378.543 1177.22 378.367 1178.23 378.367C1179.41 378.367 1180.49 378.608 1181.5 379.09C1182.5 379.559 1183.36 380.216 1184.07 381.062C1184.79 381.896 1185.36 382.905 1185.77 384.09C1186.19 385.262 1186.4 386.538 1186.4 387.918C1186.4 389.311 1186.19 390.594 1185.77 391.766C1185.36 392.938 1184.79 393.947 1184.07 394.793C1183.36 395.626 1182.5 396.277 1181.5 396.746C1180.49 397.215 1179.41 397.449 1178.23 397.449C1177.22 397.449 1176.31 397.267 1175.52 396.902C1174.74 396.538 1173.96 396.01 1173.2 395.32V404.285H1169.15V378.797ZM1173.2 392.117C1173.68 392.651 1174.29 393.068 1175.03 393.367C1175.79 393.654 1176.51 393.797 1177.2 393.797C1178.72 393.797 1179.96 393.257 1180.91 392.176C1181.87 391.095 1182.36 389.676 1182.36 387.918C1182.36 386.16 1181.87 384.734 1180.91 383.641C1179.96 382.547 1178.72 382 1177.2 382C1176.51 382 1175.79 382.143 1175.03 382.43C1174.29 382.703 1173.68 383.107 1173.2 383.641V392.117ZM1208.2 388.074H1204.58V382.449H1201.14V393.367H1205.19V397H1193.08V393.367H1197.1V382.449H1193.62V388.074H1190.03V378.797H1208.2V388.074ZM1211.79 391.766C1211.79 390.698 1212.08 389.767 1212.65 388.973C1213.22 388.165 1213.97 387.495 1214.89 386.961C1215.83 386.427 1216.9 386.03 1218.1 385.77C1219.31 385.496 1220.54 385.359 1221.79 385.359C1222.48 385.359 1223.07 385.372 1223.57 385.398C1224.06 385.424 1224.56 385.464 1225.07 385.516V384.793C1225.07 383.842 1224.7 383.133 1223.96 382.664C1223.23 382.195 1222.26 381.961 1221.07 381.961C1219.97 381.961 1218.86 382.117 1217.73 382.43C1216.59 382.729 1215.52 383.172 1214.5 383.758L1212.86 380.594C1214.06 379.904 1215.34 379.363 1216.71 378.973C1218.09 378.569 1219.54 378.367 1221.07 378.367C1222.06 378.367 1223.03 378.478 1223.98 378.699C1224.94 378.921 1225.8 379.285 1226.55 379.793C1227.32 380.301 1227.93 380.965 1228.39 381.785C1228.85 382.592 1229.07 383.595 1229.07 384.793V397H1225.07V394.324C1224.43 395.314 1223.49 396.082 1222.24 396.629C1221 397.176 1219.67 397.449 1218.23 397.449C1217.35 397.449 1216.51 397.326 1215.71 397.078C1214.93 396.844 1214.26 396.486 1213.68 396.004C1213.11 395.522 1212.65 394.93 1212.3 394.227C1211.96 393.51 1211.79 392.69 1211.79 391.766ZM1219.27 393.836C1220.06 393.836 1220.81 393.738 1221.5 393.543C1222.2 393.335 1222.82 393.055 1223.35 392.703C1223.89 392.339 1224.3 391.902 1224.6 391.395C1224.91 390.887 1225.07 390.327 1225.07 389.715V389.031C1224.43 388.927 1223.83 388.868 1223.27 388.855C1222.71 388.842 1222.22 388.836 1221.79 388.836C1219.81 388.836 1218.31 389.096 1217.3 389.617C1216.29 390.138 1215.79 390.783 1215.79 391.551C1215.79 393.074 1216.95 393.836 1219.27 393.836ZM1250.95 397H1246.91V389.48H1238.7V397H1234.66V378.797H1238.7V385.848H1246.91V378.797H1250.95V397ZM1256.5 378.797H1260.54V391.316L1267.71 378.797H1272.79V397H1268.74V383.758L1261.18 397H1256.5V378.797ZM1283.9 389.969C1281.84 389.943 1280.24 389.467 1279.09 388.543C1277.95 387.618 1277.38 386.238 1277.38 384.402C1277.38 382.566 1277.96 381.173 1279.13 380.223C1280.3 379.272 1281.95 378.797 1284.05 378.797H1294.62V397H1290.58V389.969H1288.94L1282.53 397H1277.14L1283.9 389.969ZM1281.42 384.363C1281.42 385.027 1281.65 385.522 1282.12 385.848C1282.59 386.16 1283.22 386.316 1284.02 386.316H1290.58V382.449H1284.02C1283.22 382.449 1282.59 382.612 1282.12 382.938C1281.65 383.25 1281.42 383.725 1281.42 384.363Z" fill="white"/>
<path d="M1025.52 551.328C1025.52 552.734 1025.28 553.997 1024.81 555.117C1024.36 556.237 1023.72 557.194 1022.9 557.988C1022.09 558.77 1021.13 559.375 1020.03 559.805C1018.92 560.234 1017.74 560.449 1016.47 560.449C1014.56 560.449 1012.98 560.085 1011.73 559.355C1010.49 558.613 1009.51 557.637 1008.8 556.426C1008.08 555.215 1007.57 553.815 1007.27 552.227C1006.99 550.638 1006.84 548.991 1006.84 547.285C1006.84 545.553 1007.05 543.893 1007.47 542.305C1007.9 540.716 1008.56 539.31 1009.44 538.086C1010.33 536.849 1011.43 535.872 1012.74 535.156C1014.06 534.44 1015.63 534.082 1017.45 534.082C1018.73 534.082 1019.93 534.277 1021.06 534.668C1022.2 535.046 1023.18 535.612 1024.03 536.367L1021.84 539.316C1021.18 538.73 1020.49 538.32 1019.77 538.086C1019.07 537.839 1018.3 537.715 1017.45 537.715C1016.36 537.715 1015.38 537.936 1014.52 538.379C1013.66 538.822 1012.94 539.447 1012.37 540.254C1011.8 541.048 1011.36 541.992 1011.06 543.086C1010.78 544.18 1010.63 545.378 1010.63 546.68C1011.04 545.326 1011.8 544.219 1012.92 543.359C1014.04 542.5 1015.52 542.07 1017.35 542.07C1018.45 542.07 1019.49 542.305 1020.48 542.773C1021.47 543.242 1022.33 543.887 1023.07 544.707C1023.83 545.514 1024.42 546.484 1024.85 547.617C1025.29 548.75 1025.52 549.987 1025.52 551.328ZM1021.47 551.328C1021.47 549.727 1021.03 548.385 1020.14 547.305C1019.27 546.224 1018.01 545.684 1016.36 545.684C1014.75 545.684 1013.47 546.185 1012.51 547.188C1011.56 548.177 1011.08 549.486 1011.08 551.113C1011.08 551.921 1011.19 552.663 1011.39 553.34C1011.62 554.017 1011.94 554.616 1012.37 555.137C1012.81 555.658 1013.37 556.068 1014.05 556.367C1014.74 556.654 1015.56 556.797 1016.51 556.797C1017.96 556.797 1019.14 556.322 1020.07 555.371C1021 554.408 1021.47 553.06 1021.47 551.328ZM1044.03 560H1031.8V556.367H1035.91V541.875C1035.72 542.513 1035.4 543.079 1034.95 543.574C1034.51 544.069 1033.97 544.486 1033.33 544.824C1032.7 545.15 1032 545.404 1031.22 545.586C1030.45 545.755 1029.66 545.84 1028.84 545.84V541.797C1029.72 541.797 1030.58 541.654 1031.41 541.367C1032.26 541.068 1033.02 540.618 1033.68 540.02C1034.34 539.421 1034.88 538.672 1035.28 537.773C1035.7 536.862 1035.91 535.775 1035.91 534.512H1039.95V556.367H1044.03V560ZM1069.03 552.832C1069.03 554.173 1068.79 555.319 1068.31 556.27C1067.83 557.207 1067.16 557.988 1066.32 558.613C1065.48 559.238 1064.5 559.701 1063.37 560C1062.23 560.299 1061.03 560.449 1059.75 560.449C1058.45 560.449 1057.24 560.299 1056.12 560C1055 559.701 1054.02 559.238 1053.17 558.613C1052.33 557.988 1051.66 557.207 1051.18 556.27C1050.71 555.319 1050.48 554.173 1050.48 552.832C1050.48 552.142 1050.6 551.445 1050.85 550.742C1051.11 550.039 1051.47 549.388 1051.94 548.789C1052.42 548.177 1053 547.676 1053.68 547.285C1054.37 546.882 1055.12 546.628 1055.95 546.523C1055.23 546.445 1054.59 546.217 1054.03 545.84C1053.47 545.462 1053 545.013 1052.61 544.492C1052.23 543.971 1051.93 543.411 1051.71 542.812C1051.5 542.214 1051.39 541.634 1051.39 541.074C1051.39 539.928 1051.62 538.919 1052.06 538.047C1052.51 537.161 1053.13 536.426 1053.89 535.84C1054.68 535.254 1055.57 534.818 1056.59 534.531C1057.61 534.232 1058.66 534.082 1059.75 534.082C1060.85 534.082 1061.9 534.232 1062.92 534.531C1063.93 534.818 1064.83 535.254 1065.59 535.84C1066.36 536.426 1066.97 537.161 1067.43 538.047C1067.89 538.919 1068.11 539.928 1068.11 541.074C1068.11 541.634 1068 542.214 1067.78 542.812C1067.57 543.411 1067.27 543.971 1066.88 544.492C1066.51 545.013 1066.03 545.462 1065.46 545.84C1064.88 546.217 1064.23 546.445 1063.5 546.523C1064.34 546.628 1065.09 546.882 1065.77 547.285C1066.45 547.676 1067.03 548.177 1067.51 548.789C1067.99 549.388 1068.36 550.039 1068.62 550.742C1068.89 551.445 1069.03 552.142 1069.03 552.832ZM1064.07 541.328C1064.07 540.208 1063.69 539.329 1062.92 538.691C1062.16 538.04 1061.11 537.715 1059.75 537.715C1058.39 537.715 1057.33 538.04 1056.57 538.691C1055.82 539.329 1055.44 540.208 1055.44 541.328C1055.44 542.396 1055.79 543.236 1056.49 543.848C1057.2 544.46 1058.28 544.766 1059.75 544.766C1061.23 544.766 1062.31 544.46 1063.02 543.848C1063.72 543.236 1064.07 542.396 1064.07 541.328ZM1064.99 552.598C1064.99 551.829 1064.85 551.178 1064.56 550.645C1064.29 550.111 1063.91 549.681 1063.43 549.355C1062.94 549.017 1062.39 548.776 1061.77 548.633C1061.14 548.477 1060.47 548.398 1059.75 548.398C1059.04 548.398 1058.36 548.477 1057.72 548.633C1057.1 548.776 1056.54 549.017 1056.06 549.355C1055.59 549.681 1055.22 550.111 1054.93 550.645C1054.66 551.178 1054.52 551.829 1054.52 552.598C1054.52 553.314 1054.66 553.939 1054.93 554.473C1055.22 555.007 1055.59 555.449 1056.06 555.801C1056.54 556.152 1057.1 556.406 1057.72 556.562C1058.36 556.719 1059.04 556.797 1059.75 556.797C1060.47 556.797 1061.14 556.719 1061.77 556.562C1062.39 556.406 1062.94 556.152 1063.43 555.801C1063.91 555.449 1064.29 555.007 1064.56 554.473C1064.85 553.939 1064.99 553.314 1064.99 552.598ZM1095.3 541.797H1112.55V545.195H1099.34V560H1095.3V541.797ZM1133.43 541.797V560H1129.38V545.449H1122.51V554.609C1122.51 555.664 1122.35 556.569 1122.04 557.324C1121.73 558.066 1121.31 558.665 1120.79 559.121C1120.28 559.577 1119.68 559.909 1118.97 560.117C1118.28 560.339 1117.54 560.449 1116.75 560.449C1115.65 560.449 1114.85 560.286 1114.34 559.961L1114.85 556.484C1115.05 556.589 1115.26 556.667 1115.5 556.719C1115.72 556.771 1116.01 556.797 1116.38 556.797C1117.77 556.797 1118.46 556.068 1118.46 554.609V541.797H1133.43ZM1138.97 541.797H1143.02V554.316L1150.18 541.797H1155.26V560H1151.22V546.758L1143.66 560H1138.97V541.797ZM1166.92 546.035C1166.71 545.553 1166.48 545.228 1166.22 545.059C1165.97 544.889 1165.7 544.805 1165.42 544.805C1165.12 544.805 1164.83 544.902 1164.56 545.098C1164.3 545.293 1164.08 545.625 1163.89 546.094C1163.71 546.562 1163.56 547.194 1163.45 547.988C1163.34 548.77 1163.29 549.733 1163.29 550.879C1163.29 552.051 1163.34 553.027 1163.45 553.809C1163.56 554.577 1163.71 555.202 1163.89 555.684C1164.08 556.165 1164.3 556.504 1164.56 556.699C1164.83 556.895 1165.12 556.992 1165.42 556.992C1165.7 556.992 1165.97 556.908 1166.22 556.738C1166.48 556.569 1166.71 556.243 1166.92 555.762V546.035ZM1166.92 567.285V558.77C1166.71 559.329 1166.37 559.746 1165.89 560.02C1165.4 560.306 1164.9 560.449 1164.36 560.449C1163.65 560.449 1162.98 560.247 1162.37 559.844C1161.76 559.44 1161.22 558.841 1160.75 558.047C1160.28 557.24 1159.92 556.243 1159.66 555.059C1159.38 553.874 1159.25 552.48 1159.25 550.879C1159.25 549.277 1159.38 547.884 1159.66 546.699C1159.92 545.514 1160.28 544.531 1160.75 543.75C1161.22 542.956 1161.76 542.363 1162.37 541.973C1162.98 541.569 1163.65 541.367 1164.36 541.367C1164.9 541.367 1165.4 541.51 1165.89 541.797C1166.37 542.07 1166.71 542.487 1166.92 543.047V534.512H1170.96V543.047C1171.19 542.487 1171.53 542.07 1172 541.797C1172.48 541.51 1172.99 541.367 1173.52 541.367C1174.25 541.367 1174.92 541.569 1175.54 541.973C1176.15 542.363 1176.69 542.956 1177.16 543.75C1177.62 544.531 1177.99 545.514 1178.25 546.699C1178.52 547.884 1178.66 549.277 1178.66 550.879C1178.66 552.48 1178.52 553.874 1178.25 555.059C1177.99 556.243 1177.62 557.24 1177.16 558.047C1176.69 558.841 1176.15 559.44 1175.54 559.844C1174.92 560.247 1174.25 560.449 1173.52 560.449C1172.99 560.449 1172.48 560.306 1172 560.02C1171.53 559.746 1171.19 559.329 1170.96 558.77V567.285H1166.92ZM1170.96 555.762C1171.19 556.243 1171.42 556.569 1171.67 556.738C1171.93 556.908 1172.2 556.992 1172.49 556.992C1172.79 556.992 1173.07 556.895 1173.33 556.699C1173.6 556.504 1173.83 556.165 1174.01 555.684C1174.19 555.202 1174.34 554.577 1174.44 553.809C1174.56 553.027 1174.62 552.051 1174.62 550.879C1174.62 549.733 1174.56 548.77 1174.44 547.988C1174.34 547.194 1174.19 546.562 1174.01 546.094C1173.83 545.625 1173.6 545.293 1173.33 545.098C1173.07 544.902 1172.79 544.805 1172.49 544.805C1172.2 544.805 1171.93 544.889 1171.67 545.059C1171.42 545.228 1171.19 545.553 1170.96 546.035V555.762ZM1200.36 550.918C1200.36 552.337 1200.13 553.626 1199.68 554.785C1199.23 555.944 1198.59 556.947 1197.74 557.793C1196.91 558.626 1195.91 559.277 1194.73 559.746C1193.56 560.215 1192.25 560.449 1190.81 560.449C1189.39 560.449 1188.09 560.215 1186.92 559.746C1185.75 559.277 1184.74 558.626 1183.89 557.793C1183.06 556.947 1182.42 555.944 1181.96 554.785C1181.52 553.626 1181.3 552.337 1181.3 550.918C1181.3 549.538 1181.52 548.262 1181.96 547.09C1182.42 545.905 1183.06 544.889 1183.89 544.043C1184.74 543.184 1185.75 542.526 1186.92 542.07C1188.09 541.602 1189.39 541.367 1190.81 541.367C1192.25 541.367 1193.56 541.602 1194.73 542.07C1195.91 542.526 1196.91 543.184 1197.74 544.043C1198.59 544.889 1199.23 545.905 1199.68 547.09C1200.13 548.262 1200.36 549.538 1200.36 550.918ZM1196.34 550.918C1196.34 550.098 1196.21 549.323 1195.95 548.594C1195.7 547.852 1195.33 547.22 1194.85 546.699C1194.37 546.178 1193.78 545.768 1193.09 545.469C1192.42 545.156 1191.65 545 1190.81 545C1189.95 545 1189.18 545.156 1188.5 545.469C1187.83 545.768 1187.25 546.178 1186.79 546.699C1186.32 547.22 1185.95 547.852 1185.69 548.594C1185.44 549.323 1185.32 550.098 1185.32 550.918C1185.32 551.777 1185.44 552.559 1185.69 553.262C1185.95 553.965 1186.32 554.583 1186.79 555.117C1187.25 555.651 1187.83 556.068 1188.5 556.367C1189.18 556.654 1189.95 556.797 1190.81 556.797C1191.65 556.797 1192.42 556.654 1193.09 556.367C1193.78 556.068 1194.37 555.651 1194.85 555.117C1195.33 554.583 1195.7 553.965 1195.95 553.262C1196.21 552.559 1196.34 551.777 1196.34 550.918ZM1221.69 555C1221.69 556.654 1221.08 557.904 1219.85 558.75C1218.64 559.583 1216.9 560 1214.64 560H1204.48V541.797H1213.91C1214.75 541.797 1215.57 541.862 1216.39 541.992C1217.23 542.109 1217.97 542.344 1218.62 542.695C1219.27 543.034 1219.8 543.516 1220.2 544.141C1220.61 544.766 1220.81 545.573 1220.81 546.562C1220.81 547.474 1220.52 548.294 1219.95 549.023C1219.38 549.753 1218.49 550.293 1217.29 550.645C1218.78 550.853 1219.88 551.335 1220.59 552.09C1221.32 552.832 1221.69 553.802 1221.69 555ZM1216.8 547.031C1216.8 546.641 1216.72 546.328 1216.55 546.094C1216.39 545.846 1216.18 545.658 1215.91 545.527C1215.65 545.384 1215.34 545.293 1214.99 545.254C1214.65 545.215 1214.31 545.195 1213.97 545.195H1208.52V548.848H1213.97C1214.31 548.848 1214.65 548.828 1214.99 548.789C1215.34 548.737 1215.65 548.646 1215.91 548.516C1216.18 548.385 1216.39 548.203 1216.55 547.969C1216.72 547.721 1216.8 547.409 1216.8 547.031ZM1217.68 554.395C1217.68 553.757 1217.42 553.281 1216.88 552.969C1216.35 552.643 1215.6 552.48 1214.64 552.48H1208.52V556.367H1214.64C1215.6 556.367 1216.35 556.204 1216.88 555.879C1217.42 555.553 1217.68 555.059 1217.68 554.395Z" fill="white"/>
<path d="M937.52 714.402C936.348 715.574 935.111 716.375 933.809 716.805C932.52 717.234 931.12 717.449 929.609 717.449C928.086 717.449 926.699 717.221 925.449 716.766C924.212 716.31 923.158 715.672 922.285 714.852C921.426 714.018 920.762 713.016 920.293 711.844C919.837 710.672 919.609 709.363 919.609 707.918C919.609 706.538 919.837 705.262 920.293 704.09C920.762 702.905 921.387 701.896 922.168 701.062C922.962 700.216 923.893 699.559 924.961 699.09C926.029 698.608 927.161 698.367 928.359 698.367C929.609 698.367 930.697 698.628 931.621 699.148C932.546 699.669 933.216 700.431 933.633 701.434V698.797H937.246V707.273H933.633C933.633 705.672 933.19 704.396 932.305 703.445C931.432 702.482 930.293 702 928.887 702C928.327 702 927.734 702.117 927.109 702.352C926.497 702.573 925.931 702.924 925.41 703.406C924.902 703.888 924.479 704.5 924.141 705.242C923.802 705.984 923.633 706.876 923.633 707.918C923.633 708.934 923.796 709.812 924.121 710.555C924.447 711.284 924.87 711.889 925.391 712.371C925.924 712.84 926.549 713.198 927.266 713.445C927.995 713.68 928.743 713.797 929.512 713.797C930.827 713.797 931.966 713.595 932.93 713.191C933.906 712.775 934.746 712.228 935.449 711.551L937.52 714.402ZM960.508 707.918C960.508 709.337 960.28 710.626 959.824 711.785C959.382 712.944 958.737 713.947 957.891 714.793C957.057 715.626 956.055 716.277 954.883 716.746C953.711 717.215 952.402 717.449 950.957 717.449C949.538 717.449 948.242 717.215 947.07 716.746C945.898 716.277 944.889 715.626 944.043 714.793C943.21 713.947 942.565 712.944 942.109 711.785C941.667 710.626 941.445 709.337 941.445 707.918C941.445 706.538 941.667 705.262 942.109 704.09C942.565 702.905 943.21 701.889 944.043 701.043C944.889 700.184 945.898 699.526 947.07 699.07C948.242 698.602 949.538 698.367 950.957 698.367C952.402 698.367 953.711 698.602 954.883 699.07C956.055 699.526 957.057 700.184 957.891 701.043C958.737 701.889 959.382 702.905 959.824 704.09C960.28 705.262 960.508 706.538 960.508 707.918ZM956.484 707.918C956.484 707.098 956.354 706.323 956.094 705.594C955.846 704.852 955.482 704.22 955 703.699C954.518 703.178 953.932 702.768 953.242 702.469C952.565 702.156 951.803 702 950.957 702C950.098 702 949.329 702.156 948.652 702.469C947.975 702.768 947.402 703.178 946.934 703.699C946.465 704.22 946.1 704.852 945.84 705.594C945.592 706.323 945.469 707.098 945.469 707.918C945.469 708.777 945.592 709.559 945.84 710.262C946.1 710.965 946.465 711.583 946.934 712.117C947.402 712.651 947.975 713.068 948.652 713.367C949.329 713.654 950.098 713.797 950.957 713.797C951.803 713.797 952.565 713.654 953.242 713.367C953.932 713.068 954.518 712.651 955 712.117C955.482 711.583 955.846 710.965 956.094 710.262C956.354 709.559 956.484 708.777 956.484 707.918ZM981.113 703.797C981.113 704.682 980.768 705.516 980.078 706.297C979.401 707.065 978.424 707.553 977.148 707.762C978.346 707.996 979.31 708.504 980.039 709.285C980.781 710.053 981.152 710.906 981.152 711.844C981.152 712.716 980.918 713.504 980.449 714.207C979.98 714.897 979.336 715.483 978.516 715.965C977.708 716.447 976.751 716.811 975.645 717.059C974.538 717.319 973.333 717.449 972.031 717.449C969.948 717.449 968.229 717.13 966.875 716.492C965.534 715.841 964.453 714.865 963.633 713.562L966.797 711.434C967.161 712.137 967.819 712.71 968.77 713.152C969.72 713.582 970.833 713.797 972.109 713.797C973.607 713.797 974.811 713.595 975.723 713.191C976.647 712.775 977.109 712.215 977.109 711.512C977.109 711.017 976.771 710.555 976.094 710.125C975.417 709.695 974.395 709.48 973.027 709.48H970.137V705.848H972.988C974.355 705.848 975.378 705.672 976.055 705.32C976.732 704.969 977.07 704.572 977.07 704.129C977.07 703.478 976.634 702.964 975.762 702.586C974.902 702.195 973.75 702 972.305 702C969.831 702 968.099 702.775 967.109 704.324L964.16 702.273C964.954 700.971 966.003 699.995 967.305 699.344C968.62 698.693 970.273 698.367 972.266 698.367C973.529 698.367 974.694 698.497 975.762 698.758C976.842 699.005 977.773 699.363 978.555 699.832C979.349 700.288 979.974 700.861 980.43 701.551C980.885 702.228 981.113 702.977 981.113 703.797ZM985.508 713.367C986.25 712.964 986.855 712.501 987.324 711.98C987.793 711.46 988.158 710.802 988.418 710.008C988.691 709.201 988.88 708.224 988.984 707.078C989.089 705.932 989.141 704.559 989.141 702.957V698.797H1000.74V713.367H1003.71V723.23H1000.06V717H989.141V723.23H985.508V713.367ZM993.184 703.758C993.184 704.5 993.158 705.34 993.105 706.277C993.053 707.215 992.923 708.139 992.715 709.051C992.52 709.949 992.214 710.789 991.797 711.57C991.393 712.339 990.814 712.938 990.059 713.367H996.699V702.195H993.184V703.758ZM1007.27 711.766C1007.27 710.698 1007.55 709.767 1008.12 708.973C1008.7 708.165 1009.45 707.495 1010.37 706.961C1011.31 706.427 1012.38 706.03 1013.57 705.77C1014.79 705.496 1016.02 705.359 1017.27 705.359C1017.96 705.359 1018.55 705.372 1019.04 705.398C1019.54 705.424 1020.04 705.464 1020.55 705.516V704.793C1020.55 703.842 1020.18 703.133 1019.43 702.664C1018.7 702.195 1017.74 701.961 1016.54 701.961C1015.45 701.961 1014.34 702.117 1013.2 702.43C1012.07 702.729 1011 703.172 1009.98 703.758L1008.34 700.594C1009.54 699.904 1010.82 699.363 1012.19 698.973C1013.57 698.569 1015.02 698.367 1016.54 698.367C1017.53 698.367 1018.5 698.478 1019.45 698.699C1020.42 698.921 1021.28 699.285 1022.03 699.793C1022.8 700.301 1023.41 700.965 1023.87 701.785C1024.32 702.592 1024.55 703.595 1024.55 704.793V717H1020.55V714.324C1019.91 715.314 1018.96 716.082 1017.71 716.629C1016.48 717.176 1015.14 717.449 1013.71 717.449C1012.83 717.449 1011.99 717.326 1011.19 717.078C1010.41 716.844 1009.73 716.486 1009.16 716.004C1008.59 715.522 1008.12 714.93 1007.77 714.227C1007.43 713.51 1007.27 712.69 1007.27 711.766ZM1014.75 713.836C1015.54 713.836 1016.28 713.738 1016.97 713.543C1017.68 713.335 1018.29 713.055 1018.83 712.703C1019.36 712.339 1019.78 711.902 1020.08 711.395C1020.39 710.887 1020.55 710.327 1020.55 709.715V709.031C1019.91 708.927 1019.31 708.868 1018.75 708.855C1018.19 708.842 1017.7 708.836 1017.27 708.836C1015.29 708.836 1013.79 709.096 1012.77 709.617C1011.77 710.138 1011.27 710.783 1011.27 711.551C1011.27 713.074 1012.43 713.836 1014.75 713.836ZM1046.43 717H1042.38V709.48H1034.18V717H1030.14V698.797H1034.18V705.848H1042.38V698.797H1046.43V717ZM1091.02 712C1091.02 713.654 1090.4 714.904 1089.18 715.75C1087.97 716.583 1086.23 717 1083.96 717H1073.81V698.797H1083.24C1084.08 698.797 1084.9 698.862 1085.72 698.992C1086.56 699.109 1087.3 699.344 1087.95 699.695C1088.6 700.034 1089.13 700.516 1089.53 701.141C1089.93 701.766 1090.14 702.573 1090.14 703.562C1090.14 704.474 1089.85 705.294 1089.28 706.023C1088.7 706.753 1087.82 707.293 1086.62 707.645C1088.11 707.853 1089.21 708.335 1089.92 709.09C1090.65 709.832 1091.02 710.802 1091.02 712ZM1086.13 704.031C1086.13 703.641 1086.05 703.328 1085.88 703.094C1085.72 702.846 1085.51 702.658 1085.23 702.527C1084.97 702.384 1084.67 702.293 1084.32 702.254C1083.98 702.215 1083.64 702.195 1083.3 702.195H1077.85V705.848H1083.3C1083.64 705.848 1083.98 705.828 1084.32 705.789C1084.67 705.737 1084.97 705.646 1085.23 705.516C1085.51 705.385 1085.72 705.203 1085.88 704.969C1086.05 704.721 1086.13 704.409 1086.13 704.031ZM1087.01 711.395C1087.01 710.757 1086.74 710.281 1086.21 709.969C1085.68 709.643 1084.93 709.48 1083.96 709.48H1077.85V713.367H1083.96C1084.93 713.367 1085.68 713.204 1086.21 712.879C1086.74 712.553 1087.01 712.059 1087.01 711.395ZM1134.2 698.484C1134.2 699.682 1133.88 700.906 1133.24 702.156C1132.6 703.406 1131.73 704.591 1130.61 705.711L1122.64 713.367H1130.12V709.871H1133.77V717H1117.36V713.191L1127.64 703.367C1128.52 702.456 1129.16 701.603 1129.55 700.809C1129.95 700.001 1130.16 699.227 1130.16 698.484C1130.16 697.82 1130.03 697.247 1129.77 696.766C1129.52 696.284 1129.19 695.893 1128.79 695.594C1128.4 695.281 1127.95 695.06 1127.44 694.93C1126.93 694.786 1126.43 694.715 1125.92 694.715C1124.32 694.715 1123.05 695.184 1122.13 696.121C1121.22 697.059 1120.76 698.445 1120.76 700.281H1116.97C1116.97 697.404 1117.73 695.151 1119.26 693.523C1120.79 691.896 1123.01 691.082 1125.92 691.082C1127.01 691.082 1128.06 691.245 1129.06 691.57C1130.07 691.883 1130.94 692.345 1131.7 692.957C1132.47 693.569 1133.07 694.344 1133.52 695.281C1133.97 696.219 1134.2 697.286 1134.2 698.484ZM1137.71 704.246C1137.71 702.54 1137.9 700.893 1138.26 699.305C1138.63 697.716 1139.19 696.316 1139.96 695.105C1140.73 693.895 1141.73 692.924 1142.97 692.195C1144.22 691.453 1145.72 691.082 1147.48 691.082C1149.24 691.082 1150.74 691.453 1151.97 692.195C1153.22 692.924 1154.24 693.895 1155.02 695.105C1155.8 696.316 1156.37 697.716 1156.72 699.305C1157.07 700.893 1157.25 702.54 1157.25 704.246C1157.25 705.952 1157.07 707.599 1156.72 709.188C1156.37 710.763 1155.81 712.169 1155.04 713.406C1154.27 714.63 1153.26 715.613 1152.01 716.355C1150.77 717.085 1149.26 717.449 1147.48 717.449C1145.7 717.449 1144.18 717.085 1142.93 716.355C1141.69 715.613 1140.68 714.63 1139.9 713.406C1139.13 712.169 1138.58 710.763 1138.24 709.188C1137.89 707.599 1137.71 705.952 1137.71 704.246ZM1141.76 704.246C1141.76 705.444 1141.84 706.603 1141.99 707.723L1151.99 697.684C1151.55 696.798 1150.96 696.082 1150.23 695.535C1149.52 694.988 1148.6 694.715 1147.48 694.715C1145.62 694.715 1144.2 695.555 1143.22 697.234C1142.25 698.914 1141.76 701.251 1141.76 704.246ZM1147.48 713.797C1148.63 713.797 1149.56 713.517 1150.29 712.957C1151.04 712.397 1151.61 711.668 1152.03 710.77C1152.46 709.858 1152.76 708.829 1152.93 707.684C1153.11 706.538 1153.2 705.392 1153.2 704.246C1153.2 703.152 1153.12 702.085 1152.97 701.043L1143.05 711.004C1143.49 711.85 1144.06 712.527 1144.75 713.035C1145.45 713.543 1146.36 713.797 1147.48 713.797ZM1159.55 704.246C1159.55 702.54 1159.73 700.893 1160.1 699.305C1160.46 697.716 1161.03 696.316 1161.8 695.105C1162.57 693.895 1163.57 692.924 1164.8 692.195C1166.05 691.453 1167.56 691.082 1169.32 691.082C1171.07 691.082 1172.57 691.453 1173.81 692.195C1175.06 692.924 1176.07 693.895 1176.86 695.105C1177.64 696.316 1178.2 697.716 1178.55 699.305C1178.91 700.893 1179.08 702.54 1179.08 704.246C1179.08 705.952 1178.91 707.599 1178.55 709.188C1178.2 710.763 1177.64 712.169 1176.88 713.406C1176.11 714.63 1175.1 715.613 1173.85 716.355C1172.61 717.085 1171.1 717.449 1169.32 717.449C1167.53 717.449 1166.02 717.085 1164.77 716.355C1163.53 715.613 1162.52 714.63 1161.74 713.406C1160.97 712.169 1160.42 710.763 1160.08 709.188C1159.73 707.599 1159.55 705.952 1159.55 704.246ZM1163.59 704.246C1163.59 705.444 1163.67 706.603 1163.83 707.723L1173.83 697.684C1173.39 696.798 1172.8 696.082 1172.07 695.535C1171.35 694.988 1170.44 694.715 1169.32 694.715C1167.45 694.715 1166.04 695.555 1165.06 697.234C1164.08 698.914 1163.59 701.251 1163.59 704.246ZM1169.32 713.797C1170.46 713.797 1171.4 713.517 1172.13 712.957C1172.87 712.397 1173.45 711.668 1173.87 710.77C1174.3 709.858 1174.6 708.829 1174.77 707.684C1174.95 706.538 1175.04 705.392 1175.04 704.246C1175.04 703.152 1174.96 702.085 1174.8 701.043L1164.88 711.004C1165.33 711.85 1165.89 712.527 1166.58 713.035C1167.29 713.543 1168.2 713.797 1169.32 713.797ZM1181.72 700.203C1181.72 698.784 1181.95 697.514 1182.4 696.395C1182.87 695.275 1183.51 694.324 1184.32 693.543C1185.14 692.749 1186.1 692.143 1187.21 691.727C1188.31 691.297 1189.49 691.082 1190.74 691.082C1192.67 691.082 1194.25 691.453 1195.49 692.195C1196.73 692.924 1197.7 693.901 1198.42 695.125C1199.15 696.349 1199.65 697.749 1199.94 699.324C1200.24 700.9 1200.39 702.54 1200.39 704.246C1200.39 705.978 1200.18 707.638 1199.75 709.227C1199.32 710.815 1198.66 712.221 1197.77 713.445C1196.9 714.669 1195.8 715.646 1194.47 716.375C1193.14 717.091 1191.58 717.449 1189.79 717.449C1188.51 717.449 1187.3 717.254 1186.17 716.863C1185.04 716.473 1184.04 715.906 1183.18 715.164L1185.39 712.195C1186.05 712.781 1186.74 713.198 1187.44 713.445C1188.16 713.68 1188.94 713.797 1189.79 713.797C1190.88 713.797 1191.85 713.582 1192.7 713.152C1193.55 712.71 1194.27 712.091 1194.84 711.297C1195.42 710.49 1195.85 709.539 1196.13 708.445C1196.43 707.352 1196.58 706.147 1196.58 704.832C1196.19 706.199 1195.44 707.312 1194.32 708.172C1193.2 709.018 1191.71 709.441 1189.86 709.441C1188.77 709.441 1187.73 709.207 1186.74 708.738C1185.76 708.27 1184.9 707.632 1184.14 706.824C1183.4 706.004 1182.81 705.027 1182.36 703.895C1181.93 702.762 1181.72 701.531 1181.72 700.203ZM1185.74 700.203C1185.74 701.805 1186.18 703.146 1187.07 704.227C1187.96 705.307 1189.23 705.848 1190.88 705.848C1192.47 705.848 1193.74 705.346 1194.71 704.344C1195.67 703.341 1196.15 702.026 1196.15 700.398C1196.15 699.604 1196.04 698.868 1195.82 698.191C1195.61 697.501 1195.29 696.896 1194.84 696.375C1194.41 695.854 1193.85 695.451 1193.16 695.164C1192.49 694.865 1191.67 694.715 1190.7 694.715C1189.27 694.715 1188.09 695.197 1187.15 696.16C1186.21 697.124 1185.74 698.471 1185.74 700.203ZM1226.66 698.797H1243.91V702.195H1230.7V717H1226.66V698.797ZM1266.21 707.918C1266.21 709.337 1265.98 710.626 1265.53 711.785C1265.08 712.944 1264.44 713.947 1263.59 714.793C1262.76 715.626 1261.76 716.277 1260.59 716.746C1259.41 717.215 1258.11 717.449 1256.66 717.449C1255.24 717.449 1253.95 717.215 1252.77 716.746C1251.6 716.277 1250.59 715.626 1249.75 714.793C1248.91 713.947 1248.27 712.944 1247.81 711.785C1247.37 710.626 1247.15 709.337 1247.15 707.918C1247.15 706.538 1247.37 705.262 1247.81 704.09C1248.27 702.905 1248.91 701.889 1249.75 701.043C1250.59 700.184 1251.6 699.526 1252.77 699.07C1253.95 698.602 1255.24 698.367 1256.66 698.367C1258.11 698.367 1259.41 698.602 1260.59 699.07C1261.76 699.526 1262.76 700.184 1263.59 701.043C1264.44 701.889 1265.08 702.905 1265.53 704.09C1265.98 705.262 1266.21 706.538 1266.21 707.918ZM1262.19 707.918C1262.19 707.098 1262.06 706.323 1261.8 705.594C1261.55 704.852 1261.18 704.22 1260.7 703.699C1260.22 703.178 1259.64 702.768 1258.95 702.469C1258.27 702.156 1257.51 702 1256.66 702C1255.8 702 1255.03 702.156 1254.36 702.469C1253.68 702.768 1253.11 703.178 1252.64 703.699C1252.17 704.22 1251.8 704.852 1251.54 705.594C1251.3 706.323 1251.17 707.098 1251.17 707.918C1251.17 708.777 1251.3 709.559 1251.54 710.262C1251.8 710.965 1252.17 711.583 1252.64 712.117C1253.11 712.651 1253.68 713.068 1254.36 713.367C1255.03 713.654 1255.8 713.797 1256.66 713.797C1257.51 713.797 1258.27 713.654 1258.95 713.367C1259.64 713.068 1260.22 712.651 1260.7 712.117C1261.18 711.583 1261.55 710.965 1261.8 710.262C1262.06 709.559 1262.19 708.777 1262.19 707.918ZM1269.38 713.367C1270.12 712.964 1270.72 712.501 1271.19 711.98C1271.66 711.46 1272.02 710.802 1272.29 710.008C1272.56 709.201 1272.75 708.224 1272.85 707.078C1272.96 705.932 1273.01 704.559 1273.01 702.957V698.797H1284.61V713.367H1287.58V723.23H1283.93V717H1273.01V723.23H1269.38V713.367ZM1277.05 703.758C1277.05 704.5 1277.02 705.34 1276.97 706.277C1276.92 707.215 1276.79 708.139 1276.58 709.051C1276.39 709.949 1276.08 710.789 1275.66 711.57C1275.26 712.339 1274.68 712.938 1273.93 713.367H1280.57V702.195H1277.05V703.758ZM1309.26 698.797L1301.41 720.555C1300.82 722.13 1299.97 723.217 1298.85 723.816C1297.73 724.415 1296.39 724.715 1294.84 724.715C1294.31 724.715 1293.74 724.663 1293.12 724.559C1292.51 724.454 1291.88 724.279 1291.21 724.031L1292.05 720.32C1292.61 720.529 1293.12 720.672 1293.59 720.75C1294.06 720.841 1294.48 720.887 1294.84 720.887C1296.05 720.887 1296.88 720.34 1297.32 719.246L1298.05 717.488L1291.09 698.797H1295.29L1300.29 712.566L1304.92 698.797H1309.26Z" fill="white"/>
</svg>
